<svg width="303" height="155" viewBox="0 0 303 155" fill="current" xmlns="http://www.w3.org/2000/svg">
<path d="M3.79609 17.0145L14.5818 6.22881L14.8001 6.48917L15.4742 6.7505L4.36305 17.8617L3.79747 17.1767L3.79609 17.0145Z" fill="#22AAA8"/>
<path d="M4.47504 26.3355L4.82991 26.2652L5.00326 25.8073L27.2231 3.5875L28.814 3.41076L1.90743 30.3173L1.76294 29.5949L2.67699 28.1336L4.47504 26.3355Z" fill="#22AAA8"/>
<path d="M7.71721 34.5075L6.68673 34.1239L30.7296 10.0809L30.9751 10.8006L31.3321 10.8927L7.71721 34.5075Z" fill="#22AAA8"/>
<path d="M12.527 39.6978L12.2891 38.5214L33.5379 17.2726L33.6942 18.5305L12.527 39.6978Z" fill="#22AAA8"/>
<path d="M16.9945 45.2303L15.9117 44.8989L45.5623 15.2482L46.0123 16.2124L16.9945 45.2303Z" fill="#22AAA8"/>
<path d="M19.5824 62.6423L19.309 61.5016L53.4234 27.3872L53.5355 28.6893L19.5824 62.6423Z" fill="#22AAA8"/>
<path d="M25.983 66.2418L24.8842 65.9264L71.0412 19.7694L72.617 18.705L72.7378 18.0727L85.5897 5.22088L86.8587 5.36608L25.983 66.2418Z" fill="#22AAA8"/>
<path d="M35.8092 66.4156L34.1939 67.5175L33.2626 67.5479L94.3964 6.41419L95.0876 7.13718L35.8092 66.4156Z" fill="#22AAA8"/>
<path d="M52.8102 59.4145L47.7598 64.4649L47.0286 63.9955H46.815L98.9438 11.8668L99.3645 12.8603L53.4863 58.7384L52.7677 58.6922L52.8102 59.4145Z" fill="#22AAA8"/>
<path d="M59.8275 62.3973L59.2469 61.5636L103.65 17.1608L104.309 17.5411L103.795 18.4298L59.8275 62.3973Z" fill="#22AAA8"/>
<path d="M57.6994 74.5253L57.0226 73.7879L103.504 27.3061L103.459 27.419L104.912 27.3131L57.6994 74.5253Z" fill="#22AAA8"/>
<path d="M58.1526 84.0722L58.9965 81.814L112.831 27.9796L113.277 28.3197L114.897 27.3276L58.1526 84.0722Z" fill="#22AAA8"/>
<path d="M46.423 105.802L45.3688 105.442L121.427 29.3837L122.181 30.0436L46.423 105.802Z" fill="#22AAA8"/>
<path d="M58.8128 103.412L58.1509 102.66L108.931 51.8793L108.854 52.2149L110.706 51.4559L110.713 51.5113L58.8128 103.412Z" fill="#22AAA8"/>
<path d="M66.6783 105.546L65.7501 105.06L118.693 52.1172L120.716 51.5088L66.6783 105.546Z" fill="#22AAA8"/>
<path d="M73.354 108.871L72.8903 108.264L72.2931 108.982L71.9729 108.838L125.737 55.0738L126.345 55.8796L73.354 108.871Z" fill="#22AAA8"/>
<path d="M83.5539 108.671L82.7985 108.012L133.315 57.4957L133.541 57.3563L134.174 58.0508L95.251 96.9738L95.0272 96.7059L94.9517 97.273L83.5539 108.671Z" fill="#22AAA8"/>
<path d="M92.2031 110.022L91.1099 109.752L91.1092 109.701L93.1755 107.635L92.9926 108.578L93.4886 107.94L94.0291 108.196L92.2031 110.022Z" fill="#22AAA8"/>
<path d="M105.234 106.991L105.22 106.979L104.887 105.923L148.645 62.1657L150.218 62.0072L105.234 106.991Z" fill="#22AAA8"/>
<path d="M108.346 113.879L107.844 112.967L112.483 108.327L111.954 110.271L108.346 113.879Z" fill="#22AAA8"/>
<path d="M116.503 105.722L115.093 107.132L114.887 106.553L113.935 107.495L113.557 107.254L155.37 65.4402L155.331 66.8941L118.094 104.131L115.696 105.248L116.503 105.722Z" fill="#22AAA8"/>
<path d="M121.206 111.019L120.807 110.003L157.256 73.5543L157.288 74.3693L157.845 74.38L121.206 111.019Z" fill="#22AAA8"/>
<path d="M127.051 115.174L126.739 114.215L126.64 114.171L169.348 71.4629L170.107 72.1178L127.051 115.174Z" fill="#22AAA8"/>
<path d="M130.845 121.38L130.586 121.33L129.354 121.457L176.853 73.9574L177.916 74.2985L177.921 74.3037L130.845 121.38Z" fill="#22AAA8"/>
<path d="M145.074 127.151L144.078 127.372L143.678 127.133L145.633 125.177L145.88 125.317L146.241 125.984L145.074 127.151Z" fill="#22AAA8"/>
<path d="M154.366 127.859L152.946 127.865L189.923 90.8879L191.365 90.8597L154.366 127.859Z" fill="#22AAA8"/>
<path d="M163.72 128.505L161.902 128.908L200.172 90.6381L200.855 91.3695L163.72 128.505Z" fill="#22AAA8"/>
<path d="M175.065 127.159L173.602 127.208L176.35 124.461L176.702 125.522L175.065 127.159Z" fill="#22AAA8"/>
<path d="M187.455 124.77L186.145 124.821L186.073 124.738L206.804 104.006L207.212 105.013L187.455 124.77Z" fill="#22AAA8"/>
<path d="M192.066 130.159L191.466 129.344L211.461 109.349L212.24 109.316L212.194 110.031L210.899 111.325L210.003 111.543L209.757 112.468L192.066 130.159Z" fill="#22AAA8"/>
<path d="M199.62 132.605L198.007 132.804L207.193 123.617L207.058 124.366L207.495 124.73L199.62 132.605Z" fill="#22AAA8"/>
<path d="M240.094 102.131L239.924 101.989L236.948 104.124L236.675 104.135L256.466 84.3448L257.276 84.9487L240.094 102.131Z" fill="#22AAA8"/>
<path d="M244.976 107.249L244.663 106.147L257.326 93.4841L257.454 94.7708L244.976 107.249Z" fill="#22AAA8"/>
<path d="M250.138 112.086L249.143 111.667L257.377 103.434L258.272 103.953L250.138 112.086Z" fill="#22AAA8"/>
<path d="M257.29 124.935L257.055 123.755L263.197 117.613L263.083 119.022L263.134 119.091L257.29 124.935Z" fill="#22AAA8"/>
<path d="M258.289 133.936L256.878 134.234L256.758 134.052L265.223 125.587L266.384 125.841L258.289 133.936Z" fill="#22AAA8"/>
<path d="M264.27 137.955L263.629 137.594L263.129 137.681L270.984 129.827L271.799 130.426L264.27 137.955Z" fill="#22AAA8"/>
<path d="M265.401 145.41L266.613 144.197L267.02 144.375L266.945 145.28L265.775 146.449L265.35 146.197L265.401 145.41Z" fill="#22AAA8"/>
<path d="M261.103 149.708L264.419 146.391L265.303 146.921L261.466 150.758L260.988 150.063L261.103 149.708Z" fill="#22AAA8"/>
<path d="M269.193 143.032L268.762 142.048L279.154 131.657L280.564 131.521L280.659 131.566L269.193 143.032Z" fill="#22AAA8"/>
<path d="M271.77 150.455L270.912 149.899L288.836 131.974L289.987 132.189L290.122 132.102L271.77 150.455Z" fill="#22AAA8"/>
<path d="M282.421 149.804L281.969 148.841L292.951 137.86L292.609 139.325L292.707 139.518L282.421 149.804Z" fill="#22AAA8"/>
<path d="M290.696 150.114L288.789 152.021L289.076 151.996L289.734 151.581L290.746 150.761L290.696 150.114Z" fill="#22AAA8"/>
<path d="M288.057 152.753L287.892 153.271L286.902 153.909L288.057 152.753Z" fill="#22AAA8"/>
<path d="M259.995 110.816L260.55 111.675L254.555 117.67L254.173 116.637L259.995 110.816Z" fill="#22AAA8"/>
<path d="M254.232 117.993L253.488 118.737L253.609 118.385L254.232 117.993Z" fill="#22AAA8"/>
<path d="M298.833 51.9775L299.634 52.5907L294.423 57.8019L294.228 57.4474L293.472 57.3382L298.833 51.9775Z" fill="#22AAA8"/>
<path d="M292.96 47.8508L294.034 48.1905L290.943 51.2821L290.615 51.1421L289.218 52.1441L289.082 51.7281L292.96 47.8508Z" fill="#22AAA8"/>
<path d="M290.743 40.0674L291.57 40.6544L283.59 48.6347L283.408 47.5897L282.446 48.4196L282.43 48.3811L290.743 40.0674Z" fill="#22AAA8"/>
<path d="M284.894 35.9162L285.722 36.5032L281.444 40.7812L281.353 40.7481L281.046 39.7644L284.894 35.9162Z" fill="#22AAA8"/>
<path d="M240.367 70.4439L241.047 70.736L241.007 69.9162L242.379 69.8453L211.07 101.155L210.61 101.21L209.537 102.616L208.282 102.546L208.277 102.534L240.367 70.4439Z" fill="#22AAA8"/>
<path d="M230.735 70.0757L231.757 70.4681L205.551 96.6736L204.841 96.0278L204.365 96.6857L204.214 96.5964L230.735 70.0757Z" fill="#22AAA8"/>
<path d="M222.722 68.0884L223.614 68.6108L206.133 86.0919L206.126 86.0184L205.464 85.3465L222.722 68.0884Z" fill="#22AAA8"/>
<path d="M216.477 64.3334L216.582 64.4914L217.392 64.8324L200.427 81.7979L200.063 81.4438L199.197 81.614L216.477 64.3334Z" fill="#22AAA8"/>
<path d="M209.398 61.4129L210.074 61.7993L210.502 61.7232L194.723 77.5017L194.369 76.442L209.398 61.4129Z" fill="#22AAA8"/>
<path d="M202.951 57.8593L202.999 57.8724L202.877 59.348L189.707 72.5177L189.261 71.5495L202.951 57.8593Z" fill="#22AAA8"/>
<path d="M196.44 54.3709L196.581 55.1196L197.225 54.9994L184.379 67.8456L183.657 67.1532L196.44 54.3709Z" fill="#22AAA8"/>
<path d="M190.795 50.0159L191.095 50.5855L191.38 50.8447L179.787 62.4378L179.265 61.5457L190.795 50.0159Z" fill="#22AAA8"/>
<path d="M188.094 42.7162L188.226 43.9991L173.958 58.2668L173.109 57.7011L188.094 42.7162Z" fill="#22AAA8"/>
<path d="M184.104 36.707L184.344 37.1855L184.918 37.3071L168.601 53.6239L167.955 52.8554L184.104 36.707Z" fill="#22AAA8"/>
<path d="M179.994 30.8168L180.153 31.0523L180.944 31.2811L162.085 50.1396L161.873 50.0592L160.254 50.5568L179.994 30.8168Z" fill="#22AAA8"/>
<path d="M170.293 30.5173L171.91 30.3143L153.099 49.1254L152.767 48.0432L170.293 30.5173Z" fill="#22AAA8"/>
<path d="M146.841 43.9699L148.704 43.3086L148.904 43.3205L146.314 45.9111L146.022 45.7882L144.807 46.7092L144.714 47.5108L140.369 51.8554L139.007 51.8031L146.841 43.9699Z" fill="#22AAA8"/>
<path d="M141.552 59.2586L100.594 100.216L101.168 101.057L142.533 59.6916L142.429 59.5323L141.552 59.2586Z" fill="#22AAA8"/>
<path d="M94.9125 105.898L94.2947 106.516L95.0575 106.493L94.9125 105.898Z" fill="#22AAA8"/>
<path d="M178.119 82.6918L139.514 121.296L139.949 121.279L140.215 122.01L178.386 83.8385L178.21 82.6886L178.119 82.6918Z" fill="#22AAA8"/>
<path d="M183.339 87.4713L182.452 88.3587L183.362 88.2652L183.848 87.7187L183.339 87.4713Z" fill="#22AAA8"/>
<path d="M179.927 90.8831L147.009 123.801L148.4 123.825L182.292 89.9324L181.874 90.178L180.902 90.8764L179.927 90.8831Z" fill="#22AAA8"/>
<path d="M139.087 121.724L138.835 122.848L138.345 122.465L139.087 121.724Z" fill="#22AAA8"/>
<path d="M203.45 97.3603L182.509 118.302L184.243 117.393L184.484 117.74L203.681 98.544L203.393 98.0824L204.001 98.1431L203.869 97.4245L203.45 97.3603Z" fill="#22AAA8"/>
<path d="M218.031 102.78L249.752 71.0583L250.727 71.498L219.083 103.142L218.031 102.78Z" fill="#22AAA8"/>
<path d="M227.9 102.91L228.81 103.414L252.025 80.2003L251.392 79.5309L251.39 79.4201L227.9 102.91Z" fill="#22AAA8"/>
<path d="M284.572 56.2388L284.69 56.1204L284.633 56.3037L284.572 56.2388Z" fill="#22AAA8"/>
<path d="M290.786 60.0244L291.586 60.6385L291.676 60.5484L291.587 59.2239L290.786 60.0244Z" fill="#22AAA8"/>
<path d="M301.445 59.3659L302.045 58.7651L302.154 59.1882L301.445 59.3659Z" fill="#22AAA8"/>
<path d="M137.806 33.0046L138.35 33.8749L124.749 47.476L124.452 47.3974L123.94 46.8708L137.806 33.0046Z" fill="#22AAA8"/>
<path d="M127.926 32.8849L129.338 32.8865L117.764 44.4605L117.528 44.1486L116.768 44.0425L127.926 32.8849Z" fill="#22AAA8"/>
<path d="M138.999 41.8117L144.865 35.9454L146.66 35.4954L146.948 35.2763L140.228 41.9964L138.999 41.8117Z" fill="#22AAA8"/>
<path d="M149.206 33.0191L149.301 32.4996L149.806 32.4188L149.206 33.0191Z" fill="#22AAA8"/>
<path d="M121.923 50.3018L121.871 50.1705L120.909 51.316L121.923 50.3018Z" fill="#22AAA8"/>
<path d="M41.0867 69.7239L41.0667 69.7846L41.0066 69.804L41.0867 69.7239Z" fill="#22AAA8"/>
<path d="M81.3136 0.911133L81.2612 0.912608L81.2558 0.968936L81.3136 0.911133Z" fill="#22AAA8"/>
<path d="M50.3176 20.4929L51.4976 20.7271L23.9769 48.2479L23.4842 47.3264L50.3176 20.4929Z" fill="#22AAA8"/>
<path d="M21.309 50.9157L19.4215 52.8032L19.77 51.0713L21.309 50.9157Z" fill="#22AAA8"/>
<path d="M263.881 146.113L264.995 146.781L265.46 148.137L264.934 150.313L263.77 150.647L262.474 149.958L262.171 150.9L261.007 150.576L260.47 149.797L261.715 145.961L262.555 146.082L262.96 145.333L263.881 146.113V146.113ZM265.784 143.795L266.503 144.109L266.28 146.791L264.833 145.93L264.954 144.038L265.784 143.795V143.795ZM295.614 60.7741L296.555 60.8449L296.494 61.9379L293.64 61.3509L294.217 59.9948L295.614 60.7741ZM285.563 51.4225L284.115 56.0375L283.052 54.904L284.975 51.473L285.563 51.4225V51.4225ZM271.898 50.299L273.477 51.716L271.959 52.7685L270.714 51.6046L271.898 50.299ZM284.297 35.5935L292.425 41.3624L291.464 43.6092L292.081 46.443L291.292 47.2021L291.828 47.9915L292.385 47.5664L293.761 48.0016L294.774 49.793L295.664 49.6817L300.199 53.1531L300.725 54.6307L301.626 54.9951L301.97 56.7865L301.211 57.2621L301.636 58.922L297.638 59.9239L297.355 58.76L296.15 60.1668L294.905 59.3572L293.711 57.1812L292.8 57.0496L291.433 58.0718L290.988 57.758L291.17 60.4502L289.733 59.347L289.976 58.1123L289.024 58.2135L289.115 57.2925L288.255 57.839L287.81 57.2216L288.022 56.1691L288.66 56.5537L289.389 55.4505L290.593 55.6226L291.292 54.9546L290.927 51.2302L290.097 50.8759L288.7 51.8779L288.134 50.1371L287.304 50.6836L286.423 50.3092L285.34 51.3111L286.008 49.3072L283.315 49.7626L282.89 47.3235L281.929 48.1534L281.271 46.6454L280.4 47.2021L278.852 47.0401L278.7 46.4936L280.765 44.8945L280.886 43.3157L282.101 42.5566L281.969 40.8968L280.836 40.4819L280.441 39.2168L281.453 37.4861L281.058 37.0307L282.192 36.5449L282.465 35.5935L283.396 35.6138L283.71 34.5106L284.297 35.5935V35.5935ZM176.427 28.0029L177.915 28.2458L179.636 30.7861L183.027 31.7679L183.249 32.9216L182.571 34.4195L183.826 36.9193L187.936 37.7897L188.31 39.4091L187.49 41.6053L187.713 43.7812L188.776 45.7346L189.616 46.018L188.644 46.6556L190.578 50.3193L192.713 52.2625L195.78 53.3555L196.064 54.8534L196.823 54.7117L197.876 55.9464L199.89 56.4424L201.044 58.2641L201.641 57.3735L202.481 57.6062L202.289 59.934L203.797 59.1547L205.821 61.0676L207.097 61.3509L207.643 60.4401L209.556 61.5331L211.034 61.27L212.876 59.4381L216.065 64.2253L217.219 64.7111L216.956 65.5207L217.624 66.6441L219.193 67.474L221.956 67.6764L226.966 70.6115L230.145 69.7816L235.6 71.8766L237.989 70.2876L238.03 69.397L240.53 70.4698L240.489 69.65L242.058 69.569L242.372 70.0649L243.819 68.81L243.961 69.3767L246.815 69.7006L253.769 72.8381L253.749 73.6173L252.383 73.6477L250.824 75.5808L250.874 79.2647L254.174 82.7564L260.733 87.6448L256.715 92.27L257.079 95.9438L256.31 96.5005L256.624 97.6947L256.158 98.0894L256.492 98.8991L257.717 99.061L258.506 101.227L257.049 100.964L256.219 102.796L258.921 104.364L258.851 105.67L259.539 106.459L259.235 108.23L258.314 109.232L259.721 109.981L259.417 110.457L260.268 111.773L261.361 111.752L260.966 113.18L262.869 115.011L262.565 118.756L263.132 119.525L262.069 120.294L262.211 121.752L264.397 125.254L266.574 125.729L266.817 126.64L268.335 127.288L269.408 126.61L270.076 127.814L269.438 128.806L271.382 130.233L275.602 128.948L276.19 130.294L278.254 131.427L280.046 131.255L281.504 131.933L285.623 131.205L289.47 131.923L292.769 129.798L293.316 130.142L293.255 132.318L291.798 135.951L292.445 137.54L292.091 139.058L293.103 141.042L292.648 145.374L291.14 147.003L291.585 147.853L290.148 149.452L290.229 150.495L289.217 151.315L288.559 151.73L287.759 151.8L287.374 153.005L286.18 153.774L284.449 153.906L282.465 152.732L282.89 151.639L281.251 148.147L277.556 146.659L275.157 147.54L275.471 148.461L274.722 148.623L274.611 149.817L275.289 150.748L276.129 150.687L274.641 151.537L274.671 152.651L273.548 152.387L273.457 151.618L270.319 149.584L269.752 146.801L268.75 146.295L268.335 146.841L267.262 145.121V144.331L268.811 143.076L267.545 140.182L265.703 140.334L265.389 138.613L263.112 137.328L257.828 138.249L259.002 134.049L258.375 133.543L256.361 133.968L255.905 133.279L257.059 131.063L258.365 130.769L258.8 129.15L258.446 127.44L257.12 126.418L256.533 123.462L254.194 121.924L252.383 122.187L253.253 123.796L251.785 123.098L251.188 124.383L250.216 122.916L252.231 120.628L253.091 118.118L254.073 117.501L253.587 116.185L252.221 115.902L252.403 116.631L251.542 116.762L250.915 118.685L249.852 119.363L248.789 118.26L249.478 117.906L248.951 117.4L249.386 116.61L248.334 116.104L249.305 115.062L250.105 115.143L250.631 113.392L249.609 113.696L249.7 111.854L247.635 110.983L246.623 111.55L246.228 110.649L244.315 111.216L241.754 110.477L242.139 109.536L242.736 109.961L245.054 109.081L244.143 105.872L245.014 104.486L244.184 102.836L241.4 103.383L239.406 101.723L236.43 103.858L230.033 104.111L226.723 102.279L223.737 101.652L220.66 103.595L212.208 100.69L210.093 100.943L209.02 102.35L207.765 102.279L206.165 98.9699L205.335 98.5347L205.325 96.6725L204.323 95.7616L203.848 96.4195L203.129 95.9944L202.825 96.8243L202.248 96.5916L202.4 95.7313L202.38 95.0127L203.686 93.282L204.566 94.0715L205.578 93.4338L205.912 91.1364L206.591 89.9017L206.489 89.1123L205.912 89.1831L205.609 85.7522L203.503 83.6167L203.341 82.5439L200.72 82.3212L199.546 81.1776L196.712 81.7342L195.355 80.6715L193.483 75.0747L189.646 73.2429L187.865 69.3767L184.089 67.7979L180.607 64.458L178.138 60.2377L176.113 59.2863L174.534 59.6304L174.139 58.4665L170.131 55.7946L166.831 51.8678L161.355 49.793L156.284 51.3516L152.812 49.6108L151.8 46.3114L148.075 46.6049L145.504 45.522L144.29 46.443L144.188 47.3134L147.154 47.6373L148.187 48.8923L147.934 50.127L144.988 51.7868L138.409 51.5338L133.317 53.1227L133.793 50.299L135.301 47.8498L139.968 47.0503L140.352 46.2406L143.126 45.4512L143.338 44.763L148.187 43.0424L149.553 43.1234L150.049 42.6376L152.043 41.251V39.9455L153.237 39.1358L156.223 39.49L157.205 34.7535L160.647 31.9602L163.167 31.6363L165.283 32.3549L167.54 32.2132L169.625 30.27L172.044 29.9664L174.251 28.2661L176.427 28.0029V28.0029ZM3.25965 13.2974L7.60198 10.4433L7.55139 8.59125L9.01907 8.79368L9.8592 7.5994L12.6731 6.17239L13.1792 4.90729L14.2825 6.22299L17.0762 7.30592L17.9669 7.02254L18.6856 5.33235L19.88 4.41135L22.5826 4.32027L24.2325 2.75156L26.3682 3.35878L28.8278 3.08553L30.832 5.74731L29.4048 7.44759L30.4575 10.5345L34.3443 11.5364L32.8362 15.524L33.241 18.7829L37.5631 19.9265L40.3467 18.3983L42.9683 14.3803L44.8915 14.6536L46.3794 17.8417L48.0597 18.3274L48.9504 20.0581L51.653 20.5945L52.5235 22.6794L53.0802 29.1466L53.6875 29.7133L57.2909 28.0535L58.8801 28.5899L59.9834 27.2742L60.8336 27.7094L61.9471 27.1325L62.7265 26.5354L61.8762 25.5436L61.6839 23.4688L63.5362 22.3859L64.3156 20.888L67.9191 21.2625L72.0994 18.4388L72.4031 16.8498L71.6946 13.9755L74.6603 12.2449L75.0348 10.3927L77.2212 8.45967L78.5876 5.01861L80.44 3.8041L80.7436 0.646418L82.181 0.605957L84.2155 4.85667L93.6796 5.9396L94.9954 7.31602L95.2384 9.45152L98.0219 10.6458L99.0847 13.1557L98.5685 16.0705L99.935 16.7081L101.423 15.9086L103.791 17.2749L102.708 19.1472L103.275 20.0075L102.87 21.4143L103.69 21.89L103.822 24.9768L102.941 27.1528L107.385 26.8289L110.259 27.5374L111.525 27.1123L112.76 28.0535L115.189 26.5658L118.691 26.2419L120.442 26.9504L120.26 28.5495L122.527 30.5331L124.623 31.0493L125.928 30.4927L126.799 32.618L135.848 32.6281L136.739 31.8589L138.814 35.1786L143.035 36.0085L146.142 35.2292L148.571 33.3872L148.784 32.2334L150.869 31.8994L149.917 35.3405L148.399 36.4842L148.096 39.0346L146.162 38.0934L144.219 39.905L143.166 39.0245L142.751 39.8139L143.5 40.8462L141.962 41.2106L141.506 42L135.848 41.1499L134.188 43.093L134.451 44.9654L133.449 45.5929L131.172 45.8155L129.461 46.9288L128.439 46.5847L126.991 47.9409L123.934 47.1312L122.507 45.6637L121.141 46.7871L118.863 46.3317L117.011 43.8824L114.764 43.5687L114.237 42.8805L112.901 43.1942L110.391 45.5119L107.921 46.3216L107.82 47.1818L108.488 47.5259L105.978 49.0744L107.284 49.2869L109.531 47.9713L110.543 48.285L108.164 50.1978L108.731 50.2383L108.336 51.9487L110.189 51.1897L110.431 53.0215L111.535 52.9507L112.122 51.5034L111.788 50.8861L112.638 50.8658L112.334 52.1208L113.073 53.477L115.067 51.6653L116.606 52.3232L120.24 51.2302L121.353 49.9043L122.284 52.2422L123.955 53.1329L127.76 58.173L128.833 58.5677L129.724 57.8492L131.445 58.0617L133.024 57.0901L136.739 61.1688L139.836 58.6183L141.911 59.2661L143.207 61.2396L145.94 62.1201L150.758 61.6343L152.094 60.8247L154.867 64.6503L154.746 69.0933L156.719 72.7874L156.77 74.1032L157.833 74.1234L158.805 76.0261L160.272 74.5687L160.89 75.0444L161.355 73.7591L163.582 73.4959L164.594 73.4453L166.305 73.0101L166.437 72.332L164.058 70.2572L167.014 69.6298L171.73 73.6983L174.433 73.0809L177.399 74.0323L179.534 76.3702L179.879 78.2223L178.279 79.8315L176.812 80.206L175.142 82.2403L174.777 84.1936L175.941 82.4832L177.692 82.4224L177.966 84.2037L178.654 84.5782L178.694 85.57L178.796 86.1165L179.423 86.744L180.354 86.0052L183.33 87.4525L182.844 87.999L179.2 88.3734L178.917 90.6203L180.385 90.6102L181.356 89.9118L182.46 89.2641L185.628 89.3349L186.367 90.681L191.033 90.5899L192.379 92.0068L195.699 92.8064L197.855 89.3451L199.131 89.8106L202.835 93.778L202.42 94.9014L201.307 94.8305L200.264 95.9033L200.71 96.7535L203.352 97.1583L203.483 97.8769L202.876 97.8162L203.827 99.3444L203.068 100.235L204.678 100.033L206.479 100.913L206.064 103.19L207.228 106.065L210.528 109.101L211.722 109.05L211.611 110.761L209.485 111.277L208.828 113.746L206.884 116.57L206.317 120.588L207.026 121.418L206.54 124.1L207.38 124.798L206.014 126.488L206.064 128.411L203.109 130L201.631 130.101L200.335 132.186L196.155 132.703L195.092 130.719L191.651 130.031L190.942 129.069L190.264 124.373L185.628 124.555L184.859 123.675L183.128 123.644L182.581 121.813L184.413 121.205L185 118.958L183.725 117.127L181.64 118.22L178.34 117.957L177.085 120.092L175.445 120.588L175.081 121.934L176.194 125.284L175.152 126.873L170.91 127.015L169.078 126.326L167.621 127.258L160.373 128.867L161.912 127.197L159.128 124.353L155.029 128.553L154.24 127.592L151.537 127.602L153.652 125.851L151.476 124.525L151.193 123.614L146.385 123.533L145.464 123.503L144.563 122.491L143.399 123.442L142.204 123.209L141.587 124.899L142.761 125.345L143.298 124.343L144.047 124.302L145.363 125.051L146.162 126.529L143.561 127.106L141.121 125.648L139.431 121.013L138.662 121.043L138.318 122.582L136.789 121.388L134.411 122.238L131.283 121.296L130.068 121.064L128.793 121.195L127.376 119.657L128.611 118.321L129.238 117.633L130.514 117.137L130.503 116.388L126.606 115.133L126.222 113.949L121.049 111.672L119.865 108.656L120.695 108.058L120.331 106.237L117.851 103.737L115.179 104.982L116.92 106.004L115.897 107.957L114.845 107.623L114.369 106.287L113.417 107.228L112.861 106.874L112.102 107.562L111.272 110.609L113.235 111.661L111.535 113.007L111.515 114.981L111.089 116.034L108.215 115.619L108.235 114.354L106.889 111.904L105.148 110.477L105.451 109.738L107.01 109.587L106.96 108.686L104.702 106.712L103.943 104.304L101.969 102.725L99.4289 99.0003L96.038 98.4942L95.9874 97.0875L95.127 97.1786L94.5096 96.4397L94.2565 98.3424L94.9651 98.8384L95.2282 100.488L95.8963 100.711L94.6209 101.207L93.9124 100.782L91.9487 103.16L93.2038 105.083L94.135 104.567L94.5399 106.227L92.8698 106.277L92.475 108.311L92.971 107.674L93.9124 108.119L92.4852 109.091L92.3131 109.911L90.5923 109.485L90.5721 108.058L87.3837 108.635L85.1467 107.228L85.1771 108.23L84.0434 109.283L80.7942 106.449L80.0351 107.674L78.952 106.844L75.7838 109.273L74.8628 111.257L72.3727 107.998L71.7755 108.716L70.5002 108.139L70.9253 107.977L70.571 106.955L69.6803 106.773L69.488 105.943L68.3138 106.156L67.8988 105.559L67.5041 105.984L64.0828 104.192L62.7163 102.735L58.4145 103.281L57.4529 102.188L54.2138 101.52L52.1287 101.409L48.6366 105.559L46.7134 105.812L44.6688 105.113L44.5372 104.364L46.5616 101.763L47.422 94.1828L55.6309 90.4988L57.7059 88.7783L56.9266 85.7016L58.7384 80.8537L58.3942 80.0238L54.639 78.5968L55.5904 76.9471L57.6655 76.4006L57.8375 74.9735L56.3698 73.3745L56.2382 70.8443L56.9266 69.4678L56.2787 68.0307L57.2707 65.6017L59.6494 64.3872L59.6899 62.6768L57.2302 59.1446L54.892 59.5899L53.981 58.5374L52.2502 58.426L52.5134 62.8994L52.0781 63.3447L48.1508 64.7819L46.511 63.7293H42.4521L40.5491 69.5184L37.3101 70.5609L36.8344 70.4495L36.7433 66.8668L36.227 66.1482L35.6197 65.9255L33.6763 67.2514L30.2652 67.3627L28.2306 65.9255L25.4673 65.9762L21.2363 64.7617L19.3334 63.4966L17.8657 57.3735L17.0053 56.2096L18.5641 54.2259L19.2524 50.8051L23.0583 50.4205L23.7972 49.9752L23.7567 48.538L22.8963 46.9288L14.5963 44.3885L12.2176 40.4616L11.2662 35.7555L5.47637 33.5997L1.58951 31.0493L1.24536 29.3287L3.18879 26.2217L4.31233 25.999L6.34686 20.6249L3.2799 16.9105L3.24953 13.3581L3.25965 13.2974V13.2974Z" stroke="#22AAA8"/>
<circle cx="104.245" cy="47.3218" r="4" fill="white"/>
<ellipse cx="104.246" cy="47.3218" rx="2.00027" ry="2" fill="#1B242D"/>
</svg>
