<svg width="40" height="43" viewBox="0 0 40 43" fill="none" xmlns="http://www.w3.org/2000/svg">
<path d="M4.02686 9.78356L6.11218 7.69824L6.3349 8.27968L6.82782 8.39674L4.2134 11.0112L4.02686 9.78356Z" fill="#AEACAD"/>
<path d="M5.50047 19.7241L4.70529 19.1051L11.6142 12.1962L11.8413 12.2167L12.4504 12.7742L5.50047 19.7241Z" fill="#AEACAD"/>
<path d="M13.8762 21.3483L12.3402 21.4702L19.5521 14.2583L20.4505 14.774L13.8762 21.3483Z" fill="#AEACAD"/>
<path d="M19.7615 25.463L19.2428 24.5676L25.1906 18.6198L25.7388 18.9571L25.8695 19.355L19.7615 25.463Z" fill="#AEACAD"/>
<path d="M23.285 31.9396L23.3211 30.4893L28.7163 25.0941L29.1761 26.0485L23.285 31.9396Z" fill="#AEACAD"/>
<path d="M28.734 36.4906L28.7147 36.4459L28.0303 35.7802L33.7273 30.0831L34.2465 30.9781L28.734 36.4906Z" fill="#AEACAD"/>
<path d="M34.4617 40.7629L32.1896 41.6209L38.5325 35.2779L38.8587 36.3659L34.4617 40.7629Z" fill="#AEACAD"/>
<path d="M3.25661 18.1142L4.34978 15.0476L3.4793 9.3192L2.376 5.5239L2.31527 3.97542L2.8821 3.54023L1.89014 3.32769L3.39831 1.69824L5.81748 8.01362L6.62723 8.20592L8.85409 11.728L11.3239 11.9506L12.0425 12.6085L13.9961 12.4162L15.4435 13.4282L16.8707 12.7501L20.1503 14.6326L19.8263 16.5151L20.7778 17.517L23.3792 17.5575L25.2214 18.6911L25.6769 20.0776L27.3166 21.0796L26.8612 22.0512L28.7236 25.9173L32.6914 28.9232L33.8656 30.9473L36.3961 32.0707L37.5399 33.4269L39.0784 38.5582L30.4747 41.807L29.0576 40.0965L29.0981 38.2647L28.1972 36.1798L25.2214 33.2852L23.8245 33.0525L22.7617 31.9088L22.8224 29.4697L20.0895 26.6561L17.4274 22.0613L14.158 21.0188L10.9696 21.2719L8.21639 20.3812L6.36408 20.533L3.25661 18.1142Z" stroke="#AEACAD"/>
</svg>
