<svg width="378" height="302" viewBox="0 0 378 302" fill="current" xmlns="http://www.w3.org/2000/svg">
<path d="M3.80144 32.0089L5.55943 30.2509L5.81126 31.0062L5.82896 31.3956L3.00146 34.2231L3.80144 32.0089Z" fill="#814D99"/>
<path d="M55.0566 10.7537L63.9504 1.85986L63.365 3.37645L63.627 3.59757L55.3088 11.9157L55.0566 10.7537Z" fill="#814D99"/>
<path d="M16.5884 49.2219L27.4305 38.3798L27.6849 38.4855L28.1289 39.0956L17.625 49.5995L16.5884 49.2219Z" fill="#814D99"/>
<path d="M61.3468 15.8778L60.8143 16.0679L60.3647 15.4456L67.1887 8.62165L67.7694 9.45511L61.3468 15.8778Z" fill="#814D99"/>
<path d="M65.4119 21.8126L65.106 21.766L64.3975 22.3631L64.6016 21.2087L73.1831 12.6272L74.7094 12.5152L65.4119 21.8126Z" fill="#814D99"/>
<path d="M27.6105 68.1998L30.932 64.8783L30.8835 65.0627L32.0158 65.2088L27.9589 69.2656L27.5432 68.7163L28.2315 68.3115L27.6105 68.1998Z" fill="#814D99"/>
<path d="M25.9691 79.8412L26.197 79.839L26.1495 79.6608L33.7349 72.0754L33.748 72.3497L32.341 74.8192L32.3448 74.8798L26.3407 80.8839L25.3771 81.1649L25.2591 80.5512L25.9691 79.8412Z" fill="#814D99"/>
<path d="M59.5599 47.6647L59.3449 47.8796L58.2797 47.5306L58.9955 46.8148L59.5599 47.6647Z" fill="#814D99"/>
<path d="M79.1634 36.6469L79.4793 37.6455L78.5582 37.6354L78.3476 37.4627L79.1634 36.6469Z" fill="#814D99"/>
<path d="M79.3883 27.8363L74.9093 32.3152L74.4427 31.3676L78.9451 26.8652L78.6695 27.6968L79.3883 27.8363Z" fill="#814D99"/>
<path d="M78.3832 17.4271L78.2186 17.5917L78.3962 17.5253L78.3832 17.4271Z" fill="#814D99"/>
<path d="M77.287 18.5233L77.0297 19.4179L77.7977 19.4269L70.2997 26.9249L69.3876 27.0186L69.2836 26.5267L77.287 18.5233Z" fill="#814D99"/>
<path d="M36.1112 69.6991L34.9518 70.8585L35.0436 71.2769L36.1166 70.3356L36.1112 69.6991Z" fill="#814D99"/>
<path d="M82.9473 42.863L87.4215 38.3888L88.0121 38.7891L87.9544 39.2702L83.662 43.5625L82.9473 42.863Z" fill="#814D99"/>
<path d="M35.9426 101.282L34.4811 101.329L40.7147 95.0956L39.8111 97.0343L40.0715 97.1531L35.9426 101.282Z" fill="#814D99"/>
<path d="M74.9379 72.2866L71.8473 74.1107L71.9083 73.902L78.9623 66.848L79.4504 67.7742L74.9379 72.2866Z" fill="#814D99"/>
<path d="M102.45 54.7746L102.416 54.7598L100.088 55.722L104.275 51.5357L103.934 52.1891L104.071 53.154L102.45 54.7746Z" fill="#814D99"/>
<path d="M102.814 44.4105L94.3773 52.8472L93.3464 52.9481L93.11 52.7003L101.939 43.8717L102.814 44.4105Z" fill="#814D99"/>
<path d="M94.0978 41.7125L94.7048 42.5197L89.0252 48.1993L88.6599 47.9788L88.3134 47.4969L94.0978 41.7125Z" fill="#814D99"/>
<path d="M73.3543 62.456L77.0614 58.7489L77.6562 59.5683L73.8143 63.4102L73.8008 63.2207L73.4061 62.7754L73.3543 62.456Z" fill="#814D99"/>
<path d="M70.6548 66.5698L70.5638 66.6608L70.4808 66.6112L70.6548 66.5698Z" fill="#814D99"/>
<path d="M34.6151 92.6094L34.0719 92.4091L33.3532 93.7248L32.2095 94.1297L32.3457 94.8789L34.6151 92.6094Z" fill="#814D99"/>
<path d="M31.639 95.5855L31.2057 96.0188L31.1163 95.9008L31.639 95.5855Z" fill="#814D99"/>
<path d="M51.7285 114.082L53.5061 112.304L53.6276 112.438L54.8504 112.374L52.3253 114.899L52.5446 114.604L51.7285 114.082Z" fill="#814D99"/>
<path d="M40.5439 135.266L42.6648 133.146L43.1918 133.054L43.8599 133.044L43.9396 133.285L39.4642 137.76L39.4402 136.37L40.4729 135.337L40.4994 135.331L40.5439 135.266Z" fill="#814D99"/>
<path d="M30.5959 145.214L32.5613 143.249L33.515 143.71L31.205 146.02L30.5959 145.214Z" fill="#814D99"/>
<path d="M21.3631 154.447L27.941 147.869L28.5382 148.686L22.3342 154.89L21.5004 155.31L21.3631 154.447Z" fill="#814D99"/>
<path d="M34.3639 152.861L34.3047 152.78L33.1838 152.626L41.0091 144.801L41.2484 144.997L41.0156 146.08L41.0495 146.175L34.3639 152.861Z" fill="#814D99"/>
<path d="M48.0329 139.192L47.3795 139.845L47.9897 139.187L48.0329 139.192Z" fill="#814D99"/>
<path d="M119.505 67.7191L119.082 68.1431L118.335 67.4749L124.326 61.4839L125.028 61.3889L124.974 62.2509L122.178 65.0462L121.516 65.1234L121.644 65.5807L121.15 66.0742L121.111 66.0748L121.119 66.1051L120.777 66.4474L119.826 66.2367L119.505 67.7191Z" fill="#814D99"/>
<path d="M112.819 62.9913L115.809 60.001L115.838 61.2371L115.904 61.3203L112.96 64.2648L112.819 62.9913Z" fill="#814D99"/>
<path d="M102.689 73.1215L105.719 70.0916L106.181 69.8094L106.373 70.7911L106.352 70.8721L104.939 72.2855L104.865 71.621L104.238 72.9569L102.871 73.6755L102.689 73.1215Z" fill="#814D99"/>
<path d="M59.246 116.564L53.8452 121.965L54.0629 122.954L54.2669 122.958L59.7934 117.431L59.246 116.564Z" fill="#814D99"/>
<path d="M108.302 68.923L106.943 70.2816L106.93 70.1332L107.457 68.605L107.922 68.9795L108.347 68.4937L108.302 68.923Z" fill="#814D99"/>
<path d="M117.36 68.4507L117.396 68.4633L117.522 68.2881L117.36 68.4507Z" fill="#814D99"/>
<path d="M110.574 66.6506L110.291 66.3076L110.888 65.3259L111.39 65.8347L110.574 66.6506Z" fill="#814D99"/>
<path d="M117.57 59.6542L117.538 59.4254L118.196 58.9295L118.289 58.9355L117.57 59.6542Z" fill="#814D99"/>
<path d="M106.396 99.4143L107.108 98.7025L107.153 98.8561L108.489 98.1679L108.815 98.4091L107.461 99.7636L107.467 99.6961L106.396 99.4143Z" fill="#814D99"/>
<path d="M92.1015 113.709L104.822 100.988L104.875 100.961L106.084 101.141L92.6413 114.583L92.1015 113.709Z" fill="#814D99"/>
<path d="M86.9591 118.851L89.8833 115.927L89.7733 117.276L88.591 118.634L87.3324 119.892L86.9591 118.851Z" fill="#814D99"/>
<path d="M99.1843 118.04L97.9738 117.837L107.784 108.026L108.216 108.481L106.961 108.967L107.708 109.517L99.1843 118.04Z" fill="#814D99"/>
<path d="M106.776 100.448L106.852 100.372L106.758 100.344L106.776 100.448Z" fill="#814D99"/>
<path d="M116.247 109.563L132.608 93.2026L132.791 94.4338L116.901 110.323L116.247 109.563Z" fill="#814D99"/>
<path d="M69.803 156.007L71.8027 154.008L72.5385 154.686L70.3857 156.839L70.3695 156.838L69.803 156.007Z" fill="#814D99"/>
<path d="M76.3018 160.923L75.471 160.775L75.2531 160.557L78.1059 157.704L78.6702 158.554L78.5003 158.724L78.1836 158.923L78.2394 158.985L76.3018 160.923Z" fill="#814D99"/>
<path d="M89.3476 156.463L98.3158 147.495L99.4391 147.785L91.3624 155.862L90.33 156.484L89.3476 156.463Z" fill="#814D99"/>
<path d="M122.75 124.475L122.194 124.239L122.467 123.662L122.264 123.546L135.83 109.98L135.662 111.562L122.75 124.475Z" fill="#814D99"/>
<path d="M136.856 100.369L119.19 118.035L119.036 117.883L118.034 118.106L118.133 117.677L136.531 99.279L136.856 100.369Z" fill="#814D99"/>
<path d="M153.828 101.836L154.012 101.652L154.838 102.24L154.3 102.778L153.828 101.836Z" fill="#814D99"/>
<path d="M124.617 131.047L125.542 130.122L126.101 129.957L126.202 130.777L126.178 130.9L121.829 135.249L120.858 134.987L120.889 134.775L121.648 134.016L122.285 134.087L122.405 133.259L123.503 132.161L124.057 132.022L124.617 131.047Z" fill="#814D99"/>
<path d="M107.849 147.815L112.74 142.924L112.669 143.094L113.702 143.104L113.843 143.235L109.429 147.65L107.849 147.815Z" fill="#814D99"/>
<path d="M113.644 153.434L113.449 152.618L113.103 152.561L118.866 146.798L119.472 147.606L119.118 147.96L118.196 148.407L117.721 149.357L113.644 153.434Z" fill="#814D99"/>
<path d="M141.203 125.875L141.132 125.868L140.986 126.092L141.203 125.875Z" fill="#814D99"/>
<path d="M139.79 127.288L138.148 128.93L138.106 127.893L138.784 127.245L139.79 127.288Z" fill="#814D99"/>
<path d="M156.835 100.243L156.751 100.172L156.693 100.385L156.835 100.243Z" fill="#814D99"/>
<path d="M143.923 133.155L143.259 133.819L142.792 133.044L143.552 132.73L143.923 133.155Z" fill="#814D99"/>
<path d="M144.572 132.506L144.106 132.972L144.118 132.538L144.572 132.506Z" fill="#814D99"/>
<path d="M222.25 73.4136L223.002 72.6618L223.686 73.3919L222.597 74.4814L222.25 74.0905V73.4136Z" fill="#814D99"/>
<path d="M169.927 125.737L171.712 123.952L171.741 123.996L172.298 123.419L173.533 123.545L170.957 126.121L169.927 125.737Z" fill="#814D99"/>
<path d="M161.119 134.545L165.061 130.603L165.628 130.534L167.936 129.142L155.332 141.746L154.015 141.648L159.145 136.519L159.453 136.242L159.939 136.89L160.516 136.131L160.209 135.455L160.851 134.812L161.69 134.724L161.119 134.545Z" fill="#814D99"/>
<path d="M119.275 176.389L121.045 174.619L121.192 174.661L121.597 175.481L120.519 176.559L120.281 176.321L119.275 176.389Z" fill="#814D99"/>
<path d="M114.033 181.631L114.743 180.921L114.987 182.059L114.033 181.631Z" fill="#814D99"/>
<path d="M117.209 188.454L118.539 187.125L119.815 187.263L117.904 189.174L117.902 189.174L117.209 188.454Z" fill="#814D99"/>
<path d="M180.669 126.409L179.64 127.438L178.78 126.884L179.812 125.852L180.669 126.409Z" fill="#814D99"/>
<path d="M224.866 82.2119L223.137 83.9406L223.05 83.8874L224.315 82.1972L223.673 81.9913L225.484 80.18L226.056 80.8411L224.943 80.9422L224.72 82.0656L224.866 82.2119Z" fill="#814D99"/>
<path d="M229.254 76.4103L228.536 77.1279L228.587 77.2279L229.639 76.6915L229.254 76.4103Z" fill="#814D99"/>
<path d="M174.61 122.468L174.484 122.387L173.766 122.458L173.906 123.172L174.61 122.468Z" fill="#814D99"/>
<path d="M125.409 180.255L126.061 181.017L121.425 185.653L122.397 183.79L122.195 183.469L125.409 180.255Z" fill="#814D99"/>
<path d="M242.799 72.8652L242.835 72.8287L242.889 72.876L242.799 72.8652Z" fill="#814D99"/>
<path d="M243.514 82.1497L245.373 80.291L245.531 80.2743L245.733 81.3452L243.427 83.6512L243.345 83.5534L243.02 82.6435L243.484 82.1803L243.527 82.1871L243.514 82.1497Z" fill="#814D99"/>
<path d="M212.999 114.079L212.472 114.606L212.725 113.946L212.999 114.079Z" fill="#814D99"/>
<path d="M262.662 64.416L262.483 64.5955L261.898 64.4251L262.182 63.8887L261.989 63.6748L263.822 61.8415L264.7 62.3781L264.101 62.977L263.852 62.4516L263.325 63.1803L263.593 63.4848L263.34 63.738L262.759 63.8077L262.662 64.416Z" fill="#814D99"/>
<path d="M261.171 64.4925L261.099 64.749L260.913 64.7512L261.171 64.4925Z" fill="#814D99"/>
<path d="M244.189 91.4752L244.481 91.1829L244.913 91.1035L245.265 91.8136L245.074 92.0043H244.691L243.998 93.0802L243.702 93.3762L243.365 92.4193L244.549 91.731L244.189 91.4752Z" fill="#814D99"/>
<path d="M150.367 185.297L152.884 182.78L153.066 183.051L153.651 183.427L149.59 187.488L149.159 186.725L150.367 185.297Z" fill="#814D99"/>
<path d="M158.447 188.632L157.702 188.233L157.299 188.365L158.392 187.272L158.502 187.575L159.396 187.682L158.447 188.632Z" fill="#814D99"/>
<path d="M252.763 104.315L251.428 104.236L254.268 101.395L254.782 101.953L254.753 102.325L252.763 104.315Z" fill="#814D99"/>
<path d="M273.745 83.3329L273.225 83.853L272.506 84.1505L272.031 83.6326L273.009 82.6549L273.745 83.3329Z" fill="#814D99"/>
<path d="M250.115 96.9633L248.994 98.0837L248.071 97.6719L247.95 97.7135L251.695 93.9683L251.786 93.9981L251.898 95.1114L249.985 96.8218L250.115 96.9633Z" fill="#814D99"/>
<path d="M256.791 108.873L258.281 107.383L259.357 107.722L257.253 109.825L257.384 109.26L256.791 108.873Z" fill="#814D99"/>
<path d="M207.962 157.702L209.975 155.689L210.144 155.755L210.796 156.283L208.373 158.706L208.241 158.518L207.962 157.702Z" fill="#814D99"/>
<path d="M199.219 166.444L203.297 162.367L204.449 162.63L199.526 167.553L199.219 166.444Z" fill="#814D99"/>
<path d="M206.254 170.824L205.731 170.886L205.143 170.521L206.494 169.17L206.933 170.145L206.254 170.824Z" fill="#814D99"/>
<path d="M215.922 161.156L214.894 162.184L214.315 161.554L213.962 161.702L215.389 160.275L215.922 161.156Z" fill="#814D99"/>
<path d="M268.628 118.45L265.934 121.144L264.654 121.01L268.566 117.098L268.346 118.146L268.628 118.45Z" fill="#814D99"/>
<path d="M264.402 112.676L258.571 118.507L258.175 117.489L263.69 111.974L264.402 112.676Z" fill="#814D99"/>
<path d="M263.338 122.326L263.163 123.905L261.833 123.831L263.338 122.326Z" fill="#814D99"/>
<path d="M212.807 162.856L212.274 163.389L212.756 163.143L212.807 162.856Z" fill="#814D99"/>
<path d="M274.712 120.952L275.453 120.211L276.616 120.049L276.961 120.117L275.243 121.835L274.712 120.952Z" fill="#814D99"/>
<path d="M257.529 148.135L274.266 131.398L274.308 131.384L277.901 129.178L264.001 143.077L263.153 143.357L262.03 144.551L262.192 144.886L258.047 149.031L257.779 148.701L257.529 148.135Z" fill="#814D99"/>
<path d="M274.474 142.604L273.261 142.403L290.321 125.343L290.662 126.416L274.474 142.604Z" fill="#814D99"/>
<path d="M236.249 190.829L235.848 191.23L235.448 190.216L236.739 188.925L237.14 189.306L236.249 190.829Z" fill="#814D99"/>
<path d="M294.501 132.577L294.046 132.821L292.3 133.363L296.213 129.451L296.622 130.456L294.501 132.577Z" fill="#814D99"/>
<path d="M235.203 190.46L235.024 190.945L234.84 190.824L235.203 190.46Z" fill="#814D99"/>
<path d="M281.842 165.236L280.588 165.076L283.944 161.719L284.167 162.081L282.939 164.139L281.842 165.236Z" fill="#814D99"/>
<path d="M278.24 158.838L276.539 160.539L276.636 159.196L278.24 158.838Z" fill="#814D99"/>
<path d="M296.792 180.286L296.627 179.407H296.256L298.95 176.713L299.469 177.609L296.792 180.286Z" fill="#814D99"/>
<path d="M302.057 185.021L301.789 185.166L301.232 184.589L300.099 185.723L299.978 185.686L303.177 182.486L303.409 182.747L304.039 181.625L304.448 181.216L305.184 181.894L302.057 185.021Z" fill="#814D99"/>
<path d="M292.299 174.78L291.243 175.836L291.211 175.764L291.697 175.035L292.299 174.78Z" fill="#814D99"/>
<path d="M340.283 155.381L342.13 153.534L342.672 153.357L343.059 154.02L341.697 155.381H340.283Z" fill="#814D99"/>
<path d="M337.321 158.343L339.075 156.589L340.738 155.867L339.392 156.828L338.825 158.174L338.917 158.161L335.112 161.966L334.574 162.141L335.101 160.724L334.985 160.679L335.333 160.331L336.103 160.441L336.022 159.652L337.287 159.277L337.321 158.343Z" fill="#814D99"/>
<path d="M344.238 161.425L343.279 162.385L344.504 161.939L344.238 161.425Z" fill="#814D99"/>
<path d="M343.057 162.606L344.094 162.984L341.976 165.102L341.105 164.558L343.057 162.606Z" fill="#814D99"/>
<path d="M340.815 166.263L340.231 166.847L340.496 166.24L340.815 166.263Z" fill="#814D99"/>
<path d="M311.978 203.686L314.749 200.915L315.069 200.772L315.484 201.299L315.871 201.207L312.25 204.828L311.911 204.962L311.978 203.686Z" fill="#814D99"/>
<path d="M326.912 198.752L329.44 196.224L330.414 196.259L330.434 196.644L328.999 198.079L326.902 198.86L326.912 198.752Z" fill="#814D99"/>
<path d="M284.417 241.247L286.476 239.188L285.889 241.189L282.8 244.278L281.997 243.667L282.653 243.01L283.144 243.077L283.18 242.484L283.869 241.795L284.41 241.448L284.417 241.247Z" fill="#814D99"/>
<path d="M327.853 199.225L327.874 199.205L327.843 199.204L327.853 199.225Z" fill="#814D99"/>
<path d="M337.222 198.442L338.762 196.902L339.635 197.099L340.653 196.425L336.275 200.803L336.295 200.519L337.222 198.442Z" fill="#814D99"/>
<path d="M279.588 256.076L285.743 249.921L285.695 250.243L283.792 253.218L283.8 253.278L279.578 257.5L279.588 256.076Z" fill="#814D99"/>
<path d="M271.854 275.224L271.909 274.28L271.525 274.139L279.415 266.249L279.356 267.723L271.854 275.224Z" fill="#814D99"/>
<path d="M257.535 298.129L264.67 290.994L264.915 291.03L265.987 290.908L264.894 291.566L264.852 292.227L261.742 295.337L260.866 295.21L258.75 297.284L258.447 298.529L257.546 298.124L257.535 298.129Z" fill="#814D99"/>
<path d="M274.454 282.624L274.247 282.184L274.221 281.443L281.443 274.221L282.281 274.797L274.454 282.624Z" fill="#814D99"/>
<path d="M275.663 291.415L275.452 291.364L274.804 291.819L274.418 291.246L283.459 282.205L284.678 282.4L275.663 291.415Z" fill="#814D99"/>
<path d="M336.922 240.156L335.25 240.413L347.487 228.177L346.458 230.62L336.922 240.156Z" fill="#814D99"/>
<path d="M361.456 215.622L357.746 219.332L357.531 219.314L355.678 219.986L361.676 213.988L361.456 215.622Z" fill="#814D99"/>
<path d="M371.422 195.656L331.119 235.96L330.522 235.142L374.753 190.911L374.809 190.986L374.586 191.785L372.441 193.647L371.422 195.656Z" fill="#814D99"/>
<path d="M377.002 178.662L376.504 180.574L333.26 223.818L333.291 222.373L377.002 178.662Z" fill="#814D99"/>
<path d="M364.053 181.611L366.155 180.733L366.386 180.692L331.305 215.774L330.027 215.637L364.053 181.611Z" fill="#814D99"/>
<path d="M347.115 189.963L346.103 190.348L344.291 191.613L341.319 195.759L347.115 189.963Z" fill="#814D99"/>
<path d="M264.397 290.764L265.47 290.642L264.377 291.3L264.255 293.183L261.745 295.146L260.348 294.944L258.232 297.018L257.929 298.263L257.028 297.858L255.57 298.456L253.526 300.955L252.493 300.065L252.21 300.824L250.823 299.67L250.722 299.346L249.932 298.749L250.469 297.363L254.032 294.023L255.358 291.897L258 292.464L263.364 290.612L264.397 290.764ZM283.932 246.536L285.137 246.506L285.4 248.479L285.177 249.977L283.274 252.952L283.983 257.932L281.554 261.15L281.766 262.982L278.902 265.877L278.8 268.387L278.942 269.47L277.808 270.37L278.659 271.878L280.339 272.283L280.42 273.609L282.677 275.157L282.637 276.908L283.963 277.85L283.264 279.428L282.242 279.884L282.687 281.898L285.025 282.272L286.068 283.75L284.924 286.24L284.266 285.339L282.687 285.258L281.624 287.353L279.975 287.383L278.365 289.6L277.9 291.533L279.57 291.837L276.472 294.6L276.331 294.023L277.343 293.405L276.26 291.422L274.934 291.098L274.286 291.553L273.365 290.187L271.401 289.397L274.357 286.513L273.567 285.886L274.63 285.794L275.025 284.671L273.729 281.918L273.638 279.368L274.296 277.799L273.365 276.534L271.3 275.583L271.391 274.014L270.369 273.639L269.944 272.374L270.531 271.342L272.231 270.563L272.454 269.126L275.237 267.223L275.005 266.363L275.693 265.077L274.802 265.209L274.671 264.703L275.389 262.365L276.563 261.424L276.776 259.794L279.053 258.215L279.114 249.451L279.985 249.026L281.27 249.572L282.697 247.568L282.991 247.133L283.932 246.536ZM285.177 238.257L286.109 238.409L285.198 241.516L286.088 244.016L285.957 246.435L285.481 246.526L285.147 245.362L283.345 245.757L282.495 245.149L282.353 244.066L281.078 243.095L281.29 242.629L282.627 242.811L282.677 241.961L283.892 241.182L283.983 238.571L285.177 238.257ZM318.894 200.102L320.857 200.668L321.232 202.541L320.108 202.915L319.258 202.996L317.558 203.695L317.193 204.818L316.798 204.069L317.213 203.624L314.784 203.35L311.393 204.697L311.586 201.023L312.891 201.245L314.551 200.507L314.966 201.033L318.894 200.102ZM329.896 195.993L329.977 197.551L328.034 200.476L327.325 198.938L328.398 198.968L328.722 197.723L326.384 198.594L326.485 197.561L327.892 195.922L329.896 195.993ZM234.638 187.157L236.622 189.04L235.397 191.135L234.851 189.748L234.506 190.679L233.353 189.92L233.535 189.161L232.796 187.734L234.638 187.157ZM152.549 182.785L157.498 185.973L157.984 187.309L160.353 187.592L160.454 188.179L159.168 189.03L157.184 187.967L153.379 189.212L149.613 188.179L148.641 186.459L152.194 182.259L152.549 182.785ZM117.992 181.297L119.703 181.743L119.338 183.099L118.397 183.524L117.476 182.451L117.992 181.297ZM375.354 177.127L375.435 176.702L375.678 177.644L376.032 177.148L376.488 178.382L375.476 182.269L377.156 184.151L373.674 188.281L373.36 189.485L374.291 190.72L374.069 191.519L371.923 193.381L370.455 196.276L369.818 198.138L370.486 199.494L369.777 199.586L369.008 201.417L367.996 202.095L367.014 206.781L365.89 206.417L364.139 207.115L363.775 208.856L362.682 209.302L361.396 211.953L360.91 215.566L363.795 216.001L362.55 216.831L363.177 217.125L362.894 218.673L361.538 219.331L362.56 221.659L359.362 220.525L358.987 219.22L357.013 219.048L354.139 220.09L351.77 222.307L350.424 222.499L347.458 226.75L345.191 232.134L343.875 233.065L342.539 235.656L341.233 236.041L340.96 237.265L339.198 237.174L338.47 238.551L336.688 239.846L334.39 240.2L333.287 241.405L332.366 241.243L332.417 240.443L334.097 240.251L334.148 239.573L330.929 237.093L331.06 236.324L329.481 234.158L332.69 226.062L332.882 216.892L332.093 215.647L328.874 215.303L329.147 212.732L328.449 211.528L326.758 211.548L326.455 210.435L330.332 209.109L332.498 206.437L333.682 206.356L335.595 202.885L335.777 200.254L337.204 197.055L337.903 196.559L339.117 196.833L340.494 195.922L343.774 191.347L345.585 190.082L351.254 187.926L359.746 182.927L365.637 180.467L368.815 179.901L371.71 180.285L374.777 176.277L375.354 177.127ZM114.996 178.372L113.893 179.111L114.47 181.793L111.899 180.639L113.083 176.348L113.609 176.156L113.7 176.955L114.692 177.229L114.996 178.372ZM121.464 175.994L126.828 182.249L126.231 186.216L126.626 187.279L122.648 190.497L120.523 188.878L117.385 188.908L116.332 187.815L115.532 188.21L114.571 187.603L115.644 186.601L120.027 187.076L121.879 183.524L121.18 182.411L121.049 179.992L120.087 179.354L120.917 177.775L120.472 176.763L119.763 176.055L116.19 176.298L115.917 174.668L117.709 173.555L120.674 174.395L121.464 175.994ZM296.838 173.697L299.895 178.969L299.125 180.73L299.52 181.338L300.208 181.621L301.241 180.619L302.891 182.481L303.812 180.842L304.966 181.905L303.589 183.645L301.271 184.9L300.715 184.323L299.581 185.457L298.548 185.143L298.802 183.939L297.911 182.471L296.939 183.564L296.109 179.142H295.056L294.419 180.437L293.548 180.184L293.012 181.024L292.394 181.358L292.323 180.052L290.937 180.316L290.582 179.658L291.25 176.783L290.694 175.498L291.18 174.769L292.06 174.395L291.797 175.397L293.913 176.227L294.54 175.883L294.945 173.889L295.876 173.261L296.838 173.697ZM342.853 168.15L343.804 168.98L341.982 169.507L341.931 168.312L342.853 168.15ZM279.792 158.111L281.321 158.03L283.649 161.815L281.736 165.023L276.837 164.396L276.422 163.323L275.329 163.373L275.835 162.877L276.118 158.93L279.792 158.111ZM340.221 155.601L338.875 156.562L338.308 157.908L339.988 157.665L340.302 158.647L343.419 156.775L343.207 158.272L341.931 158.738L343.925 158.272L344.259 159.264L344.158 160.266L343.369 160.479L343.986 161.673L342.346 162.27L343.986 162.867L343.561 164.001L342.589 163.981L344.047 165.144L343.338 165.539L343.936 166.055L341.02 167.513L339.532 166.997L339.978 165.974L341.233 166.065L341.466 164.841L339.229 163.444L338.328 164.315L338.136 163.788L336.577 164.254L336.567 163.616L337.356 163.576L337.103 163.039L338.217 162.533L338.156 161.663L337.002 161.633L336.708 162.301L334.988 161.572L334.056 161.875L334.583 160.459L333.834 160.165L334.441 159.234L334.664 160.044L335.585 160.175L335.504 159.386L336.769 159.011L336.81 157.908L336.152 157.898L336.678 157.139L340.221 155.601ZM209.212 155.327L209.627 155.489L212.876 158.121L213.129 158.394L213.615 159.325L214.536 159.457L216.358 162.462L213.949 162.483L214.617 162.179L213.797 161.288L212.42 161.865L212.238 162.877L211.347 163.333L210.214 162.796L209.535 162.867L208.321 162.857L208.28 163.464L206.509 162.715L206.337 163.879L205.416 164.173L206.074 165.074L205.861 166.551L204.252 167.047L205.709 168.312L206.671 170.448L205.213 170.62L204.12 169.942L202.835 170.812L200.942 169.173L200.729 169.871L199.646 169.598L198.634 165.934L197.176 165.185L198.168 164.497L197.015 162.331L197.48 160.185L198.492 160.459V161.774L199.079 161.622L199.373 160.428L199.899 160.408L201.185 160.772L202.41 162.017L204.009 162.381L204.242 163.586L205.699 163.515L206.266 161.633L207.592 161.622L207.936 160.843L209.789 162.088L208.938 160.094L209.343 159.598L208.716 159.092L208.078 158.758L207.724 158.252L207.035 156.238L207.471 155.327H209.212ZM342.154 153.091L342.863 154.305L342.356 155.115H339.745L339.806 153.86L342.154 153.091ZM70.4691 152.989L73.9815 156.228L75.0747 156.532L75.8743 156.016L77.3825 157.129L78.1821 158.333L77.6659 158.657L78.7996 159.922L77.6861 160.995L74.9532 160.509L72.9794 158.536L72.8478 156.714L69.8517 156.572L67.7059 153.425L69.6088 152.554L70.4691 152.989ZM277.059 151.694L277.242 152.574L275.41 152.807L274.529 155.985L273.658 154.447V152.757L275.177 152.676L276.148 150.905L277.059 151.694ZM97.7277 147.21L99.1347 147.575L98.4464 148.081L98.6893 149.042L96.6447 150.631L96.3613 151.805L95.4807 151.734L94.266 153.536L89.8123 156.218L87.9296 156.177L88.6888 154.153L90.0653 152.898L90.9763 149.882L95.0353 147.372L97.7277 147.21ZM30.8111 140.713L30.5075 142.241L34.3842 144.113L37.7649 142.403L38.1394 141.158L38.9694 141.624L39.4553 141.057L39.759 141.867L41.2874 142.342L40.012 144.144L40.7307 144.731L40.4979 145.814L41.5101 148.668L40.8015 150.854L39.6679 152.321L38.6557 151.745L38.0281 152.402L37.0159 152.281L36.53 153.101L35.366 152.817L34.6372 153.678L33.787 152.514L32.1574 152.291L31.2565 153.485L30.6593 153.121L29.2118 153.941L28.4628 153.546L22.6123 154.224L20.9826 155.044L20.6284 152.817L21.9442 151.269L21.2458 150.044L22.4099 148.334L21.3572 147.14L22.7236 146.38L22.2479 145.561L22.9767 144.67L22.4807 144.407L23.8978 143.172L25.5476 145.419L27.6935 144.741L27.9567 146.077L27.2988 147.433L28.2604 148.749L30.386 148.729L31.2868 150.024L34.1514 148.951L34.4449 148.182L33.2809 146.269L31.3071 146.573L28.6652 143.081L29.2726 142.727L29.0803 140.905L30.8111 140.713ZM48.4943 139.023L51.6928 139.913L52.2192 142.788L51.4398 143.537L50.3466 144.002L47.6845 142.697L46.6925 139.762L47.4719 138.921L48.4943 139.023ZM110.603 138.871L112.718 141.462L112.152 142.828L113.184 142.838L114.348 143.911L115.441 143.688L115.563 144.802L117.567 145.49L119.055 147.474L117.678 148.142L117.02 149.457L117.739 150.328L118.194 152.251L117.931 153.242L117.466 154.335L115.796 153.546L114.793 155.52L113.316 153.961L112.931 152.352L112.131 152.22L111.615 151.633L108.811 148.344L109.115 147.362L106.605 147.625L106.038 147.342L105.765 145.996L106.433 143.8L106.018 141.189L107.182 139.326L110.603 138.871ZM13.9985 137.333L14.6969 137.302L14.9904 138.547L13.8162 141.209L12.7433 139.772L11.9639 139.741L11.721 137.606L13.4417 136.978L13.9985 137.333ZM143.823 133.365L143.105 134.155L142.275 132.778L143.034 132.464L143.823 133.365ZM42.6741 132.788L43.3422 132.778L43.828 134.246H45.1945L45.4172 133.294L46.6723 134.651L45.7512 135.096L45.2248 138.527L44.0001 139.984L40.7509 140.753L39.7489 139.387L40.0323 138.415L38.9492 137.656L38.9087 135.308L39.9816 135.065L41.3886 133.011L42.6741 132.788ZM144.603 132.201L145.433 132.596L145.109 133.213L143.58 132.981L143.601 132.272L144.603 132.201ZM125.685 130.511L125.401 131.928L126.14 131.908L125.735 134.752L124.561 134.742L123.569 135.592L120.34 134.721L120.492 133.679L121.767 133.821L122.01 132.141L123.539 131.756L124.551 129.995L125.584 129.691L125.685 130.511ZM165.282 127.566L166.294 128.123L165.343 128.821L162.964 127.9L165.282 127.566ZM130.351 127.414L130.989 130.309L131.221 130.734L131.849 131.23L131.353 131.796L130.27 131.118L130.088 130.764L129.4 130.896L128.843 129.54L128.165 130.096L127.861 129.337L128.418 128.244L128.782 127.728L130.351 127.414ZM141.546 125.694L143.499 126.402L143.58 127.789L144.562 127.88L144.38 129.398L141.87 128.821L141.576 129.367L139.957 128.254L137.639 128.872L137.588 127.627L138.266 126.979L139.673 127.04L140.615 125.603L141.546 125.694ZM290.36 126.827L292.9 127.94L294.985 127.445L296.433 130.997L293.528 132.556L279.448 136.928L274.347 142.403L267.94 141.34L262.636 143.091L261.512 144.285L262.787 146.917L261.087 148.364L261.755 152.048L259.862 151.633L257.261 148.435L256.552 146.826L257.109 141.654L260.793 140.399L263.992 140.743L266.765 136.371L270.956 132.06L273.79 131.118L279.458 127.637L285.704 126.858L289.601 124.439L290.36 126.827ZM136.809 123.983L136.546 124.803L135.179 125.208L134.501 126.928L134.025 126.362L132.72 126.422L134.299 124.762H135.321L136.536 123.578L136.809 123.983ZM173.967 122.121L181.265 126.868L179.2 127.222L177.864 126.362L173.896 127.121L172.388 128.598L171.77 128.315L168.946 131.301L167.539 131.685L166.73 133.264L165.292 134.053L164.594 136.108L161.102 139.164L158.551 139.731L157.63 139.357L155.251 141.512L152.791 141.33L150.362 139.822L149.836 138.183L151.263 139.023L152.69 136.756L153.419 137.039L153.763 136.179L155.484 136.968L155.96 136.24L157.852 136.948L158.936 135.976L159.421 136.624L159.998 135.865L159.442 134.64L161.172 134.458L158.682 133.679L159.249 132.029L160.019 131.877L160.737 131.321L161.061 131.29L161.962 131.361L162.772 130.552L165.11 130.268L168.4 128.285L171.254 126.159L169.219 125.4L169.624 124.408L170.94 123.305L171.224 123.73L171.78 123.153L173.471 123.325L173.248 122.192L173.967 122.121ZM138.59 120.795L139.471 121.18L138.884 121.413L139.198 122.364L137.791 123.194L136.485 123.022L135.969 121.908L136.515 120.957L138.59 120.795ZM276.098 119.783L276.867 119.935L276.938 120.846L278.163 119.753L279.782 120.502L277.808 122.414L279.721 123.325L280.066 124.297L278.557 123.558L277.171 124.246L276.138 123.922L276.199 122.769L275.349 122.607L273.841 120.097L276.098 119.783ZM81.8665 118.204L82.6156 118.741L83.982 118.133L85.6218 119.277L84.063 120.34L83.3747 119.925L81.7754 120.714L80.3584 119.206L81.3908 117.749L81.8665 118.204ZM256.076 113.194L257.352 114.358L256.664 116.18L256.218 115.057L253.708 113.68L256.076 113.194ZM215.396 113.781L218.018 114.379L218.514 115.401L215.781 115.461L215.346 115.097L215.335 114.571L213.716 115.168L214.323 115.937L211.307 115.866L211.57 115.279L212.592 115.654L211.823 114.682L212.208 113.68L213.453 114.287L213.432 113.721L214.02 113.468L214.718 113.822L215.396 113.781ZM49.9518 110.391L52.0167 110.968L53.1099 112.172L55.0432 112.071L56.0453 112.709L57.0878 114.976L58.7175 116.281L61.1265 120.097L61.1974 120.765L60.3067 121.929L59.8512 121.321L58.8693 123.265L57.766 122.86L57.9482 124.003L55.7619 126.058L53.9197 123.325L54.5877 122.708L53.5451 122.688L53.0593 120.481L53.5856 120.006L53.0087 119.085L52.2394 119.247L52.5228 118.184L51.4499 117.384L53.3731 115.866L51.2677 115.36L52.0268 114.338L51.0146 113.69L51.2879 112.425L49.5368 111.96L49.7393 111.089L49.9518 110.391ZM89.6706 109.602L90.784 110.057L89.7111 111.423L89.2556 117.01L87.96 118.498L89.4277 121.109L89.0025 122.03L87.545 120.026H86.9579L86.381 118.417L84.7918 118.022L83.9011 116.878L84.8222 116.696L84.3667 113.953L86.6745 112.8L87.4033 110.887L89.3163 110.472L89.1645 109.733L89.6706 109.602ZM271.877 107.8L273.871 108.539L272.494 108.873L270.561 108.023L271.877 107.8ZM254.72 106.535L255.925 107.162L256.653 106.768L259.386 107.628L260.307 107.841L263.081 109.733L263.749 110.857L261.856 110.411L264.731 113.245L264.69 114.773L265.854 113.528L267.444 113.579L269.012 115.664L268.263 115.806L267.828 117.88L268.375 118.467L266.927 119.773L267.474 120.218L268.304 119.844L269.063 121.261L262.98 120.623L262.646 123.639L260.824 123.538L259.386 123.123L258.961 123.558L257.878 121.261L256.36 121.008L256.006 120.451L258.192 118.599L257.453 116.696L258.799 114.814L258.82 112.729L261.38 113.316L258.901 110.128L257.696 109.834L257.119 110.219L257.514 110.604L256.441 110.836L256.866 108.994L253.425 106.747L254.214 105.948L254.72 106.535ZM158.014 100.392L156.871 101.019L157.893 102.476L158.905 102.608L157.863 105.179L156.162 104.976L155.565 104.106L154.958 104.855L153.065 101.08L154.785 102.304L155.717 101.809L156.233 99.9058L156.901 100.473L157.893 99.8147L158.014 100.392ZM103.062 98.0132L103.943 98.7723L103.679 99.167L103.082 98.9241L102.576 100.22L101.655 100.726L102.627 101.576L104.358 100.695L106.402 100.999L106.24 100.078L106.878 100.27L106.949 99.4302L105.795 99.1265L106.412 97.8311L106.635 98.5901L107.971 97.9019L109.135 98.7622L107.678 100.098L108.346 100.837L107.04 102.304L106.433 104.035L106.868 104.561L105.613 106.019L107.698 108.215L106.443 108.701L107.516 109.49L105.582 111.393L104.752 114.227L103.862 114.156L102.424 116.17L101.564 115.897L99.2359 117.87L97.252 117.536L96.756 116.737L95.4401 116.929L94.4279 115.33L93.2234 116.099L91.4116 113.164L91.3711 111.302L92.2821 110.239L92.2011 107.952L96.6346 105.027L96.3714 104.41L95.845 104.774L95.1669 104.146L94.5798 104.885L94.347 104.44L96.7762 101.424L100.451 99.8754L101.098 98.833L102.384 98.6103L102.353 98.1651L102.89 97.5173L103.062 98.0132ZM131.394 92.4164L132.082 92.882L132.305 94.3799L133.327 94.5722L133.742 95.7361L134.43 95.8271L135.888 98.5901L136.87 101.89L136.191 105.179L137.659 105.482L135.635 106.687L135.007 112.587L134.187 113.407L132.436 119.986L131.697 120.471L131.363 119.874L128.65 120.279L128.61 120.785L126.99 121.139L126.484 122.961L125.209 122.354L123.225 124.631L121.676 123.973L121.95 123.396L120.958 122.829L120.998 118.811L119.419 118.508L118.518 117.617L117.516 117.84L118.002 115.745L115.451 112.314L116.13 112.081L116.757 110.492L114.53 107.901L114.277 106.758L112.729 106.464L113.7 104.602L115.249 105.29L116.18 104.825L116.514 103.195L116.079 102.709L118.255 101.839L119.925 99.7338L122.253 99.5111L124.48 98.1448L127.355 93.6714L130.958 92.0622L131.394 92.4164ZM247.007 92.2241L248.181 92.7201L251.269 93.7322L251.38 94.8454L249.467 96.5558L250.054 97.1935L251.582 96.6166L252.969 97.4161L251.633 98.0638L251.522 98.7116L254.265 101.687L254.082 103.985L253.03 104.096L249.963 103.914L248.87 102.527L251.501 101.586L251.441 100.371L249.376 101.1L248.141 102.385L246.673 99.8754L247.361 99.8654L248.779 97.9525L247.554 97.406L245.843 97.993L245.631 96.5558L243.576 96.3028L242.766 95.4324L243.981 93.0034L246.137 93.3779L245.509 92.3152L247.007 92.2241ZM36.9754 91.7181L38.4735 91.546L38.4026 92.1128L40.1132 93.0034L40.3157 94.0155L40.2651 94.6835L39.2934 96.7684L40.3359 97.244L40.2853 100.209L39.5059 100.027L39.1516 98.4181L38.5443 98.5092L38.5949 101.485L36.5705 102.689L36.4896 102.213L35.7405 102.385L36.5807 100.979L33.453 101.08L33.5643 99.42L32.795 99.5617L32.4003 100.655L31.297 100.624L30.1937 100.473L29.3029 101.242L29.2624 100.088L30.801 99.1468L29.7989 97.1833L31.3577 96.6368L30.5986 95.6349L31.8739 94.8657L31.6917 93.8637L32.8355 93.4589L33.5542 92.1432L34.9814 92.6694L34.9206 91.5764L35.7912 91.5056L36.53 91.1918L36.9754 91.7181ZM244.396 90.8376L244.841 91.7383H244.173L243.221 93.216L242.847 92.1533L244.031 91.4651L243.404 91.0197L244.396 90.8376ZM272.454 80.3727L273.041 80.8585L272.049 81.9819L273.456 83.2774L271.988 83.8846L271.32 83.1559L271.28 81.4658L271.806 80.3828L272.454 80.3727ZM239.264 77.7717L240.347 77.8931L241.035 78.8647L240.701 79.4719L242.331 80.2917L245.013 80.0084L245.418 82.154L244.618 82.6195L244.639 83.6822L244.031 82.8422L243.151 83.6721L242.827 83.2875L242.3 81.8098L243.009 81.9212L242.736 81.1115L241.349 81.9515L240.316 80.8787L238.545 80.6763L238.009 78.7129L239.213 78.8748L238.737 78.2271L239.264 77.7717ZM224.941 71.9218L225.781 72.2457L225.67 73.3489L227.451 73.6828L227.664 75.3629L229.122 76.4256L228.069 76.962L227.664 76.1625L224.85 75.1402L225.012 76.041L223.868 76.2333L224.303 77.9741L223.585 78.3182L225.538 80.5751L224.425 80.6763L224.202 81.7997L225.407 83.0041L225.447 84.4514L224.03 84.5323L222.532 83.6214L223.797 81.9313L222.755 81.5973L222.259 82.3361L221.216 82.3057L221.763 81.2633L221.469 79.2088L221.702 77.6401L221.803 75.2617L222.441 74.6241L221.732 73.8245V72.357L222.249 72.1445L223.453 73.4298L224.465 73.0857L224.941 71.9218ZM239.486 69.7965L240.185 69.8875L240.296 70.7883L242.371 72.61L241.693 72.5291L240.964 73.9055L240.762 72.3773L239.871 72.5797L239.648 71.9623L239.163 70.7681L238.444 70.8794L238.484 69.9179L237.847 69.4929L238.434 68.3188L239.486 69.7965ZM107.779 68.7034L107.678 71.9623L106.665 72.7922L106.412 69.8673L106.939 68.3391L107.404 68.7135L107.83 68.2278L107.779 68.7034ZM102.586 65.1207L104.307 67.327L103.74 69.6649L104.105 70.4948L105.663 69.5434L105.856 70.5252L105.36 72.438L104.428 72.0838L104.348 71.3551L103.72 72.691L102.353 73.4096L102.08 72.5797L103.791 70.2721L103.092 69.2803L102.05 69.8167L101.878 68.1164L100.653 67.3472L100.532 66.0214L101.331 65.8898L101.473 66.6185L102.323 66.8209L102.586 65.1207ZM127.092 62.9751L127.061 64.8575L126.383 64.9385L125.938 63.6734L127.092 62.9751ZM262.383 61.0116L264.65 62.3982L264.842 63.4102L263.901 63.3799L263.334 62.1856L262.808 62.9143L263.253 63.4204L262.241 63.5418L262.109 64.3717L261.38 64.1592L261.664 63.6228L261.026 62.9143L260.581 64.483L259.741 64.4932L258.759 62.9346L259.224 62.8334L258.739 61.3254L257.372 60.9813L262.383 61.0116ZM31.5298 60.374L30.3657 64.7968L31.9347 64.9992L31.7019 66.3655L34.1615 66.4768L35.5887 68.8653L35.5988 70.0697L34.5259 71.011L34.2526 69.7661L33.6959 70.4239L33.1291 69.9685L33.2303 72.0838L31.8233 74.5532L31.8942 75.707L30.8415 75.6969L30.7605 77.0531L29.6977 77.2959L29.7584 77.9741L28.23 78.8242L27.7745 80.0488L24.8594 80.8989L24.6063 79.5833L25.6792 79.5731L25.0618 77.2555L26.0335 76.9923V75.0593L26.4384 74.4419L27.9466 73.4298L26.8433 72.104L27.0559 70.4037L27.1267 69.6649L27.8757 69.5738L27.0255 68.4504L27.7138 68.0456L26.3068 67.7925L26.1955 68.3289L24.9201 68.3998L24.7885 67.0841L28.0174 62.4387L30.2848 60.5359L31.5298 60.374ZM113.984 58.2385L115.269 58.7547L115.32 60.9711L116.636 62.6107L117.395 61.8111L117.02 59.1595L117.678 58.6636L119.247 58.7648L119.885 60.4853L121.616 60.2323L121.595 61.5177L124.511 61.1229L124.298 64.4729L120.998 64.8575L121.261 65.7987L120.593 65.8089L120.725 66.2845L119.308 65.9708L118.842 68.1265L117.678 67.0841L116.879 68.1974L116.049 67.914L115.998 68.7743L114.793 68.5516L114.267 69.2601L114.024 68.2379L113.265 67.8937L113.154 68.5617L112.627 68.4504L111.818 67.1043L111.291 68.9969L110.34 69.422L110.876 67.3776L109.773 66.0417L110.37 65.0599L111.858 66.5679L112.455 64.1187L112.253 62.2868L110.623 61.5075L110.502 60.0805L110.846 59.1494L113.984 58.2385ZM72.0988 56.5585L72.5846 57.186L76.1678 57.9653L77.5343 59.8477L78.0202 63.1066L77.3116 64.7563L76.7043 65.8999L77.0485 66.3756L78.2024 66.1226L79.9839 69.503L78.3036 70.2519L77.7469 71.4967L76.8561 71.4259L74.8621 71.7599L71.3295 73.8448L71.8356 72.1141L71.0866 71.0818L71.785 71.1021L71.9571 70.4037L71.5623 69.8774L69.2646 69.9483L69.8214 67.8533L71.3194 67.1549L69.963 66.3453L71.8761 65.8898L72.4227 64.3717H73.3843L73.2831 62.9548L72.8883 62.5095L72.7061 61.3861L73.4956 61.3557L72.8276 60.5663L73.4146 59.0077L72.6758 58.2081L71.9368 58.4409L71.1878 56.9734L72.0988 56.5585ZM58.6972 43.0472L59.2135 43.2192L58.4645 46.5288L59.2843 47.7635L53.8792 45.9924L55.6708 44.5957L55.8125 43.2699L58.6972 43.0472ZM81.8969 38.2499L82.4637 39.4847L82.9496 38.0678L83.9517 38.7155L85.1258 38.0475L85.6117 38.9685L86.8972 38.1184L87.4944 38.5232L87.3729 39.5353L88.0916 39.8288L87.0186 40.8308L87.8486 41.438L89.2252 41.2659L90.116 41.5392L90.9055 41.2659L93.1323 40.851L94.2053 42.278L94.843 42.0149L95.6021 42.9764L96.2094 43.0472L96.0272 42.0149L98.0213 42.7537L99.1651 42.2173L103.457 44.8588L104.125 45.6381L105.532 45.5976L105.653 47.6319L103.416 51.9231L103.7 53.9271L102.576 54.7873L101.898 54.4938L99.4991 55.4856L98.5071 54.7064L97.2317 54.7772L95.2073 52.4494L92.8287 52.6822L92.2011 52.0243L92.7274 50.3848L91.776 50.0913L91.7659 49.2614L90.2375 49.1399L90.1969 48.4416L89.2151 48.3606L88.1422 47.7129L86.3304 45.1928L85.1967 45.1827L85.136 44.3832L83.8201 43.9581L79.9737 40.1931L80.0446 38.7054L80.9556 37.8856L81.8969 38.2499ZM23.3917 37.167L23.3411 38.2398L24.414 37.0759L27.1672 38.2196L28.8981 40.598L28.8373 41.5797L27.9871 41.5493L28.2705 42.4298L27.4304 44.8284L24.0395 49.8079L20.9725 52.1357L19.5453 54.5444L16.8427 55.7083L16.448 52.247L17.1869 49.3626L15.7698 48.8464L16.0836 47.1562L16.8124 46.8627L15.952 45.8608L17.1565 44.1504L16.8832 43.6342L17.1768 43.0674L17.9561 42.3286L18.4622 40.0413L19.3935 39.6162L20.3551 40.1526L21.4482 39.1709L20.1425 39.1608L21.2458 37.5111L22.5617 37.5617L23.4828 36.7723L23.3917 37.167ZM5.29353 30.7403L5.39475 32.9669L4.04851 33.9587L3.92705 35.6084L2.98571 36.7926L3.30962 37.3897L1.29532 41.7113L1.21436 37.4706L4.27119 29.0097L4.67607 28.8882L5.29353 30.7403ZM63.5153 1.37988L62.8473 3.11053L63.6267 3.76841L63.5558 4.58819L67.0985 5.58001L66.6127 8.27214L67.7059 9.84088L67.8374 11.4096L70.7121 11.5007L71.704 12.4318L77.2205 12.027L78.4858 12.786L78.5364 13.5552L78.506 15.9134L77.7671 16.4194L77.8785 17.2594L76.9574 17.6035L76.512 19.152L77.3825 19.1621L77.342 19.8605L77.6861 20.1034L78.8907 20.1135L78.7894 21.3988L79.7713 20.9535L79.913 22.1073L80.6924 22.3704L79.2449 24.4452L80.0243 24.931L78.7287 25.6901L78.1517 27.4308L79.1943 27.6332L80.3887 26.9248L82.5346 27.3701L80.0952 33.1187L79.0729 33.7766L78.8907 34.738L78.1517 34.819L78.9615 37.3796L78.0404 37.3694L76.1881 35.8513L74.3256 33.3616L74.6192 32.5115L72.3417 27.8862L70.7627 27.866L69.9529 26.6414L68.8699 26.7527L68.4549 24.7893L66.7038 24.3642L66.6936 22.5931L65.7826 21.6822L64.5883 21.5L63.8797 22.0972L64.2036 20.2653L63.2521 19.3848L62.3108 17.978L61.2885 15.4478L60.2965 15.802L59.507 14.709L58.2924 15.0329L57.7357 15.3668L56.0959 15.6907L56.3287 14.4661L55.61 14.0815L56.2579 12.9986L54.9015 12.1585L54.3853 9.78016L54.6889 8.67697L53.8286 6.72366L54.2638 5.4181L58.0292 3.47489L58.0191 2.78669L59.5981 1.89605L63.5153 1.37988Z" stroke="#814D99"/>
<circle cx="74.2144" cy="68.7576" r="4" fill="white"/>
<ellipse cx="74.2146" cy="68.7576" rx="2.00027" ry="2" fill="#1B242D"/>
</svg>
