<svg width="188" height="200" viewBox="0 0 188 200" fill="current" xmlns="http://www.w3.org/2000/svg">
<path d="M25.4507 39.3597L28.1926 36.6178L33.0409 32.9587L33.0896 33.135L24.6757 41.5489L24.7004 40.61L25.4507 39.3597Z" fill="#907C72"/>
<path d="M25.8747 50.3499L25.8341 49.9211L25.5592 49.2512L36.5831 38.2273L36.7658 38.3834L38.0285 38.1961L25.8747 50.3499Z" fill="#907C72"/>
<path d="M24.4612 61.7634L24.5099 60.3005L43.5337 41.2767L44.629 41.5956L24.4612 61.7634Z" fill="#907C72"/>
<path d="M32.8058 63.4188L32.6765 63.0478L31.8291 62.9813L55.4042 39.4062L55.4814 39.5574L56.3682 39.8564L32.8058 63.4188Z" fill="#907C72"/>
<path d="M15.0142 89.7962L18.3126 86.4977L19.8561 86.3686L15.3302 90.8944L15.0142 89.7962Z" fill="#907C72"/>
<path d="M7.98113 106.829L11.9264 103.005L13.799 102.347L15.1226 99.6878L28.1274 86.683L29.4024 86.8222L4.83691 111.388L5.58233 109.228L7.98113 106.829Z" fill="#907C72"/>
<path d="M5.68638 120.538L5.42871 119.382L110.401 14.4096L110.94 15.1764L111.001 15.2232L5.68638 120.538Z" fill="#907C72"/>
<path d="M8.22267 128.002L7.75331 127.057L115.003 19.807L115.48 20.7443L8.22267 128.002Z" fill="#907C72"/>
<path d="M12.4114 133.813L11.9719 132.838L120.709 24.1016L121.153 24.3864L121.734 24.4907L12.4114 133.813Z" fill="#907C72"/>
<path d="M17.3274 138.897L17.4632 137.84L17.1569 137.653L131.286 23.5242L131.995 24.2298L17.3274 138.897Z" fill="#907C72"/>
<path d="M15.9234 150.301L15.5501 149.388L15.53 149.28L133.66 31.1504L134.281 31.9433L15.9234 150.301Z" fill="#907C72"/>
<path d="M15.4691 159.341L18.0078 156.803L18.2426 157.789L16.4915 158.598L16.7589 159.466L15.7642 160.46L15.4185 159.398L15.4691 159.341Z" fill="#907C72"/>
<path d="M21.5232 154.701L21.1982 154.064L20.7544 154.056L37.8499 136.96L37.7937 138.431L21.5232 154.701Z" fill="#907C72"/>
<path d="M21.0653 163.745L24.1622 160.648L23.3836 162.841L22.1333 164.091L22.5039 163.315L21.0653 163.745Z" fill="#907C72"/>
<path d="M28.757 157.468L28.2532 156.746L28.2227 156.588L36.87 147.94L37.1492 149.075L28.757 157.468Z" fill="#907C72"/>
<path d="M37.2583 158.966L36.4015 159.266L35.1767 160.177L32.4944 163.244L32.2498 162.561L37.8129 156.997L37.6439 158.581L37.2583 158.966Z" fill="#907C72"/>
<path d="M62.925 143.3L62.8908 143.296L62.3076 142.503L115.344 89.4661L115.943 90.2818L62.925 143.3Z" fill="#907C72"/>
<path d="M67.0666 149.158L67.025 147.785L118.688 96.1219L118.916 96.3149L119.092 97.1323L67.0666 149.158Z" fill="#907C72"/>
<path d="M71.2611 154.963L70.9439 153.867L121.662 103.149L121.983 103.582L122.583 103.642L71.2611 154.963Z" fill="#907C72"/>
<path d="M73.847 162.378L73.4887 161.322L125.579 109.232L126.369 109.856L73.847 162.378Z" fill="#907C72"/>
<path d="M77.0008 167.81L77.9219 167.585L78.9746 166.108L78.8291 165.981L126.198 118.613L127.089 119.136L76.515 169.71L76.4239 169.417L76.7499 168.06L77.0008 167.81Z" fill="#907C72"/>
<path d="M77.4503 178.774L77.5171 178.101L78.7114 177.494L77.7725 177.038L95.4634 159.347V160.268L95.6074 160.617L93.8926 162.332L92.5179 162.849L91.0805 164.529L91.3451 164.879L77.4503 178.774Z" fill="#907C72"/>
<path d="M76.6244 189.6L76.1723 188.638L86.6497 178.161L86.9003 179.324L76.6244 189.6Z" fill="#907C72"/>
<path d="M83.5115 192.713L82.4827 192.328L88.0862 186.724L88.1553 186.815L88.3033 187.921L83.5115 192.713Z" fill="#907C72"/>
<path d="M86.9661 199.258L86.2087 198.602L88.5862 196.224L88.6513 196.268L88.7007 197.524L86.9661 199.258Z" fill="#907C72"/>
<path d="M118.809 167.416L117.52 168.705L116.988 167.823L138.62 146.19L139.049 147.02L138.016 147.344L138.269 147.956L119.456 166.768L118.916 166.675L118.809 167.416Z" fill="#907C72"/>
<path d="M128.159 178.066L127.372 177.439L137.968 166.842L138.026 168L137.416 168.808L128.159 178.066Z" fill="#907C72"/>
<path d="M131.325 184.9L130.948 183.862L139.482 175.328L139.772 176.453L131.325 184.9Z" fill="#907C72"/>
<path d="M132.89 191.92L133.525 191.286L133.279 192.685L132.89 191.92Z" fill="#907C72"/>
<path d="M139.585 186.639L138.88 185.931L144.079 180.731L144.494 181.016L145.171 181.054L139.585 186.639Z" fill="#907C72"/>
<path d="M142.349 193.876L141.77 193.04L146.677 188.133L147.187 188.283L147.372 188.852L142.349 193.876Z" fill="#907C72"/>
<path d="M151.421 194.804L150.177 194.633L152.291 192.519L152.569 193.655L151.421 194.804Z" fill="#907C72"/>
<path d="M142.005 152.805L142.025 152.839L142.264 153.96L123.61 172.614L123.765 171.219L123.694 171.116L142.005 152.805Z" fill="#907C72"/>
<path d="M122.894 173.33L122.677 173.548L122.53 173.334L122.894 173.33Z" fill="#907C72"/>
<path d="M186.309 89.9152L185.13 91.0949L183.528 91.2822L185.452 89.3579L185.924 89.9185L186.309 89.9152Z" fill="#907C72"/>
<path d="M169.343 95.4676L171.574 94.6502L168.469 97.7554L167.367 97.443L167.473 97.3375L168.473 96.9221L169.121 95.6895L169.343 95.4676Z" fill="#907C72"/>
<path d="M132.976 123.249L132.956 123.268L131.385 123.426L132.95 121.86L132.976 121.87V123.249Z" fill="#907C72"/>
<path d="M163.997 92.2273L161.455 94.7697L160.689 94.1209L162.042 92.7689L163.797 91.9325L163.997 92.2273Z" fill="#907C72"/>
<path d="M174.452 81.7723L170.868 85.3562L169.736 85.0742L175.494 79.3164L175.539 80.3645L174.452 81.7723Z" fill="#907C72"/>
<path d="M165.866 78.9446L165.923 79.15L167.295 78.9296L160.281 85.9435L159.86 85.4249L159.452 85.3584L165.866 78.9446Z" fill="#907C72"/>
<path d="M159.701 75.1098L161.182 75.0421L144.497 91.7278L144.1 91.4569L143.389 91.4213L159.701 75.1098Z" fill="#907C72"/>
<path d="M152.84 71.9703L154.07 72.1551L145.363 80.8615L145.476 80.2025L144.731 80.0793L152.84 71.9703Z" fill="#907C72"/>
<path d="M151.797 63.0136L152.572 63.483L151.579 64.646L138.788 77.4368L138.472 76.8121L137.202 77.6079L151.797 63.0136Z" fill="#907C72"/>
<path d="M148.926 55.8847L149.341 56.8833L132.778 73.4469L132.733 73.3002L132.086 72.7245L148.926 55.8847Z" fill="#907C72"/>
<path d="M146.146 48.6641L147.045 49.1799L125.293 70.932L124.979 70.8206L123.665 71.1452L146.146 48.6641Z" fill="#907C72"/>
<path d="M147.697 37.1136L148.278 37.9463L117.133 69.092L116.605 68.2051L147.697 37.1136Z" fill="#907C72"/>
<path d="M139.672 35.1385L140.405 35.3269L140.99 35.2351L110.982 65.243L110.91 65.2643L108.824 67.1366L108.855 67.3692L47.7956 128.429L45.6882 129.122L139.672 35.1385Z" fill="#907C72"/>
<path d="M55.6392 129.171L56.8172 129.407L109.801 76.4238L109.624 76.1947L110.049 74.7612L55.6392 129.171Z" fill="#907C72"/>
<path d="M112.572 82.2386L56.8627 137.948L56.9491 138.407L56.5544 139.409L55.6231 139.521L55.1281 141.097L113.308 82.9162L112.572 82.2386Z" fill="#907C72"/>
<path d="M40.3042 154.506L39.2531 155.557L40.7134 154.783L40.3042 154.506Z" fill="#907C72"/>
<path d="M143.616 101.194L145.306 99.5044L146.392 99.8328L144.181 102.043L143.616 101.194Z" fill="#907C72"/>
<path d="M128.232 117.993L128.026 117.923L127.281 118.943L128.232 117.993Z" fill="#907C72"/>
<path d="M148.481 97.7439L147.511 97.5901L147.403 97.4072L151.611 93.1997L150.618 94.8271L151 95.2249L148.481 97.7439Z" fill="#907C72"/>
<path d="M156.738 89.4869L153.609 92.6152L152.073 92.7372L155.221 89.5889L155.578 90.2424L156.226 89.3821L156.738 89.4869Z" fill="#907C72"/>
<path d="M156.887 87.923L158.139 87.8438L158.179 87.1555L158.171 86.6397L156.887 87.923Z" fill="#907C72"/>
<path d="M131.302 123.509L131.869 124.355L102.862 153.363L101.452 153.359L131.302 123.509Z" fill="#907C72"/>
<path d="M111.365 153.445L134.258 130.553L134.342 131.049L134.538 131.686L112.534 153.691L111.365 153.445Z" fill="#907C72"/>
<path d="M91.0267 173.784L89.3052 175.505L89.8557 176.369L91.5254 174.699L91.0267 173.784Z" fill="#907C72"/>
<path d="M116.1 158.71L116.214 159.772L116.328 159.897L136.301 139.923L135.803 139.007L116.1 158.71Z" fill="#907C72"/>
<path d="M179.513 95.2971L180.134 95.2825L180.113 94.6975L179.513 95.2971Z" fill="#907C72"/>
<path d="M146.514 19.7102L139.299 26.9253L138.988 26.3599L138.233 26.5776L145.586 19.2243L146.144 19.5992L146.514 19.7102Z" fill="#907C72"/>
<path d="M144.429 10.3813L145.102 10.3387L145.043 11.1814L132.122 24.1022L131.367 23.4438L144.429 10.3813Z" fill="#907C72"/>
<path d="M134.48 10.3308L135.49 10.7342L128.71 17.5148L127.955 16.855L134.48 10.3308Z" fill="#907C72"/>
<path d="M125.019 11.2061L123.987 11.1888L123.835 12.0491L120.799 14.1036L121.808 14.4171L125.019 11.2061Z" fill="#907C72"/>
<path d="M135.952 28.8585L135.014 29.7961L135.962 28.8901L135.952 28.8585Z" fill="#907C72"/>
<path d="M104.251 10.559L105.193 11.032L42.33 73.8946L41.6656 73.1448L104.251 10.559Z" fill="#907C72"/>
<path d="M97.8696 6.94078L98.8969 7.32773L37.2163 69.0083L36.1474 68.663L97.8696 6.94078Z" fill="#907C72"/>
<path d="M91.0275 3.78292L91.8508 4.37379L64.5798 31.6448L64.0358 30.7746L91.0275 3.78292Z" fill="#907C72"/>
<path d="M83.0301 1.78027L84.0587 2.16594L77.7592 8.4654L77.8814 7.88948L77.8392 6.97113L83.0301 1.78027Z" fill="#907C72"/>
<path d="M32.9306 81.8798L38.4066 76.4037L39.9506 76.274L33.3705 82.8541L32.9306 81.8798Z" fill="#907C72"/>
<path d="M131.506 186.407L132.022 186.276L132.478 188.057L132.195 190.071L133.065 190.688L132.761 192.419L132.144 191.205L130.869 190.081L129.067 190.415L127.711 191.832L127.093 191.053L127.721 188.887L128.632 188.695L128.966 187.258L130.028 186.519L131.506 186.407ZM22.391 159.628L23.8081 159.921L22.4821 163.656L22.9174 165.022L21.4598 164.152L21.9861 163.049L20.4982 163.494L20.235 162.239L21.1662 158.514L22.391 159.628V159.628ZM16.9859 155.023L18.2714 155.448L17.3705 156.035L17.7248 157.523L15.9737 158.332L16.3887 159.678L16.085 160.721L15.4473 160.812L14.9007 159.132L15.589 158.363L15.3056 155.509L16.1255 154.193L16.9859 155.023V155.023ZM2.83529 125.389L3.14907 126.199L2.35955 127.353L2.54176 125.551L1.46883 125.389L1.28662 124.6L2.95676 123.618L2.83529 125.389ZM144.381 99.1155L146.892 99.8746L148.845 101.625L148.663 103.791L146.234 104.358L144.24 102.86L144.584 102.091L143.845 102.051L142.215 99.6013L144.381 99.1155V99.1155ZM165.668 91.5249L166.66 92.3346L166.255 93.3467L163.704 94.5713L161.184 94.713L159.524 93.3062L159.625 92.4763L161.346 92.5876L163.279 91.6666L164.2 93.0228L165.111 92.1625L165.071 91.3023L165.668 91.5249V91.5249ZM184.819 88.9542L185.406 89.6526L186.6 89.6424L185.325 90.7456L182.815 91.0391L181.155 92.2334L179.515 92.2233L179.616 95.0166L174.454 95.138L173.189 96.6157H171.974L169.838 97.8909L169.626 96.9092L168.047 97.5165L166.761 97.1521L167.956 96.6561L168.695 95.2494L171.458 94.2373L175.861 91.1302L177.916 90.9582L177.784 90.5331L180.922 88.9745L182.592 89.9562L183.118 89.0757L184.819 88.9542V88.9542ZM130.757 7.91703L131.972 8.74694L132.923 8.52428L133.855 10.0222L136.011 10.8824L136.375 9.95132L137.296 9.84L137.681 10.761L138.784 11.1051L140.748 10.3157L144.584 10.0728L144.331 13.7163L145.606 14.4045L144.027 15.8214L143.562 17.9467L145.626 19.3333L149.24 20.4162L150.394 22.663L148.795 23.1387L146.214 26.2256L142.529 26.8632L141.861 26.4786L140.373 27.1769L139.078 27.1972L138.47 26.094L136.749 26.5899L135.363 25.8713L134.766 26.5899L130.049 22.4809L131.365 20.73L131.334 19.2726L129.846 18.6957L125.889 15.2344L122.69 14.364L124.067 14.1312V13.443L122.508 13.3823L122.599 14.2122L122.073 14.3944L120.281 13.8377L123.318 11.7832L123.469 10.9229L125.281 10.9533L126.648 9.33396L128.237 9.46551L128.48 8.3826L130.757 7.91703ZM76.9689 0.680664L80.6128 1.99639L82.1514 1.379L84.0138 2.07734L87.5869 1.41949L92.2126 4.73911L101.08 8.07896L103.074 9.96145L109.056 12.9673L110.422 14.9105L113.206 17.0257L114.967 20.4871L120.635 24.1204L124.522 24.8188L127.802 23.2703L128.389 24.0293L130.018 22.5112L135.13 27.602L135.444 28.6242L133.116 30.8508L134.178 32.2069L133.571 32.8344L134.442 34.5651L135.312 35.061L138.075 34.5955L139.887 35.061L143.815 34.4437L144.513 34.7068L145.454 35.9314L146.73 36.2047L148.957 39.3927L150.04 39.5344L150.222 42.5302L147.651 44.9085L145.586 44.8073L144.655 46.0016L144.645 47.8334L148.4 49.9892L149.787 49.7159L149.574 51.3049L147.712 53.9464L149.422 58.0555L148.349 58.2376L148.289 58.7943L148.076 60.1808L148.562 61.1018L152.054 63.2171L150.93 64.5328L151.315 65.4032L150.849 66.4658L150.009 66.6986L149.23 68.0953L149.108 70.2105L150.06 71.3643L154.706 72.0626L156.508 73.8945L158.279 74.0666L158.917 74.856L161.356 74.7446L162.044 75.3215L162.186 77.7404L165.02 77.4975L165.405 78.8841L167.358 78.5703L170.446 79.2686L172.288 77.8315L174.96 78.6715L175.021 80.0985L172.662 83.155L172.359 84.4809L171.114 85.2804L165.304 83.8331L162.864 85.3614L161.994 84.7946L161.245 85.1691L161.67 85.6751L162.055 86.4949L160.263 86.2925L159.342 85.1589L158.411 85.0071L157.641 85.6953L157.662 86.8896L157.621 87.5778L154.584 87.7701L154.271 88.5292L155.06 89.9764L155.708 89.1162L157.439 89.4704L156.234 90.7456L158.147 90.8064L159.008 91.8792L151.366 92.4864L150.1 94.5611L151.993 96.5347L151.933 98.0427L150.475 97.6682L150.222 98.5893L149.159 98.6904L148.653 97.5873L146.993 97.3242L146.254 96.0692L147.094 95.138H148.036L147.732 94.1563L146.922 93.9033L146.649 95.0166L145.454 95.4923L143.946 93.3467L146.335 94.0855L145.08 92.2131L143.582 91.1909L139.938 91.0088L140.657 88.3369L139.685 86.6265L141.689 87.1122L143.076 86.7479L144.007 85.6548L143.977 83.1246L145.93 84.582L146.942 83.9951L145.809 83.2866L145.88 81.3839L144.786 80.9386L144.958 79.9366L142.145 79.4711L139.007 79.9366L137.833 79.1371L138.835 78.2869L137.954 76.5461L134.209 78.8942L134.259 77.4469L133.268 76.455L132.215 73.0342L131.385 72.2954L127.366 71.5869L124.461 70.5546L121.88 71.1923L120.514 72.8723L118.5 71.0101L117.558 71.1214L117.194 70.4737L117.7 69.2187L116.698 68.9657L115.615 67.1439L115.767 65.8788L113.681 64.0267L110.392 64.9983L108.307 66.8707L108.681 69.6842L110.139 72.4472L109.106 75.9288L111.09 78.4995L111.04 81.0398L113.185 83.0133L111.505 86.505L113.317 87.1426L115.574 90.2193L116.171 92.4054L116.465 93.3062L117.305 94.5105L117.599 95.3708L118.398 96.0489L118.763 97.7391L119.643 98.0832L119.168 99.3584L121.405 100.613L120.736 102.334L121.465 103.316L122.579 103.427L124.168 106.291L124.391 108.437L125.929 109.651L124.785 111.22L124.158 114.803L124.644 117.738L126.607 118.892L127.508 117.657L128.844 118.112L129.796 117.677L130.312 118.881L129.806 119.944L130.342 120.774L132.458 121.604V123.001L130.737 123.173L134.249 128.415L133.541 129.114L133.824 130.783L134.482 132.919L133.642 132.858L133.156 134.144L134.047 134.963L134.806 134.7L134.361 136.097L135.636 137.241L134.887 138.01L136.881 141.673L137.256 144.285L138.531 146.754L137.499 147.078L137.903 148.06L138.642 149.446L140.515 150.327L140.95 151.602L141.507 152.574L142.074 155.225L142.721 155.205L142.924 156.278L143.936 156.753L141.598 158.342L142.246 160.731L141.841 161.682L140.13 161.035L139.229 159.871L138.278 160.184L138.096 161.622L137.114 161.156L136.507 161.682L136.092 163.453L137.306 164.718L137.003 165.984L137.448 166.52L137.509 167.735L136.385 169.222L136.901 173.25L138.075 174.121L138.956 175.032L139.462 176.995L141.011 178.716L143.977 180.75L145.596 180.841L146.082 182.784L147.884 183.371L146.578 184.383L146.942 185.992L145.738 187.743L146.669 188.017L146.963 188.917L148.876 189.312L149.129 191.215L150.121 190.982L151.69 191.913L152.206 194.018L151.831 194.666L147.054 194.008L145.738 195.445L143.562 193.998L141.699 194.2L141.861 193.654L139.614 190.405L140.242 189.383L139.472 188.816L140.151 187.46L137.397 184.697L135.596 184.272L132.711 185.132L131.061 185.335L129.735 181.681L128.196 180.851L128.895 179.525L128.257 178.291L124.573 175.355L123.51 175.244L122.012 173.068L123.014 173.058L123.247 170.953L121.658 168.615L120.514 168.089L119.977 166.682L118.398 166.409L117.872 170.042L117.366 170.113L117.487 169.243L116.131 166.996L116.931 166.226L116.688 165.225L117.639 164.708L117.69 163.393L116.85 160.761L115.696 159.506L115.321 156.005L114.42 153.93L110.564 153.12L99.8548 153.09L98.9944 154.152L96.1602 155.023L94.6318 156.369L94.2775 157.32L94.9456 159.041V160.002L95.4719 161.277L92.0001 162.583L90.5628 164.263L91.3422 165.295L90.3907 166.814L90.7753 167.613L91.9798 167.421L92.9009 168.22L92.6378 169.991L93.1439 169.971L93.1236 170.69L92.1013 171.024L91.4839 169.435L89.8441 168.747L88.4068 169.657L91.0689 174.546L89.3582 176.135L88.1132 174.181L86.3723 174.799L86.0078 177.319L86.8885 181.408L85.9977 184.393L87.6375 186.549L87.8298 187.986L88.6294 188.006L88.8319 189.17L88.7914 191.974L87.9513 192.146L88.6396 193.998L86.8682 195.152L88.1335 196.002L88.2043 197.803L88.6294 198.593L87.6476 199.109L86.6759 199.19L85.6839 198.33L85.6131 196.225L86.3115 195.465L84.5098 194.332L84.7021 193.087L81.1898 191.771L79.3476 189.859L78.5985 190.942L76.5337 190.243L74.7218 186.387L74.7016 184.626L75.3595 184.98L76.4324 183.897L78.5884 183.057L77.7685 181.489L78.1836 179.161L76.8879 178.958L76.9993 177.835L78.1937 177.228L76.0883 176.206L76.1389 175.244L77.2523 174.505L76.4426 174.08L76.0377 171.985L77.6775 172.046L77.8799 171.56L76.3413 170.548L75.9061 169.151L76.2806 167.593L77.4041 167.32L78.4568 165.842L77.9102 165.366L75.4 165.741L74.7016 165.042L73.9424 163.919L71.6346 157.118L71.2297 156.379L70.0353 152.25L68.4563 151.217L68.3247 150.053L66.5635 149.375L66.5027 147.371L65.4905 147.068L64.5694 145.449L64.9136 144.669L63.7394 143.192L62.373 143.03L61.4721 141.805L60.2271 143.04L59.6299 143.596L58.7695 143.627L54.6094 140.833L55.1054 139.255L56.0366 139.143L56.4313 138.141L55.8645 135.125L57.1399 131.704L56.7148 129.225L50.6618 128.01L47.3114 128.152L42.6958 129.67L36.8655 133.233L36.5416 135.368L37.3615 135.925L37.2501 138.84L36.0861 146.592L37.6044 152.766L40.1956 154.517L37.3716 156.015L37.0983 158.575L35.8837 159L34.6589 159.911L31.9766 162.978L30.7012 159.415L29.3044 158.727L27.7354 156.48L27.1484 153.434L25.8021 152.978L22.8769 154.264L21.4598 155.326L20.6804 153.798L18.4839 153.758L16.3482 152.341L15.0323 149.122L14.0606 143.91L15.0019 141.016L16.662 139.781L16.9454 137.575L14.425 136.036L12.1577 136.785L11.8135 135.753L12.6233 135.166L10.6292 130.743L8.67569 129.69L7.16751 126.654L4.56616 124.458L5.26458 120.703L3.85762 114.388L3.81712 112.576L5.10262 108.852L11.4086 102.739L13.2812 102.081L15.4676 97.6885L15.6093 93.3973L13.9695 87.6993L15.4979 86.424L22.391 85.8471L29.527 86.6265L33.3734 85.2703L33.424 83.8533L32.341 81.4547L32.5535 80.1289L33.4443 79.8961L34.173 78.2667L37.8473 76.1413L40.2564 75.9389L42.3617 74.2487L37.7967 69.0972L35.4788 68.3483L32.9382 65.0186L32.1588 62.7819L28.6768 62.5086L24.8912 64.3101L23.879 63.4296L24.0409 58.5716L25.6098 52.7522L25.3163 49.6552L24.0207 46.4975L24.1826 40.3441L25.6705 37.8645L32.5231 32.6927L33.3329 35.6278L36.2481 38.1175L38.0903 37.8442L41.7342 40.6376L48.0604 42.4796L49.3561 40.4756L52.1902 38.0972L54.2146 37.824L54.9636 39.2915L58.5063 40.4858L61.8567 37.1864L64.7516 35.7897L66.7558 35.6885L63.1119 29.8589L65.3286 26.9239L64.8427 22.663L69.5393 21.3979L70.5718 18.8576L72.414 18.6552L75.9567 14.2527L77.3636 7.62355L77.0499 0.792009L76.9689 0.680664V0.680664Z" stroke="#907C72"/>
<circle cx="70.2866" cy="90.2349" r="4" fill="white"/>
<ellipse cx="70.2869" cy="90.2349" rx="2.00027" ry="2" fill="#1B242D"/>
</svg>
