<svg width="131" height="134" viewBox="0 0 131 134" fill="current" xmlns="http://www.w3.org/2000/svg">
<path d="M20.2061 12.6046L20.9455 11.8652L22.3699 11.8551L20.2285 13.9965L20.2061 12.6046Z" fill="#F5BC2E"/>
<path d="M20.2018 24.0232L20.1741 23.0135L19.9073 22.9034L31.0171 11.7936L32.4415 11.7835L20.2018 24.0232Z" fill="#F5BC2E"/>
<path d="M24.2466 29.9784L23.8484 29.2985L23.6739 29.1368L43.3253 9.48539L43.7989 9.68443L44.1459 10.079L24.2466 29.9784Z" fill="#F5BC2E"/>
<path d="M1.82323 72.4017L1.63062 72.3221L1.3877 71.4517L2.66306 70.6622L2.71736 70.0934L14.5482 58.2625L15.1739 58.7905L15.557 58.668L1.82323 72.4017Z" fill="#F5BC2E"/>
<path d="M10.1631 74.0618L8.8881 74.3968L8.65187 74.1589L73.0719 9.73885L73.3552 10.6358L73.5922 10.6327L10.1631 74.0618Z" fill="#F5BC2E"/>
<path d="M14.9851 79.2398L14.4375 78.3732L89.5778 3.23291L90.4715 3.6322L90.6425 3.58241L14.9851 79.2398Z" fill="#F5BC2E"/>
<path d="M18.4621 85.7628L18.1204 84.6903L88.0385 14.7722L88.596 15.6289L18.4621 85.7628Z" fill="#F5BC2E"/>
<path d="M21.5146 92.7103L21.71 91.1008L91.7661 21.0447L92.3947 20.8882L93.1088 21.1161L21.5146 92.7103Z" fill="#F5BC2E"/>
<path d="M20.7199 103.505L20.7133 102.097L95.495 27.3157L95.5224 27.3351L95.7664 28.4585L20.7199 103.505Z" fill="#F5BC2E"/>
<path d="M27.9706 106.254L26.9902 105.821L101.134 31.6766L102.192 32.0334L27.9706 106.254Z" fill="#F5BC2E"/>
<path d="M26.5035 117.721L26.47 117.694L25.9284 116.882L102.264 40.5472L102.496 41.0589L102.375 41.8499L26.5035 117.721Z" fill="#F5BC2E"/>
<path d="M29.9023 124.323L30.033 124.09L29.5216 123.289L103.585 49.2261L104.169 50.0564L29.9023 124.323Z" fill="#F5BC2E"/>
<path d="M34.7298 129.495L33.6872 129.124L106.981 55.83L108.148 56.0765L34.7298 129.495Z" fill="#F5BC2E"/>
<path d="M46.2202 128.005L45.0945 128.118L44.8535 127.957L113.654 59.1563L114.377 59.8475L46.2202 128.005Z" fill="#F5BC2E"/>
<path d="M52.6364 131.589L51.7057 131.105L120.804 62.0069L121.847 62.3782L52.6364 131.589Z" fill="#F5BC2E"/>
<path d="M67.9432 126.282L66.9557 125.855L122.939 69.8717L123.492 70.7326L67.9432 126.282Z" fill="#F5BC2E"/>
<path d="M76.3967 127.828L75.728 127.083L126.402 76.4087L126.845 77.3796L76.3967 127.828Z" fill="#F5BC2E"/>
<path d="M83.9113 130.314L83.0975 129.713L122.299 90.5116L122.69 91.0658L122.852 91.0556L122.961 91.2635L121.518 92.7069L121.516 92.7053L121.501 92.7236L83.9113 130.314Z" fill="#F5BC2E"/>
<path d="M92.8117 131.413L91.9417 130.869L102.16 120.651L102.809 121.416L92.8117 131.413Z" fill="#F5BC2E"/>
<path d="M103.175 131.05L102.142 131.114L101.892 130.919L104.683 128.128L105.004 129.221L103.175 131.05Z" fill="#F5BC2E"/>
<path d="M128.195 84.6155L125.837 86.9733L127.913 85.8637L128.195 84.6155Z" fill="#F5BC2E"/>
<path d="M96.8925 5.91829L92.9455 9.8652L94.743 8.88489L95.1377 7.93354L97.1217 6.5976L96.8925 5.91829Z" fill="#F5BC2E"/>
<path d="M67.6612 5.14956L68.9691 5.25582L18.9022 55.3228L18.9352 53.8755L25.4229 47.3879L25.6198 47.354L25.6146 47.1962L67.6612 5.14956Z" fill="#F5BC2E"/>
<path d="M53.3709 9.43986L54.4169 9.17839L59.6196 4.6038L59.6211 4.60383L26.8731 37.3518L26.8841 35.9266L53.3709 9.43986Z" fill="#F5BC2E"/>
<path d="M7.46551 56.7594L7.43053 56.7461L7.39841 56.8265L7.46551 56.7594Z" fill="#F5BC2E"/>
<path d="M85.7634 1.49361L89.9539 3.36595L92.8387 2.52593L94.4785 5.35975L96.3207 5.49132L96.6041 6.33135L94.6202 7.66729L94.2254 8.61864L91.6645 10.0153L88.9114 10.6529L87.8283 11.8472L87.4335 11.1488L85.8039 11.8674L88.6887 16.3003L87.8789 17.2719L88.6785 18.7192L87.9903 20.3183L89.3162 21.2595L91.8771 20.6219L93.78 21.2292L92.0897 25.0042L95.0048 27.0689L95.7741 30.6111L97.2013 30.4391L98.1629 29.3258L99.418 31.0058L103.467 32.3722L103.497 35.6817L101.412 36.9771L101.817 38.2017L101.26 39.2138L101.979 40.7927L101.665 42.8371L104.337 45.3167L102.576 47.0473V48.2618L105.238 52.047L105.673 55.397L110.562 56.4293L114.469 60.1639L113.801 60.8622L114.267 61.5302L118.245 61.014L121.514 62.1779L120.36 67.9974L122.071 69.06L123.326 71.0134L125.877 70.7806L125.796 71.5093L123.731 73.0375L123.67 75.0313L125.816 75.9928L126.505 77.5008L129.683 77.8753L129.875 79.5047L128.458 80.9014L127.395 85.5974L122.152 88.4009L121.302 89.5648L122.172 90.7995L122.334 90.7894L122.921 91.9027L122.658 93.522L120.998 92.4391L120.32 93.2993L121.636 95.4956L121.028 96.4874L119.419 98.0156L118.498 100.212L114.206 104.25L113.629 106.072L111.352 106.284L111.666 108.278L109.631 109.827L107.182 114.381L105.734 115.423L103.902 115.241L103.163 117.498L101.483 118.611L100.025 118.48L103.831 122.963L103.305 124.927L104.783 129.967L103.983 131.586L103.436 130.736L101.625 130.847L100.582 130.038L96.7154 129.501L92.7375 131.424L90.7637 130.19L88.9215 130.23L88.8709 129.471L87.6866 128.672L86.3505 128.611L83.6277 130.22L81.1174 128.368L77.6253 130.594L76.4714 129.694L76.0665 127.771L74.2142 125.706L72.4631 126.526L69.9123 125.544L67.8576 126.202L66.2178 125.494L65.0943 126.384L64.325 125.099L63.0193 125.018L61.3188 126.05L60.013 125.635L58.3732 127.983L59.9523 128.226L59.4664 130.736L57.685 132.052L56.5412 131.769L55.9743 133.074L55.1545 133.135L54.6484 132.345L52.9074 132.528L52.4519 131.495L50.3667 130.412L49.9517 128.763L48.0893 130.088L46.1864 127.69L44.577 127.852L42.2388 126.293L39.5463 127.619L37.6839 127.477L36.2263 129.947L29.9507 127.71L29.9102 125.706L28.7765 125.139L29.5154 123.824L28.4425 122.144L28.8777 120.848L28.2603 119.35L25.9524 117.427L23.6548 113.986L24.3937 113.156L26.2561 114.168L27.6023 113.318L28.6145 111.254L28.9688 106.659L26.0638 105.373L24.2418 106.477L22.1668 106.75L20.2032 103.42L20.193 101.264L17.2981 97.6412L21.5797 95.1717L20.9522 92.8135L21.2052 90.7287L19.3428 90.4756L20.5068 88.917L18.4217 86.9941L17.3285 83.5631L15.7596 82.5409L15.5065 80.618L13.8566 78.0068L9.75723 73.7662L8.37052 74.1306L6.98381 72.7339L4.39258 73.412L1.11304 72.0558L0.870117 71.1854L2.14548 70.396L2.37829 67.9569L1.74061 62.7953L4.08892 61.1051L5.02014 61.2164L6.91295 56.4799L9.63577 57.5122L12.7736 56.9353L14.6563 58.5243L17.1868 57.7146L16.9641 57.0669L18.3812 55.2047L18.4622 51.6624L21.0939 49.9823L21.8632 47.6444L25.1022 47.0878L24.9706 43.08L25.416 40.5194L26.3371 39.4668L26.3776 34.2344L23.3309 29.0323L19.7375 25.7026L19.6566 22.7473L17.2779 21.7656L19.7983 19.1848L19.6768 11.6043L35.3457 11.493L37.4915 9.22589L40.2953 8.16321L43.2813 9.41819L44.83 11.1792L53.8993 8.91215L59.102 4.33755L61.3188 4.37803L63.3938 5.49132L65.7826 4.77274L69.0216 5.03588L71.3193 8.45671L72.4125 9.02348L72.8376 10.3695L75.1657 10.3392L77.4836 7.73814L78.4857 7.7685L79.1132 6.58437L82.1701 6.48315L81.7855 4.48936L82.3523 3.06233L83.5467 1.45312L85.7634 1.49361Z" stroke="#F5BC2E"/>
<circle cx="90.8701" cy="77.9567" r="4" fill="white"/>
<ellipse cx="90.8704" cy="77.9567" rx="2.00027" ry="2" fill="#1B242D"/>
</svg>
