<svg width="111" height="287" viewBox="0 0 111 287" fill="current" xmlns="http://www.w3.org/2000/svg">
<path d="M23.284 21.5265L23.9826 20.8279L25.8005 20.4243L24.7356 21.4891L23.357 21.6088L23.284 21.5265Z" fill="#A2CF6C"/>
<path d="M30.9134 23.8971L30.9688 23.8961L31.8697 23.1067L31.8314 22.9791L35.6652 19.1453L37.1283 19.0964L30.1854 26.0393L30.0274 25.8798L29.6428 26.3049L28.6733 26.1372L30.9134 23.8971Z" fill="#A2CF6C"/>
<path d="M23.5049 42.7198L23.2356 42.6398L22.5985 42.212L48.0864 16.7241L48.1357 16.7812L49.497 16.7277L23.5049 42.7198Z" fill="#A2CF6C"/>
<path d="M32.3778 43.847L29.6429 45.1676L53.4775 21.3331L54.0739 22.1509L32.3778 43.847Z" fill="#A2CF6C"/>
<path d="M43.1368 43.0879L41.6772 43.1333L60.0307 24.7798L61.6442 24.5806L43.1368 43.0879Z" fill="#A2CF6C"/>
<path d="M51.3516 43.4589L52.0205 42.79L52.8526 43.1054L53.1976 43.0271L51.7035 44.5212L52.2959 43.7531L51.3516 43.4589Z" fill="#A2CF6C"/>
<path d="M49.4803 45.3302L49.5711 45.2394L51.6241 44.6006L50.8074 45.4173L50.5954 45.3725L49.8261 46.0101L49.9577 45.2915L49.4803 45.3302Z" fill="#A2CF6C"/>
<path d="M51.446 54.7788L50.8153 53.9952L59.4862 45.3243L60.6221 45.6026L51.446 54.7788Z" fill="#A2CF6C"/>
<path d="M31.0818 95.1429L29.8524 94.9581L35.3566 89.4539L35.7087 90.5161L31.0818 95.1429Z" fill="#A2CF6C"/>
<path d="M38.2056 98.0191L36.7237 98.0868L40.9638 93.8467L41.5767 93.8511L44.3097 91.915L38.2056 98.0191Z" fill="#A2CF6C"/>
<path d="M44.3268 101.898L42.8824 102.13L42.8386 101.972L48.3579 96.4526L49.4937 96.731L44.3268 101.898Z" fill="#A2CF6C"/>
<path d="M51.2075 105.017L52.4983 103.344L52.4562 102.354L54.7492 100.061L54.7656 100.379L55.6665 100.558L51.2075 105.017Z" fill="#A2CF6C"/>
<path d="M93.9306 72.2941L93.4886 71.3219L107.021 57.7892L106.6 58.995L106.935 59.2902L93.9306 72.2941Z" fill="#A2CF6C"/>
<path d="M97.9551 78.2696L96.7635 78.047L109.836 64.9742L110.072 65.442L109.824 66.4007L97.9551 78.2696Z" fill="#A2CF6C"/>
<path d="M108.639 76.1717L107.565 77.2454L108.22 77.4048L108.767 76.6457L108.639 76.1717Z" fill="#A2CF6C"/>
<path d="M106.924 77.8861L106.317 78.4937L106.894 78.0626L106.924 77.8861Z" fill="#A2CF6C"/>
<path d="M105.191 79.6199L105.032 80.4511L104.424 80.4815L104.399 80.4117L105.191 79.6199Z" fill="#A2CF6C"/>
<path d="M103.129 53.0953L91.3377 64.8871L90.4928 64.3177L105.309 49.5013L105.831 50.3939L103.669 52.5559L103.341 52.4975L103.027 52.9327L103.129 53.0953Z" fill="#A2CF6C"/>
<path d="M104.921 41.3037L103.189 42.4273L103.135 43.0897L85.3036 60.9211L84.3219 61.1913L84.1123 62.1124L82.8124 63.4123L82.4106 62.3999L104.646 40.1646L105.074 41.1507L104.921 41.3037Z" fill="#A2CF6C"/>
<path d="M102.365 32.4455L102.42 32.519L101.957 34.2679L79.0905 57.1343L79.6354 56.475L78.9793 55.8312L102.365 32.4455Z" fill="#A2CF6C"/>
<path d="M102.341 12.469L103.15 13.0748L69.6302 46.5945L69.726 46.2024L67.8838 47.3966L67.6251 47.1854L102.341 12.469Z" fill="#A2CF6C"/>
<path d="M98.2498 7.97494L61.7352 44.4895L61.5774 43.2331L62.8689 41.9416L63.2884 41.6075L63.2433 41.5672L63.8678 40.9427L64.2196 41.0306L65.9505 39.6036L65.5585 39.252L65.6983 39.1122L65.7176 39.1178L65.716 39.0945L97.3687 7.44182L97.9664 7.66237L98.2498 7.97494Z" fill="#A2CF6C"/>
<path d="M89.8957 4.91482L90.2129 4.96014L90.8434 5.38132L59.9771 36.2476L59.1835 35.627L89.8957 4.91482Z" fill="#A2CF6C"/>
<path d="M82.1798 2.63066L82.753 3.33068L82.9864 3.23828L69.5015 16.7232L69.0478 16.346L69.1801 15.6304L82.1798 2.63066Z" fill="#A2CF6C"/>
<path d="M74.7704 1.45435L74.2404 1.29639L74.1925 2.03224L74.7704 1.45435Z" fill="#A2CF6C"/>
<path d="M72.9257 3.29901L72.0034 3.52297L71.7498 4.47492L72.9257 3.29901Z" fill="#A2CF6C"/>
<path d="M56.0435 40.1812L56.041 40.1805L53.8951 41.0711L54.48 41.7447L56.0435 40.1812Z" fill="#A2CF6C"/>
<path d="M60.3424 44.4681L60.1847 44.6258L60.7478 44.8765L60.3424 44.4681Z" fill="#A2CF6C"/>
<path d="M68.3848 47.8399L67.9951 47.9735L68.1209 48.1038L68.3848 47.8399Z" fill="#A2CF6C"/>
<path d="M75.0167 49.7938L107.819 16.9917L108.796 17.4286L75.7951 50.4296L75.3842 50.028L75.2526 50.5644L75.0167 49.7938Z" fill="#A2CF6C"/>
<path d="M52.5404 72.2701L58.3284 66.4821L59.7156 66.5092L53.2125 73.0123L52.8829 72.4051L52.5404 72.2701Z" fill="#A2CF6C"/>
<path d="M40.0134 84.7971L42.587 82.2235L44.2891 81.9357L40.845 85.3797L40.1697 84.7929L40.0134 84.7971Z" fill="#A2CF6C"/>
<path d="M43.9986 90.8119L44.7307 91.494L45.0284 91.1963L44.512 90.7946L45.0743 91.1504L46.5717 89.6531L46.587 88.6996L48.2673 87.2017L48.5825 86.228L43.9986 90.8119Z" fill="#A2CF6C"/>
<path d="M59.1334 75.6771L59.1788 75.6539L59.1759 75.6346L59.1334 75.6771Z" fill="#A2CF6C"/>
<path d="M75.449 50.7757L75.7334 50.4913L75.1716 50.6555L75.449 50.7757Z" fill="#A2CF6C"/>
<path d="M42.8729 73.3518L42.6901 73.2856L41.941 74.0143L41.6646 74.5601L42.8729 73.3518Z" fill="#A2CF6C"/>
<path d="M29.6805 86.5442L29.5314 86.4933L28.4079 87.809L28.4103 87.8144L29.6805 86.5442Z" fill="#A2CF6C"/>
<path d="M49.924 94.8864L50.2919 94.5186L51.5462 94.6786L50.8014 95.4233L50.7168 95.3186L49.8362 95.5514L49.924 94.8864Z" fill="#A2CF6C"/>
<path d="M55.0818 91.143L54.2798 91.5638L54.3202 91.9046L55.0818 91.143Z" fill="#A2CF6C"/>
<path d="M81.3043 63.5062L81.4143 63.3962L81.3359 63.5595L81.3043 63.5062Z" fill="#A2CF6C"/>
<path d="M44.6256 10.1849L46.2328 9.34243L46.4994 9.72536L38.639 17.5858L38.702 17.4897L38.3575 16.453L44.6256 10.1849Z" fill="#A2CF6C"/>
<path d="M22.1451 34.0797L22.193 33.3894L23.127 33.0977L22.1451 34.0797Z" fill="#A2CF6C"/>
<path d="M94.5957 100.215L95.4163 99.3942L95.6586 99.5086L95.9948 100.23L95.0076 101.217L94.5957 100.215Z" fill="#A2CF6C"/>
<path d="M2.74512 232.065L8.26871 226.542L8.70138 227.523L3.50269 232.722L2.74512 232.065Z" fill="#A2CF6C"/>
<path d="M3.51356 242.711L2.93984 241.871L12.5046 232.306L13.3839 232.841L3.51356 242.711Z" fill="#A2CF6C"/>
<path d="M6.64626 249.578L6.01804 249.246L5.86804 248.942L18.1077 236.703L18.8086 237.416L6.64626 249.578Z" fill="#A2CF6C"/>
<path d="M14.4155 251.809L13.7442 251.066L15.6842 249.126L16.3175 249.907L14.4155 251.809Z" fill="#A2CF6C"/>
<path d="M36.1453 278.665L36.7288 278.082L36.9307 278.201L37.2581 278.967L36.4831 279.742L36.1453 278.665Z" fill="#A2CF6C"/>
<path d="M40.4189 285.806L40.1798 285.276L39.8186 284.992L40.9995 283.811L40.9402 285.285L40.4189 285.806Z" fill="#A2CF6C"/>
<path d="M37.2531 279.899L37.8098 278.775L39.6116 279.959L40.5023 283.036L40.3606 286.558L39.6622 285.01L37.0608 282.965L35.2692 277.257L36.413 277.935L37.2531 279.899ZM6.73529 223.971L9.67066 230.631L15.177 233.981L20.2482 239.142L20.3494 240.033L19.1752 241.814L18.2136 241.571L15.7945 242.047L14.9645 246.591L15.1568 248.848L16.0678 249.971L15.501 250.073L15.1568 251.884L14.0231 251.682L12.8895 250.427L11.3914 251.156L10.774 250.194L9.87312 251.783L8.68883 249.668L7.37298 249.971L5.5004 248.98L4.59953 247.158L2.52453 244.294L3.28368 242.867L1.82611 240.731L3.14196 239.092L3.68855 239.426L4.16429 238.778L3.04076 236.673L3.88087 234.568L3.35454 232.776L0.996094 230.732L2.43343 226.967L3.90111 225.388L3.74928 224.366L5.24735 224.447L6.28992 223.354L6.73529 223.971ZM92.9546 98.2102L95.1409 99.2425L96.3252 101.783L94.5032 100.983L93.9668 99.6777L92.2764 98.3316L92.9546 98.2102V98.2102ZM54.7845 90.7613L54.0861 92.0972L55.0173 92.0264L54.7136 93.7671L55.4424 93.0587L56.2825 93.4433L56.5558 94.678L57.3352 94.1315L58.4385 95.0626L56.1003 97.0362L52.6386 96.4998L52.8107 97.9976L51.8288 97.3701L52.3147 96.4998L51.3025 96.4188L50.1992 95.0525L49.3186 95.2853L49.4603 94.2125L51.4442 94.4655L54.0152 93.4332L53.7621 91.2977L54.7845 90.7613V90.7613ZM45.8467 81.3186L47.4258 82.027L48.5392 84.4965L47.7497 86.9356L46.0694 88.4335L46.039 90.3159L44.7941 91.0345L43.9944 90.5285L48.8732 94.3238L47.8914 95.2954L45.7759 95.1739L46.5654 96.3986L47.4258 96.0848L50.6041 96.8641L54.1873 98.9389L54.248 100.113L56.1307 100.487L57.9223 102.309L57.6693 104.04L58.398 104.445L55.9789 106.145L49.3085 107.45L49.6222 106.135L51.9807 103.078L51.9199 101.651L49.2477 100.811L47.4055 102.248L44.3183 101.55L42.3647 101.864L41.9801 100.477L39.146 100.72L39.0043 98.3013L38.3159 97.7244L35.8766 97.8357L35.2389 97.0463L33.4675 96.8742L31.6658 95.0424L27.0198 94.344L26.0683 93.1902L26.1898 91.0851L26.9692 89.6986L27.8093 89.4759L28.2749 88.4132L27.8903 87.5429L29.0138 86.2272L33.012 87.5935L34.7935 89.0508L35.3907 90.8523L38.3159 91.9555L39.6419 93.5748L41.059 93.585L44.288 91.2977L43.3972 90.4678L43.4579 88.6966L42.3647 88.1501L42.466 87.4315L41.1198 85.8021L39.6521 84.5269L38.5083 84.5572L40.4011 82.2396L45.8467 81.3186V81.3186ZM97.5297 79.4766L98.2585 80.8226L95.9203 80.4785L96.2746 79.4867L97.5297 79.4766V79.4766ZM42.7595 73.232L44.1057 73.2827L44.7333 75.2562L42.4862 76.4808L41.8283 77.5638L40.3403 77.2298L40.2189 76.1266L41.4234 73.7482L42.1724 73.0195L42.7595 73.232V73.232ZM55.3412 66.1677L61.0399 66.2791L62.214 66.5118L62.3153 67.1697L61.3132 69.376L59.6025 69.7202L60.1694 71.2383L58.3474 73.3232L58.6612 75.3878L54.5618 77.4828L51.7276 75.8432L52.1021 75.57L51.6163 75.1955L53.418 74.6692L53.0739 73.4446L52.3653 72.139L50.3105 71.3294L48.7416 67.4632L49.4805 66.8357L55.3412 66.1677V66.1677ZM48.5189 44.0032L49.4502 44.1348L48.0634 43.9425L48.5189 44.0032ZM55.5234 39.9144L58.0842 40.6229L59.1977 41.5945L60.1896 40.7342L58.8839 43.2543L60.2301 44.6104L59.0256 44.074L58.7523 45.0052L60.8172 45.5112L59.7746 45.9363L60.1896 46.3816L63.4995 46.2905L59.805 47.0293L59.5924 47.9604L60.5236 48.7499L59.3191 49.2356L59.2989 50.3692L57.5275 50.1263L57.6996 52.1099L56.6571 51.3812L55.2906 51.6545L54.8351 53.203H53.58L51.0798 54.7009L49.7032 52.9905L47.3043 52.3022L47.9015 51.5533L47.527 50.0251L48.1748 49.4381L47.6687 48.3248L53.3168 48.9928L56.2724 44.4485L54.0152 44.7116L52.9018 45.7035L50.0777 45.1064L49.3085 45.744L49.4401 45.0254L48.691 45.0861L51.1304 44.3271L51.7782 43.487L48.6606 42.5155L49.9057 41.9183L52.3349 42.8393L53.7621 42.5155L54.1771 41.726L53.3775 40.805L55.5234 39.9144V39.9144ZM77.3565 1.50597L77.6703 1.91083L80.6361 1.11128L82.2354 3.06458L84.1788 2.29539L86.436 4.22847L89.6953 4.69405L92.0436 6.26276L93.1975 5.82757L97.4487 7.39628L101.771 12.1632L105.81 15.1893L106.174 16.2216L108.279 17.1628L108.33 18.0332L107.267 18.2559L106.903 19.1566L108.897 21.4541L107.227 21.8386L107.631 22.8204L106.862 23.3467L106.346 23.7616L105.243 23.7009L102.824 24.7939L99.9387 27.7694L100.273 30.077L101.902 32.253L101.406 34.1253L101.73 36.2304L102.55 37.0502L102.479 38.0623L103.34 38.0825L104.575 40.9265L102.672 42.1612L102.469 44.6307L103.36 46.5536L101.71 48.5677L104.585 48.8814L105.951 51.2193L104.585 52.5452L102.824 52.2314L102.51 52.6666L103.107 53.618L104.048 54.9033L104.99 55.1765L104.959 54.5288L105.698 54.2556L105.395 55.7129L106.913 56.3506L106.083 58.729L107.125 59.65L105.911 60.409L107.48 61.2592L107.358 62.2915L109.352 63.3542L108.998 64.0727L109.555 65.1759L108.897 67.7162L108.401 67.7972L109.028 69.3558L107.601 69.204L107.267 69.9732L106.569 70.5804L106.619 71.5722L107.449 71.7747L107.733 72.7058L106.771 73.1612L107.763 74.5781L108.249 76.3796L107.702 77.1387L106.538 76.8553L106.376 77.7965L104.737 79.0211L104.514 80.1851L103.907 80.2154L103.583 79.3248L102.743 79.6689L100.85 78.8289L99.9084 79.5069L99.0379 78.3026L96.1126 77.756L95.8697 73.6065L96.7098 72.1086L95.7887 71.6836L94.7563 72.9588L93.5416 72.3111L92.7825 70.6411V66.1576L91.8918 65.52L91.3047 66.0362L91.6286 65.1658L89.7661 63.9108L89.5738 63.1112L87.9847 62.5647L86.7295 61.1073L86.436 62.0182L85.7072 61.9271L84.9076 60.6215L83.8043 60.9252L83.3184 63.0607L82.3973 63.4048L81.6584 61.5425L80.8183 63.2934L80.3931 62.5748L81.0814 61.7956L79.5328 61.4616L80.7069 60.7936L80.7879 59.0528L79.0773 57.3121L78.1056 57.4335L79.1178 56.2089L77.4983 54.6199L76.9922 54.9033L76.6885 54.0936L77.2958 54.4074L75.9293 52.282L76.1723 51.0473L74.654 50.3894L75.3119 50.1971L74.8665 49.7619L74.7349 50.2983L74.4313 49.3065L72.8016 48.1831L73.4899 46.999L72.0526 46.503L70.0282 47.7175L69.7853 47.1204L69.4108 48.4057L68.3176 48.5778L67.4775 47.7074L68.8946 47.2216L69.2083 45.9363L67.3661 47.1305L66.7588 46.6346L66.9815 45.9464L66.0098 46.1083L66.3944 44.5497L65.1494 45.0962L64.8154 44.5902L61.2929 44.823L61.0297 42.728L62.7707 41.3414L61.5156 40.218L63.702 40.7645L65.4328 39.3375L64.7445 38.7202L65.2 38.8517L65.0279 36.4227L63.1655 35.1273L61.2929 35.188L60.0884 36.4733L58.2765 35.0564L57.6085 35.9774L56.4748 35.7851L55.2096 37.3134L51.8997 37.4044L48.9137 40.299L48.5797 41.6349L46.0998 42.5256L49.0858 43.7502L47.0816 44.0842L46.8286 43.3251L43.5996 43.396L43.0328 42.8089L40.4315 42.8899L38.6702 43.7097L36.0385 42.8596L33.1234 42.9709L27.4854 45.6934L26.3315 43.4465L22.718 42.3737L20.6531 40.9872L21.1187 38.8618L22.6977 37.4551L21.4223 36.7668L21.6754 33.1234L26.3416 31.666L27.5461 29.8442L30.4512 28.7309L30.5726 26.6865L29.5098 25.6137L29.1252 26.0388L27.2526 25.7149L26.8477 23.6908L30.4512 23.63L31.352 22.8406L31.1091 22.0309L27.617 20.9278L22.8394 21.3427L22.3637 20.8063L29.611 19.1971L31.0686 18.266L32.9007 18.9542L37.1418 18.8125L38.1844 17.2236L37.071 13.8736L37.4353 12.5275L39.0751 12.0316L40.3302 9.90625L43.63 10.1694L45.7151 9.07634L46.9905 10.9082L46.4034 13.155L44.5714 13.7623L45.1179 15.5941L46.8488 15.6245L47.6181 16.5151L52.254 16.333L52.9321 21.029L53.6407 22.0006L57.0822 22.6888L58.145 24.6826L62.3254 24.1664L63.621 22.0816L65.0988 21.9804L68.0544 20.3914L68.0038 18.4684L69.3703 16.7782L68.5302 16.0799L69.0261 13.3979L68.3176 12.568L68.8844 8.55007L70.8279 5.72636L71.4858 3.25688L73.6114 2.74071L73.7227 1.03029L75.8281 1.65781L77.1946 0.959473L77.3565 1.50597V1.50597Z" stroke="#A2CF6C"/>
<circle cx="72.9961" cy="41.9358" r="4" fill="white"/>
<ellipse cx="72.9964" cy="41.9358" rx="2.00027" ry="2" fill="#1B242D"/>
</svg>
