<svg width="193" height="295" viewBox="0 0 193 295" fill="current" xmlns="http://www.w3.org/2000/svg">
<path d="M10.3131 14.9114L9.77336 14.037L17.792 6.01839L17.7474 6.79858L18.7535 6.47103L10.3131 14.9114Z" fill="#907C72"/>
<path d="M10.8221 24.4024L8.74889 25.5625L8.39556 25.4148L26.817 6.99335L27.9185 7.30607L10.8221 24.4024Z" fill="#907C72"/>
<path d="M16.6517 28.5728L17.7613 26.049L20.6446 23.1658L20.5107 23.3967L20.9257 24.0141L21.8569 23.2955L21.8854 23.3392L16.6517 28.5728Z" fill="#907C72"/>
<path d="M25.4412 29.7833L24.2585 29.5519L24.8027 29.0076L25.4631 29.7615L25.4412 29.7833Z" fill="#907C72"/>
<path d="M1.70854 62.1018L5.62563 58.1847L6.40251 58.822L1.57959 63.645L1.70854 62.1018Z" fill="#907C72"/>
<path d="M34.4858 30.7387L33.3687 30.4416L37.0537 26.7566L37.723 27.5016L36.5023 28.7223L36.0885 28.9834L36.1055 29.1191L34.4858 30.7387Z" fill="#907C72"/>
<path d="M34.9944 20.2302L29.2636 25.961L28.2278 25.5825L36.6078 17.2025L36.4934 18.478L36.7305 18.494L35.3968 19.8278L34.9649 20.0669L34.9944 20.2302Z" fill="#907C72"/>
<path d="M39.2608 15.9638L39.1686 16.0559L38.047 15.7634L38.9437 14.8667L39.2608 15.9638Z" fill="#907C72"/>
<path d="M35.1486 8.66178L39.4906 4.31974L40.4185 4.80602L35.5864 9.63817L35.7241 9.00491L35.1486 8.66178Z" fill="#907C72"/>
<path d="M34.1855 9.62485L33.7168 10.0935L34.1855 9.91578V9.62485Z" fill="#907C72"/>
<path d="M33.4194 10.3909L27.6857 16.1247L28.2136 16.4437L27.9402 17.1117L28.0532 17.1714L35.4477 9.77686L33.7401 10.7862L33.4194 10.3909Z" fill="#907C72"/>
<path d="M24.255 19.5553L23.7238 20.0866L25.0454 20.0062L24.255 19.5553Z" fill="#907C72"/>
<path d="M41.012 4.21251L42.0199 2.84135L42.956 2.26855L41.012 4.21251Z" fill="#907C72"/>
<path d="M8.00659 7.21795L7.67558 7.54896L7.02817 7.5374L7.5545 6.98075L8.00659 7.21795Z" fill="#907C72"/>
<path d="M82.1735 103.051L81.1378 102.673L93.7843 90.026L94.4013 90.3255L95.3225 89.03L96.5169 88.5847L96.5727 88.6519L82.1735 103.051Z" fill="#907C72"/>
<path d="M87.8847 107.34L86.9177 106.893L108.807 85.0038L110.131 84.921L111.315 83.5446L110.788 83.0226L115.382 78.4285L116.093 78.2109L116.893 78.3313L87.8847 107.34Z" fill="#907C72"/>
<path d="M94.6587 110.566L93.2102 110.6L126.11 77.7008L126.765 78.4592L94.6587 110.566Z" fill="#907C72"/>
<path d="M105.119 110.105L104.909 110.316L104.452 109.358L105.619 108.192L105.119 110.105Z" fill="#907C72"/>
<path d="M118.799 105.011L120.364 104.687L121.169 102.642L131.549 92.2618L132.393 92.832L107.132 118.093L106.63 117.18L118.799 105.011Z" fill="#907C72"/>
<path d="M54.6031 169.207L55.2122 168.598L56.5754 168.245L56.9992 168.225L53.6623 171.562L52.9862 170.824L54.2506 169.56L54.2777 169.571L54.6031 169.207Z" fill="#907C72"/>
<path d="M50.5292 174.695L49.9426 175.282L50.3301 174.652L50.5292 174.695Z" fill="#907C72"/>
<path d="M58.3462 176.878L57.2941 176.909L57.0799 176.73L59.7463 174.064L59.5383 175.686L58.3462 176.878Z" fill="#907C72"/>
<path d="M121.768 123.456L120.961 122.849L141.561 102.25L142.564 102.661L121.768 123.456Z" fill="#907C72"/>
<path d="M81.2382 172.572L82.4196 171.391L84.5302 170.694L79.5224 175.702L79.4512 175.553L81.2382 172.572Z" fill="#907C72"/>
<path d="M83.02 182.205L82.3764 181.696L82.2918 181.518L95.0312 168.779L95.6666 168.569L96.2974 168.927L83.02 182.205Z" fill="#907C72"/>
<path d="M89.6136 185.611L89.5732 185.41L88.8111 184.999L101.664 172.146L102.111 173.114L89.6136 185.611Z" fill="#907C72"/>
<path d="M92.6104 192.614L92.4175 192.262L91.7143 192.096L109.283 174.527L109.481 175.744L92.6104 192.614Z" fill="#907C72"/>
<path d="M93.4894 200.321L93.5005 200.318L93.5009 200.309L108.702 185.108L108.795 185.35L108.055 187.169L92.2992 202.925L92.3972 202.707L91.8906 201.92L93.4894 200.321Z" fill="#907C72"/>
<path d="M83.557 210.253L89.7322 204.078L90.5752 204.61L90.6261 204.598L84.4786 210.746L84.4514 210.216L83.557 210.253Z" fill="#907C72"/>
<path d="M89.1587 216.066L88.1662 216.188L88.1561 215.654L107.873 195.938L107.884 196.513L107.828 197.397L89.1587 216.066Z" fill="#907C72"/>
<path d="M94.667 220.558L94.3103 219.507L94.304 219.506L98.2893 215.521L96.9926 217.615L97.0146 218.21L94.667 220.558Z" fill="#907C72"/>
<path d="M104.677 210.547L100.209 215.015L98.4135 215.397L104.297 209.514L104.321 210.075L104.677 210.547Z" fill="#907C72"/>
<path d="M117.536 177.689L116.036 179.189L115.728 178.801L114.807 179.146L114.684 179.127L116.354 177.456L116.356 177.496L117.536 177.689Z" fill="#907C72"/>
<path d="M143.337 121.888L139.018 126.206L138.088 126.224L137.515 126.295L143.084 120.727L143.337 121.888Z" fill="#907C72"/>
<path d="M149.455 115.77L144.505 120.719L144.303 120.607L143.819 119.992L148.941 114.869L149.455 115.77Z" fill="#907C72"/>
<path d="M145.026 108.785L145.163 109.474L145.278 109.947L142.505 112.719L141.908 111.903L145.026 108.785Z" fill="#907C72"/>
<path d="M138.465 115.345L128.113 125.697L129.062 126.162L139.42 115.805L139.303 115.658L138.465 115.345Z" fill="#907C72"/>
<path d="M137.963 97.2615L114.36 120.864L112.968 120.842L137.517 96.2936L137.926 96.57L137.963 97.2615Z" fill="#907C72"/>
<path d="M132.008 83.2164L116.329 98.8954L115.027 98.7831L131.026 82.7846L131.144 82.7653L132.008 83.2164Z" fill="#907C72"/>
<path d="M102.662 111.148L102.489 112.298L101.78 112.662L101.316 112.495L102.662 111.148Z" fill="#907C72"/>
<path d="M86.8647 88.3599L86.1114 88.3823L86.1275 89.097L86.8647 88.3599Z" fill="#907C72"/>
<path d="M84.7018 90.5228L81.8382 93.3863L81.7084 93.0176L83.753 91.3781L84.6741 90.538L84.7018 90.5228Z" fill="#907C72"/>
<path d="M93.9393 289.871L103.436 280.374L103.784 280.546L104.916 280.309L92.6788 292.546L92.63 292.215L93.9393 289.871Z" fill="#907C72"/>
<path d="M106.339 288.886L105.475 288.956L101.568 293.075L100.151 293.774L100.052 293.759L112.797 281.014L112.834 281.032L116.999 278.225L106.339 288.886Z" fill="#907C72"/>
<path d="M124.737 279.074L124.099 280.475L123.35 280.526L121.407 282.944L119.681 284.129L124.737 279.074Z" fill="#907C72"/>
<path d="M141.362 282.302L142.782 280.882L142.936 281.781L143.756 281.194L143.83 281.248L141.614 283.465L141.286 282.54L141.362 282.302Z" fill="#907C72"/>
<path d="M137.838 285.826L139.178 284.486L139.571 285.507L137.749 287.329L137.663 287.246L138.412 286.537L137.838 285.826Z" fill="#907C72"/>
<path d="M135.536 288.128L135.854 287.81L135.689 288.147L135.536 288.128Z" fill="#907C72"/>
<path d="M140.512 284.567L140.527 284.551L140.507 284.554L140.512 284.567Z" fill="#907C72"/>
<path d="M149.845 275.233L149.465 274.716L148.595 275.658L148.374 275.289L163.852 259.812L163.929 259.808L165.168 259.91L149.845 275.233Z" fill="#907C72"/>
<path d="M162.432 272.646L161.509 272.155L172.621 261.043L173.301 261.777L162.432 272.646Z" fill="#907C72"/>
<path d="M166.754 278.324L166.187 277.477L179.221 264.443L179.997 265.081L166.754 278.324Z" fill="#907C72"/>
<path d="M188.196 266.882L181.012 274.066L179.757 273.907L189.629 264.035L191.389 263.69L189.97 265.108L188.496 265.516L188.03 266.721L188.196 266.882Z" fill="#907C72"/>
<path d="M182.177 262.902L181.39 262.612L180.995 262.966L181.49 263.589L182.177 262.902Z" fill="#907C72"/>
<path d="M174.875 278.788L174.821 279.412L174.003 279.661L174.875 278.788Z" fill="#907C72"/>
<path d="M150.294 264.784L147.8 267.278L149.06 265.648L150.245 264.788L150.294 264.784Z" fill="#907C72"/>
<path d="M134.635 283.933L135.607 284.055L135.951 286.292L135.172 287.881L133.825 287.719L134.281 286.373L133.471 286.12L130.343 286.585L131.578 285.148L132.945 285.371L133.916 283.518L134.635 283.933V283.933ZM140.941 277.476L142.884 279.065L142.206 280.28L142.419 281.515L143.239 280.928L143.998 281.484L142.642 284.166L141.72 284.682L141.872 285.29L139.301 286.464L140.04 287.476L139.858 288.457L141.002 289.389L140.435 290.158L140.88 291.716L140.577 292.121L139.979 292.192L139.271 291.443L138.896 290.856L138.4 289.864L137.834 288.953L138.056 287.85L137.145 286.98L137.894 286.271L137.307 285.543L137.965 284.48L137.307 283.468L138.259 283.174L139.271 285.806L140.243 285.026L139.99 284.288L141.417 284.105L140.769 282.274L141.133 281.13L139.413 280.705L139.554 278.65L140.941 277.476V277.476ZM127.398 273.914L127.013 275.219L125.566 275.847L123.582 280.209L122.833 280.26L120.889 282.678L114.462 287.091L112.265 288.093L104.957 288.69L101.05 292.809L99.6331 293.508L97.2747 293.153L93.4688 294.287L92.4161 294.004L92.1124 291.949L95.1086 286.585L99.3598 281.494L101.89 279.602L103.267 280.28L107.852 279.318L108.773 280.148L110.555 279.915L112.316 280.766L121.345 274.683L124.483 274.541L127.155 273.448L127.398 273.914V273.914ZM163.412 259.542L171.58 260.21L174.425 263.287L175.437 263.014L178.656 264.137L182.036 266.92L183.13 266.04L180.478 262.7L180.872 262.346L183.565 263.338L183.17 261.779L184.435 261.405L184.091 262.791L185.174 263.51L188.11 263.965L191.258 263.348L189.84 264.734L187.978 265.25L187.512 266.455L189.061 267.953L188.525 269.066L190.964 269.157L191.622 270.534L190.994 271.363L190.428 270.888L189.8 271.758L189.274 271.374L188.676 271.981L183.504 271.647L180.913 273.853L179.233 273.641L177.34 274.359L174.526 276.606L174.303 279.146L172.441 279.713L166.965 279.146L162.724 272.811L159.758 271.232L152.824 272.052L151.721 273.175L151.893 273.701L150.972 273.762L151.012 274.683L150.355 274.278L149.342 274.987L148.948 274.45L148.077 275.391L146.903 273.428L147.49 271.809L145.82 268.904L148.543 265.382L149.727 264.522L152.338 264.329L154.15 262.113L155.588 261.394L157.318 261.313L160.902 259.654L163.412 259.542V259.542ZM120.09 178.586L121.142 180.135L120.889 181.056L119.543 180.782L119.27 177.908L120.09 178.586V178.586ZM111.375 175.459L113.369 175.55L113.662 176.38L114.604 175.884L115.808 176.44L115.838 177.23L118.936 177.736L118.663 179.102L117.903 178.586L117.6 179.821L116.871 180.003L115.99 179.517L115.211 178.535L114.29 178.88L112.913 178.667L112.326 176.805L110.869 175.185L111.375 175.459V175.459ZM50.8349 174.609L51.4017 174.69L50.7236 175.773L51.2297 176.906L48.4056 176.673L49.8126 174.386L50.8349 174.609ZM95.149 168.303L98.2362 170.054L100.078 169.568L102.042 173.819L103.925 173.88L104.927 173.951L105.808 173.991L106.658 172.676L107.862 174.133L108.763 174.244L109.067 176.117L108.004 177.665L108.186 180.732L107.387 181.572L105.878 181.521L105.534 182.938L107.215 182.999L107.366 183.829L107.974 184.294L108.277 185.084L106.476 189.517L106.455 191.156L107.346 195.204L107.366 196.247L107.204 198.797L108.935 200.062L108.298 201.166L108.874 202.157L103.672 206.742L103.803 209.809L104.856 211.205L103.318 213.979L97.8415 215.142L96.475 217.349L96.556 219.535L95.4527 221.134L94.1571 220.314L93.7927 219.241L91.4444 218.867L89.7439 216.661L89.8755 215.648L87.6487 215.922L87.6183 214.312L87.0211 214.616L86.1202 213.806L85.4724 213.108L84.106 213.311L83.9339 209.95L81.9702 210.031L83.0735 206.58L84.2072 206.428L86.9198 203.615L87.5575 203.493L88.0535 203.544L89.1264 203.756L90.0577 204.343L91.1306 204.111L91.8797 202.441L91.3128 201.56L91.8695 200.315L92.983 200.052L93.0538 198.504L93.8636 198.828L93.7421 196.753L93.6713 196.166L93.7522 195.225L93.074 194.506L92.821 193.676L91.8999 191.996L90.6144 191.692L90.3715 187.199L89.3593 186.652L89.0556 185.144L86.1101 183.555L84.3691 183.414L81.8588 181.43L78.9336 175.287L81.3123 171.319L84.3489 170.317L88.6507 170.449L95.149 168.303V168.303ZM56.0578 167.979L57.3332 167.919L58.7098 169.761L59.9447 170.115L60.2079 171.957L59.3779 172.635L58.8718 176.582L56.7765 176.643L55.2582 175.378L54.6509 176.805L54.0031 174.852L54.8533 173.161L51.6548 169.67L52.2216 168.647L53.7602 169.305L54.6104 168.354L56.0578 167.979V167.979ZM126.497 78.4813L127.418 78.3599L127.56 78.876L126.041 81.1127L126.608 82.0742L127.388 81.9831L127.965 82.9344L130.627 82.4993L132.894 83.6834L131.406 85.2318L132.115 85.6266L130.444 86.7297L128.734 90.4441L137.408 96.304L137.469 97.4376L138.441 97.6602L139.828 101.486L143.411 102.953L142.54 103.692L142.49 106.05L144.079 106.364L144.646 109.208L144.868 110.129L144.97 111.273L148.279 114.349L149.899 117.193L150.253 119.369L149.423 121.393L148.037 121.464L145.435 120.28L144.787 120.898L143.785 120.341L142.814 119.106L141.629 118.013L140.779 116.697L141.457 115.21L142.682 115.119L142.368 112.973L139.939 109.653L137.975 108.621L134.848 109.906L134.473 110.797L135.212 112.922L136.781 114.643L138.785 115.392L142.469 120.017L143.006 122.476L143.026 123.438L143.664 123.914L141.326 125.887L137.57 125.958L130.465 126.838L127.226 125.249L123.936 125.209L120.1 122.325L115.464 120.624L111.03 120.553L109.644 121.92L109.522 120.979L107.508 119.45L105.291 115.422L103.702 114.117L102.032 113.985L102.012 113.277L103.115 112.963L103.874 111.546L104.846 111.171L106.658 112.265L109.532 110.817L111.395 107.842L113.338 106.89L114.502 107.214L116.911 105.807L117.306 104.947L119.847 104.421L121.132 101.152L120.778 100.14L118.187 98.8342L112.67 98.3585L109.624 99.5224L108.5 101.152L108.409 103.854L107.275 104.522L106.617 106.212L105.514 106.344L104.492 110.261L103.874 108.965L103.125 109.37L102.224 110.352L101.971 112.032L101.263 112.396L95.3718 110.271L90.2399 110.392L89.2682 107.953L82.9217 105.018L82.5877 103.125L80.0673 102.204L79.2069 101.101L79.1259 100.433L80.9378 101.334L80.5936 97.8221L80.8163 96.4659L80.3203 95.8081L81.7576 94.3608L81.1908 92.7516L83.2355 91.1121L84.1566 90.272L85.6243 89.4624L85.5939 88.1163L87.2944 88.0657L86.9907 89.4522L87.6588 89.9583L88.7115 89.4522L90.2399 90.4643L91.0395 89.4522L92.153 89.2194L93.8838 90.0595L94.8049 88.764L95.9993 88.3187L96.5459 88.9766L98.4994 88.3794L99.957 88.1669L102.882 86.9322L104.805 86.7297L108.156 84.7461L109.613 84.655L110.798 83.2785L109.836 82.3272L110.271 80.5257L109.563 79.3314L111.152 78.3497L112.235 78.9671L115.575 77.9449L122.974 79.0582L125.333 77.1352L126.497 78.4813V78.4813ZM5.04291 57.8652L8.70708 60.8711L5.82233 64.7372L4.6684 64.9903L3.2412 66.4274L2.25936 68.4921L0.953613 64.6765L1.27753 60.8003L2.88692 58.7053L3.35256 56.7317L5.04291 57.8652V57.8652ZM43.1017 3.96188L43.0915 4.50841L43.8304 7.50416L41.0165 9.02228L40.3991 10.7226L38.891 11.7144L38.2735 14.0726L38.7796 15.8235L37.1499 15.3984L36.1883 15.8437L35.9758 18.212L37.1702 18.2929L34.4474 19.8009L34.6903 21.147L35.9049 22.0579L34.6296 22.7764L34.8725 24.6387L37.4637 27.5231L35.5709 28.7174L35.8543 30.9743L30.9451 29.6687L29.7609 27.9785L30.2872 26.258L27.6555 25.2965L27.4632 24.2136L26.0967 22.8169L24.8517 23.0902L25.6108 21.7846L26.9875 21.8757L28.0199 21.0761L27.3214 20.0944L28.8195 17.5845L27.4227 16.8456L27.696 16.1777L26.7749 15.621L24.6796 15.8538L20.813 19.0216L22.8779 18.799L24.5278 19.7402L21.8657 19.9021L19.9931 23.1307L20.4081 23.748L21.3394 23.0295L21.9062 23.8998L22.554 24.163L22.473 26.6729L24.9732 29.527L21.6633 28.8793L18.5355 29.3954L17.4829 27.9988L15.9848 28.6465L18.2319 23.5355H19.2036L19.3757 22.7967L18.7987 22.4424L17.3715 22.8979L16.8756 24.2541L15.7621 25.0131L15.165 24.8411L15.5395 23.7784L14.3147 22.9687L11.187 24.3047L10.438 24.0618L8.23134 25.2965L7.67464 25.0637L7.80623 24.1529L9.43586 22.8574L9.00062 22.0174L8.06942 22.655L7.8366 22.1591L8.90953 20.4284L8.12001 19.8718L9.13222 18.9407L8.36293 18.5156L9.55732 17.382L10.023 15.0138L9.22331 13.7183L7.76574 13.2426L8.16051 11.8966L7.44183 10.4392L7.96819 8.13164L7.64428 7.29163L6.51062 7.27138L7.03695 6.71474L8.05928 7.25114L10.4987 6.23906L12.7559 6.47183L16.1974 4.41731L17.3108 5.11565L17.2298 6.53257L18.5355 6.10748L19.0113 6.54269L21.1572 5.71277L21.2482 5.00432L22.9791 5.59133L24.5986 4.57925L26.0056 6.6439L27.6454 7.10945L28.3944 6.52244L28.4855 7.25114L27.3923 8.22274L27.9491 9.07288L27.5846 9.69025L29.8823 10.6821L28.526 11.6031L29.9835 12.4431L31.3602 11.4209L31.269 10.5606L32.2003 10.1356L32.3521 9.2753L33.668 8.92108V9.64976L32.7873 9.98375L33.2226 10.5202L35.0547 9.43723L35.2065 8.7389L34.1032 8.08105L37.2005 5.05493L37.1601 3.76958L36.6236 3.53681L37.0791 3.06113L40.0145 4.59949L41.5024 2.57534L44.0329 1.02686L43.9013 2.16038L42.7575 3.05101L43.1017 3.96188V3.96188Z" stroke="#907C72"/>
<circle cx="140.954" cy="101.884" r="4" fill="white"/>
<ellipse cx="140.954" cy="101.884" rx="2.00027" ry="2" fill="#1B242D"/>
</svg>
