<svg width="131" height="167" viewBox="0 0 131 167" fill="current" xmlns="http://www.w3.org/2000/svg">
<path d="M32.3303 49.4805L48.4349 33.3759L49.2922 33.9327L31.8821 51.3428L32.3303 49.4805Z" fill="#2F6BB4"/>
<path d="M2.26807 79.5427L3.7054 78.1054L3.91457 77.9868L4.39142 78.8335L2.96398 80.261L2.26807 79.5427Z" fill="#2F6BB4"/>
<path d="M9.8665 83.3584L9.16183 82.6489L10.5435 81.2673L11.2812 81.9438L9.8665 83.3584Z" fill="#2F6BB4"/>
<path d="M17.0863 86.1387L16.2727 85.5381L17.5012 84.3096L18.3283 84.4843L18.7898 84.4351L17.0863 86.1387Z" fill="#2F6BB4"/>
<path d="M15.0558 98.1691L13.7672 98.0436L91.7241 20.0867L91.5198 21.7051L15.0558 98.1691Z" fill="#2F6BB4"/>
<path d="M21.6269 110.184L24.0064 107.804L25.4691 107.756L22.1263 111.099L21.6269 110.184Z" fill="#2F6BB4"/>
<path d="M26.0723 117.153L26.517 115.677L26.3482 115.463L95.9114 45.8994L96.4601 46.7237L96.4826 46.7424L26.0723 117.153Z" fill="#2F6BB4"/>
<path d="M29.3914 123.833L28.638 123.173L99.507 52.3038L100.033 53.12L99.9428 53.2821L29.3914 123.833Z" fill="#2F6BB4"/>
<path d="M35.8066 127.418L34.5937 127.217L103.659 58.1518L104.702 58.5229L35.8066 127.418Z" fill="#2F6BB4"/>
<path d="M43.8484 129.377L43.7852 129.198L44.3014 127.609L44.2264 127.584L114.831 56.9793L115.115 57.1683L116.162 57.063L43.8484 129.377Z" fill="#2F6BB4"/>
<path d="M46.9468 136.278L46.097 135.714L112.434 69.3769L112.754 70.4709L107.123 76.1018L106.855 75.993L106.689 76.5362L105.035 78.1896L104.993 78.1993L104.988 78.2373L46.9468 136.278Z" fill="#2F6BB4"/>
<path d="M51.8598 141.365L51.2905 140.52L105.777 86.0339L105.715 87.5103L51.8598 141.365Z" fill="#2F6BB4"/>
<path d="M56.5115 146.713L55.7887 146.022L109.223 92.5874L109.428 93.7969L56.5115 146.713Z" fill="#2F6BB4"/>
<path d="M62.2583 150.967L61.6224 150.188L110.17 101.641L111.289 101.528L111.303 101.922L62.2583 150.967Z" fill="#2F6BB4"/>
<path d="M65.8128 157.412L65.563 156.248L71.5711 150.24L72.8455 150.209L72.6118 150.613L65.8128 157.412Z" fill="#2F6BB4"/>
<path d="M67.387 165.838L67.0962 165.673L66.7909 165.02L71.2868 160.524L71.5903 160.542L72.1777 161.047L69.9946 163.23L69.7987 163.224L69.8061 163.419L67.387 165.838Z" fill="#2F6BB4"/>
<path d="M79.7923 153.433L79.1896 154.035L79.3438 152.648L79.1419 152.669L116.662 115.149L116.471 115.818L117.178 116.047L82.5725 150.652L81.7832 151.201L81.8158 151.409L79.904 153.321L79.7993 153.407L79.7923 153.433Z" fill="#2F6BB4"/>
<path d="M87.4555 155.769L86.9859 155.937L86.5233 155.287L123.728 118.083L125.193 118.032L87.4555 155.769Z" fill="#2F6BB4"/>
<path d="M94.1805 159.044L93.1266 158.684L100.167 151.644L100.802 152.415L100.804 152.421L98.3982 154.827L97.6444 154.925L97.0371 155.593L97.2079 156.017L96.6734 156.552L95.954 156.868L94.9317 157.506L94.9866 158.238L94.1805 159.044Z" fill="#2F6BB4"/>
<path d="M118.845 144.38L116.117 146.11L115.834 145.977L123.972 137.839L124.736 138.489L122.698 140.527L121.168 141.323L121.187 142.038L118.845 144.38Z" fill="#2F6BB4"/>
<path d="M129.009 124.216L109.278 143.946L109.183 143.833L107.675 145.239L106.783 145.028L129.044 122.767L129.009 124.216Z" fill="#2F6BB4"/>
<path d="M112.638 109.173L113.498 109.727L75.7656 147.459L75.0611 146.75L112.638 109.173Z" fill="#2F6BB4"/>
<path d="M74.3214 147.489L73.2413 148.569L73.4022 148.67L73.807 148.063L74.8395 147.658L74.3214 147.489Z" fill="#2F6BB4"/>
<path d="M72.6397 149.171L72.2439 149.567L72.7442 149.247L72.6397 149.171Z" fill="#2F6BB4"/>
<path d="M114.906 76.9052L113.01 78.8013L113.111 78.8977L114.447 78.341L115.004 77.1164L114.906 76.9052Z" fill="#2F6BB4"/>
<path d="M96.9764 34.8344L97.9568 35.2681L25.8729 107.352L25.849 106.791L25.3783 106.432L96.9764 34.8344Z" fill="#2F6BB4"/>
<path d="M90.7133 31.0974L90.7199 32.505L23.4094 99.8155L22.4935 99.3173L90.7133 31.0974Z" fill="#2F6BB4"/>
<path d="M20.9955 102.229L20.5242 102.701L20.3932 102.55L20.9955 102.229Z" fill="#2F6BB4"/>
<path d="M88.1176 13.6932L88.4585 14.7664L37.6744 65.5505L38.6229 64.3642L38.7023 63.1085L88.1176 13.6932Z" fill="#2F6BB4"/>
<path d="M84.4338 7.37694L84.9814 8.24354L62.6511 30.5738L62.5955 29.2153L84.4338 7.37694Z" fill="#2F6BB4"/>
<path d="M78.6521 3.15865L78.8883 3.39653L80.1634 3.06149L66.6894 16.5356L66.9342 16.088L66.8523 14.9585L78.6521 3.15865Z" fill="#2F6BB4"/>
<path d="M71.8235 1.40145L70.1039 3.12104L70.0619 2.97146L71.6308 1.32178L71.8235 1.40145Z" fill="#2F6BB4"/>
<path d="M63.0967 20.1283L62.7336 20.2983L62.7131 20.5118L63.0967 20.1283Z" fill="#2F6BB4"/>
<path d="M60.1686 31.6421L35.7587 56.0521L36.0581 57.1668L61.7686 31.4563L60.1686 31.6421Z" fill="#2F6BB4"/>
<path d="M28.8041 64.4209L28.6528 64.3642L27.3167 65.69L27.3968 65.8282L28.8041 64.4209Z" fill="#2F6BB4"/>
<path d="M29.0904 72.7204L29.6766 73.5483L35.3925 67.8324L34.5878 67.223L29.0904 72.7204Z" fill="#2F6BB4"/>
<path d="M23.1932 80.0318L22.1139 79.849L20.9195 82.0958L20.9748 82.2501L23.1932 80.0318Z" fill="#2F6BB4"/>
<path d="M71.113 1.05566L74.3925 2.41185L76.9837 1.73376L78.3705 3.13041L79.7572 2.76607L83.8566 7.01681L85.5065 9.62798L85.7595 11.5509L87.3284 12.5731L88.4216 16.0142L90.5067 17.9371L89.3427 19.4958L91.2153 19.7488L90.9521 21.8337L91.5898 24.2019L87.2981 26.6613L90.193 30.2946L90.2031 32.4504L92.1668 35.7801L94.2519 35.5068L96.0637 34.3935L98.9687 35.6789L98.6145 40.2737L97.6023 42.3384L96.256 43.1885L94.3936 42.1764L93.6446 43.0064L95.9423 46.4576L98.2501 48.3805L98.8675 49.8784L98.4323 51.1738L99.5153 52.8539L98.7764 54.1797L99.9101 54.7465L99.9506 56.7504L106.236 58.9871L107.694 56.5176L109.556 56.6593L112.259 55.3436L114.597 56.9022L116.207 56.7403L118.109 59.149L117.553 59.7866L116.217 59.3008L115.022 59.6854L115.225 61.4667L114.921 63.0354L113.717 64.4726L114.101 65.1709L112.097 64.8774L111.814 65.3733L112.036 67.3873L111.53 67.7922L112.573 71.3547L111.803 73.0651L113.231 74.148L114.486 76.8503L113.929 78.0749L112.593 78.6315L109.445 75.6358L107.906 76.3645L106.338 75.7269L105.75 77.6397L104.475 77.9332L104.313 79.0769L102.309 80.261L102.825 81.769L105.346 83.7122L105.194 87.3152L107.613 87.467L108.018 88.2564L109.617 97.7093L107.542 101.039L107.876 101.555L110.771 101.262L110.852 103.498L108.898 104.187L109.303 105.3L112.067 108.872L115.478 111.069L116.541 113.488L115.953 115.552L117.988 116.21L118.302 117.182L119.678 117.941L125.741 117.728L127.371 119.358L127.776 121.129L128.555 121.301L128.485 124.226L130.337 125.126L129.112 128.81L127.837 129.337L126.997 131.148L126.146 130.895L124.608 132.322L124.385 133.709L123.019 135.247L123.231 137.383L124.932 138.83L120.65 141.057L120.691 142.615L115.599 145.844L112.117 144.204L110.204 145.409L108.666 143.567L107.157 144.973L105.791 144.65L104.394 145.469L101.934 145.682L100.082 147.959L101.185 149.619L98.908 150.479L100.285 152.149L100.821 154.102L98.5234 154.477L97.1265 154.659L96.5192 155.327L96.7925 156.005L95.4362 156.602L94.4138 157.24L94.5049 158.454L95.5273 159.416L91.5898 158.07L90.1019 158.991L89.3225 156.966L88.6949 157.037L88.1989 155.459L87.1766 155.418L86.4681 155.671L85.1927 153.88L85.5166 153.283L84.5651 152.442L84.0388 152.675L84.1805 150.105L82.9557 149.76L81.2653 150.935L81.5893 153.009L80.1317 152.442L79.2814 153.141L78.8563 154.699L80.1216 155.327L79.6964 155.995L78.6539 155.762L78.6134 154.295L78.8259 152.382L77.5607 152.513L77.1659 152.908L76.3663 151.663L76.6902 150.793L75.3237 151.096L75.2832 151.845L74.271 150.773L75.8197 150.601L76.8825 148.839L74.0787 146.016L74.0686 145.216L72.3175 145.894L72.8033 146.249L72.3985 146.765L74.3216 147.392L73.2892 147.797L72.8843 148.404L71.3357 147.433L70.617 147.807L72.2264 148.981L70.6575 149.983L72.3276 149.943L72.0644 150.398L72.1555 150.945L72.2163 152.23L71.4571 152.949L71.8721 153.434L69.9287 155.276L69.0177 157.847L68.5521 157.392L67.6108 157.847L69.8882 160.205L71.0725 160.276L74.0382 162.826L75.6375 163.211L75.931 164.375L74.8986 164.972L74.7164 163.474L73.5726 164.436L72.1657 163.049L69.2809 162.958L69.372 165.377L67.6512 166.014L66.5783 165.407L64.0681 160.033L64.1794 159.416L65.0296 159.446L65.4649 157.938L64.6855 154.305L60.8897 149.659L59.4119 148.586L58.3997 148.748L53.0452 143.627L49.1178 137.798L43.6924 134.195L43.571 132.231L43.3584 131.31L43.8342 130.531L43.2673 128.932L43.7835 127.343L42.8624 127.039L42.4272 128.112L40.5445 126.695L39.7752 127.677L36.3236 126.311L35.5847 127.201L31.374 126.503L30.8476 125.299L26.566 121.544L26.4648 118.811L25.5234 116.989L25.9992 115.411L24.3796 113.356L23.2257 112.89L22.912 113.538L21.5151 112.809L22.2237 111.959L19.8754 107.658L25.3716 107.476L25.3311 106.524L22.5374 104.399L21.9605 104.682L19.8754 102.284L21.1305 101.616L23.7116 102.952L24.3088 100.32L21.6669 98.8833L19.5818 99.2375L18.9543 99.1869L16.2416 99.6018L14.703 98.3469L16.4035 99.0148L17.0817 98.8326L18.6506 98.7821L15.6444 96.9097L15.4217 97.355L14.8346 97.9319L12.8608 97.7396L14.2273 95.5637L15.199 95.088L15.533 94.926L16.2213 91.7076L15.695 90.1389L17.4967 88.5499L17.4258 86.5055L15.2597 84.9064L13.3365 85.0077L10.8668 82.4268L10.1481 82.3661L9.7331 83.4794L8.28565 82.022L6.65601 81.1617L6.03857 79.8359L4.76319 79.5829L2.8805 80.4432L1.62537 79.1477L1.50391 78.7935L3.39672 77.7207L3.9838 78.7631L6.50418 79.0364L7.5265 80.0282L8.83224 79.9068L12.2535 83.0442L17.8105 84.2182L21.1305 83.864L20.4017 81.8297L21.5961 79.5829L22.8512 79.7954L24.5821 81.2225L24.7238 78.3785L26.2117 76.5366L27.6592 76.0811L29.7646 74.1379L27.0417 70.292L28.3778 68.1464L26.7988 65.4239L28.1349 64.0981L32.4064 65.6972L35.1596 67.7821L38.1051 64.0981L38.2873 61.2137L35.8479 58.0459L35.19 55.5966L34.2992 55.0703L33.4996 53.1069L31.2727 51.4572L31.9205 48.7651L28.9346 43.5731L34.3093 43.7857L36.3034 43.0064L36.7184 40.5166L38.2367 37.9055L37.9533 36.3772L38.7934 35.183L41.6174 33.675L42.6398 33.5738L45.0083 34.8591L47.0732 32.5617L50.4236 34.7377L52.5593 34.6668L55.1506 34.1203L57.4584 31.6306L62.1651 31.0841L62.0133 27.3798L63.6328 24.5157L61.9424 22.8862L62.2157 20.0322L64.7665 18.8379L66.4164 15.8219L66.1734 12.4719L65.1612 11.6319L65.1005 9.76967L67.55 5.61002L69.1088 5.357L70.0299 4.43601L69.5441 2.70534L71.113 1.05566V1.05566Z" stroke="#2F6BB4"/>
<circle cx="67.5039" cy="85.7689" r="4" fill="white"/>
<ellipse cx="67.5042" cy="85.7689" rx="2.00027" ry="2" fill="#1B242D"/>
</svg>
