<svg width="220" height="181" viewBox="0 0 220 181" fill="current" xmlns="http://www.w3.org/2000/svg">
<path d="M19.7166 44.0937L29.2388 34.5714L30.25 34.2826L33.0639 32.1471L33.2562 30.9731L33.885 31.3394L9.72287 55.5015L9.65126 54.159L12.0592 51.7511L13.7714 50.7289L13.8669 49.9433L16.524 47.2862L16.9902 46.9336L16.987 46.8232L18.1388 45.6714L18.3364 45.6988L19.8446 44.4236L19.7166 44.0937Z" fill="#F5BC2E"/>
<path d="M8.49271 65.3175L9.76304 64.6247L10.1578 63.6835L12.1518 62.3475L11.978 61.8323L38.7038 35.1064L39.2383 35.5375L39.893 35.3314L3.69937 71.525L3.14307 70.6672L8.49271 65.3175Z" fill="#F5BC2E"/>
<path d="M8.31333 76.9111L7.3945 76.6179L7.12399 76.6863L52.3842 31.4261L52.6399 31.8131L53.2015 32.0229L8.31333 76.9111Z" fill="#F5BC2E"/>
<path d="M10.8112 84.4132L10.5616 83.2487L59.6427 34.1676L60.5249 34.4749L61.2436 33.8069L61.359 33.8654L10.8112 84.4132Z" fill="#F5BC2E"/>
<path d="M17.4008 87.8236L16.3434 87.4668L67.9628 35.8474L68.663 35.7602L69.2177 36.0067L17.4008 87.8236Z" fill="#F5BC2E"/>
<path d="M17.3204 97.904L17.4963 96.7582L17.3553 96.4549L78.8254 34.9849L79.5151 35.7093L17.3204 97.904Z" fill="#F5BC2E"/>
<path d="M19.295 105.929L18.7098 105.1L91.358 32.4522L91.9744 33.25L19.295 105.929Z" fill="#F5BC2E"/>
<path d="M23.3979 111.826L22.2303 111.58L122.691 11.1189L123.649 11.5751L23.3979 111.826Z" fill="#F5BC2E"/>
<path d="M29.5358 115.689L28.8127 114.998L130.954 12.8558L130.994 12.8568L132.763 12.4612L29.5358 115.689Z" fill="#F5BC2E"/>
<path d="M37.0297 118.195L37.0419 118.133L36.0352 117.775L148.788 5.02234L149.219 6.00489L37.0297 118.195Z" fill="#F5BC2E"/>
<path d="M38.619 126.605L38.064 125.746L161.599 2.21105L162.008 2.30085L163.096 2.12842L38.619 126.605Z" fill="#F5BC2E"/>
<path d="M41.9521 133.272L41.5069 132.303L170.373 3.437L170.905 3.36353L171.403 3.82148L41.9521 133.272Z" fill="#F5BC2E"/>
<path d="M41.5262 142.284L42.9126 141.543L43.1013 140.709L175.702 8.10782L175.837 9.38789L38.5137 146.711L38.3375 146.725L37.6897 146.745L37.4315 146.379L41.5262 142.284Z" fill="#F5BC2E"/>
<path d="M49.1606 156.064L47.3461 156.835L47.2419 156.568L51.7582 152.052L51.6277 152.767L49.9264 155.298L49.1606 156.064Z" fill="#F5BC2E"/>
<path d="M61.314 153.91L61.446 152.878L60.9634 152.847L87.6835 126.127L87.8746 126.584L86.9247 128.3L61.314 153.91Z" fill="#F5BC2E"/>
<path d="M61.7028 163.522L60.7629 163.047L81.0545 142.756L81.2611 143.963L61.7028 163.522Z" fill="#F5BC2E"/>
<path d="M68.7644 166.46L68.1164 166.116L67.9286 165.882L78.5236 155.287L78.8777 156.347L68.7644 166.46Z" fill="#F5BC2E"/>
<path d="M72.802 172.422L72.5551 171.255L80.2648 163.545L80.7791 164.203L80.8314 164.393L72.802 172.422Z" fill="#F5BC2E"/>
<path d="M80.5247 174.7L78.8248 174.986L84.007 169.803L84.7635 170.461L80.5247 174.7Z" fill="#F5BC2E"/>
<path d="M136.379 138.845L136.258 138.84L135.56 138.251L183.389 90.421L184.369 90.855L136.379 138.845Z" fill="#F5BC2E"/>
<path d="M143.931 141.293L143.505 141.28L143.052 140.759L188.542 95.2684L189.15 96.0743L143.931 141.293Z" fill="#F5BC2E"/>
<path d="M147.653 146.158L147.83 145.98L148.738 145.915L148.979 146.246L147.921 147.303L147.653 146.158Z" fill="#F5BC2E"/>
<path d="M146.808 158.416L146.754 157.554L146.357 157.453L151.914 151.896L152.78 152.445L146.808 158.416Z" fill="#F5BC2E"/>
<path d="M150.594 164.63L150.184 163.626L157.645 156.166L158.233 156.991L150.594 164.63Z" fill="#F5BC2E"/>
<path d="M150.895 174.329L150.54 174.496L152.181 171.63L161.139 162.671L161.778 163.446L150.895 174.329Z" fill="#F5BC2E"/>
<path d="M161.803 173.422L160.86 172.95L166.877 166.934L167.816 167.408L161.803 173.422Z" fill="#F5BC2E"/>
<path d="M168.47 176.755L167.527 176.283L173.643 170.168L174.7 170.525L168.47 176.755Z" fill="#F5BC2E"/>
<path d="M176.118 179.106L174.878 178.932L180.012 173.799L180.602 174.101L180.693 174.531L176.118 179.106Z" fill="#F5BC2E"/>
<path d="M185.978 179.246L183.918 179.893L186.199 177.611L186.42 178.804L185.978 179.246Z" fill="#F5BC2E"/>
<path d="M201.592 173.633L200.269 173.818L200.212 173.598L208.885 164.926L210.383 164.841L202.141 173.084L201.636 172.624L201.816 173.409L201.592 173.633Z" fill="#F5BC2E"/>
<path d="M207.368 157.856L196.991 168.233L196.157 167.653L207.99 155.82L208.817 156.408L208.691 156.533L207.416 157.22L207.368 157.856Z" fill="#F5BC2E"/>
<path d="M202.255 151.556L202.877 152.348L191.535 163.689L190.753 163.057L202.255 151.556Z" fill="#F5BC2E"/>
<path d="M195.301 148.509L196.367 148.857L188.605 156.62L188.558 155.459L188.472 155.339L195.301 148.509Z" fill="#F5BC2E"/>
<path d="M203.558 131.666L202.869 132.355L201.869 132.191L201.766 132.045L202.372 131.439L203.529 131.635L203.558 131.666Z" fill="#F5BC2E"/>
<path d="M210.287 124.938L206.323 128.901L205.928 128.244L205.705 128.105L210.102 123.708L210.287 124.938Z" fill="#F5BC2E"/>
<path d="M200.755 123.055L201.738 123.486L198.818 126.406L197.789 126.022L200.755 123.055Z" fill="#F5BC2E"/>
<path d="M195.761 118.049L196.245 118.979L187.077 128.147L186.103 127.707L195.761 118.049Z" fill="#F5BC2E"/>
<path d="M200.246 104.978L197.539 107.685L196.081 107.73L199.714 104.097L199.611 104.612L200.246 104.978Z" fill="#F5BC2E"/>
<path d="M193.012 100.798L193.439 101.786L158.03 137.195L156.922 136.889L193.012 100.798Z" fill="#F5BC2E"/>
<path d="M148.752 145.058L148.748 145.854L147.941 145.87L148.752 145.058Z" fill="#F5BC2E"/>
<path d="M164.446 139.364L165.27 139.954L193.001 112.224L192.87 111.656L192.981 110.83L164.446 139.364Z" fill="#F5BC2E"/>
<path d="M171.291 142.519L171.482 142.605L172.773 142.452L181.507 133.717L181.523 133.122L181.941 131.869L171.291 142.519Z" fill="#F5BC2E"/>
<path d="M184.036 129.775L184.327 129.793L184.504 129.306L184.036 129.775Z" fill="#F5BC2E"/>
<path d="M184.247 139.563L179.49 144.32L179.803 144.599L179.949 145.276L184.7 140.524L184.247 139.563Z" fill="#F5BC2E"/>
<path d="M188.23 145.58L188.743 146.481L184.353 150.872L183.947 149.863L188.23 145.58Z" fill="#F5BC2E"/>
<path d="M208.046 67.1788L203.476 71.7487L203.407 71.8004L202.172 72.4784L201.396 72.414L219.164 54.6459L219.289 55.182L218.282 56.9428L215.377 59.8471L214.622 59.8882L214.592 60.6325L212.054 63.1709L211.839 63.1774L208.468 66.1631L208.046 67.1788Z" fill="#F5BC2E"/>
<path d="M216.318 47.4926L217.103 48.1215L185.626 79.598L185.309 79.6339L184.913 80.3115L129.747 135.478L128.963 134.847L216.318 47.4926Z" fill="#F5BC2E"/>
<path d="M212.703 41.1077L212.74 41.2355L212.321 42.9031L123.164 132.06L122.155 131.655L212.703 41.1077Z" fill="#F5BC2E"/>
<path d="M203.375 40.4356L203.539 40.5575L204.774 40.2134L207.557 36.9545L207.989 37.2357L118.225 126.999L117.5 126.31L203.375 40.4356Z" fill="#F5BC2E"/>
<path d="M197.635 36.1749L198.447 36.7774L110.631 124.593L108.805 125.006L197.635 36.1749Z" fill="#F5BC2E"/>
<path d="M190.71 33.1005L191.748 33.4766L106.848 118.377L106.236 118.012L106.241 117.569L190.71 33.1005Z" fill="#F5BC2E"/>
<path d="M186.082 27.7279L186.362 27.7749L186.85 28.374L113.658 101.566L112.9 100.91L186.082 27.7279Z" fill="#F5BC2E"/>
<path d="M182.21 21.6007L182.488 22.7359L111.362 93.8625L110.568 93.4993L110.473 93.3369L182.21 21.6007Z" fill="#F5BC2E"/>
<path d="M181.154 12.6566L181.736 12.7455L182.17 13.0546L87.9061 107.318L86.3968 108.063L86.806 108.418L81.5871 113.637L80.9005 114.247L80.9329 114.291L47.1274 148.097L46.6739 147.136L181.154 12.6566Z" fill="#F5BC2E"/>
<path d="M46.5957 148.629L45.1357 150.089L45.1698 149.923L46.5957 148.629Z" fill="#F5BC2E"/>
<path d="M83.2097 120.601L55.5247 148.286L56.9923 147.868L57.1749 148.049L83.5521 121.672L83.259 121.028L83.2097 120.601Z" fill="#F5BC2E"/>
<path d="M102.438 101.372L103.26 101.019L105.517 98.7116V98.293L102.438 101.372Z" fill="#F5BC2E"/>
<path d="M101.757 112.053L104.445 109.365L105.68 109.545L102.267 112.957L101.711 112.759L101.757 112.053Z" fill="#F5BC2E"/>
<path d="M90.0919 173.718L90.3444 173.929L88.2593 175.792L88.171 175.639L90.0919 173.718Z" fill="#F5BC2E"/>
<path d="M197.163 76.6477L197.223 76.6583L197.211 76.5992L197.163 76.6477Z" fill="#F5BC2E"/>
<path d="M140.194 5.0306L139.517 5.27636L138.981 6.24369L140.194 5.0306Z" fill="#F5BC2E"/>
<path d="M114.029 9.78141L115.182 10.0425L95.5291 29.6953L95.6258 28.1844L114.029 9.78141Z" fill="#F5BC2E"/>
<path d="M103.87 9.94046L105.675 9.54925L96.2131 19.0113L96.3098 17.5005L103.87 9.94046Z" fill="#F5BC2E"/>
<path d="M43.8486 31.3758L43.2973 31.469L42.4907 32.7337L43.8486 31.3758Z" fill="#F5BC2E"/>
<path d="M152.755 152.491L153.747 152.42L155.822 154.069L157.908 156.994L158.93 160.354L162.554 164.747L172.038 169.534L177.757 171.467L178.324 171.113L179.579 172.125L179.275 173.42L180.085 173.835L180.672 176.619L182.413 177.337L185.551 176.639L185.956 178.825L182.858 179.797L180.227 178.734L177.291 179.078L171.744 178.299L170.428 177.044L168.151 176.588L159.892 172.459L157.968 172.388L155.64 173.623L152.027 173.289L150.023 174.23L151.946 170.87L152.502 168.542L150.782 166.093L148.697 160.982L146.379 159.565L146.237 157.288L145.478 157.096L147.128 153.928L146.682 151.954L147.522 147.542L147.097 145.73L148.221 145.649L149.537 147.461L150.549 151.094L152.755 152.491V152.491ZM201.169 129.081L201.847 129.425L201.756 131.156L203.011 131.369L203.942 132.35L201.351 131.925L200.582 130.832L200.157 131.166L198.102 129.921L200.916 128.474L201.169 129.081V129.081ZM161.491 2.03485L165.641 1.377L167.675 3.472L170.388 3.09753L172.048 4.62577L174.862 4.75734L175.581 11.6192L181.219 12.4795L182.909 13.6839L183.041 16.1736L181.289 19.6956L182.008 22.6206L183.698 24.4221L182.858 26.3956L183.314 27.0838L185.844 27.5089L190.187 32.8324L195.632 34.806L203.021 40.2915L204.256 39.9474L207.04 36.6885L211.898 39.8563L212.222 40.9696L211.514 43.7933L219.095 49.8657L218.255 52.6894L218.771 54.916L216.959 58.0838L217.476 60.1383L216.889 60.4824L215.593 59.5412L214.105 59.6222L213.973 62.8305L211.321 62.9114L207.951 65.8971L206.847 68.5487L202.89 71.5344L201.655 72.2124L198.608 71.9594L197.181 73.0727L196.27 74.186L196.705 76.3923L193.517 75.8256L189.023 77.4955L187.029 79.1148L184.792 79.3679L181.644 84.7521L180.864 89.266L185.116 91.1485L188.79 96.0166L189.134 98.7289L190.268 98.6682L190.784 100.095L192.333 100.156L193.486 102.828L195.46 102.544L197.849 103.405L198.224 102.676L199.296 103.324L199.094 104.346L201.392 105.672L200.653 106.836L199.226 107.352L193.588 107.524L192.667 109.042L192.353 111.39L193.264 115.357L194.063 116.805L194.681 116.703L196.31 119.831L198.73 122.128L202.353 123.717L205.137 123.586L206.2 124.243L209.52 123.009L210.38 128.747L209.297 131.814L206.989 130.599L205.41 127.978L203.224 126.612L200.025 125.59L198.588 126.247L195.308 125.023L191.189 126.824L188.952 128.96L184.711 127.047L183.81 129.527L182.15 129.425L181.006 132.856L180.945 135.093L182.221 138.301L183.617 139.06L184.883 141.742L185.207 140.68L185.865 140.882L186.998 141.702L186.735 143.594L188.243 146.246L189.711 146.742L191.3 145.953L192.849 147.612L200.916 150.244L202.728 152.551L206.473 154.039L206.878 155.132L208.346 156.175L206.898 156.954L206.756 158.867L208.933 161.164L209.449 162.571L207.819 162.935L207.313 163.765L207.718 164.696L210.41 164.544L210.724 168.026L209.661 169.18L208.346 169.311L208.781 170.03L207.91 169.989L207.576 170.617L208.872 172.358L205.663 173.127L206.716 173.926L208.214 173.997L207.86 174.989L205.107 175.06L203.831 176.254L202.282 176.366L202.637 175.212L201.412 175.111L201.108 173.856L201.969 173.694L201.807 172.985L201.118 172.358L201.341 173.329L199.752 173.552L199.448 172.388L199.975 171.032L198.608 169.443L197.151 169.463L196.675 168.107L193.881 166.164L192.95 166.214L193.173 167.996L192.586 168.269L192.16 167.621L192.626 166.68L191.26 164.615L191.604 163.897L189.701 162.358L189.286 161.215L189.772 158.583L188.142 157.723L188.041 155.193L186.968 153.705L184.488 152.227L182.838 148.129L181.381 146.428L180.348 146.469L179.589 145.74L179.285 144.333L177.281 142.542L173.85 141.995L170.965 142.339L168.171 141.084L166.997 141.297L163.029 138.453L154.274 136.034L149.84 140.336L148.241 143.25L148.231 145.588L147.178 145.608L146.348 142.684L144.547 141.064L142.988 141.014L142.31 140.234L137.714 138.655L135.74 138.575L133.848 136.975L130.892 136.55L127.309 133.666L119.748 130.63L119.221 128.17L116.407 125.498L114.261 125.164L113.421 124.112L112.055 123.889L107.885 124.83L109.18 121.926L107.348 118.718L105.718 117.746L105.739 116.127L104.666 113.728L101.194 112.493L101.376 109.68L102.975 108.961L107.642 109.639L111.437 108.627L115.334 105.965L116.215 103.961L112.065 100.369L113.35 98.3646L113.148 94.6503L110.051 93.2333L109.909 92.9904L108.158 92.6463L105.384 94.883L104.109 94.3972L102.864 95.7231L105 96.2898V98.4456L102.743 100.753L98.6432 102.514L97.3071 101.573L96.2949 101.947L94.6551 102.737L94.7057 105.024L94.6551 105.783L94.2806 106.239L94.7159 106.836L94.9891 107.504L94.5134 108.303L94.0377 108.87L93.0356 109.599L92.155 109.487L91.1529 107.473L89.8472 107.494L90.6063 106.32L89.0374 106.239L85.8793 107.797L86.4158 108.263L87.175 110.58L88.6022 111.603L86.7903 111.562L86.2437 112.311L85.4542 111.754V112.979L84.4117 113.171L83.5817 112.362L84.1586 112.088L83.3893 111.957L82.9339 113.171L81.8305 112.696L80.3831 113.981L82.2557 116.552L82.7415 120.762L84.2699 124.122L87.0231 125.519L87.3572 126.318L82.0836 135.842L80.4438 141.945L80.8386 144.252L77.6198 148.948L77.0023 152.015L78.8446 157.531L79.1381 162.5L80.2616 163.937L81.2738 167.611L85.1506 170.981L88.2884 172.378L89.8269 173.663L87.7418 175.526L86.4462 173.289L83.7335 172.52L81.7597 174.139L75.0184 175.273L73.8949 174.038L73.0041 173.967L72.4171 172.783L71.3745 167.854L67.599 165.85L66.2933 164.221L64.4308 164.98L63.3275 163.269L61.5258 164.413L61.2525 163.289L60.1694 162.743L59.886 161.255L58.6107 160.941L60.301 157.521L60.9286 152.612L59.5216 152.521L58.6714 153.766L58.4588 152.319L59.2382 150.345L56.4749 147.602L53.2359 148.523L51.5151 150.284L51.1103 152.501L48.9948 155.648L46.8286 156.569L45.7152 153.715L45.9885 151.246L44.288 151.428L44.6524 149.657L46.6262 147.865L46.029 146.6L45.0067 145.892L37.82 146.459L37.1722 146.479L36.3017 145.244L37.152 144.08L42.3952 141.277L43.458 136.581L44.8751 135.184L44.6828 133.555L41.5146 133.18L40.8263 131.682L38.6804 130.721L38.7411 128.727L40.806 127.199L40.887 126.48L38.3363 126.703L37.0811 124.76L35.3705 123.687L36.5244 117.867L33.255 116.703L29.2771 117.23L28.8115 116.562L29.4795 115.863L25.5724 112.129L20.6835 111.097L20.2482 107.747L17.576 103.961V102.747L19.3372 101.016L16.665 98.5366L16.9788 96.4922L16.25 94.9235L16.8169 93.9114L16.412 92.6868L18.4971 91.3914L18.4668 88.092L14.4179 86.7257L13.1527 85.0456L12.2012 86.169L10.7639 86.3411L10.0048 82.7988L7.08962 80.7342L8.78 76.9591L6.87705 76.3518L4.31619 76.9996L2.99021 76.0584L3.6785 74.4593L2.87886 73.012L3.68863 72.0404L0.813965 67.6075L2.44361 66.8889L2.83837 67.5873L3.93155 66.393L6.68473 65.7554L9.2456 64.3587L9.64036 63.4175L11.6344 62.0815L11.351 61.2415L9.50878 61.1099L7.86901 58.2761L9.2861 56.7479L9.08366 52.9526L13.2539 50.4629L13.4361 48.965L16.4727 46.6676L16.4322 45.2405L17.8189 45.4328L19.3271 44.1576L18.4161 41.8096L18.9627 38.9252L22.7686 36.8504L24.8942 34.5935L26.3316 34.9882L29.7326 34.0166L32.5465 31.8811L32.7388 30.7071L34.0243 31.456L34.8745 33.3688L37.2026 34.0469L38.7209 35.2715L40.553 34.6947L42.7798 31.203L45.7152 30.7071L46.7983 29.6747L48.7113 30.5249L51.3734 30.4136L52.1225 31.5471L54.8857 32.5794L56.4142 31.9519L56.9709 35.5752L57.3758 34.725L59.1066 33.8951L60.0075 34.2089L60.7262 33.5409L62.1027 34.2392L63.3478 33.5308L63.6717 34.6845L65.2203 35.8586L68.1456 35.4942L69.421 36.061L73.652 34.8262L78.0247 34.4214L79.4316 35.899L80.707 35.9496L83.1464 34.0368L84.9583 31.5876L85.8085 28.6323L87.4381 27.7822L91.6995 33.298L93.8454 32.1543L94.9487 30.4136L95.8091 16.9731L96.5176 15.1312L95.9507 12.8843L96.639 11.1942L98.8355 10.6476L99.6655 9.06881L100.546 9.49388L100.88 8.80566L102.318 9.89871L105.587 9.19025H112.075L118.513 10.6476L120.426 10.0202L125.568 12.4694L130.477 12.5908L136.631 11.2144L138.828 8.2895L138.433 6.03257L139 5.01036L141.257 4.19058L143.575 2.02473L147.097 2.08546L148.889 6.16413L154.628 1.6705L155.964 2.03485L157.665 1.19482L161.491 2.03485V2.03485Z" stroke="#F5BC2E"/>
<circle cx="108.814" cy="93.3961" r="4" fill="white"/>
<ellipse cx="108.814" cy="93.3961" rx="2.00027" ry="2" fill="#1B242D"/>
</svg>
