<svg width="275" height="165" viewBox="0 0 275 165" fill="current" xmlns="http://www.w3.org/2000/svg">
<path d="M1.71313 49.0976L7.74802 43.0627L9.37656 42.8483L1.84549 50.3794L1.71313 49.0976Z" fill="#F5BC2E"/>
<path d="M7.93885 54.286L7.78684 54.1777L6.78576 54.025L23.5273 37.2834L24.2452 37.1039L24.8847 37.3401L7.93885 54.286Z" fill="#F5BC2E"/>
<path d="M8.43912 63.7857L8.16259 62.6481L32.1495 38.6612L32.7477 38.9864L36.7864 35.434L36.7878 35.437L8.43912 63.7857Z" fill="#F5BC2E"/>
<path d="M12.6837 69.5411L12.4025 69.197L11.7272 69.0835L51.2331 29.5776L51.9492 29.736L53.0097 27.801L55.2641 25.5466L56.1295 25.6674L57.1215 23.9469L59.065 22.7122L59.3467 22.8782L12.6837 69.5411Z" fill="#F5BC2E"/>
<path d="M17.4565 74.7683L16.7448 74.5104L16.5449 74.2658L62.2438 28.567L62.6341 29.5908L17.4565 74.7683Z" fill="#F5BC2E"/>
<path d="M24.2282 77.9967L23.4165 77.3942L72.8975 27.9132L72.9524 27.9851L74.1779 28.0469L24.2282 77.9967Z" fill="#F5BC2E"/>
<path d="M30.5166 81.7083L29.5795 81.9694L29.1558 81.6549L85.4262 25.3845L85.534 25.4853L84.8862 26.6896L85.1071 27.1177L33.7556 78.4692L33.598 78.3664L32.0726 80.1523L30.5166 81.7083Z" fill="#F5BC2E"/>
<path d="M38.5084 83.7165L38.7804 82.6475L38.6413 82.1694L87.0475 33.7632L87.3054 34.4624L87.5823 34.6426L38.5084 83.7165Z" fill="#F5BC2E"/>
<path d="M42.888 89.3369L42.1028 88.7079L90.6279 40.1828L90.9594 40.6563L91.8768 40.3481L42.888 89.3369Z" fill="#F5BC2E"/>
<path d="M23.1636 117.647L27.0366 113.774L28.1928 113.87L28.5519 113.673L23.7965 118.428L23.2431 118.05L23.1636 117.647Z" fill="#F5BC2E"/>
<path d="M30.2295 121.995L29.2141 121.597L104.087 46.7242L104.873 47.352L30.2295 121.995Z" fill="#F5BC2E"/>
<path d="M37.5054 124.719L36.4421 124.369L118.068 42.743L118.42 42.7007L118.957 43.2683L37.5054 124.719Z" fill="#F5BC2E"/>
<path d="M51.9519 120.273L47.8396 122.999L47.7917 123.019L63.8838 106.927L63.9033 107.524L64.4198 107.805L51.9519 120.273Z" fill="#F5BC2E"/>
<path d="M85.0924 97.1325L84.6838 97.019L83.8928 96.918L131.865 48.9456L132.477 49.7483L85.0924 97.1325Z" fill="#F5BC2E"/>
<path d="M89.1807 103.044L88.7224 102.93L88.5023 102.308L138.123 52.6876L138.219 52.8215L139.078 53.1473L89.1807 103.044Z" fill="#F5BC2E"/>
<path d="M95.2119 107.013L95.1904 107.008L92.3567 108.454L144.184 56.6269L145.049 57.1756L95.2119 107.013Z" fill="#F5BC2E"/>
<path d="M82.9407 127.87L94.7295 116.081L94.8867 116.238L95.3596 116.865L82.324 129.901L82.9407 127.87Z" fill="#F5BC2E"/>
<path d="M85.6787 136.546L84.0256 136.785L101.293 119.518L101.869 120.356L85.6787 136.546Z" fill="#F5BC2E"/>
<path d="M91.2235 141.001L90.4161 140.395L104.315 126.496L105.479 126.746L91.2235 141.001Z" fill="#F5BC2E"/>
<path d="M104.709 137.516L104.442 137.209L102.428 139.405L101.019 139.792L105.59 135.221L105.434 135.863L106.064 136.161L104.709 137.516Z" fill="#F5BC2E"/>
<path d="M160.138 102.087L159.653 101.158L206.071 54.7396L206.32 54.9469L207.417 54.8077L160.138 102.087Z" fill="#F5BC2E"/>
<path d="M167.917 104.308L167.128 103.992L166.874 103.937L221.145 49.666L222.435 49.7903L167.917 104.308Z" fill="#F5BC2E"/>
<path d="M174.401 107.824L173.411 107.399L264.553 16.2576L264.916 16.6296L265.399 16.8257L174.401 107.824Z" fill="#F5BC2E"/>
<path d="M183.826 108.399L182.666 108.145L270.965 19.8452L271.201 21.0244L183.826 108.399Z" fill="#F5BC2E"/>
<path d="M192.03 110.195L190.87 109.941L271.074 29.7371L271.436 30.7891L192.03 110.195Z" fill="#F5BC2E"/>
<path d="M201.99 110.235L200.763 110.048L246.317 64.4938L246.747 65.2802L246.568 65.6574L201.99 110.235Z" fill="#F5BC2E"/>
<path d="M166.371 154.44L166.573 154.238L167.752 154.473L166.934 155.291L166.371 154.44Z" fill="#F5BC2E"/>
<path d="M172.026 160.199L171.273 159.538L180.004 150.806L181.157 151.068L172.026 160.199Z" fill="#F5BC2E"/>
<path d="M178.426 163.799L177.086 163.725L187.272 153.539L188.028 154.196L178.426 163.799Z" fill="#F5BC2E"/>
<path d="M237.141 105.083L219.767 122.458L219.752 121.825L219.978 120.833L246.736 94.0743L247.296 94.9287L237.428 104.797L237.141 104.802V105.083Z" fill="#F5BC2E"/>
<path d="M246.157 84.6539L246.656 85.4712L246.631 85.5938L219.805 112.42L218.638 112.173L246.157 84.6539Z" fill="#F5BC2E"/>
<path d="M274.207 48.0174L269.493 52.7316L269.178 52.8013L268.498 52.3128L274.396 46.4152L274.207 48.0174Z" fill="#F5BC2E"/>
<path d="M272.415 38.3961L272.38 39.8453L250.735 61.4894L249.187 61.6469L249.175 61.6357L272.415 38.3961Z" fill="#F5BC2E"/>
<path d="M246.916 73.8946L247.405 74.3788L246.029 75.5124L246.066 76.1585L211.76 110.465L210.536 110.275L246.916 73.8946Z" fill="#F5BC2E"/>
<path d="M216.585 114.226L216.746 114.498L217.97 113.85L218.289 112.522L216.585 114.226Z" fill="#F5BC2E"/>
<path d="M249.276 91.5344L249.217 91.7157L248.93 91.8805L249.276 91.5344Z" fill="#F5BC2E"/>
<path d="M259.944 10.8671L261.222 10.6583L261.383 10.8416L234.266 37.9593L233.702 37.1089L259.944 10.8671Z" fill="#F5BC2E"/>
<path d="M252.754 8.05654L253.79 8.43474L233.669 28.5555L233.461 27.3496L252.754 8.05654Z" fill="#F5BC2E"/>
<path d="M244.725 6.0854L244.996 6.11406L246.717 5.355L246.849 5.37636L230.629 21.5954L230.768 20.043L244.725 6.0854Z" fill="#F5BC2E"/>
<path d="M238.056 2.75472L238.739 3.48543L226.038 16.1873L225.481 16.0729L225.359 15.4518L238.056 2.75472Z" fill="#F5BC2E"/>
<path d="M222.429 8.38127L225.453 5.35771L226.657 5.5683L222.559 9.66543L222.363 8.58354L222.429 8.38127Z" fill="#F5BC2E"/>
<path d="M175.242 55.5683L177.252 53.5583L178.311 53.9135L174.541 57.6839L175.242 55.5683Z" fill="#F5BC2E"/>
<path d="M160.257 60.5536L160.953 60.7461L161.825 60.3999L122.247 99.978L121.619 99.9439L120.393 100.418L160.257 60.5536Z" fill="#F5BC2E"/>
<path d="M148.744 62.0667L150.016 62.2085L103.439 108.786L101.747 109.064L148.744 62.0667Z" fill="#F5BC2E"/>
<path d="M139.603 91.208L173.051 57.7594L174.042 58.1824L140.578 91.6467L139.97 91.4425L139.603 91.208Z" fill="#F5BC2E"/>
<path d="M139.052 93.1731H138.695L138.366 93.8593L139.052 93.1731Z" fill="#F5BC2E"/>
<path d="M141.938 98.873L143.251 98.9737L187.651 54.5736L186.63 54.1804L141.938 98.873Z" fill="#F5BC2E"/>
<path d="M199.495 51.3154L151.267 99.5434L153.443 98.3752L153.798 98.4265L201.688 50.5366L200.996 49.9472L200.358 51.1415L199.495 51.3154Z" fill="#F5BC2E"/>
<path d="M150.136 100.675L149.961 100.976L149.854 100.957L150.136 100.675Z" fill="#F5BC2E"/>
<path d="M227.292 4.93272L227.809 3.70531L229.508 2.7168L227.292 4.93272Z" fill="#F5BC2E"/>
<path d="M232.577 39.6477L232.364 39.6746L231.821 40.4043L232.577 39.6477Z" fill="#F5BC2E"/>
<path d="M125.445 46.7795L72.4802 99.7447L72.2742 99.4379L71.2924 99.5184L124.259 46.5517L125.445 46.7795Z" fill="#F5BC2E"/>
<path d="M70.802 100.009L67.1639 103.647L67.8711 103.719L68.4885 102.626L69.5817 102.424L70.802 100.009Z" fill="#F5BC2E"/>
<path d="M65.416 105.395L65.0306 105.78L65.1888 105.824L65.416 105.395Z" fill="#F5BC2E"/>
<path d="M99.3286 41.4822L100.597 41.628L44.8997 97.3252L45.3192 96.594L45.1118 95.699L99.3286 41.4822Z" fill="#F5BC2E"/>
<path d="M40.9511 101.274L40.653 101.29L40.641 101.584L40.9511 101.274Z" fill="#F5BC2E"/>
<path d="M35.9881 106.237L34.4887 107.565L34.3659 107.859L35.9881 106.237Z" fill="#F5BC2E"/>
<path d="M44.964 25.8467L45.7066 26.5182L40.749 31.4759L40.7619 30.0489L44.964 25.8467Z" fill="#F5BC2E"/>
<path d="M27.9729 34.252L27.3426 33.8754L27.0493 35.1756L27.9729 34.252Z" fill="#F5BC2E"/>
<path d="M178.928 150.413L185.072 151.81L188.878 155.119L188.585 160.372L180.052 163.651L176.216 163.439L174.596 161.324L171.56 159.977L167.116 156.081L165.668 153.895L167.905 154.34L170.223 151.658L173.088 150.434L176.762 149.755L178.928 150.413V150.413ZM94.369 115.972L95.3003 117.207L97.6182 118.047L99.6426 117.035L100.938 118.138L100.574 118.958L101.637 120.506L102.912 121.62L104.855 121.549L105.918 122.885L105.655 123.674L104.015 123.35L103.448 124.636L103.681 126.204L105.655 126.629L105.139 127.318L105.746 128.866L103.874 130.344L104.491 133.754L105.281 134.099L104.916 135.596L105.858 136.042L105.108 138.309L103.924 136.943L101.91 139.139L99.7742 139.726L97.5372 140.06L95.3812 141.193L95.5938 142.003L93.8326 142.195L93.2556 142.934L92.8912 141.234L91.1806 141.092L89.5509 139.867L89.9255 138.187L88.2655 136.528L86.8787 136.032L82.6781 136.639L82.3846 134.908L81.261 134.615L81.1699 131.73L83.0324 125.597L85.3199 122.257L85.573 119.869L87.7492 119.687L88.7108 117.976L90.0874 117.693L93.62 115.223L94.369 115.972V115.972ZM235.693 2.94319L237.14 2.06268L239.185 4.24878L242.565 5.64544L244.478 5.84786L246.199 5.0888L248.942 5.53412L250.714 7.23441L255.704 9.05615L256.675 8.70192L257.759 10.0784L259.155 10.6451L260.704 10.3921L261.453 11.2422L260.674 12.5478L264.399 16.3634L267.911 17.7904L270.107 17.8714L270.684 20.7659L269.622 22.4966L270.431 25.6037L270.037 27.9618L271.109 31.079L270.988 34.1456L271.95 35.9471L271.848 40.1371L273.397 40.967L274.014 44.985L273.488 49.4685L270.31 52.1707L268.66 52.5351L265.674 50.3895L263.417 50.6931L262.86 51.9177L261.433 52.0594L260.491 54.7009L258.467 55.3487L258.072 57.3931L255.947 57.7777L252.951 60.9455L248.669 61.3807L247.394 60.156L245.582 60.9961L245.116 62.9797L246.23 65.014L245.298 66.9673L245.612 69.1028L244.509 69.4469L244.114 70.3376L244.802 72.048L246.887 74.1126L245.511 75.2462L245.582 76.4606L243.821 77.8776L244.286 78.4342L246.574 78.2925L246.189 79.841L244.478 81.4502L244.549 82.604L246.138 85.205L245.896 86.3891L246.968 86.5612L249.529 88.9092L248.699 91.4495L245.774 93.1296L248.851 97.8256L245.379 98.4936L243.75 100.083L242.363 99.5968L242.242 100.781L243.517 102.987L242.798 103.979L241.26 104.09L240.035 101.57L239.144 102.957L238.921 105.528L237.545 105.062L237.181 104.526L236.624 104.536V107.309L235.045 107.501L235.824 108.837H234.964V109.697L235.996 109.981L235.379 111.711L234.64 111.62L233.881 111.954L231.462 113.948L230.449 113.938L227.929 118.634L227.595 122.065L223.06 123.836L219.629 123.543L219.254 122.399L219.234 121.559L219.548 120.182L219.7 119.332L219.346 118.421L219.224 117.824L218.242 115.689L218.728 115.335L219.993 115.152L220.034 114.07L222.028 112.835L220.732 111.711V112.46L217.868 111.853L217.453 113.584L216.228 114.231L215.368 112.774L212.22 110.578L211.602 110.254L208.201 109.728L204.335 110.406L197.037 109.293L191.844 110.001L179.08 107.208L176.722 108.503L175.517 108.26L171.63 106.59L171.489 105.679L166.61 103.726L159.838 102.238L158.3 99.2932L156.994 98.696L152.925 98.109L150.06 99.6474L149.443 100.71L148.704 100.578L148.785 99.6474L148.127 99.1211L141.264 98.5948L140.333 97.522L137.205 96.8034L136.76 96.0747L137.094 95.1639L138.177 92.9069H139.108L140.748 91.6115L139.452 91.1763L137.914 90.1946L136.244 90.6905L136.628 91.2572L133.005 90.5994L130.272 91.2977L130.383 91.8645L125.474 96.1557L124.462 99.8599L121.101 99.6777L114.502 102.228L107.69 109.718L106.991 109.667L103.944 108.351L99.5718 109.07L97.5676 108.786L97.0817 108.463L98.347 108.523L98.6709 107.511L97.932 107.451L94.6727 106.742L91.7171 108.25L89.0145 102.866L88.2047 102.663L87.9213 101.864L88.5894 100.983L86.8686 100.801L86.2411 99.283L85.9779 98.9794L86.6763 98.3216L85.8969 97.2285L85.2592 97.0565L84.1661 96.7528L80.9979 96.348L77.5766 97.1779L77.3134 98.2811L73.4873 98.2001L72.212 99.8498L71.7565 99.1717L70.5216 99.2729L69.064 102.157L67.9708 102.36L67.3534 103.453L65.8654 103.301L64.671 105.558L63.8714 105.335L63.3451 106.013L63.3856 107.258L65.248 108.27L64.7318 110.041L63.6184 109.191L62.6669 109.728L62.4442 111.823L63.173 112.46L64.833 111.651L65.5314 112.258L60.2376 114.171L47.3219 122.733L42.6962 124.656L38.9206 125.091L34.8718 123.755L26.8552 120.608L22.7254 117.784L22.2902 115.578L23.2012 114.464L24.6284 113.351L27.6751 113.604L28.91 112.926L32.8677 109.94L33.971 107.299L37.3416 104.313L40.0037 104.232L40.1353 101.024L41.6232 100.943L42.9189 101.884L43.5059 101.54L42.9897 99.4855L44.8015 96.3278L44.2853 94.1012L45.1254 91.2775L37.5441 85.205L38.2627 82.3813L37.9388 81.268L33.0803 78.1002L30.2967 81.3591L29.0618 81.7032L21.6727 76.2177L16.2271 74.2442L11.8848 68.9308L9.35426 68.5057L8.89876 67.8175L9.7389 65.8439L8.04851 64.0424L7.33999 61.1276L9.09108 57.6056L8.95949 55.1159L7.26913 53.9115L1.63116 53.0512L0.922607 46.1893L2.50164 45.8048L2.80532 43.9628L5.08277 42.1309L6.90472 42.8394L10.1336 42.4143L12.8261 43.062L13.4942 43.7705L15.5186 41.4629L16.5409 38.8821L21.1363 38.4773L21.7031 37.3438L23.7275 36.8377L24.8511 37.2527L26.2175 36.3013L26.8249 33.6092L28.4343 34.5707L29.5679 37.2729L32.23 38.7202L36.2687 35.1678L37.0278 36.777L39.1433 36.9592L41.3398 35.2285L40.2163 32.8704L40.2568 28.3869L41.4006 27.476L41.8054 26.1907L44.0019 25.1786L45.3785 26.4234L46.6336 26.3121L46.8968 27.1319L49.154 26.8586L49.3666 27.7897L50.5205 28.5994L50.3788 29.237L51.4315 29.4698L53.8 25.1482L55.6118 25.4012L56.6038 23.6807L58.5472 22.446L59.6809 23.1139L59.2861 24.2778L62.1608 26.7068L61.6547 28.1136L62.3531 29.9455L65.5112 28.1237L67.9708 29.237L69.641 26.8991L71.5236 26.5246L72.4346 27.7189L74.6412 27.8302L75.7344 28.6804L76.696 27.9314L76.8073 26.049L77.8398 25.0774L82.4959 23.0836L83.2551 23.4884L83.2753 24.5308L84.0851 24.3487L85.0163 25.2191L84.3685 26.4234L85.8362 29.2674L85.5933 30.9576L86.7877 34.1962L88.9335 35.5929L89.0246 38.366L90.4417 40.3901L94.2071 39.125L94.9359 39.5602L94.5512 41.301L96.7983 40.3598L97.7903 41.0986L100.958 41.4629L102.497 45.6023L107.771 49.8126L108.874 48.7803L109.461 44.9546L109.107 43.2746L114.107 44.398L114.846 44.2866L115.959 42.6673L117.903 42.4345L120.322 44.9951L123.662 46.2703L130.515 47.586L132.681 50.43L134.442 51.2497L136.345 50.6627L137.701 52.5553L141.861 54.1342L142.054 55.3385L145.678 57.636L146.73 61.6337L149.635 61.9575L151.366 63.0607L152.773 61.8057L156.042 62.3219L159.008 60.0852L160.435 60.4799L163.29 59.3464L164.423 59.4982L164.788 58.3444L168.786 56.7757L171.256 56.9478L173.817 58.0408L175.041 54.3467L176.59 53.2435L181.327 54.8325L185.396 53.6383L187.866 54.5896L189.88 56.3506L191.065 53.1929L193.403 53.4561L194.82 52.3732L196.369 52.7577L197.381 51.3712L199.84 50.8753L200.478 49.681L203.201 51.9987L204.831 51.9278L204.648 53.7192L205.802 54.6807L207.796 54.4277L210.742 52.8893L213.637 53.1423L216.289 52.2719L217.109 50.1668L219.659 49.3066L224.386 49.762L225.348 48.5677L228.303 48.6689L228.85 46.2906L229.933 45.9566L230.874 44.3069L231.32 42.3333L230.814 40.795L231.846 39.4084L234.65 39.0542L232.362 35.603L230.834 34.9249L230.399 33.589L230.459 32.7692L231.927 32.0708L232.089 30.5021L233.273 28.9941L232.545 24.7737L229.832 24.4701L230.368 18.4482L228.961 17.3147L228.86 15.1388L227.595 15.3918L227.18 16.2622L224.963 15.8067L224.629 14.1064L223.384 13.8433L222.686 12.9527L221.846 8.31733L222.686 5.74665L224.052 4.93699L226.482 5.36206L227.291 3.43911L231.31 1.10121L232.13 1L233.759 2.58896L235.693 2.94319V2.94319Z" stroke="#F5BC2E"/>
<circle cx="158.923" cy="81" r="4" fill="white"/>
<ellipse cx="158.923" cy="81" rx="2.00027" ry="2" fill="#1B242D"/>
</svg>
