<svg width="120" height="107" viewBox="0 0 120 107" fill="current" xmlns="http://www.w3.org/2000/svg">
<path d="M5.03522 34.362L7.97905 31.4182L8.97004 31.8414L5.60929 35.2021L5.03522 34.362Z" fill="#22AAA8"/>
<path d="M3.89923 46.9122L3.08936 46.3079L17.8454 31.5518L18.1795 31.5191L18.2973 31.0999L20.2159 29.1814L20.9449 29.8665L3.89923 46.9122Z" fill="#22AAA8"/>
<path d="M17.1163 53.6951L17.1167 53.6027L16.7431 52.6541L32.8049 36.5923L32.8361 36.6099L33.4119 37.3994L17.1163 53.6951Z" fill="#22AAA8"/>
<path d="M20.7723 60.0391L20.6492 59.8776L19.7079 60.7783L18.9919 60.4053L41.646 37.7513L41.7941 38.0976L42.7051 37.5612L42.5647 36.8325L61.3999 17.9973L60.7223 19.0807L60.8904 19.921L20.7723 60.0391Z" fill="#22AAA8"/>
<path d="M20.0332 69.3641L21.0572 68.34L21.2161 68.3082L21.2971 69.0571L20.548 69.3911L19.6318 71.1796L18.1738 72.6376L20.0332 69.3641Z" fill="#22AAA8"/>
<path d="M17.3823 73.4291L17.8835 72.9279L17.4203 72.65L17.3823 73.4291Z" fill="#22AAA8"/>
<path d="M26.29 64.5214L25.7507 63.6931L25.7501 63.6471L65.7492 23.648L66.7797 24.0317L26.29 64.5214Z" fill="#22AAA8"/>
<path d="M28.453 72.3584L28.6017 70.7955L71.2723 28.1249L71.5101 29.3013L28.453 72.3584Z" fill="#22AAA8"/>
<path d="M28.792 82.0194L27.7791 83.0323L27.2893 82.2445L28.0484 82.1838L28.2711 81.4551L28.792 82.0194Z" fill="#22AAA8"/>
<path d="M30.6318 80.1796L29.6983 80.4633L29.2001 80.1971L74.9795 34.4178L76.0622 34.7492L34.1061 76.7053L33.8483 76.6477L31.29 79.5214L30.6318 80.1796Z" fill="#22AAA8"/>
<path d="M35.8576 84.9538L35.5792 84.289L35.8872 83.51L78.704 40.6933L78.3477 42.4636L35.8576 84.9538Z" fill="#22AAA8"/>
<path d="M37.7745 91.6227L38.6714 90.7258L39.4762 91.1205L39.629 91.1824L37.9008 92.9106L38.049 92.6791L37.715 92.4565L37.7745 91.6227Z" fill="#22AAA8"/>
<path d="M36.2292 103.168L37.4315 101.966V103.104L36.0448 103.913L36.1553 104.656L35.4923 105.319L35.2346 104.163L36.0245 103.373L36.308 103.296L36.2292 103.168Z" fill="#22AAA8"/>
<path d="M39.1007 101.711L38.8847 100.513L55.2695 84.1277L55.9324 84.879L39.1007 101.711Z" fill="#22AAA8"/>
<path d="M47.2499 103.561L46.0973 103.3L46.8235 102.574L47.5738 103.012L47.7926 103.019L47.2499 103.561Z" fill="#22AAA8"/>
<path d="M53.0668 97.7446L52.0202 98.7912L51.8453 98.5289L51.0153 99.1361L49.8999 99.4973L53.1643 96.2329L53.1611 96.7173V97.4561L53.0668 97.7446Z" fill="#22AAA8"/>
<path d="M57.3337 93.4777L57.0209 93.7905L56.1168 93.7317L55.0641 95.0575L54.3031 95.0941L57.2244 92.1729L57.3337 93.4777Z" fill="#22AAA8"/>
<path d="M64.4803 96.3311L64.0119 96.0493L65.4189 94.7437L65.1157 94.2815L105.906 53.4914H105.988L106.799 54.0122L64.4803 96.3311Z" fill="#22AAA8"/>
<path d="M67.7782 101.619L68.0351 101.362L68.2126 101.606L68.8199 101.221L69.2178 101.594L68.5402 102.271L67.7782 101.619Z" fill="#22AAA8"/>
<path d="M117.068 73.7436L92.0255 98.7859L91.1878 98.2094L117.912 71.4855L117.068 73.7436Z" fill="#22AAA8"/>
<path d="M116.045 63.3519L116.722 64.0893L82.086 98.7254L80.7617 98.6355L116.045 63.3519Z" fill="#22AAA8"/>
<path d="M118.266 51.131L118.847 51.9647L70.3872 100.424L70.3382 100.057L69.7106 99.8851L69.674 99.7232L118.266 51.131Z" fill="#22AAA8"/>
<path d="M112.57 48.2416L111.737 48.1881L111.786 49.0249L112.57 48.2416Z" fill="#22AAA8"/>
<path d="M79.3231 100.074L79.1342 100.442L78.9009 100.496L79.3231 100.074Z" fill="#22AAA8"/>
<path d="M95.1165 55.6949L60.5022 90.3092L59.538 89.9363L59.5513 89.8459L92.3578 57.0394L93.1532 57.0134L95.0966 55.6876L95.1165 55.6949Z" fill="#22AAA8"/>
<path d="M83.9457 55.4516L84.9443 55.7382L85.0756 55.7358L57.755 83.0564L57.0964 82.3008L83.9457 55.4516Z" fill="#22AAA8"/>
<path d="M78.2937 51.1035L78.5672 52.2442L40.3661 90.4453L39.1584 90.2388L78.2937 51.1035Z" fill="#22AAA8"/>
<path d="M35.0662 95.7452L35.5488 93.9948L36.1562 93.8227L36.1333 94.6781L35.0662 95.7452Z" fill="#22AAA8"/>
<path d="M82.983 37.8284L80.4146 40.3968L78.8414 40.5558L82.4924 36.9049L82.983 37.8284Z" fill="#22AAA8"/>
<path d="M62.7566 6.64059L62.7568 6.66244L63.3864 7.42496L39.5115 31.2999L39.4964 31.2864L39.542 29.8552L62.7566 6.64059Z" fill="#22AAA8"/>
<path d="M41.8295 7.56769L42.6646 7.7656L44.1728 6.35883L44.3001 6.51127L35.7949 15.0164L35.7715 14.9311L35.184 14.2132L41.8295 7.56769Z" fill="#22AAA8"/>
<path d="M39.0581 20.3391L50.8747 8.52249L51.1165 8.63601L54.0106 6.80082L39.5671 21.2443L39.0581 20.3391Z" fill="#22AAA8"/>
<path d="M28.7634 30.6338L13.0406 46.3567L14.335 46.4764L29.2287 31.5827L28.9898 30.5374L28.7634 30.6338Z" fill="#22AAA8"/>
<path d="M9.069 50.3282L8.89759 50.5462L8.88948 50.5077L9.069 50.3282Z" fill="#22AAA8"/>
<path d="M56.1875 4.62388L56.1674 3.84886L57.8675 2.94385L56.1875 4.62388Z" fill="#22AAA8"/>
<path d="M34.8348 34.5624L36.9114 32.4858L37.1481 32.4907L36.8849 33.3712L37.39 33.4214L34.9956 35.8158L34.8348 34.5624Z" fill="#22AAA8"/>
<path d="M63.8764 15.5209L63.7893 15.7509L63.611 15.7863L63.8764 15.5209Z" fill="#22AAA8"/>
<path d="M36.9141 101.522V102.837L35.5274 103.647L35.7501 105.145L35.0314 105.307L34.5962 103.354L35.7906 103.03L35.3351 102.291L35.6995 101.289L36.9141 101.522ZM34.5962 89.0023L35.9323 89.7209L35.325 92.4535L33.7966 90.3079L33.6144 87.5854L34.5962 89.0023ZM28.361 81.8469L28.7457 83.3751L27.4703 83.1019L26.7719 81.9784L27.531 81.9177L27.7537 81.189L28.361 81.8469ZM20.7797 68.791L20.0306 69.125L17.7026 73.6693L17.1357 73.6794L17.824 75.3291L17.0851 74.8332L16.7612 75.2886L16.9029 72.3839L17.4596 72.7179L20.0407 68.1737L20.6987 68.0421L20.7797 68.791ZM22.6826 63.0526L22.1056 64.4897L20.3849 65.4613L19.6865 66.7466L17.237 67.2729L15.8705 68.3457L16.4373 68.8518L16.2146 69.5805L14.5344 71.0986L14.3421 68.4976L15.3745 67.7081L15.0202 67.0604L17.3685 63.2044L20.3849 63.0424L21.8222 62.3036L22.6826 63.0526ZM59.8709 1.33594L62.1483 2.79333L62.209 2.84396L62.2394 6.39634L65.3064 10.1107L63.2719 15.4848L62.1483 15.7075L60.2049 18.8146L60.549 20.5351L64.4359 23.0855L70.2257 25.2413L71.1771 29.9474L73.5558 33.8743L81.8559 36.4146L82.7162 38.034L82.7567 39.4711L82.0178 39.9164L78.2119 40.301L77.5237 43.7218L75.9649 45.7055L76.8252 46.8694L78.2929 52.9925L80.1959 54.2576L84.4269 55.4721L87.1902 55.4215L89.2247 56.8586L92.6358 56.7473L94.5792 55.4215L95.1866 55.6441L95.7028 56.3627L95.7939 59.9455L96.2696 60.0568L99.5087 59.0144L101.412 53.2253H105.471L107.11 54.2778L111.048 52.8407L111.483 52.3954L111.22 47.922L112.951 48.0333L113.862 49.0858L116.2 48.6406L118.66 52.1727L118.619 53.8831L116.24 55.0976L115.248 57.5266L115.896 58.9638L115.208 60.3402L115.339 62.8805L116.807 64.4796L116.635 65.9167L114.56 66.4633L113.609 68.113L117.364 69.5501L117.708 70.38L115.896 75.2279L116.676 78.3046L114.601 80.0251L106.392 83.7091L105.531 91.2896L103.507 93.8906L101.816 92.5344L100.642 93.8704L97.7171 94.7408L95.7129 100.125L92.6054 99.2749L89.9434 97.443L87.8582 98.03L84.2548 96.7649L82.4025 98.5158L79.5683 98.3235L78.6168 100.176L75.9345 100.803L72.0881 103.89L69.7398 103.475L66.7842 100.945L64.0816 100.196L64.3954 99.5785L65.7619 100.095L66.5008 99.7L67.6952 101.34L68.3025 100.955L70.2156 102.746L69.8208 99.791L69.1932 99.619L68.9807 98.6777L69.5576 98.779L70.2156 96.8459L68.5859 97.1495L68.3227 96.3297L69.3147 96.0261L68.596 95.3278L66.2781 95.3784L64.7902 96.5625L63.4945 95.7832L64.9015 94.4776L63.6869 92.6255L62.9986 94.5788L59.9721 92.332L59.3344 91.158L60.0935 90.0852L59.0206 89.6702L59.2737 87.9497L57.9983 87.5246L58.7979 87.2615L59.0004 86.3405L57.3505 82.9197L55.0832 80.3186L53.5547 82.5047L57.9578 87.4943L57.6137 88.3444L56.8747 88.2533L57.4416 89.7816L56.6926 91.7349L56.8444 93.5465L55.5994 93.4655L54.5467 94.7914L52.6539 94.8824L52.6437 96.4512V97.19L52.4717 97.7163L52.3806 98.4045L51.7935 98.9611L51.3279 98.2628L50.4979 98.87L47.6536 99.791L47.7953 100.52L46.9957 101.279L46.4592 101.046L45.8721 100.641L45.3255 101.734L47.0564 102.746L49.4756 102.817L47.3904 103.445L44.536 102.797L41.7929 103.495L40.3151 103.394L38.807 102.686L38.1794 99.204L35.244 99.4672L35.0517 98.2932L35.6691 98.3235L35.9829 96.4309L35.0719 95.348L34.4342 95.8945L35.0314 93.7287L35.6388 93.5566L35.5882 95.4492L37.5316 92.413L37.1976 92.1903L37.3494 90.065L38.9588 90.8544L39.7078 91.158L40.305 90.2573L36.0436 89.5286L37.1976 88.6784L36.5396 87.1198L36.155 86.634L35.0618 84.0229L35.578 82.7173L35.2339 82.3732L34.2521 82.7578L33.837 81.9987L32.835 82.0898L33.5536 81.4825L34.5557 82.2416L35.244 81.7963L35.0416 81.2093L33.7561 81.0979L35.0517 76.7662L33.3309 76.3816L30.2134 79.8835L29.1809 80.1972L28.5939 79.8835L28.3408 77.2217L26.9743 76.2602L27.1869 74.985L27.7335 74.2158L28.3104 68.1535L25.2333 63.427L25.1929 60.5932L22.9458 60.077L21.1339 60.9272L20.1318 59.6115L19.1905 60.5122L18.4718 60.1378L16.5891 56.0591L16.5993 53.3366L15.1923 49.764L14.7065 46.2925L12.4087 46.08L11.1334 46.7783L8.38019 50.2801L8.17774 49.3186L6.9631 49.6931L6.21408 50.9076L5.3942 50.7963L4.56419 50.5432L4.36175 48.1548L3.49125 46.7277L2.13491 45.7156L1.396 43.7826L1.78064 42.1025L2.69162 41.6066L2.05393 39.9468L2.64101 39.1675L5.05004 38.0036L6.85177 38.0441L7.19591 37.366L6.53798 37.0522L3.89613 33.1861L3.27869 31.2125L4.38199 29.9373L4.89822 27.1541L6.89225 30.9089L8.83568 31.7388L11.6294 31.4352L11.68 30.6458L12.1051 29.5224L13.4513 29.2592L13.7651 27.2452L14.3218 28.0751L13.9271 28.7734L13.6335 31.6477L17.6621 31.253L18.0062 30.0284L19.15 29.2693L18.8261 28.0953L20.8505 29.998L24.0895 28.5406L25.0005 29.1378L25.8103 31.4048L28.4724 30.2713L28.9582 32.3967L27.946 33.8844L32.3187 36.3438L33.3816 37.8012L33.7966 37.8619L33.4524 36.5968L34.5658 36.2325L34.2217 33.5504L35.1732 32.1943L36.6307 32.2246L36.3675 33.1051L37.6935 33.2367L37.5923 34.0261L39.809 34.4006L41.2767 37.8315L42.1877 37.2951L41.3982 33.1962L38.979 31.0202L39.1207 26.5671L40.2645 24.7858L40.1836 22.9944L36.985 17.3066L35.7906 16.6183L35.2541 14.665L33.8877 12.9951L36.1651 12.1348L35.0719 10.4851L36.9243 8.20797L39.3839 7.99544L40.7807 7.17566L42.1472 7.4995L43.6554 6.09272L45.1939 7.93472L47.107 6.73034L50.5991 8.3699L55.6905 5.14137L55.65 3.58276L59.8709 1.33594Z" stroke="#22AAA8"/>
</svg>
