<svg width="256" height="101" viewBox="0 0 256 101" fill="current" xmlns="http://www.w3.org/2000/svg">
<path d="M8.71955 9.09131L8.88244 8.92842L9.30974 9.9154L8.87714 10.348L8.88972 10.2945L8.71955 9.09131Z" fill="#BE007D"/>
<path d="M6.91333 22.3118L6.87545 22.1662L6.15982 21.651L10.2056 17.6053L10.2198 19.0053L6.91333 22.3118Z" fill="#BE007D"/>
<path d="M3.07109 36.1541L2.72542 35.8697L4.45627 34.3618L4.24275 33.5681L15.0506 22.7603L16.5226 22.7026L3.07109 36.1541Z" fill="#BE007D"/>
<path d="M2.64591 46.4328L1.50391 46.1605L28.9006 18.7639L29.407 18.9478L29.9359 19.1428L2.64591 46.4328Z" fill="#BE007D"/>
<path d="M7.22938 51.8493L6.95641 51.638L6.97563 50.6888L37.5417 20.1227L38.8621 20.2166L7.22938 51.8493Z" fill="#BE007D"/>
<path d="M17.0616 52.0171L16.0257 52.4173L15.5439 52.1205L47.1989 20.4656L48.153 20.6178L48.7969 20.2819L17.0616 52.0171Z" fill="#BE007D"/>
<path d="M28.4443 50.6344L27.909 50.6866L27.1701 51.6278L25.9655 52.2351L25.2529 52.4115L53.4877 24.1767L54.3439 24.7348L28.4443 50.6344Z" fill="#BE007D"/>
<path d="M36.5544 52.5243L35.6205 52.0439L60.4114 27.2531L61.3528 27.7259L36.5544 52.5243Z" fill="#BE007D"/>
<path d="M45.4216 53.6571L45.1366 53.2269L44.681 52.9834L68.4064 29.258L68.2654 30.2932L68.5685 30.5102L45.4216 53.6571Z" fill="#BE007D"/>
<path d="M53.4107 55.668L53.1128 55.5244L51.8779 56.6984L51.0222 56.6422L69.7348 37.9296L70.6636 38.4151L53.4107 55.668Z" fill="#BE007D"/>
<path d="M63.2513 55.8274L63.1842 55.7774L61.4121 56.2523L79.8288 37.8356L81.1471 37.9316L63.2513 55.8274Z" fill="#BE007D"/>
<path d="M70.552 58.5268L69.443 58.2215L90.5352 37.1292L92.2149 36.8639L70.552 58.5268Z" fill="#BE007D"/>
<path d="M81.4317 57.647L80.7461 56.9183L106.157 31.5069L107.538 31.5404L81.4317 57.647Z" fill="#BE007D"/>
<path d="M51.1946 96.4699L54.7931 92.8713L55.8973 93.1814L52.0509 97.0279L51.1946 96.4699Z" fill="#BE007D"/>
<path d="M87.8535 61.2253L86.6774 61.445L86.3671 61.2974L116.07 31.594L116.497 31.4672L117.141 31.9375L87.8535 61.2253Z" fill="#BE007D"/>
<path d="M94.6978 64.381L93.9917 63.6727L126.171 31.4936L126.998 32.0804L94.6978 64.381Z" fill="#BE007D"/>
<path d="M102.032 67.0468L100.73 66.9342L136.303 31.3616L137.608 31.4711L102.032 67.0468Z" fill="#BE007D"/>
<path d="M110.865 68.2135L109.903 67.7617L139.634 38.0309L139.666 38.2886L140.106 38.9729L110.865 68.2135Z" fill="#BE007D"/>
<path d="M114.103 74.9761L113.934 73.7302L147.398 40.2662L148.981 40.0974L114.103 74.9761Z" fill="#BE007D"/>
<path d="M112.745 84.9191L113.268 84.6419L113.458 84.2064L156.654 41.01L157.461 41.4059L157.691 41.3874L112.704 86.3751L111.831 86.6458L111.798 85.8663L112.745 84.9191Z" fill="#BE007D"/>
<path d="M124.019 85.0602L122.875 84.7892L167.023 40.6416L168.56 40.5188L124.019 85.0602Z" fill="#BE007D"/>
<path d="M133.681 85.3979L133.087 85.5123L132.251 85.4136L173.518 44.1459L174.416 44.6623L133.681 85.3979Z" fill="#BE007D"/>
<path d="M144.269 84.8101L144.17 84.652L143.137 84.5272L183.948 43.7162L184.162 43.6324L185.792 42.2661L186.714 42.3646L144.269 84.8101Z" fill="#BE007D"/>
<path d="M156.001 83.0782L153.794 83.8701L197.447 40.2177L198.399 40.6796L156.001 83.0782Z" fill="#BE007D"/>
<path d="M170.729 78.3501L170.123 78.1342L169.077 78.5876L202.385 45.2792L202.483 45.7882L202.213 46.8658L170.729 78.3501Z" fill="#BE007D"/>
<path d="M179.557 79.5218L178.404 79.2608L201.227 56.4376L201.714 57.002L200.327 58.5707L200.397 58.6822L179.557 79.5218Z" fill="#BE007D"/>
<path d="M191.715 77.3639L190.353 77.3119L203.521 64.1434L203.809 64.1878L205.034 63.6109L205.246 63.8324L191.715 77.3639Z" fill="#BE007D"/>
<path d="M201.771 77.3081L200.668 76.9965L219.495 58.1696L221.037 58.0416L201.771 77.3081Z" fill="#BE007D"/>
<path d="M212.551 76.5277L210.065 78.1342L209.551 78.1134L233.858 53.8067L234.53 53.9455L235.685 53.3939L212.551 76.5277Z" fill="#BE007D"/>
<path d="M225.132 73.9469L224.721 73.7519L223.345 74.5818L223.112 74.5519L241.81 55.8548L242.121 55.7875L243.822 54.5224L243.66 54.004L244.97 52.6942L245.087 52.6703L245.866 51.9517L246.514 51.6481L247.23 50.4347L249.768 47.8966L250.006 47.9641L250.867 46.8913L251.95 46.0918L251.844 45.82L252.604 45.0599L253.134 44.9077L252.919 44.7452L254.456 43.2085L254.774 43.1163L255.005 44.0734L254.994 44.0849L254.025 44.6344L254.174 44.9047L253.379 45.6992L253.225 45.7275L253.19 45.8888L225.132 73.9469Z" fill="#BE007D"/>
<path d="M233.37 75.7083L232.738 75.5939L231.991 75.6736L251.956 55.7089L252.645 56.434L233.37 75.7083Z" fill="#BE007D"/>
<path d="M251.38 67.6986L242.866 76.213L241.425 76.2395L252.451 65.2132L252.446 65.2504L250.958 67.062L251.38 67.6986Z" fill="#BE007D"/>
<path d="M240.339 77.3259L240.076 77.618L240.032 77.632L240.339 77.3259Z" fill="#BE007D"/>
<path d="M205.522 42.1421L204.321 43.3433L205.236 42.8734L205.522 42.1421Z" fill="#BE007D"/>
<path d="M157.096 30.5686L157.802 29.862L157.835 30.9814L157.096 30.5686Z" fill="#BE007D"/>
<path d="M62.6918 16.3869L56.8189 22.2598L55.7645 21.8999L62.2494 15.415L62.6918 16.3869Z" fill="#BE007D"/>
<path d="M56.4316 11.2328L57.4788 11.5999L52.9445 16.1342L52.48 15.1844L56.4316 11.2328Z" fill="#BE007D"/>
<path d="M49.7997 17.8647L50.9355 16.729L51.3718 17.1868L52.2488 16.8299L49.6006 19.4782L49.7997 17.8647Z" fill="#BE007D"/>
<path d="M25.0278 12.7831L25.0542 14.171L20.3755 18.8496L20.6819 17.5815L20.62 17.1908L25.0278 12.7831Z" fill="#BE007D"/>
<path d="M24.3416 3.46924L24.6902 3.74635L23.5565 5.61873L23.5659 5.65923L19.499 9.72618L19.5482 9.57594L19.2385 8.57233L24.3416 3.46924Z" fill="#BE007D"/>
<path d="M50.9552 91.6726L55.7126 93.0086L55.9656 93.7373L54.9939 94.7393L54.8016 96.2371L56.4818 99.0608L55.6518 99.4454L49.113 95.1845L47.9287 93.4438L50.0645 93.3628L50.3783 91.8144L50.9552 91.6726V91.6726ZM243.486 40.8865L243.506 41.6354L242.494 42.2629L240.429 42.0605L240.105 41.4937L243.486 40.8865ZM243.182 38.336L243.729 38.9534L243.213 39.9149L241.705 40.006L241.694 38.7915L243.182 38.336ZM155.435 25.9786L158.046 27.689L157.246 28.2861L157.317 30.7151L156.194 30.0876L155.536 29.5107L154.696 29.6423L152.196 28.61L152.206 28.0533L154.028 27.021L154.635 26.1709L155.435 25.9786ZM20.8625 0.848633L24.1724 3.48002L23.0387 5.3524L23.5145 7.39676L24.4862 11.2629L24.5975 17.1229L28.8892 18.6815L30.8934 19.4203L38.4343 19.9567L40.0133 20.7158L43.8496 21.1408L45.9853 20.0883L47.6352 20.3514L49.0321 19.6227L49.4268 16.4246L50.0341 16.0602L50.854 16.9205L52.595 16.212L51.0261 13.0037L52.1193 11.7993L53.5768 12.2447L53.7793 11.4046L55.8644 10.9492L60.5711 12.5989L62.9802 17.892L61.472 19.9567L61.2088 21.9201L60.227 21.7683L59.5792 22.2845L59.8019 22.8917L58.9921 22.912L54.3664 21.3331L52.18 21.242L50.3681 22.3351L50.3479 23.1346L51.7954 23.1447L55.4595 25.5333L58.4253 25.4523L59.5185 26.7984L61.7757 27.9319L63.0713 27.8812L63.6078 26.4745L64.7414 26.7781L66.6849 25.0474L68.1019 27.4259L67.7477 30.0269L68.5675 30.6139L68.355 37.2126L70.349 38.2551L75.9769 38.8016L77.5964 38.5992L78.8616 37.5365L81.9185 37.7591L82.7991 36.7066L85.4106 36.7167L86.2406 37.2936L87.1212 37.0406H88.8925L93.9535 36.241L100.108 34.2169L103.58 31.1908L107.345 31.2819L108.296 30.3204L111.596 30.5937L114.481 31.6462L115.979 31.2009L116.991 31.9397L118.995 32.4457L120.402 32.547L124.067 32.2838L124.299 31.0794L125.231 30.9276L128.085 32.9518L129.958 32.5267L131.506 33.0732L132.356 32.4559L133.156 30.8163L134.624 31.9296L135.717 31.0896L137.286 31.2212L137.245 32.7899L138.025 33.5489L139.573 32.8607L139.999 34.1663L138.926 36.2613L139.148 38.0223L140.312 39.834L143.977 40.3096L149.291 39.7428L149.452 39.166L152.388 39.5404L153.005 40.9776L155.809 40.5829L156.943 41.1395L169.352 40.1477L170.547 40.3602L170.79 41.7973L172.055 43.3357L175.557 45.3497L179.788 44.8741L183.645 43.3661L185.274 41.9998L187.643 42.2528L189.151 41.0585L195.518 39.2671L198.21 40.5728L201.682 40.1072L204.091 40.5829L205.751 39.9655L204.719 42.607L201.702 44.1555L201.965 45.5218L201.206 48.5479L202.33 49.3677L202.117 50.7947L202.846 52.0598L200.498 53.4059L200.366 55.7742L201.196 56.7356L199.809 58.3044L201.287 60.6828L201.561 63.4053L202.239 63.7595L203.291 63.9214L204.516 63.3445L205.447 64.3161L208.778 65.6015L210.508 64.5084L212.594 60.5006L213.322 60.1059L213.98 60.9661L216.734 58.8307L216.906 57.0393L218.9 57.9097L221.46 57.6971L223.08 55.5414L224.021 56.1993L226.349 55.7438L227.078 55.0556L226.785 54.3471L228.728 52.4748L231.805 52.3331L232.494 53.3655L234.012 53.6792L236.492 52.495L236.998 53.0315L236.127 54.6913L236.441 55.1973L238.84 56.1183L241.603 55.5212L243.304 54.2561L242.838 52.7582L244.569 52.404L245.348 51.6854L245.996 51.3818L246.928 49.8029L246.563 48.3051L247.434 47.4346L247.768 46.9084L248.648 46.5643L248.81 47.5055L249.488 47.6978L250.349 46.625L251.432 45.8255L251.138 45.0664L252.616 44.6413L251.908 44.1049L251.816 43.5584L254.256 42.8499L254.489 43.8114L253.507 44.3681L253.983 45.2283L252.707 45.4611L252.343 47.1411L250.268 48.4062L251.371 52.0497L250.733 54.7013L252.667 56.7356L253.821 56.9381L255.025 55.7742L255.076 57.6567L254.225 58.608L251.837 59.0432L251.442 60.9459L252.292 62.5855L251.928 64.9841L250.44 66.7957L251.158 67.8786L248.871 70.5404L247.535 73.9107L246.421 73.6475L245.419 75.1758L244.093 75.9146L240.794 75.9753L239.559 77.3517L236.725 78.2525L235.085 78.04L235.237 76.8457L234.346 75.7121L232.22 75.3275L229.659 75.6008L228.92 76.2486L228.04 75.4187L226.582 75.6413L226.228 74.447L224.204 73.4856L222.827 74.3155L220.307 73.9916L212.351 76.0563L209.547 77.8679L205.802 77.7161L203.453 76.7141L202.421 77.372L198.16 76.1676L195.73 77.2708L189.637 77.038L185.112 79.0621L183.149 78.7686L181.225 79.7503L176.62 78.7079L173.351 79.2038L169.605 77.8679L165.354 79.7099L161.154 79.5074L160.243 81.1673L157.904 82.4526L157.358 82.1389L153.015 83.6975L152.418 82.7866L147.995 82.8271L144.118 85.1346L143.653 84.3857L140.636 84.0213L139.523 83.9809L138.146 85.0233L136.982 85.4585L133.935 84.9828L132.569 85.246L131.284 85.0941L130.039 85.1245L128.227 85.9139L121.01 84.2035L118.449 84.6387L116.799 86.1265L115.038 86.2175L113.479 86.42L112.619 85.9746L111.313 86.3795L111.262 85.165L112.75 84.3755L113.307 83.1004L112.963 82.0174L112.872 81.1571L112.295 78.6168L112.73 77.2505L113.823 76.4712L113.185 71.7549L111.819 68.6377L107.851 66.7755L107.426 67.2916L99.9356 66.6439L98.4072 67.0285L97.0003 66.1176L95.5123 66.6338L95.0467 64.9841L91.9494 61.877L88.1637 60.8042L86.1596 61.1787L83.0116 59.6808L82.5764 58.527L81.0783 57.5554L79.9548 56.3612L77.8697 56.513L76.6955 57.5959L74.1751 56.7762L70.5616 58.4056L67.363 57.5251L65.6828 57.7578L62.6664 55.5111L58.7391 56.5636L57.3524 56.1993L56.8564 55.3491L53.7287 55.8045L52.595 55.258L51.3601 56.432L49.3559 56.3005L47.6352 56.0677L46.208 55.3592L44.6189 52.9606L43.4447 52.3331L40.4891 52.3027L37.7764 53.1529L34.2742 51.3514L32.8166 51.6651L29.0512 50.2584L27.3912 50.4203L26.6523 51.3615L25.4478 51.9688L23.4031 52.4748L22.6743 51.321L17.7348 51.2906L15.5079 52.151L14.3743 51.4526L12.4207 51.655L11.5907 51.9081L9.9611 52.242L8.02779 51.6854L7.47109 52.1711L6.43862 51.3716L6.48925 48.8718L3.13884 47.8192L2.26836 46.1999L0.952512 45.8862L0.567871 44.0341L1.58007 43.2345L2.08617 42.607L3.72593 42.1415L3.65507 41.3925L2.02544 40.34L2.82506 39.1457L2.20763 37.8199L2.83519 36.1196L2.20763 35.6034L3.93849 34.0954L3.47288 32.3648L5.58838 30.7151L5.68961 28.2962L4.74827 28.1748L4.313 27.0311L4.43449 25.9482L5.25437 25.6648L6.68154 23.1447L6.35766 21.8999L5.34546 21.1712L5.57825 19.7037L6.15521 16.9508L7.08645 15.3922L6.78277 13.8944L6.47912 12.9835L6.41839 12.2143L7.69374 12.9126L8.37193 10.0282L8.08852 8.02424L9.39427 11.0403L8.61485 12.1434L8.94889 14.7546L9.66755 15.3518L9.71815 20.321L11.1251 20.9789L12.0564 21.6671L13.4228 22.5375L16.5201 22.416L19.1519 21.5052L20.1641 17.3152L19.7187 14.5016L18.2611 11.6576L19.0304 9.3096L18.1498 6.45553L18.4028 4.85643L20.8625 0.848633V0.848633Z" stroke="#BE007D"/>
<circle cx="141.568" cy="39.6509" r="4" fill="white"/>
<ellipse cx="141.568" cy="39.6509" rx="2.00027" ry="2" fill="#1B242D"/>
</svg>
