<svg width="119" height="112" viewBox="0 0 119 112" fill="none" xmlns="http://www.w3.org/2000/svg">
<path d="M25.8502 22.2151L29.685 18.3803L29.9451 18.7525L30.9492 18.5303L25.9031 23.5764L25.8502 22.2151Z" fill="#907C72"/>
<path d="M2.60504 55.4603L9.77298 48.2923L10.6627 47.9612L15.0974 44.3821L2.47076 57.0087L2.60504 55.4603Z" fill="#907C72"/>
<path d="M8.66728 60.8122L7.62688 60.4384L44.7145 23.3508L45.8237 23.6558L8.66728 60.8122Z" fill="#907C72"/>
<path d="M15.5386 63.9409L14.6741 63.3912L75.0181 3.04725L76.5543 2.92517L15.5386 63.9409Z" fill="#907C72"/>
<path d="M20.2498 69.2297L20.0797 67.9856L83.4128 4.65247L84.6344 4.5126L84.7954 4.68409L20.2498 69.2297Z" fill="#907C72"/>
<path d="M20.509 78.9705L20.3596 78.9308L20.2721 77.7932L89.0861 8.9792L89.6954 9.3402L89.851 9.62846L20.509 78.9705Z" fill="#907C72"/>
<path d="M28.6932 80.7863L28.2446 80.3882L27.8506 80.2147L95.6237 12.4417L96.2619 13.2176L28.6932 80.7863Z" fill="#907C72"/>
<path d="M34.0409 85.4386L33.6498 85.1854L33.2419 84.8234L100.604 17.4609L101.477 17.447L101.702 17.778L34.0409 85.4386Z" fill="#907C72"/>
<path d="M40.1109 89.3686L39.2525 88.8128L65.0246 63.0407L64.613 63.7293L64.5823 64.8972L40.1109 89.3686Z" fill="#907C72"/>
<path d="M44.91 94.5695L44.2799 93.7854L65.5313 72.534L65.7467 73.0607L65.8049 73.6746L44.91 94.5695Z" fill="#907C72"/>
<path d="M49.2572 100.222L48.9745 99.6278L48.7353 99.33L64.4156 83.6497L64.3668 85.1127L49.2572 100.222Z" fill="#907C72"/>
<path d="M52.4794 107L52.0237 106.042L71.9297 86.1356L72.5892 86.1874L72.7708 86.7087L52.4794 107Z" fill="#907C72"/>
<path d="M59.9646 109.515L58.421 109.644L76.2135 91.8517L77.2835 92.196L59.9646 109.515Z" fill="#907C72"/>
<path d="M69.4815 109.998L68.2067 109.859L72.9198 105.145L73.3585 106.121L69.4815 109.998Z" fill="#907C72"/>
<path d="M82.3432 97.1363L80.0833 99.3962L78.5387 99.5266L81.6788 96.3865L82.3432 97.1363Z" fill="#907C72"/>
<path d="M104.565 54.9146L96.4652 63.0143L95.4075 62.6578L104.021 54.0444L104.565 54.9146Z" fill="#907C72"/>
<path d="M117.715 30.3502L117.743 30.9683L117.537 31.9429L84.7299 64.7496L83.6337 64.4316L117.715 30.3502Z" fill="#907C72"/>
<path d="M115.292 22.7737L116.155 23.3243L78.2281 61.2514L76.6785 61.4825L76.6268 61.4384L115.292 22.7737Z" fill="#907C72"/>
<path d="M107.473 20.5923L108.107 20.8678L108.668 20.8111L73.0529 56.4266L72.9536 56.0679L69.0554 59.0099L107.473 20.5923Z" fill="#907C72"/>
<path d="M64.4327 5.04676L63.6717 4.60368L62.1033 7.37624L64.4327 5.04676Z" fill="#907C72"/>
<path d="M61.5336 7.94592L60.5541 8.27753L60.2173 9.26225L61.5336 7.94592Z" fill="#907C72"/>
<path d="M37.5196 20.5457L38.342 21.1375L16.1855 43.294L20.1977 38.1035L20.4344 37.6309L37.5196 20.5457Z" fill="#907C72"/>
<path d="M69.5312 1.50376L70.8774 1.65559L71.9807 2.98141L78.0944 2.49561L81.8193 4.50964L84.117 4.24652L85.362 5.57234L85.5644 7.50542L86.9511 8.54786L87.8115 8.26447L89.178 9.07413L90.2711 11.0983L93.0547 9.68138L96.6176 14.0131L96.5266 15.177L99.0571 17.2113L100.96 17.1809L102.488 19.4378L104.816 19.3974L107.59 20.6017L113.501 20.0046L114.706 22.464L116.912 23.8707L117.226 30.7023L115.819 37.3314L112.276 41.7339L110.444 41.9364L109.412 44.4868L104.715 45.7519L105.201 50.0128L102.984 52.9478L106.628 58.7773L104.634 58.8786L101.749 60.2752L98.3991 63.5746L94.8564 62.3804L94.1074 60.9128L92.083 61.1861L89.2488 63.5645L87.9532 65.5684L81.6371 63.7366L77.9931 60.9432L76.1611 61.2165L73.2459 58.7267L72.4362 55.8018L65.5836 60.9736L64.0956 63.4633L63.9337 69.6268L65.2293 72.7946L65.5228 75.8916L63.9539 81.7111L63.792 86.5691L64.8042 87.4496L68.5898 85.6481L72.0718 85.9213L72.8512 88.158L75.3918 91.4878L77.7199 92.2367L82.2849 97.3882L80.1795 99.0784L77.7806 99.2808L74.1063 101.406L73.3775 103.036L72.4868 103.268L72.2742 104.594L73.3573 107.003L73.3067 108.43L69.4603 109.786L62.3344 109.007L55.4514 109.584L53.923 110.859L48.4571 99.3617L40.8858 89.9393L33.1324 84.9194L27.7272 80.1221L25.5206 79.1505L21.9071 79.1606L20.571 82.4499L19.8725 81.0836L20.49 78.8368L19.8422 78.6647L19.7207 77.0859L21.1378 75.6386L21.3402 74.4342L20.1054 71.6915L19.5588 67.6938L16.9169 64.8802L12.6353 62.1577L2.38171 58.4737L1.88574 57.5224L2.1894 54.0206L3.86965 47.5028L5.01344 46.8854L7.37187 48.7274L10.1453 47.6951L15.2367 43.586L19.6802 37.8374L22.5549 32.0989L23.3545 28.9311L24.6198 28.334L25.5105 26.5224L25.2473 19.7516L26.2494 17.6768L25.8547 15.4806L27.5248 15.764L29.4277 18.4865L33.3146 17.6262L40.319 22.6664L41.7563 22.4133L47.202 23.9112L53.2752 21.0673L53.7408 19.2759L57.2531 16.1486L60.0367 8.01145L61.3222 7.57624L63.1543 4.3376L63.9539 4.80315L66.2617 3.75058L67.3043 4.02386L69.2477 1.31146L69.5312 1.50376Z" stroke="#907C72"/>
<circle cx="56.4" cy="15" r="4" fill="white"/>
<ellipse cx="56.4003" cy="15" rx="2.00027" ry="2" fill="#1B242D"/>
</svg>
