<svg width="294" height="146" viewBox="0 0 294 146" fill="current" xmlns="http://www.w3.org/2000/svg">
<path d="M11.4555 51.3551L20.6268 42.1838L21.5575 42.6672L11.7756 52.4491L11.4555 51.3551Z" fill="#52B55F"/>
<path d="M4.78271 69.442L4.84493 67.9656L11.9818 60.8287L12.1713 61.009L13.5075 60.4524L14.0642 59.2278L13.9115 58.8991L35.86 36.9505L36.8475 37.3772L4.78271 69.442Z" fill="#52B55F"/>
<path d="M8.46364 75.7611L8.25901 74.5516L44.6792 38.1314L45.3479 38.8768L8.46364 75.7611Z" fill="#52B55F"/>
<path d="M10.3576 83.8671L10.3494 83.6391L9.03851 83.7721L52.0192 40.7914L52.8344 41.3904L10.3576 83.8671Z" fill="#52B55F"/>
<path d="M12.45 91.7748L11.6349 91.25L11.6025 91.2081L60.8546 41.956L61.7245 42.5002L12.45 91.7748Z" fill="#52B55F"/>
<path d="M16.1137 98.111L15.5217 97.9196L15.7741 97.0365L70.8245 41.9861L71.2232 42.2957L71.9708 42.2539L16.1137 98.111Z" fill="#52B55F"/>
<path d="M24.0863 100.138L22.6207 100.19L114.748 8.0628L115.284 8.09753L115.161 9.06401L24.0863 100.138Z" fill="#52B55F"/>
<path d="M28.063 106.162L28.0981 104.712L114.556 18.2543L115.496 18.7286L28.063 106.162Z" fill="#52B55F"/>
<path d="M23.7052 120.52L22.9412 119.869L121.742 21.0681L121.965 21.3456L122.562 21.6627L23.7052 120.52Z" fill="#52B55F"/>
<path d="M38.3785 115.846L37.9015 115.661L37.5584 115.252L126.389 26.4217L126.635 27.5894L38.3785 115.846Z" fill="#52B55F"/>
<path d="M51.6088 112.616L50.0179 112.793L132.568 30.243L134.268 29.9571L51.6088 112.616Z" fill="#52B55F"/>
<path d="M54.2097 120.015L54.0461 119.973L53.7388 119.072L141.984 30.8267L142.108 31.0414L144.193 29.1791L143.887 28.9237L143.97 28.8404L144.793 29.432L54.2097 120.015Z" fill="#52B55F"/>
<path d="M56.7294 127.495L56.5731 126.237L146.689 36.1211L147.122 37.103L56.7294 127.495Z" fill="#52B55F"/>
<path d="M68.9954 125.229L68.5454 124.265L151.255 41.5551L151.319 41.5872L151.935 42.2899L68.9954 125.229Z" fill="#52B55F"/>
<path d="M74.3691 129.856L73.1891 129.621L156.187 46.6235L157.118 47.1071L74.3691 129.856Z" fill="#52B55F"/>
<path d="M76.5601 137.665L76.448 136.363L159.728 53.0827L159.919 54.3054L76.5601 137.665Z" fill="#52B55F"/>
<path d="M118.023 116.201L117.332 115.478L163.908 68.9027L164.331 69.8934L118.023 116.201Z" fill="#52B55F"/>
<path d="M122.325 121.899L121.905 120.906L167.532 75.2786L168.52 75.7048L122.325 121.899Z" fill="#52B55F"/>
<path d="M126.962 127.262L127.309 126.663L126.573 126.238L173.667 79.144L174.113 79.9451L174.275 79.9495L126.962 127.262Z" fill="#52B55F"/>
<path d="M127.781 136.444L126.459 136.541L126.587 136.223L180.145 82.6653L180.895 83.2444L180.92 83.3047L127.781 136.444Z" fill="#52B55F"/>
<path d="M137.609 136.615L136.277 137.431L135.768 137.043L156.072 116.739L156.076 116.765L156.486 117.738L137.609 136.615Z" fill="#52B55F"/>
<path d="M145.12 139.104L144.364 138.446L159.031 123.78L159.295 124.406L159.66 124.564L145.12 139.104Z" fill="#52B55F"/>
<path d="M152.237 141.988L150.824 141.986L165.051 127.76L165.459 128.758L165.464 128.761L152.237 141.988Z" fill="#52B55F"/>
<path d="M161.302 142.923L160.759 142.051L170.566 132.244L170.874 133.069L171.046 133.179L161.302 142.923Z" fill="#52B55F"/>
<path d="M169.624 144.601L167.737 145.074L173.79 139.021L174.002 139.111L175.551 137.593L176.702 137.523L172.689 141.536L172.281 141.601L172.204 142.021L169.624 144.601Z" fill="#52B55F"/>
<path d="M198.838 125.387L197.38 125.431L203.75 119.06L204.216 119.841L204.095 120.129L198.838 125.387Z" fill="#52B55F"/>
<path d="M200.403 112.407L201.097 113.128L192.038 122.187L192.227 120.583L200.403 112.407Z" fill="#52B55F"/>
<path d="M197.204 105.607L197.382 106.842L188.736 115.489L188.507 115.317L188.696 114.114L197.204 105.607Z" fill="#52B55F"/>
<path d="M192.291 100.52L192.951 101.274L185.501 108.724L184.724 108.087L192.291 100.52Z" fill="#52B55F"/>
<path d="M188.594 94.2163L188.699 94.2255L189.273 94.9519L178.97 105.255L177.494 105.642L177.211 105.599L188.594 94.2163Z" fill="#52B55F"/>
<path d="M183.75 89.0607L184.375 89.8497L172.286 101.938L171.764 101.046L183.75 89.0607Z" fill="#52B55F"/>
<path d="M166.998 105.813L165.322 107.489L166.741 107.484L167.495 106.73L166.998 105.813Z" fill="#52B55F"/>
<path d="M161.283 121.528L162.548 120.263L162.338 121.887L159.979 124.246L160.732 122.24L161.542 122.108L161.283 121.528Z" fill="#52B55F"/>
<path d="M166.982 127.243L166.532 126.551L166.198 127.331L166.484 127.741L166.982 127.243Z" fill="#52B55F"/>
<path d="M178.705 124.106L180.372 122.439L180.956 122.311L180.561 123.444L178.705 124.106Z" fill="#52B55F"/>
<path d="M188.321 124.489L189.229 123.582L189.549 123.92L189.914 124.31L188.381 125.844L188.254 124.608L188.321 124.489Z" fill="#52B55F"/>
<path d="M181.161 131.65L183.964 128.847L185.268 127.806L186.281 127.943L182.361 131.864L181.161 131.65Z" fill="#52B55F"/>
<path d="M162.224 62.0012L109.74 114.484L108.472 114.339L161.84 60.9708L162.224 62.0012Z" fill="#52B55F"/>
<path d="M95.7829 127.028L95.6273 127.847L93.5673 129.243L95.7829 127.028Z" fill="#52B55F"/>
<path d="M109.283 3.52786L110.831 3.08774L110.984 3.24035L103.851 10.3733L105.456 7.9862L105.597 7.21364L109.283 3.52786Z" fill="#52B55F"/>
<path d="M100.571 2.23926L101.025 3.19992L71.7701 32.4546L71.1208 31.6897L100.571 2.23926Z" fill="#52B55F"/>
<path d="M91.9619 2.26286L91.953 2.26796L91.9543 2.27038L91.9619 2.26286Z" fill="#52B55F"/>
<path d="M73.7068 39.1038L101.067 11.7436L101.174 12.0548L102.906 11.3182L74.0262 40.1985L73.7068 39.1038Z" fill="#52B55F"/>
<path d="M6.06127 58.1634L5.82544 58.3993L5.91594 58.1044L6.06127 58.1634Z" fill="#52B55F"/>
<path d="M212.578 120.232L215.124 117.686L216.13 117.827L216.28 117.945L209.472 124.753L209.146 124.527L207.901 125.387L207.84 124.97L211.384 121.426L212.587 120.833L212.578 120.232Z" fill="#52B55F"/>
<path d="M229.324 124.9L229.309 124.892L228.975 123.835L231.192 121.618L231.434 121.876L232.063 122.162L229.324 124.9Z" fill="#52B55F"/>
<path d="M232.807 131.418L232.264 131.419L232.152 130.659L237.959 124.852L238.135 124.932L238.458 125.767L232.807 131.418Z" fill="#52B55F"/>
<path d="M258.131 116.093L248.689 125.535L247.751 125.681L247.791 125.02L249.297 123.514L249.634 123.637L250.03 122.78L250.707 122.103L251.233 122.28L252.346 121.309L251.959 120.852L261.035 111.775L258.131 116.093Z" fill="#52B55F"/>
<path d="M272.107 102.118L267.76 106.465L267.6 106.36L269.179 104.974L268.519 104.291L271.962 100.849L272.216 101.148L272.107 102.118Z" fill="#52B55F"/>
<path d="M278.702 94.1084L279.403 94.3368L279.71 94.515L277.483 96.7417L277.803 95.5311L277.517 95.2935L278.702 94.1084Z" fill="#52B55F"/>
<path d="M276.586 97.6385L275.756 98.469L275.384 98.4459L276.586 97.6385Z" fill="#52B55F"/>
<path d="M243.289 129.521L242.052 131.591L240.817 132.29L240.648 132.163L243.289 129.521Z" fill="#52B55F"/>
<path d="M226.564 117.661L225.922 118.303L225.877 118.06L226.564 117.661Z" fill="#52B55F"/>
<path d="M260.349 122.462L261.95 120.86L261.798 122.426L261.595 122.63L260.333 122.736L260.349 122.462Z" fill="#52B55F"/>
<path d="M292.085 100.725L293.285 99.5256L293.095 101.13L291.989 102.236L292.085 100.725Z" fill="#52B55F"/>
<path d="M273.965 130.26L272.613 131.612L272.236 131.075L273.299 129.871L273.967 130.245L273.965 130.26Z" fill="#52B55F"/>
<path d="M273.449 129.979L273.044 132.793L274.097 133.177L273.591 133.613L274.138 133.947L273.743 134.615L272.903 134.827L272.832 134.362L272.022 132.843L272.245 131.558L271.718 130.809L272.781 129.605L273.449 129.979V129.979ZM178.636 122.439L180.438 122.045L180.043 123.178L177.857 123.957L178.636 122.439V122.439ZM213.881 117.318L215.612 117.561L218.386 119.747L218.588 121.832L217.971 123.117L217.262 123.097L217.424 121.862L216.219 123.077L215.248 122.794L213.517 125.162L214.063 125.708L213.709 126.66L212.626 126.407L212.231 125.02L210.622 125.637L208.628 124.261L207.383 125.121L207.079 123.016L208.132 121.812L209.073 122.045L212.069 120.567L212.039 118.533L213.881 117.318V117.318ZM226.787 116.964L227.586 117.369L227.819 118.684L229.479 119.17L229.621 120.233L230.917 121.609L237.617 124.666L238.032 125.739L237.516 126.457L238.326 127.712L239.105 127.55L239.46 126.467L242.942 126.548L243.893 127.378L241.535 131.325L240.3 132.024L239.662 131.548L237.374 133.572L236.099 132.985L236.443 131.842L235.31 131.143L231.747 131.153L231.433 129.028L231.068 128.492L231.322 127.318L230.309 125.486L228.791 124.625L228.133 122.541L225.522 118.684L225.36 117.794L226.787 116.964V116.964ZM260.534 114.818L261.019 114.667L260.928 117.176L261.971 116.772L261.505 118.887L261.485 120.051L261.262 122.348L259.815 122.47L259.866 121.609L258.59 122.48L258.013 122.034L257.527 121.508L257.133 120.446L260.716 118.978L259.278 116.013L259.855 115.658L260.098 113.594L260.534 114.818V114.818ZM258.448 107.977L258.833 108.796L258.843 109.495L261.192 110.507L256.454 117.551L255.989 120.112L255.189 121.326L253.58 121.792L254.238 122.682L252.861 123.219L252.264 122.783L251.697 123.573L252.051 124.089L250.452 124.868L250.331 125.779L249.227 126.346L248.539 125.212L247.233 125.415L247.335 123.725L248.367 123.097L249.116 123.37L249.875 121.731L250.715 122.014L251.829 121.043L251.039 120.112L251.414 118.604L250.695 117.996L251.92 117.217L252.244 115.841L253.033 115.982L254.643 114.707L255.422 111.721L256.313 111.205L257.011 109.151L258.509 107.42L258.448 107.977V107.977ZM269.39 98.5644L269.643 99.961L270.311 100.609L271.01 100.072L271.698 100.882L271.162 105.639L268.884 107.278L267.083 106.094L268.662 104.708L267.771 103.787L266.566 104.445L266.364 103.908L266.769 102.856L266.627 102.269L267.386 100.335L269.39 98.5644V98.5644ZM292.853 98.534L292.388 102.461L291.436 102.522L291.628 99.5056L292.124 98.5036L292.853 98.534V98.534ZM278.885 94.0707L279.705 94.5464L279.624 95.3662L276.779 99.3335L276.82 98.3012L274.866 98.1798L276.871 96.8337L277.286 95.265L276.749 94.8196L277.954 93.7671L278.885 94.0707V94.0707ZM91.8199 1.77918L99.0065 1.2124L100.029 1.92087L100.626 3.18597L98.6523 4.97734L98.2879 6.74848L99.9884 6.57643L99.7151 9.05602L100.656 11.7886L102.823 10.8677L104.938 7.72008L105.343 5.50363L107.074 3.7426L110.313 2.82162L113.076 5.56435L112.297 7.5379L112.509 8.98518L113.36 7.74033L114.767 7.83141L114.139 12.74L112.449 16.1608L113.724 16.4847L114.007 17.9725L115.09 18.519L115.364 19.6424L117.165 18.4987L118.279 20.2091L120.141 19.4501L121.447 21.0795L125.223 23.0834L126.265 28.0224L126.852 29.2065L127.743 29.2774L128.866 30.5121L135.608 29.3786L137.582 27.7593L140.294 28.5284L141.59 30.7753L143.675 28.913L142.136 27.6277L145.527 30.0668L146.195 31.7064L145.629 34.6212L147.936 39.8637L150.801 41.3211L154.84 45.9261L158.423 47.7883L159.809 56.644L161.834 62.0789L162.421 66.3701L165.913 74.5376L169.527 76.0962L170.336 77.3613L172.128 77.0475L173.596 79.6789L176.197 79.7498L180.377 82.9783L182.28 87.5934L187.26 93.8784L188.181 93.9594L188.941 94.9209L190.621 98.9388L192.979 101.631L195.166 102.562L196.562 104.485L196.947 107.147L197.767 107.916L197.787 109.96L200.621 112.906L200.561 113.938L202.038 115.304L202.069 116.843L203.699 119.575L202.352 122.783L199.64 125.081L196.623 125.172L194.396 126.903L192.595 126.882L192.159 126.184L191.026 126.852L190.651 127.905L192.412 128.653L190.307 129.635L190.408 130.475L188.991 129.473L187.028 129.898L186.704 130.89L183.809 130.647L182.979 131.801L179.922 131.255L178.545 131.7L178.313 130.829L176.531 130.354L178.009 127.915L178.232 125.314L179.254 124.484L180.458 124.99L181.764 122.966L181.926 125.617L182.999 125.82L180.914 128.37L180.377 130.283L181.744 129.939L184.75 127.54L186.096 127.722L186.471 126.973L187.989 126.812L187.736 124.342L188.465 123.057L189.032 123.654L190.176 124.878L191.208 124.555L191.775 119.767L189.153 117.379L188.829 115.679L187.989 115.051L188.394 112.48L187.028 111.094L186.795 109.94L183.222 107.015L182.959 106.165L178.636 104.94L176.976 105.376L173.818 104.9L172.917 102.137L171.875 101.854L171.217 100.73L169.071 100.973L166.541 99.4955L166.318 100.093L165.559 99.6372L165.093 100.892L166.207 100.953L166.541 101.601L165.184 104.475L166.146 104.93L167.067 106.631L166.237 107.218L163.352 107.228L162.441 108.108L160.791 107.44L159.779 108.25L159.152 107.977L155.69 109.303L155.072 113.341L155.558 116.498L158.777 124.14L159.313 124.372L160.214 121.974L161.024 121.842L160.184 119.96L162.077 119.636L161.773 121.984L163.008 121.731L164.02 123.401L164.01 126.214L164.941 128.492L165.65 128.917L166.662 128.471L165.68 127.065L166.014 126.285L166.956 127.732L168.646 127.722L168.97 129.028L170.357 130.131L169.79 131.285L170.357 132.803L171.966 133.835L170.873 135.404L171.592 135.961L170.964 136.679L171.592 137.469L170.033 137.367L169.608 138.248L168.474 137.934L168.363 141.001L171.915 139.635L172.725 138.521L173.484 138.845L175.033 137.327L178.009 137.145L177.078 139.877L174.739 139.705L173.849 141.001L171.764 141.335L171.551 142.489L169.122 144.331L166.014 145.11L161.793 144.28L159.729 140.96L158.838 141.73L149.789 141.719L148.918 139.594L147.612 140.151L145.517 139.635L143.25 137.661L143.432 136.062L141.681 135.353L138.189 135.677L135.76 137.165L134.525 136.224L133.259 136.659L130.385 135.951L125.941 136.274L126.822 134.098L126.69 131.012L125.87 130.536L126.275 129.129L125.708 128.269L126.791 126.397L124.423 125.03L122.935 125.84L121.569 125.202L122.085 122.288L121.022 119.778L118.238 118.583L117.995 116.448L116.68 115.071L107.215 113.988L105.181 109.738L103.744 109.778L103.44 112.936L101.588 114.15L100.221 117.591L98.0348 119.525L97.6603 121.377L94.7047 123.107L95.4132 125.982L95.1096 127.581L90.9292 130.415L87.3359 130.04L86.5565 131.538L84.7143 132.621L84.9066 134.696L85.767 135.687L84.9876 136.285L83.8741 136.861L83.0239 136.426L81.9206 137.742L80.3314 137.206L76.728 138.875L76.1207 138.309L75.564 131.842L74.6935 129.757L71.9909 129.22L71.1002 127.49L69.43 127.004L67.9421 123.816L66.029 123.542L63.4074 127.571L60.6239 129.099L56.3018 127.955L55.8969 124.696L57.4152 120.709L53.5284 119.707L52.4757 116.62L53.913 114.92L51.9189 112.258L49.4593 112.531L47.3236 111.924L45.6737 113.493L42.9812 113.584L41.7868 114.505L41.0682 116.195L40.1774 116.478L37.3837 115.395L36.2804 114.08L35.7743 115.345L32.9604 116.772L32.1203 117.966L30.6526 117.764L30.7032 119.616L26.3609 122.47L26.2495 122.379L23.9721 120.921L22.2716 119.474L22.059 117.338L23.4356 115.8L23.6583 114.414L25.1968 112.986L26.0471 113.24L26.8872 111.428L28.1626 110.902L29.3874 107.218L27.535 106.317L27.6059 103.392L26.8265 103.22L26.4216 101.459L24.792 99.8295L18.7289 100.042L17.3523 99.2829L17.0385 98.3113L15.004 97.6535L15.591 95.5989L14.5282 93.1801L11.1171 90.9839L8.35381 87.4112L7.95905 86.2979L9.91259 85.6097L9.83163 83.373L6.93674 83.6665L6.60271 83.1504L8.67772 79.8206L7.07844 70.3678L6.67355 69.5784L4.25439 69.4266L4.40623 65.8236L1.88585 63.8804L1.36963 62.3724L3.37378 61.1882L3.53574 60.0446L4.81111 59.7511L5.39819 57.8383L6.9671 58.4759L8.50563 57.7472L11.6536 60.7429L12.9897 60.1863L13.5464 58.9617L12.2913 56.2594L10.8641 55.1765L11.6333 53.4661L10.5908 49.9036L11.0969 49.4987L10.8843 47.4847L11.1677 46.9888L13.1719 47.2823L12.7873 46.5839L13.9918 45.1468L14.2954 43.5781L14.093 41.7968L15.2874 41.4122L16.6235 41.898L17.1802 41.2604L19.0427 39.9244L19.4475 41.5741L21.5327 42.6571L21.9882 43.6894L23.7291 43.4971L24.2353 44.2865L25.0551 44.2258L25.622 42.9202L26.7658 43.2036L28.5574 41.898L29.0432 39.388L27.4642 39.1452L29.1039 36.7971L30.4097 37.2121L32.1102 36.1798L33.4159 36.2607L34.1751 37.5461L35.2986 36.6656L36.9384 37.374L38.9931 36.7162L41.5439 37.6979L43.2849 36.8882L45.1372 38.9529L45.5421 40.8758L46.696 41.7867L50.1881 39.5601L52.7085 41.4122L55.4313 39.803L56.7674 39.8637L57.9517 40.6633L58.0023 41.4325L59.8445 41.3818L61.8183 42.6166L65.7962 40.6936L69.6628 41.2199L70.7054 42.0296L72.5172 41.9284L73.0638 42.7785L73.8635 41.1491L72.3958 36.119L72.9221 34.1556L69.1162 29.6721L70.5738 29.8037L72.2541 28.6904L72.993 26.4334L74.8251 26.6156L76.2725 25.5732L78.722 21.0188L80.7566 19.4703L80.4529 17.4765L82.7304 17.264L83.2972 15.4423L87.5889 11.4142L88.51 9.21796L90.1194 7.68972L90.7267 6.69789L89.4109 4.50166L90.0891 3.65152L91.7491 4.73445L92.0224 3.11512L91.4353 2.00184L91.8199 1.77918V1.77918Z" stroke="#52B55F"/>
<circle cx="125.37" cy="61.9668" r="4" fill="white"/>
<ellipse cx="125.37" cy="61.9668" rx="2.00027" ry="2" fill="#1B242D"/>
</svg>
