<svg width="549" height="520" viewBox="0 0 379 320" fill="none" xmlns="http://www.w3.org/2000/svg">
<path d="M19.3112 166.141L20.4735 164.978L22.2413 164.625L19.3112 167.555V166.141Z" fill="#F5BC2E"/>
<path d="M3.01794 182.434L14.8253 170.627L16.406 170.46L3.01794 183.848V182.434Z" fill="#F5BC2E"/>
<path d="M3.69768 193.169L3.41483 192.037L35.8738 159.578L36.6452 160.221L3.69768 193.169Z" fill="#F5BC2E"/>
<path d="M7.42143 199.445L6.68811 198.764L84.5479 120.904L85.7854 121.081L7.42143 199.445Z" fill="#F5BC2E"/>
<path d="M4.61533 212.251V210.837L94.0034 121.449L95.559 121.307L4.61533 212.251Z" fill="#F5BC2E"/>
<path d="M6.44549 220.421L5.88836 219.564L103.829 121.623L105.139 121.728L6.44549 220.421Z" fill="#F5BC2E"/>
<path d="M8.84743 228.019L8.82023 226.632L115.64 119.811L118.34 118.526L8.84743 228.019Z" fill="#F5BC2E"/>
<path d="M9.03974 237.826L9.01254 236.439L130.718 114.734H131.448L132.725 113.775L133.137 113.73L9.03974 237.826Z" fill="#F5BC2E"/>
<path d="M11.4736 245.393L10.6251 244.827L148.345 107.107L149.671 107.195L11.4736 245.393Z" fill="#F5BC2E"/>
<path d="M15.7169 251.149L15.4341 250.018L163.497 101.955H164.912L15.7169 251.149Z" fill="#F5BC2E"/>
<path d="M27.479 249.387L25.5344 249.918L178.609 96.843H180.023L27.479 249.387Z" fill="#F5BC2E"/>
<path d="M31.8797 254.986L31.2142 254.238L199.274 86.1777L202.81 84.0564L31.8797 254.986Z" fill="#F5BC2E"/>
<path d="M38.263 258.603L38.1604 257.859L37.7409 257.711L235.937 59.5148L236.236 59.7837H237.082L38.263 258.603Z" fill="#F5BC2E"/>
<path d="M39.4383 267.428V267.124L39.3037 266.148L246.543 58.9091L247.25 59.6162L39.4383 267.428Z" fill="#F5BC2E"/>
<path d="M42.8409 274.025L42.558 272.894L142.001 173.451L141.719 175.148L42.8409 274.025Z" fill="#F5BC2E"/>
<path d="M52.3069 274.559L51.0236 274.428L131.767 193.685V195.099L52.3069 274.559Z" fill="#F5BC2E"/>
<path d="M61.4359 275.43H60.8432L60.0977 275.354L131.66 203.792L131.465 205.401L61.4359 275.43Z" fill="#F5BC2E"/>
<path d="M70.4275 276.439V275.43H70.0216L130.876 214.576L131.237 215.629L70.4275 276.439Z" fill="#F5BC2E"/>
<path d="M76.768 280.098L75.6231 279.829L133.434 222.018L133.796 223.071L76.768 280.098Z" fill="#F5BC2E"/>
<path d="M86.0048 280.861H84.5905L135.654 229.798L136.573 230.293L86.0048 280.861Z" fill="#F5BC2E"/>
<path d="M93.3533 283.513L92.6271 282.825L140.538 234.914L140.968 235.898L93.3533 283.513Z" fill="#F5BC2E"/>
<path d="M98.0449 288.821L97.4915 287.96L143.581 241.871L143.588 241.885L144.678 242.188L98.0449 288.821Z" fill="#F5BC2E"/>
<path d="M103.435 293.432L102.856 292.596L149.93 245.522L150.248 246.618L103.435 293.432Z" fill="#F5BC2E"/>
<path d="M110.35 296.516H108.936L152.18 253.272L152.213 253.386L152.758 254.108L110.35 296.516Z" fill="#F5BC2E"/>
<path d="M112.892 303.974L112.598 303.864L112.449 303.003L156.454 258.998L157.062 259.804L112.892 303.974Z" fill="#F5BC2E"/>
<path d="M118.891 307.975L118.396 307.055L160.757 264.695L161.366 265.5L118.891 307.975Z" fill="#F5BC2E"/>
<path d="M122.637 314.229L122.183 314.087L121.896 313.555L166.642 268.81L167.163 269.703L122.637 314.229Z" fill="#F5BC2E"/>
<path d="M150.851 306.015L148.32 307.132L176.867 278.585L177.675 279.191L150.851 306.015Z" fill="#F5BC2E"/>
<path d="M160.447 306.42H160.2L159.457 305.995L180.657 284.795L181.142 285.724L160.447 306.42Z" fill="#F5BC2E"/>
<path d="M171.074 305.792L171.063 305.781L169.545 305.907L185.265 290.187L185.535 291.332L171.074 305.792Z" fill="#F5BC2E"/>
<path d="M176.21 310.657L175.483 309.969L189.692 295.76L189.767 297.1L176.21 310.657Z" fill="#F5BC2E"/>
<path d="M183.892 312.974L183.076 312.376L192.28 303.172L192.855 304.012L183.892 312.974Z" fill="#F5BC2E"/>
<path d="M189.552 317.314L188.767 316.685L193.109 312.343L193.366 313.5L189.552 317.314Z" fill="#F5BC2E"/>
<path d="M171.96 274.906L137 309.866L136.559 309.934L135.258 310.194L171.152 274.3L171.96 274.906Z" fill="#F5BC2E"/>
<path d="M131.208 314.243L131.022 315.365L129.999 315.453L131.208 314.243Z" fill="#F5BC2E"/>
<path d="M371.68 15.1864L361.973 24.8927L361.031 24.4213L370.931 14.5209L371.68 15.1864Z" fill="#F5BC2E"/>
<path d="M373.591 1.86052L375.528 1L375.721 1.1451L345.673 31.1929L344.538 31.0308L341.663 34.8645H340.587L373.591 1.86052Z" fill="#F5BC2E"/>
<path d="M328.453 16.9992L328.884 16.9738L329.427 17.4392L242.811 104.055L240.134 105.318L328.453 16.9992Z" fill="#F5BC2E"/>
<path d="M309.832 25.62L310.035 25.5997L310.582 26.2839L219.719 117.147L218.026 117.609L213.592 123.274L209.227 127.639L204.288 131.985L202.984 133.882L197.592 139.274L194.704 141.25L194.834 142.032L176.503 160.363L174.984 160.468L309.832 25.62Z" fill="#F5BC2E"/>
<path d="M294.586 30.8661L296.499 30.367L288.881 37.9854L290.866 35.5035L291.05 34.4021L294.586 30.8661Z" fill="#F5BC2E"/>
<path d="M283.318 42.1336L285.625 39.8265L286.686 40.1801L167.516 159.35L166.499 158.953L279.853 45.5994L283.199 42.5319L283.318 42.1336Z" fill="#F5BC2E"/>
<path d="M263.655 51.7968H264.669L265.736 51.1298L157.467 159.399L156.27 159.181L263.655 51.7968Z" fill="#F5BC2E"/>
<path d="M186.146 159.306L187.356 159.141L187.984 158.882L193.084 153.782L193.233 152.219L186.146 159.306Z" fill="#F5BC2E"/>
<path d="M260.848 94.6042L339.213 16.2385L340.698 16.1678L262.616 94.2506L260.848 94.6042Z" fill="#F5BC2E"/>
<path d="M275.761 89.6906L276.17 89.495L276.902 88.5498L275.761 89.6906Z" fill="#F5BC2E"/>
<path d="M295.563 69.8893L297.2 69.666L315.964 50.9017L316.105 50.1994L317.088 49.778L318.537 48.3296L318.922 46.5297L295.563 69.8893Z" fill="#F5BC2E"/>
<path d="M322.529 42.923L353.59 11.8622H353.803L356.359 9.30639L358.04 8.82608L325.829 41.0374L322.529 42.923Z" fill="#F5BC2E"/>
<path d="M359.917 6.94879L361.79 4.51424L362.789 4.07727L359.917 6.94879Z" fill="#F5BC2E"/>
<path d="M346.455 10.4109V10.2648L347.186 9.68037L346.455 10.4109Z" fill="#F5BC2E"/>
<path d="M228.847 58.019L228.568 58.1863L228.561 58.3052L228.847 58.019Z" fill="#F5BC2E"/>
<path d="M63.7861 131.666H64.3574L66.5938 129.11H67.7561L44.889 151.977L44.2604 151.191L63.7861 131.666Z" fill="#F5BC2E"/>
<path d="M44.5773 142.289L43.9109 141.889L41.0357 145.403L41.1211 145.745L44.5773 142.289Z" fill="#F5BC2E"/>
<path d="M1 178.629L3.55581 175.434M3.55581 175.434H6.75058L8.02848 170.962L10.9038 169.364L12.1817 170.962L18.2517 170.323L19.8491 168.406V165.211L26.2386 163.933L31.6697 161.697L33.5866 160.419V158.821H35.5035L37.4203 160.419H40.9346L41.5735 156.266L46.3657 155.307L46.0462 152.751L42.2125 147.959L41.5735 145.403L44.4488 141.889L46.0462 142.848L47.9631 142.528L48.9215 141.57L50.8383 141.25L51.4773 139.972L54.6721 139.653L61.3811 133.583L62.02 131.666H64.8953L67.1316 129.11H69.6875L71.2848 126.235L75.438 125.596L77.3549 123.36H79.9107L82.147 122.401L84.3834 120.804L91.0924 121.762L98.1209 121.123L106.108 121.762L114.095 120.804L120.804 117.609H124.637L127.832 114.734H131.985L133.263 113.775L136.139 113.456L137.416 111.539L142.528 111.219L145.084 108.664H146.681L148.279 107.066L153.071 107.386L154.668 106.427L157.544 106.108L162.336 101.955H166.991L171.6 97.8014L174.156 99.0793L176.712 96.843H180.865L185.338 93.3287L186.616 91.0924H189.491L191.089 89.495H193.644L196.52 85.9808L199.075 86.6197L203.868 83.7444H208.979L215.049 78.9523L216.327 74.7991L222.717 68.0901L223.356 65.5343H226.231L228.787 63.2979L229.106 58.1863L230.704 57.2279L233.579 56.9084L236.774 59.7837H239.968L242.205 57.8668L243.802 59.4642L246.358 58.1863L248.275 60.1032L251.789 59.1447L256.581 54.3526L261.693 53.7136L263.29 51.7968H265.207L267.763 50.1994L270.638 52.1162L276.069 47.3241L279.903 46.0462L283.737 42.5319L284.695 39.3372L287.57 40.2956L291.404 35.5035L292.043 31.6697L299.391 29.7529L301.308 26.2386H304.183L310.573 25.5997L311.851 27.1971L315.684 24.0023L317.921 23.0439L318.56 21.127L321.115 19.5296L323.991 17.2933L329.422 16.9738L331.658 18.8907H333.895L337.728 16.3349L344.437 16.0154L346.993 13.4596V10.2648L348.59 8.98691L350.188 9.30639L351.785 11.8622H354.341L356.897 9.30639L359.133 8.66744L362.328 4.51424L367.44 2.27791H373.19L376.065 1L377.343 1.95843L373.19 6.75058V8.34796L374.149 10.9038L370.634 13.7791L373.51 16.3349L371.593 21.127L370.634 23.0439L369.037 23.3634L366.801 25.9192H364.564L361.37 24.3218L356.577 27.5166H352.424L347.313 31.3503L345.076 31.0308L342.201 34.8645H335.492L328.783 39.6567L319.838 44.7683L318.879 49.241L316.643 50.1994L315.684 54.9915L312.809 61.3811L305.781 64.2563L302.266 69.0485L295.238 70.0069L284.376 79.5912L276.708 89.495L269.36 93.0092L261.373 94.6066L250.511 100.677L233.579 108.664L225.592 115.692L218.564 117.609L212.813 124.957L204.826 131.985L201.312 137.097L195.242 141.25L196.2 147.001L193.964 150.196L193.325 156.905L187.894 159.141L180.865 160.099L171.6 160.738L164.253 157.863L160.099 159.78L156.585 159.141L151.154 163.614L142.848 171.6L141.889 177.351L137.097 182.463L136.778 185.338L132.305 188.852V202.909L131.027 213.452L134.541 223.675L135.5 229.426L139.653 231.662L144.125 241.885L149.876 243.483L152.751 253.386L163.614 267.763L167.128 268.721L169.364 272.555L178.309 279.264L182.143 286.612L185.338 288.209L186.616 293.64L190.13 293.96L190.45 299.711L194.603 305.781L191.089 307.059L193.325 310.892L193.964 313.768L197.798 314.726L197.159 318.24L194.603 318.56L193.325 315.045L190.45 317.601L187.255 315.045L182.463 311.531H177.671L171.6 305.781L163.933 306.42H160.738L156.266 303.864L145.403 308.656L137.097 309.934L132.305 310.892L131.559 315.365L127.832 315.684L122.721 314.087L118.248 305.781L113.136 303.864L111.858 296.516H106.108L103.232 292.363L100.038 291.085L97.1624 286.612L91.0924 280.861H80.5497L75.1186 279.584L70.9654 277.986V275.43H61.3811L45.7267 273.833L43.4904 274.472L42.8514 271.916L39.9761 271.277V267.124L38.6982 257.859L33.2671 255.942L30.7113 253.067L29.7529 248.914L22.7244 250.831L16.3349 251.47L15.6959 248.914L13.4596 246.358L9.62587 243.802H6.11162V242.524L9.62587 240.288L9.30639 223.995L5.1532 217.605V210.577L9.62587 203.868V200.992L5.1532 196.839L3.55581 190.45V175.434Z" stroke="#F5BC2E" stroke-linecap="round"/>
</svg>
