<svg width="549" height="520" viewBox="0 0 186 224" fill="none" xmlns="http://www.w3.org/2000/svg">
<path d="M4.5197 34.3771L6.51647 32.3803L7.57717 32.7339L1.69402 38.617L1.90248 37.0189L4.45829 34.4631L4.5197 34.3771Z" fill="#F5BC2E"/>
<path d="M1.69408 48.617L1.48193 47.4149L11.8779 37.0189H12.4452V37.8659L1.69408 48.617Z" fill="#F5BC2E"/>
<path d="M1.87843 58.4326L1.55908 57.3377L15.8019 43.0948L16.6041 43.707L1.87843 58.4326Z" fill="#F5BC2E"/>
<path d="M5.29749 65.0136L4.59035 64.3064L21.4736 47.4232L22.2757 48.0354L5.29749 65.0136Z" fill="#F5BC2E"/>
<path d="M9.78595 70.5251L8.75738 70.1394L27.26 51.6368L28.0981 52.213L9.78595 70.5251Z" fill="#F5BC2E"/>
<path d="M14.2706 76.0405L13.6421 75.2547L32.523 56.3738L33.2019 57.1092L14.2706 76.0405Z" fill="#F5BC2E"/>
<path d="M15.5773 84.7337L15.4798 83.417L38.9032 59.9936L38.9618 60.0212H40.2899L15.5773 84.7337Z" fill="#F5BC2E"/>
<path d="M12.7647 96.1321L14.4142 94.4826L15.3234 94.9877L12.7647 97.5464V96.1321Z" fill="#F5BC2E"/>
<path d="M16.4372 103.874L15.7806 103.116L64.7032 54.1936L69.4603 50.8508L16.4372 103.874Z" fill="#F5BC2E"/>
<path d="M19.2068 111.104L18.8457 110.051L115.723 13.174L116.607 13.7044L19.2068 111.104Z" fill="#F5BC2E"/>
<path d="M17.6566 122.654L16.8709 122.026L120.824 18.0724L121.243 19.0676L17.6566 122.654Z" fill="#F5BC2E"/>
<path d="M22.3843 127.927L22.1486 126.748L124.482 24.4146L125.103 25.208L22.3843 127.927Z" fill="#F5BC2E"/>
<path d="M25.9264 134.385L25.8632 133.501L25.6601 133.237L128.462 30.4351L128.754 31.5567L25.9264 134.385Z" fill="#F5BC2E"/>
<path d="M30.397 139.914L29.5399 139.357L121.486 47.4108L121.55 48.7608L30.397 139.914Z" fill="#F5BC2E"/>
<path d="M37.1914 143.12L35.767 143.405L35.6005 143.296L123.711 55.1854L124.261 56.0497L37.1914 143.12Z" fill="#F5BC2E"/>
<path d="M43.4126 146.898L42.6792 146.218L128.722 60.1752L129.705 60.6056L43.4126 146.898Z" fill="#F5BC2E"/>
<path d="M44.0734 156.238V155.225L43.9012 154.996L136.514 62.3831L137.092 63.2189L44.0734 156.238Z" fill="#F5BC2E"/>
<path d="M44.0734 166.238V164.823L140.605 68.2922L141.183 69.128L44.0734 166.238Z" fill="#F5BC2E"/>
<path d="M47.5694 172.742L47.2158 171.681L143.151 75.7457L143.449 76.8622L47.5694 172.742Z" fill="#F5BC2E"/>
<path d="M47.9071 182.404V181.422L48.0152 180.882L144.292 84.6047L144.348 85.9632L47.9071 182.404Z" fill="#F5BC2E"/>
<path d="M54.3015 186.01L53.7711 185.126L144.687 94.21L144.743 95.5684L54.3015 186.01Z" fill="#F5BC2E"/>
<path d="M58.6847 191.626L58.4018 190.495L145.275 103.622L145.532 104.779L58.6847 191.626Z" fill="#F5BC2E"/>
<path d="M66.3868 193.924L65.5786 193.318L142.753 116.144L143.725 116.586L66.3868 193.924Z" fill="#F5BC2E"/>
<path d="M72.1011 198.21L71.2929 197.604L152.37 116.526L153.334 116.888L153.357 116.955L72.1011 198.21Z" fill="#F5BC2E"/>
<path d="M77.4951 202.816L77.2989 202.508H76.3891L156.836 122.061L158.014 122.297L77.4951 202.816Z" fill="#F5BC2E"/>
<path d="M86.206 204.105H84.7917L169.133 119.763H170.548L86.206 204.105Z" fill="#F5BC2E"/>
<path d="M93.2079 207.103L92.3919 206.505L177.908 120.989L178.379 121.932L93.2079 207.103Z" fill="#F5BC2E"/>
<path d="M101.842 208.469L100.565 208.332L182.885 126.011L183.687 126.624L101.842 208.469Z" fill="#F5BC2E"/>
<path d="M108.281 212.03L107.417 211.48L174.42 144.477V145.641L174.076 146.236L108.281 212.03Z" fill="#F5BC2E"/>
<path d="M115.417 214.894L114.356 214.541L157.613 171.283L158.212 172.099L115.417 214.894Z" fill="#F5BC2E"/>
<path d="M120.975 219.336L120.197 218.699L129.846 209.05L130.553 209.758L120.975 219.336Z" fill="#F5BC2E"/>
<path d="M128.16 222.151L127.038 221.859L132.37 216.526L132.309 218.002L128.16 222.151Z" fill="#F5BC2E"/>
<path d="M153.244 187.067L152.07 188.241L149.501 189.409H149.488L153.873 185.024L153.244 187.067Z" fill="#F5BC2E"/>
<path d="M160.363 178.534L158.783 180.113L160.363 178.866V178.534Z" fill="#F5BC2E"/>
<path d="M139.542 199.354L135.111 203.786H135.124L139.277 200.591L139.542 199.354Z" fill="#F5BC2E"/>
<path d="M126.179 44.1322L124.986 45.3253H123.572L129.655 39.242L129.453 40.8583L127.988 42.3227L126.179 43.4084V44.1322Z" fill="#F5BC2E"/>
<path d="M109.033 9.86337H110.448L79.9379 40.3731L81.4701 37.4267L109.033 9.86337Z" fill="#F5BC2E"/>
<path d="M104.372 4.5249L105.015 5.29632L89.1749 21.1362L89.8276 19.0692L104.372 4.5249Z" fill="#F5BC2E"/>
<path d="M49.3586 59.5382L15.64 93.2568V94.6711L51.3032 59.0078L49.3586 59.5382Z" fill="#F5BC2E"/>
<path d="M8.51042 32.8655L6.59356 32.2265L4.99618 34.4629L2.44036 37.0187L1.48193 44.3666L2.44036 49.7977L1.48193 55.2288L3.71827 62.8963L7.23251 66.4105L7.87146 69.6053L10.4273 70.5637L15.5389 76.9532L16.1779 85.5791V95.1634L13.3026 93.566V99.6361L17.4558 104.428L21.2895 115.61L16.1779 121.041L22.5674 126.153L23.2063 129.347L26.4011 133.501L26.7206 137.973L29.9153 139.251L36.3049 143.404L39.4996 142.765L43.9723 146.919L42.6944 152.669L44.6113 155.225V160.017V166.726L46.8476 168.962L49.4034 176.63L48.445 181.422V183.978L53.2371 183.339L56.1124 188.131L58.6682 189.409L59.3072 191.965L64.7383 192.284L73.6836 198.993L74.9615 202.508H77.8368L80.0732 206.022L84.5458 204.105H89.6575L94.4496 207.619L103.395 208.578L110.423 213.05L116.174 214.967L123.202 220.718L130.55 222.635L131.509 223.034L132.787 219.44L133.106 211.772L129.911 208.578L130.87 203.785H135.662L139.815 200.591L140.774 196.118L144.288 193.562L146.205 189.409H150.039L153.553 187.812L154.831 183.658L160.901 178.866V175.033L157.386 170.24V165.129L161.22 160.976L171.443 151.711L174.958 145.641V137.015L176.236 135.737L182.945 135.417L184.861 133.501V127.111L179.43 122.958L177.833 119.763H169.527L165.693 121.68L162.179 120.402L158.664 122.319L155.47 121.68L153.872 116.888L151.316 115.929L144.927 116.888L141.413 115.29L142.052 111.457L146.844 108.262L145.566 102.511L144.607 79.1896L142.052 69.6053L136.301 61.2989H131.828L126.717 59.0626L122.244 52.0341L121.925 45.3251H126.717V43.4082L129.911 41.4913L130.55 36.3797L128.634 29.0318L122.883 21.6838L120.327 15.6137L115.535 12.7385L111.062 9.86317H107.868L106.909 9.22422V5.3905H105.631L104.034 3.47364L102.437 1.2373L99.8807 3.47364V7.62683L96.3665 12.7385L91.2548 16.2527L87.4211 28.3928L84.5458 32.546L80.3926 40.5329L72.4057 49.1588L60.5851 57.4652L55.154 58.1041L48.1255 60.021H39.4996L34.0685 57.4652L30.2348 53.312L25.1232 49.7977L12.9831 40.5329V37.0187H12.0247L8.51042 32.8655Z" stroke="#F5BC2E" stroke-linecap="round"/>
</svg>
