<svg width="62" height="35" viewBox="0 0 281 175" fill="current" xmlns="http://www.w3.org/2000/svg">
<path d="M13.9023 92.4788L17.1717 89.2094H18.586L2.39536 105.4L1.99265 104.544L1.96149 104.42L13.4349 92.9462L13.8133 92.7236L13.9023 92.4788Z"/>
<path d="M5.71688 112.078L5.21178 111.169L23.9684 92.4127L24.7872 93.0082L5.71688 112.078Z"/>
<path d="M16.0116 111.784L15.7301 111.573L14.6408 111.74L36.2133 90.1678H37.6276L16.0116 111.784Z"/>
<path d="M21.2739 116.521L20.5223 116.365L20.3536 116.027L41.9602 94.4209L42.4954 95.3L21.2739 116.521Z"/>
<path d="M29.1081 118.687L28.3178 118.063L58.0819 88.2991L58.2205 88.2509L60.1118 87.6835L29.1081 118.687Z"/>
<path d="M34.5723 123.223L34.2598 122.754L33.906 122.475L77.4119 78.9692L78.5029 79.2925L34.5723 123.223Z"/>
<path d="M39.7156 128.08L38.8799 127.501L89.3118 77.0693H90.7261L39.7156 128.08Z"/>
<path d="M44.3466 133.449L43.7126 132.668L98.4305 77.9505L99.7525 77.0693L99.7237 76.6574L110.348 66.0335L110.615 66.2071H111.588L44.3466 133.449Z"/>
<path d="M48.8517 138.944L48.1445 138.237L122.961 63.4201L123.951 63.8444L48.8517 138.944Z"/>
<path d="M53.8171 143.978L53.7478 143.84L53.1445 143.237L129.961 66.4201L130.951 66.8444L53.8171 143.978Z"/>
<path d="M51.3425 156.453L52.3148 154.066L187.271 19.1105L187.289 19.244V20.5063L51.3425 156.453Z"/>
<path d="M50.3501 167.445L49.8358 166.545L190.6 25.7806L190.803 26.592L191.363 26.4319L50.3501 167.445Z"/>
<path d="M54.6446 173.151L53.7446 172.637L199.744 26.6371L201.027 26.7681L54.6446 173.151Z"/>
<path d="M67.1973 170.598L66.2073 170.174L208.831 27.5504H210.245L67.1973 170.598Z"/>
<path d="M79.0399 168.755L75.0541 171.327L218.278 28.1028V29.5171L79.0399 168.755Z"/>
<path d="M97.6853 160.11L97.5161 160.133L92.081 164.3L224.25 32.1314L225.395 32.4008L97.6853 160.11Z"/>
<path d="M116.24 151.555L113.635 152.746L186.553 79.8283L185.787 82.0087L116.24 151.555Z"/>
<path d="M129.995 147.801L128.533 147.848L185.053 91.3284V92.7427L129.995 147.801Z"/>
<path d="M158.332 129.463H156.918L184.424 101.957L183.775 103.905L183.8 103.995L158.332 129.463Z"/>
<path d="M167.817 129.978L166.639 129.742L174.497 121.884L174.262 123.534L167.817 129.978Z"/>
<path d="M244.43 63.3655L243.396 62.9847L257.745 48.6358H259.16L244.43 63.3655Z"/>
<path d="M251.738 66.0578L250.704 65.677L260.441 55.9396L260.449 55.9838L261.44 56.3554L251.738 66.0578Z"/>
<path d="M257.098 70.6976L256.356 70.0252L266.583 59.7984L267.078 60.7177L257.098 70.6976Z"/>
<path d="M262.344 75.4517L261.602 74.7793L270.141 66.2405L271.218 66.5773L262.344 75.4517Z"/>
<path d="M278.868 67.5136L278.659 68.7629L275.12 71.2615L278.868 67.5136Z"/>
<path d="M251.677 46.1179L236.692 61.1037L235.504 60.8774L251.099 45.2822L251.677 46.1179Z"/>
<path d="M245.717 40.6639L246.271 41.5247L228.292 59.5037L227.104 59.2774L245.717 40.6639Z"/>
<path d="M240.97 35.4112L241.696 36.0992L218.285 59.5106L216.812 59.5695L240.97 35.4112Z"/>
<path d="M233.4 32.9815H234.814L206.525 61.2702L204.331 62.0505L233.4 32.9815Z"/>
<path d="M181.2 115.181L174.886 121.495L180.899 116.684L181.2 115.181Z"/>
<path d="M186.058 10.3226L186.23 11.5654L131.7 66.0953V64.681L186.058 10.3226Z"/>
<path d="M179.516 6.86519L180.181 7.61392L136.385 51.4108L136.492 50.8722L136.11 50.2712L179.516 6.86519Z"/>
<path d="M174.703 1.6783L176.647 1.14795L133.511 44.2845L133.235 43.1462L174.703 1.6783Z"/>
<path d="M145.761 10.6203L146.645 11.1507L127.007 30.7881L126.129 30.2516L145.761 10.6203Z"/>
<path d="M140.765 5.61623L141.896 5.89909L135.534 12.2615V10.8472L140.765 5.61623Z"/>
<path d="M65.4539 80.9271L66.2176 80.1635L70.2247 77.5706L64.7468 83.0486L65.4539 80.9271Z"/>
<path d="M130.879 35.5018L154.818 11.5626L156.426 11.3698L131.423 36.3722L130.879 35.5018Z"/>
<path d="M99.0715 67.3095L104.287 62.0941L105.144 62.6512L99.1638 68.6316L99.0715 67.3095Z"/>
<path d="M163.56 4.23568L163.648 3.58966L164.268 3.52767L163.56 4.23568Z"/>
<path d="M273.766 72.5964L279.197 68.7627L279.41 67.4848L275.683 67.8043L270.571 66.2069L266.099 57.9005L260.987 55.9837L259.709 48.6357H253.959L251.083 44.4825L247.889 43.2046L245.013 38.7319L238.943 32.9813H228.4L222.969 31.7034L218.816 30.1061V27.5502H209.232L193.577 25.9529L191.341 26.5918L190.702 24.036L187.827 23.397V19.2439L186.549 9.97903L181.118 8.06217L178.562 5.18689L177.604 1.03369L170.575 2.95055L164.186 3.5895L163.227 10.618L155.24 11.5764L149.49 12.5348L146.295 10.618L144.698 6.46479L139.586 5.18689L136.072 8.06217V15.7296L133.196 19.8828L127.446 24.036L124.251 25.9529L123.293 28.1892L129.043 31.7034L132.238 36.8151L134.794 47.3578L137.03 50.872L136.072 55.6642L132.238 57.9005L131.28 61.0953L132.238 64.29V67.1653L123.293 63.3316H119.778L116.264 66.2069H111.153L104.763 62.0537H100.29L99.3319 63.3316L100.29 77.0691L96.4566 79.6249L91.984 77.0691H86.5529L80.1633 79.6249L71.5375 77.0691L66.1064 80.5833L65.1479 83.4586L61.9532 87.2924L58.7584 88.2508L51.4105 90.8066L47.8962 97.5156H44.382L39.9093 90.1676H36.7145L31.6029 94.3208H27.1302L20.1018 89.2092H15.6291L14.3512 92.7234L8.92008 95.9182L0.933167 99.7519L1.57212 100.71L2.53055 104.544L5.08636 109.975L6.68374 112.85L9.55903 113.489L12.1148 112.212L16.268 111.573L20.1018 114.448L21.0602 116.365L28.7276 117.962L34.7977 122.754L36.7145 125.63L40.8677 128.505L45.0209 133.616L46.9378 133.936L47.8962 137.45L54.2857 143.84L55.5637 146.396L54.2857 150.549L50.7715 159.175L49.8131 165.564L53.6468 172.273L55.8831 173.551L60.0363 170.037H66.4258L73.1349 172.912L83.0386 166.523L88.4697 167.481L98.054 160.133L105.083 159.175L108.597 155.021L113.389 153.105L124.571 147.993L134.474 147.673L138.628 141.923L145.017 138.728L151.407 131.7L156.518 129.463H165.783L173.77 131.061L173.45 128.824L174.409 126.268L175.048 121.796L181.437 116.684L182.076 113.489L185.591 108.378L184.313 103.905L185.591 100.071V84.0976L189.744 72.277L196.772 64.929L211.149 59.8174L227.123 59.1784L240.541 61.7342L252.681 66.2069L262.904 75.4717L267.696 75.7912L273.766 72.5964Z" stroke-linecap="round"/>
</svg>