<svg width="60" height="30" viewBox="0 0 365 175" fill="none" xmlns="http://www.w3.org/2000/svg">
<path d="M2.35406 57.628L10.9799 49.0022H12.3942L3.76834 57.628H2.35406Z" fill="#B2CD4C"/>
<path d="M10.0471 61.3492L9.16322 60.8189L28.3279 41.6542H29.7422L10.0471 61.3492Z" fill="#B2CD4C"/>
<path d="M14.789 66.6074L14.3699 65.6122L37.1207 42.8614L37.8615 43.5348L14.789 66.6074Z" fill="#B2CD4C"/>
<path d="M18.6029 72.7934L17.982 72.0001L43.7236 46.2585L44.6664 46.7299L18.6029 72.7934Z" fill="#B2CD4C"/>
<path d="M22.3284 79.068L22.0358 77.9463L53.2655 46.7166L54.2084 47.188L22.3284 79.068Z" fill="#B2CD4C"/>
<path d="M15.1116 94.8705L16.8922 93.0899H18.3065L15.1759 96.2205L15.1116 94.8705Z" fill="#B2CD4C"/>
<path d="M17.7773 103.619L17.2273 102.755L67.5257 52.4564L68.5048 52.8916L17.7773 103.619Z" fill="#B2CD4C"/>
<path d="M23.1233 108.273L22.1395 107.843L74.4983 55.4838L75.6297 55.7666L23.1233 108.273Z" fill="#B2CD4C"/>
<path d="M30.6017 110.795L30.0231 109.959L80.8956 59.0865L81.6271 59.7693L30.6017 110.795Z" fill="#B2CD4C"/>
<path d="M34.6926 116.704L34.114 115.868L87.8253 62.1568L88.8259 62.4202L88.9118 62.4846L34.6926 116.704Z" fill="#B2CD4C"/>
<path d="M37.0217 124.375L36.724 123.258L95.6451 64.337H96.1739L97.2807 64.1157L37.0217 124.375Z" fill="#B2CD4C"/>
<path d="M37.9754 133.421L37.9196 132.062L156.761 13.2208H158.176L37.9754 133.421Z" fill="#B2CD4C"/>
<path d="M38.3702 143.026L38.3143 141.668L170.763 9.21889L171.251 9.70654L171.403 9.99355L38.3702 143.026Z" fill="#B2CD4C"/>
<path d="M39.1139 152.282L38.8568 151.125L174.605 15.3771L175.548 15.8485L39.1139 152.282Z" fill="#B2CD4C"/>
<path d="M37.1454 164.251L36.1731 163.809L181.981 18.0007L183.126 18.2701L37.1454 164.251Z" fill="#B2CD4C"/>
<path d="M46.8067 164.59L45.7781 164.204L194.205 15.7766H195.62L46.8067 164.59Z" fill="#B2CD4C"/>
<path d="M51.3883 170.008L50.2097 169.772L201.011 18.9714H202.425L51.3883 170.008Z" fill="#B2CD4C"/>
<path d="M63.8684 167.528H62.6288L62.2794 167.703L72.8881 157.094L71.8937 158.902L71.8186 159.578L63.8684 167.528Z" fill="#B2CD4C"/>
<path d="M94.7797 146.617L93.7189 146.263L223.074 16.9079L223.618 17.7782L94.7797 146.617Z" fill="#B2CD4C"/>
<path d="M102.793 148.603L102.563 148.359L101.764 148.218L230.277 19.7048L231.312 19.9298L231.375 20.0209L102.793 148.603Z" fill="#B2CD4C"/>
<path d="M107.651 153.746L106.964 153.018L235.899 24.083H237.063L238.064 23.3319L107.651 153.746Z" fill="#B2CD4C"/>
<path d="M121.04 150.356L119.24 150.742L252.184 17.7986L252.891 18.5057L121.04 150.356Z" fill="#B2CD4C"/>
<path d="M145.79 145.606L144.078 145.904L268.049 21.9328L269.284 22.1127L145.79 145.606Z" fill="#B2CD4C"/>
<path d="M155.335 146.061L154.19 145.792L279.413 20.5687H280.828L155.335 146.061Z" fill="#B2CD4C"/>
<path d="M159.102 152.295L158.179 151.803L285.919 24.0629L285.943 24.083L287.384 24.0127L159.102 152.295Z" fill="#B2CD4C"/>
<path d="M164.288 156.962L163.603 156.233L296.256 23.5799L297.743 23.5074L164.288 156.962Z" fill="#B2CD4C"/>
<path d="M169.132 162.118L168.447 161.389L324.741 5.09424L326.067 5.18263L169.132 162.118Z" fill="#B2CD4C"/>
<path d="M174.178 167.072L173.451 166.384L334.381 5.45512L334.911 6.33904L174.178 167.072Z" fill="#B2CD4C"/>
<path d="M181.073 170.177L179.861 169.975L344.602 5.23387H346.016L181.073 170.177Z" fill="#B2CD4C"/>
<path d="M191.61 169.64L190.778 169.057L350.477 9.35847V10.7727L191.61 169.64Z" fill="#B2CD4C"/>
<path d="M197.703 173.547L196.809 173.279L196.661 173.175L350.938 18.8977L351.221 20.0291L197.703 173.547Z" fill="#B2CD4C"/>
<path d="M224.026 167.224L223.207 166.629L352.075 37.7611V39.1754L224.026 167.224Z" fill="#B2CD4C"/>
<path d="M236.597 164.653H235.785L232.574 167.262L353.473 46.3622L354.031 47.2193L236.597 164.653Z" fill="#B2CD4C"/>
<path d="M241.862 169.388L241.327 168.509L356.286 53.55L356.313 54.9371L241.862 169.388Z" fill="#B2CD4C"/>
<path d="M258.808 162.442L257.829 162.736L256.711 163.125L335.142 84.6933V86.1076L268.023 153.227L265.177 155.068L264.675 156.575L258.808 162.442Z" fill="#B2CD4C"/>
<path d="M277.619 153.631L276.528 153.308L325.341 104.494L326.219 105.031L277.619 153.631Z" fill="#B2CD4C"/>
<path d="M289.696 151.554H288.282L298.638 141.197L298.731 142.519L289.696 151.554Z" fill="#B2CD4C"/>
<path d="M323.112 138.138L322.363 137.817H322.019L335.47 124.366L336.02 125.23L323.112 138.138Z" fill="#B2CD4C"/>
<path d="M330.112 141.138L329.122 140.713L331.251 138.584L331.309 138.775V139.941L330.112 141.138Z" fill="#B2CD4C"/>
<path d="M332.995 118.255L310.558 140.692H310.223L309.569 140.267L332.719 117.117L332.995 118.255Z" fill="#B2CD4C"/>
<path d="M363.24 78.0098L355.308 85.9418L354.311 86.0614L353.667 86.1688L362.957 76.8784L363.24 78.0098Z" fill="#B2CD4C"/>
<path d="M358.276 71.5596L359.125 72.1253L345.854 85.396L345.366 85.103L345.19 84.6459L358.276 71.5596Z" fill="#B2CD4C"/>
<path d="M356.478 63.3577L356.505 64.7448L340.994 80.2562L339.862 79.9733L356.478 63.3577Z" fill="#B2CD4C"/>
<path d="M330.242 109.594L330.786 110.464L304.365 136.884L303.834 136.539H303.297L330.242 109.594Z" fill="#B2CD4C"/>
<path d="M299.291 150.545L299.361 151.554L296.123 153.713L299.291 150.545Z" fill="#B2CD4C"/>
<path d="M355.046 26.2036L217.556 163.694H216.141L354.313 25.5226L355.046 26.2036Z" fill="#B2CD4C"/>
<path d="M213.876 165.96L213.422 167.208L211.492 168.344L213.876 165.96Z" fill="#B2CD4C"/>
<path d="M311.584 9.66636L311.182 10.026L311.18 10.0703L311.584 9.66636Z" fill="#B2CD4C"/>
<path d="M302.598 18.6519H302.236L301.513 19.7373L302.598 18.6519Z" fill="#B2CD4C"/>
<path d="M260.556 20.84L137.61 143.787L136.108 143.887L136.082 143.9L259.322 20.66L260.556 20.84Z" fill="#B2CD4C"/>
<path d="M132.738 147.244L132.594 148.679L130.156 149.826L132.738 147.244Z" fill="#B2CD4C"/>
<path d="M240.052 19.9298H241.467L239.619 21.7775V20.3633L240.052 19.9298Z" fill="#B2CD4C"/>
<path d="M218.176 13.2208L81.5576 149.839L79.0554 150.927L215.872 14.1103L217.255 13.2208H218.176Z" fill="#B2CD4C"/>
<path d="M146.761 13.2208H148.176L124.607 36.7895L125.373 34.6092L146.761 13.2208Z" fill="#B2CD4C"/>
<path d="M138.952 11.0304L139.924 11.472L127.489 23.9075L128.432 21.5504L138.952 11.0304Z" fill="#B2CD4C"/>
<path d="M132.074 7.90769L133.047 8.34932L131.715 9.68166L131.929 8.05311L132.074 7.90769Z" fill="#B2CD4C"/>
<path d="M61.6691 48.313L62.4352 48.9612L23.1385 88.2578L23.3406 86.6415L61.6691 48.313Z" fill="#B2CD4C"/>
<path d="M20.8298 90.5666L19.819 91.1731V91.5774L20.8298 90.5666Z" fill="#B2CD4C"/>
<path d="M9.17512 49.0021L3.42454 53.1553H0.549255V56.989L1.50768 57.628H4.70245L9.17512 60.5033L13.9673 63.3786L16.5231 69.4486L22.2737 76.7966L24.1905 84.1445L23.5516 89.2561L20.3568 91.173V93.0899H15.5647L15.8841 99.7989L20.3568 106.827L25.4684 109.064H29.9411L35.6917 117.37L38.2475 126.954L39.2059 150.276L40.4838 156.027L35.6917 159.222L35.0527 163.055L38.567 164.653L44.9565 163.694L47.5123 164.653L49.1097 169.445L52.3045 170.084L55.8187 168.167L59.3329 169.445L63.1667 167.528H71.473L72.4315 158.902L75.9457 152.512L83.2937 149.318L87.4469 148.679L89.3637 146.123H93.8364L97.6701 147.401L103.101 148.359L108.532 154.11H113.324L117.478 151.235L121.95 150.276L127.701 151.235L133.132 148.679L133.451 145.484L136.646 143.887L141.438 143.567L143.355 146.123L150.703 144.845L156.134 146.123L156.454 150.596L161.246 153.151L171.15 163.694L177.22 169.445L182.97 170.403L186.804 168.806H190.957L197.347 173.278L200.542 174.237L208.528 170.403L213.96 167.208L215.237 163.694H219.71L226.739 168.806H231.211L236.323 164.653H239.518L243.99 172.001H247.505L251.019 165.292L258.367 162.736L261.562 161.777L264.756 157.944L265.715 155.068L271.146 151.554L279.772 154.11L286.161 151.554H291.592L296.065 154.11L299.899 151.554L298.94 137.817L299.899 136.539H304.371L310.761 140.692H315.873L319.387 137.817H322.901L331.846 141.65V138.775L330.888 135.58L331.846 132.385L335.68 130.149L336.639 125.357L334.402 121.843L331.846 111.3L328.652 106.188L322.901 102.674L323.859 100.438L327.054 98.521L332.805 94.3678L335.68 90.2146V82.5471L339.194 79.6719L344.306 80.9498L345.903 85.103L349.098 87.0198L354.849 86.0614L362.836 85.103L363.794 78.0745L363.155 75.5187L360.919 72.9629L357.085 70.407H353.571V69.1291L357.085 66.8928L356.766 50.5995L352.612 44.21V37.1815L357.085 30.4725V27.5972L352.612 23.444L351.015 17.0545V2.03906L348.459 5.23383H340.792L338.236 7.78964H336.319L334.402 4.59487L327.374 5.23383L317.789 4.59487L311.719 10.026L311.4 17.0545L310.122 18.6518H302.774L299.579 23.444L286.481 24.0829L282.328 20.5687H279.133L274.021 24.7219H270.187V22.1661L254.853 19.9297L250.06 15.1376H247.505L246.227 17.0545L244.629 19.9297H240.157V22.1661L237.601 24.0829H234.726L231.85 19.9297L224.502 18.3324L222.905 15.7766L220.988 13.2207H217.793L208.848 18.9713H199.264V17.6934L197.027 15.7766H189.679L183.929 18.3324L178.498 17.0545L174.664 15.1376L171.789 9.7065L169.233 7.15069L168.594 9.7065L159.01 13.2207H144.314L132.493 7.85354L131.535 15.1376L127.701 24.7219V29.514L123.548 41.3347L119.714 49.6411L113.644 56.6695L106.615 57.9475L99.9064 63.698L96.7117 64.337H91.9195L89.3637 62.4201L83.2937 60.8227L78.5015 56.3501L74.6678 55.3916L66.0419 51.5579L61.8887 48.0437L57.0966 48.3632L51.985 45.8073L46.5539 47.4047L42.7202 45.4879L39.8449 44.8489L36.3306 41.6542L33.1359 42.2931L31.219 41.6542H28.3437L26.1074 44.21H23.2321L21.6347 42.2931L17.801 44.5294L17.4815 46.7658L16.5231 47.4047L14.6062 49.0021H9.17512Z" stroke="#B2CD4C" stroke-linecap="round"/>
</svg>
