<svg width="60" height="22" viewBox="0 0 269 76" fill="current" xmlns="http://www.w3.org/2000/svg">
<path d="M0.412292 3.99326L1.75956 2.646L2.56771 3.25211L0.468863 5.35095L0.412292 3.99326Z"/>
<path d="M0.868863 14.951L0.812292 13.5933L8.09399 6.31157L8.83479 6.98503L0.868863 14.951Z"/>
<path d="M1.26886 24.551L1.21229 23.1933L15.9221 8.48344L16.7176 9.10218L1.26886 24.551Z"/>
<path d="M5.57869 30.2411L5.51134 28.8942L21.5471 12.8584L22.3426 13.4772L5.57869 30.2411Z"/>
<path d="M6.05488 39.7649L5.98753 38.418L27.1917 17.2138H28.606L6.05488 39.7649Z"/>
<path d="M6.50972 49.3101L6.44544 47.9601L35.9138 18.4917H37.3281L6.50972 49.3101Z"/>
<path d="M7.15332 58.6665L6.18069 58.2249L44.3164 20.0891H44.7181L45.1855 20.6344L7.15332 58.6665Z"/>
<path d="M14.0306 61.7892L13.058 61.3475L51.0105 23.3951L51.9533 23.8665L14.0306 61.7892Z"/>
<path d="M22.2819 63.5379H20.8676L60.3115 24.094L62.0522 23.7676L22.2819 63.5379Z"/>
<path d="M32.2819 63.5379H30.8676L74.4019 20.0036L75.9074 19.9124L32.2819 63.5379Z"/>
<path d="M45.5091 60.3108L45.3571 60.0237L44.8695 59.5361L82.3911 22.0144L83.3929 22.4269L45.5091 60.3108Z"/>
<path d="M49.6541 66.1657L48.7113 65.6943L89.9989 24.4067L90.7227 24.5618L91.0974 24.7224L49.6541 66.1657Z"/>
<path d="M57.2325 68.5873L56.0877 68.3179L102.552 21.8531L103.361 22.4592L57.2325 68.5873Z"/>
<path d="M69.7261 66.0937H68.3118L109.962 24.4434L110.855 24.9644L69.7261 66.0937Z"/>
<path d="M76.5313 69.2885H75.117L116.649 27.7566H118.063L76.5313 69.2885Z"/>
<path d="M92.2819 63.5379H91.3617L89.9783 64.4273L126.658 27.748L128.155 27.6649L92.2819 63.5379Z"/>
<path d="M97.7244 68.0954L97.1804 67.2251L136.664 27.7411L137.57 28.2503L97.7244 68.0954Z"/>
<path d="M105.482 70.3381L105.419 70.2469L104.384 70.0219L145.634 28.7712L146.813 29.0069L105.482 70.3381Z"/>
<path d="M112.171 73.6488L111.169 74.4001H110.005L113.725 70.6805V72.0948L112.171 73.6488Z"/>
<path d="M126.997 68.8229L126.29 68.1158L162.176 32.2292H163.591L126.997 68.8229Z"/>
<path d="M134.663 71.1572L133.428 70.9772L172.175 32.2303L172.189 32.2292L173.463 32.3566L134.663 71.1572Z"/>
<path d="M143.39 72.4299L142.156 72.2499L180.839 33.5662L182.607 33.2126L143.39 72.4299Z"/>
<path d="M154.934 70.8859H153.52L193.135 31.2708H194.549L154.934 70.8859Z"/>
<path d="M161.49 74.3298L160.049 74.4001L160.025 74.3801L202.297 32.109L204.25 31.5702L161.49 74.3298Z"/>
<path d="M171.849 73.8245L170.362 73.8971L213.627 30.6319H213.721L217.235 28.3955L217.284 28.3895L185.691 59.9826L185.288 60.3432L185.286 60.3876L176.704 68.969H176.342L175.619 70.0547L171.849 73.8245Z"/>
<path d="M200.174 55.4998L198.848 55.4114L227.302 26.9575L228.417 26.7981L228.723 26.9508L200.174 55.4998Z"/>
<path d="M209.017 56.6562L208.487 55.7723L239.496 24.7634L241.878 23.7958L209.017 56.6562Z"/>
<path d="M220.122 55.551H218.708L250.656 23.6034H252.058L252.087 23.5859L220.122 55.551Z"/>
<path d="M238.329 47.3447L236.748 47.5111L240.877 43.3824V44.7967L238.329 47.3447Z"/>
<path d="M258.385 37.2884L257.614 36.6456L265.968 28.2912L266.596 29.0769L258.385 37.2884Z"/>
<path d="M262.75 22.9229L244.206 41.4671L242.438 41.8207L261.785 22.4738L262.601 22.3255L262.75 22.9229Z"/>
<path d="M154.177 31.6429L115.573 70.2469H114.159L152.725 31.6801L153.021 31.9098L154.177 31.6429Z"/>
<path d="M68.8205 16.9993L68.6789 16.8944L68.6084 17.2114L68.8205 16.9993Z"/>
<path d="M6.59927 39.8968L7.23822 53.3148L6.59927 58.1708L18.4199 63.538H33.1158L42.7001 60.0238L43.3391 57.468L45.8949 60.0238L48.7702 65.4549L52.6039 67.3717L58.035 68.6496L63.7856 66.0938H71.1335L73.3699 68.0107V69.2886H82.9542L91.8995 63.538H95.0943L97.0111 66.0938L98.6085 68.6496L105.956 70.247L108.832 74.4002H111.707L114.263 72.4834V70.247H118.736L120.333 67.3717L121.611 65.4549H124.167L128.959 70.247L144.294 72.4834V75.0392H148.127L153.239 70.886H156.434L160.587 74.4002L173.685 73.7613L176.88 68.9691H184.228L185.506 67.3717L185.826 60.3433L191.896 54.9121L201.48 55.5511L208.508 54.9121L210.425 58.1069H212.342L214.898 55.5511H222.565L225.121 52.3563H228.316L229.594 47.8837L232.469 46.2863L233.747 47.8837L239.817 47.2447L241.415 45.3279V42.1331L247.804 40.8552L253.235 38.6188L255.152 37.3409V35.7436H257.069L258.986 37.3409H262.5L263.139 33.1877L267.931 32.2293L267.612 29.6735L263.778 24.8814L263.139 22.3255L259.625 22.9645L258.027 21.6866H255.791L252.596 23.6035H249.721L247.804 21.6866H246.526L245.248 22.645L235.025 26.7982L229.594 27.1177L228.955 26.7982L226.719 27.1177L223.843 28.3956L221.607 26.7982L220.329 28.0761L217.773 28.3956L214.259 30.6319H208.189L198.924 33.1877L195.729 31.2709H187.742L184.867 32.8683L180.075 33.8267L178.478 31.9098L175.922 32.5488L172.727 32.2293L168.574 32.5488L166.018 30.9514L164.421 32.2293H160.587L157.712 30.9514L153.558 31.9098L150.683 29.6735L145.891 28.7151L139.501 29.0345L134.39 26.1593L132.792 27.4372L127.042 27.7566L124.167 25.5203L120.972 27.7566H116.18L108.512 23.284H104.998L102.442 21.3671L100.206 23.6035L97.9696 24.2424L95.7332 26.4787L91.2605 24.5619L86.7879 23.6035L81.3568 21.3671L78.801 19.7697L73.5292 20.0892L69.2167 16.8944L68.5777 19.7697L63.4661 23.6035L58.3545 24.5619L52.6039 23.9229L50.0481 22.645L47.1728 22.3255L45.2559 20.0892H42.7001L40.1443 17.8529L38.5469 18.4918H31.5184L29.9211 17.2139H26.0873L24.8094 14.9776L16.1836 8.26858L10.433 7.9491L6.91875 4.75434L4.68241 4.43486L0.848694 1.55957L1.80712 24.5619L5.96032 27.1177L6.59927 39.8968Z" stroke="#65BA90" stroke-linecap="round"/>
</svg>
