<svg width="60" height="60" viewBox="0 0 234 172" fill="currnet" xmlns="http://www.w3.org/2000/svg">
<path d="M50.1802 14.788L57.3035 7.66463L59.8057 6.57672L49.4613 16.9211L49.5763 15.8859L50.1802 14.788Z" />
<path d="M49.7022 26.6803L49.2307 25.7374L71.6413 3.32683L72.702 3.6804L49.7022 26.6803Z" />
<path d="M55.0097 31.3728L54.2082 30.7599L79.7182 5.24998L80.2461 5.34315L80.6314 5.75108L55.0097 31.3728Z" />
<path d="M45.3982 50.9842L45.7426 50.3893V49.2255L84.8016 10.1666L85.4885 10.8939L45.3982 50.9842Z" />
<path d="M29.5346 76.8479L28.9362 76.0319L97.3299 7.63829L99.0952 7.26001L99.1185 7.2639L29.5346 76.8479Z" />
<path d="M30.1067 84.8614L31.6857 83.6149V83.2825L108.442 6.52605L110.277 5.66262L110.385 4.58334L114.12 0.848579L115.635 0.747559L24.5668 91.8156L25.1954 89.7728L30.1067 84.8614Z" />
<path d="M10.8651 104.103L20.8105 94.1576H20.8235L23.3926 92.9898L1.87634 114.506L1.16919 113.799L6.43409 108.534H6.44702L10.6002 105.339L10.8651 104.103Z" />
<path d="M3.63163 122.751L3.69312 121.275L122.148 2.82024L123.86 2.5225L3.63163 122.751Z" />
<path d="M6.74519 129.637L5.74686 129.221L132.131 2.83675L133.276 3.10613L6.74519 129.637Z" />
<path d="M14.2071 132.175H12.8365L12.8057 132.162L136.07 8.89774L136.993 9.38967L14.2071 132.175Z" />
<path d="M21.7435 134.493L20.8949 133.927L141.44 13.3815L142.125 14.1107L21.7435 134.493Z" />
<path d="M28.6249 137.611L26.8963 137.925L146.284 18.5377L146.969 19.267L28.6249 137.611Z" />
<path d="M41.2708 134.965L40.9505 135.051L39.9677 134.854L151.298 23.5235L152.024 24.2116L41.2708 134.965Z" />
<path d="M58.264 127.972L55.6122 129.209L157.818 27.0041L159.03 27.2061L58.264 127.972Z" />
<path d="M69.2371 126.999L66.9742 127.848L168.649 26.1726L169.481 26.7549L69.2371 126.999Z" />
<path d="M80.5103 125.726L79.9266 125.466L78.9556 125.866L174.544 30.2779L175.632 30.6043L80.5103 125.726Z" />
<path d="M89.6563 126.58L88.5956 126.226L179.189 35.6329L179.284 36.0129L179.584 36.6516L89.6563 126.58Z" />
<path d="M94.3239 131.912L93.692 131.13L182.389 42.4328L182.894 43.342L94.3239 131.912Z" />
<path d="M99.1885 137.047L98.427 136.395L191.555 43.267L193.021 43.0414L193.12 43.1157L99.1885 137.047Z" />
<path d="M103.615 142.621L103.079 141.743L197.538 47.2834L197.813 47.8335L198.301 47.9351L103.615 142.621Z" />
<path d="M107.017 149.219L106.563 148.259L205.406 49.4154L205.481 49.4309L206.221 50.0151L107.017 149.219Z" />
<path d="M110.231 156.005L109.777 155.045L211.019 53.8029L211.551 54.2231L211.736 54.5003L110.231 156.005Z" />
<path d="M111.246 164.99L111.874 163.803L111.589 163.233L138.273 136.549L137.91 138.326L111.246 164.99Z" />
<path d="M118.562 167.674L117.304 167.517L135.9 148.922L136.077 150.159L118.562 167.674Z" />
<path d="M128.794 167.442L127.477 167.345L137.256 157.566L137.943 158.293L128.794 167.442Z" />
<path d="M137.636 168.6L136.594 168.228L142.113 162.708L142.544 163.165L142.818 163.418L137.636 168.6Z" />
<path d="M146.657 169.58L144.141 171.151L143.809 171.013L146.697 168.125V169.539L146.657 169.58Z" />
<path d="M216.312 109.924L215.002 109.82L227.011 97.8108L227.525 98.7109L216.312 109.924Z" />
<path d="M226.928 109.308L225.352 109.47L230.833 103.989L231.733 104.503L226.928 109.308Z" />
<path d="M228.853 87.3829L207.052 109.184L205.743 109.079L229.825 84.9963L228.853 87.3829Z" />
<path d="M230.276 74.5456L230.983 75.2528L198.713 107.523L197.638 107.184L230.276 74.5456Z" />
<path d="M225.276 69.5456L225.983 70.2528L189.299 106.937H187.885L225.276 69.5456Z" />
<path d="M220.861 63.961L221.495 64.7413L176.744 109.492L174.456 110.366L220.861 63.961Z" />
<path d="M215.982 58.8393L216.818 59.4178L160.095 116.141L157.603 117.219L215.982 58.8393Z" />
<path d="M231.896 108.853L233.174 105.02L230.938 103.742L227.104 97.0327L228.063 90.6432L231.577 82.0173L232.855 77.8641L231.577 75.3083L225.187 68.9188L224.229 65.4045L222.312 65.085L218.159 59.9734L214.006 57.0981L212.089 54.2228L206.019 49.4307L198.351 47.8333L197.393 45.9164L193.559 43.0412L189.406 43.6801L186.85 44.958L183.975 44.3191L182.377 41.4438L179.822 36.0127L178.863 32.179L178.224 31.2205L175.029 30.2621L168.64 25.7894H164.487L160.653 27.3868L154.902 26.4284L148.832 20.6778L138.929 10.1351L134.136 7.57926L133.817 3.10659L128.386 1.82869L121.038 3.10659L119.121 0.550781L114.329 0.870258L111.134 2.46764L110.815 5.66241L105.384 8.21822L99.633 7.25979L95.1603 8.21822L91.0072 11.0935H86.215L80.7839 5.34293L75.3528 4.3845L71.5191 3.10659H67.0464L65.1296 5.66241L60.9764 6.30136L53.6284 9.49612L50.1142 15.8857L49.1557 24.5115L50.7531 27.7063L56.1842 31.8595V38.249L54.2674 40.1659L47.5583 40.4853L46.2804 41.7633V50.3891L42.7662 56.4592L32.543 65.724L28.7092 69.8772V74.9888L32.2235 79.781V83.6147L26.1534 88.4068L24.8755 92.56L21.3613 94.1574H17.5276L15.6107 98.3106L12.0965 100.866L11.138 105.339L6.98483 108.534H2.19268L1.23425 113.326L4.42902 116.521L4.10954 124.188L2.83164 127.782L13.3744 132.175H18.8055L27.4313 137.926L30.9456 137.287L35.0988 133.772L41.4883 135.05L46.2804 133.772L47.5583 130.897L54.5868 129.939L59.379 127.702L60.9764 128.022H67.0464L72.158 126.105L75.0333 127.702L80.4644 125.466L83.3397 126.744L86.854 125.466L90.6877 126.744L97.3967 135.05L101.869 138.884L105.384 144.635L111.134 156.775V161.247L112.412 163.803L109.537 169.234L113.69 166.998L121.357 167.956L123.274 166.998L136.373 167.956L140.845 169.554L144.679 171.151L147.235 169.554V166.998L143.082 163.164L137.651 157.414L136.373 148.468L139.248 134.411L144.999 126.744L149.471 124.508L154.583 118.757L166.404 113.645L183.975 106.936H197.393L203.463 108.853L219.437 110.131L231.896 108.853Z" stroke-linecap="round"/>
</svg>
