<svg width="430" height="451" viewBox="0 0 230 351" fill="none" xmlns="http://www.w3.org/2000/svg">
<path d="M12.1428 17.5304L11.5002 16.4894L21.0467 6.94285L20.9936 7.87171L22.1914 7.48174L12.1428 17.5304Z" fill="#F5BC2E"/>
<path d="M12.7487 28.8299L10.2805 30.211L9.85983 30.0351L31.7914 8.10359L33.1027 8.47589L12.7487 28.8299Z" fill="#F5BC2E"/>
<path d="M19.6892 33.7949L21.0102 30.7902L24.4428 27.3575L24.2834 27.6325L24.7775 28.3675L25.8861 27.512L25.92 27.564L19.6892 33.7949Z" fill="#F5BC2E"/>
<path d="M30.1534 35.236L28.7453 34.9605L29.3933 34.3125L30.1795 35.21L30.1534 35.236Z" fill="#F5BC2E"/>
<path d="M1.89864 73.7126L6.56211 69.0491L7.48702 69.8079L1.74512 75.5498L1.89864 73.7126Z" fill="#F5BC2E"/>
<path d="M40.9214 36.3735L39.5915 36.0198L43.9786 31.6326L44.7754 32.5195L43.3221 33.9728L42.8294 34.2837L42.8497 34.4452L40.9214 36.3735Z" fill="#F5BC2E"/>
<path d="M41.5269 23.8626L34.7041 30.6853L33.471 30.2348L43.4477 20.2581L43.3115 21.7765L43.5938 21.7957L42.0059 23.3835L41.4918 23.6683L41.5269 23.8626Z" fill="#F5BC2E"/>
<path d="M46.6062 18.7833L46.4965 18.893L45.1611 18.5447L46.2287 17.4771L46.6062 18.7833Z" fill="#F5BC2E"/>
<path d="M41.7105 10.0899L46.8798 4.92054L47.9845 5.49948L42.2317 11.2524L42.3956 10.4984L41.7105 10.0899Z" fill="#F5BC2E"/>
<path d="M40.5639 11.2365L40.0059 11.7945L40.5639 11.5829V11.2365Z" fill="#F5BC2E"/>
<path d="M39.6518 12.1485L32.8255 18.9748L33.454 19.3546L33.1286 20.1499L33.263 20.221L42.0666 11.4175L40.0336 12.6191L39.6518 12.1485Z" fill="#F5BC2E"/>
<path d="M28.7412 23.0592L28.1087 23.6917L29.6821 23.596L28.7412 23.0592Z" fill="#F5BC2E"/>
<path d="M48.6911 4.79288L49.8911 3.16045L51.0055 2.47852L48.6911 4.79288Z" fill="#F5BC2E"/>
<path d="M9.39673 8.37099L9.00266 8.76507L8.23188 8.7513L8.8585 8.08859L9.39673 8.37099Z" fill="#F5BC2E"/>
<path d="M97.6957 122.464L96.4626 122.014L111.519 106.958L112.253 107.314L113.35 105.772L114.772 105.242L114.838 105.322L97.6957 122.464Z" fill="#F5BC2E"/>
<path d="M104.495 127.57L103.344 127.038L129.403 100.978L130.98 100.88L132.39 99.2411L131.762 98.6198L137.232 93.1502L138.078 92.8912L139.031 93.0346L104.495 127.57Z" fill="#F5BC2E"/>
<path d="M112.56 131.411L110.835 131.452L150.003 92.2839L150.784 93.1868L112.56 131.411Z" fill="#F5BC2E"/>
<path d="M125.013 130.863L124.763 131.113L124.219 129.973L125.608 128.585L125.013 130.863Z" fill="#F5BC2E"/>
<path d="M141.3 124.798L143.163 124.412L144.121 121.977L156.479 109.619L157.484 110.298L127.41 140.372L126.812 139.286L141.3 124.798Z" fill="#F5BC2E"/>
<path d="M64.8719 201.226L65.597 200.501L67.22 200.081L67.7246 200.057L63.7519 204.03L62.9469 203.151L64.4523 201.646L64.4845 201.66L64.8719 201.226Z" fill="#F5BC2E"/>
<path d="M60.0218 207.76L59.3234 208.458L59.7847 207.708L60.0218 207.76Z" fill="#F5BC2E"/>
<path d="M69.3282 210.359L68.0756 210.395L67.8206 210.183L70.9951 207.008L70.7475 208.94L69.3282 210.359Z" fill="#F5BC2E"/>
<path d="M144.835 146.758L143.874 146.035L168.399 121.51L169.593 122L144.835 146.758Z" fill="#F5BC2E"/>
<path d="M96.5821 205.232L97.9886 203.826L100.501 202.997L94.5394 208.959L94.4546 208.781L96.5821 205.232Z" fill="#F5BC2E"/>
<path d="M98.7034 216.7L97.9372 216.095L97.8366 215.883L113.003 200.717L113.76 200.467L114.511 200.893L98.7034 216.7Z" fill="#F5BC2E"/>
<path d="M106.553 220.756L106.505 220.517L105.598 220.027L120.9 204.725L121.432 205.877L106.553 220.756Z" fill="#F5BC2E"/>
<path d="M110.121 229.093L109.892 228.674L109.054 228.476L129.971 207.56L130.206 209.008L110.121 229.093Z" fill="#F5BC2E"/>
<path d="M111.168 238.268L111.181 238.265L111.181 238.255L129.279 220.157L129.39 220.444L128.509 222.611L109.751 241.369L109.867 241.109L109.264 240.172L111.168 238.268Z" fill="#F5BC2E"/>
<path d="M99.3428 250.093L106.695 242.742L107.698 243.374L107.759 243.361L100.44 250.68L100.408 250.049L99.3428 250.093Z" fill="#F5BC2E"/>
<path d="M106.012 257.014L104.83 257.159L104.818 256.523L128.292 233.05L128.305 233.735L128.238 234.787L106.012 257.014Z" fill="#F5BC2E"/>
<path d="M112.57 262.361L112.145 261.111L112.138 261.109L116.882 256.365L115.338 258.857L115.365 259.566L112.57 262.361Z" fill="#F5BC2E"/>
<path d="M124.487 250.444L119.168 255.763L117.03 256.217L124.034 249.213L124.063 249.881L124.487 250.444Z" fill="#F5BC2E"/>
<path d="M139.796 211.324L138.01 213.11L137.644 212.649L136.548 213.058L136.401 213.036L138.39 211.047L138.391 211.094L139.796 211.324Z" fill="#F5BC2E"/>
<path d="M170.513 144.89L165.372 150.032L164.264 150.053L163.583 150.137L170.212 143.508L170.513 144.89Z" fill="#F5BC2E"/>
<path d="M177.797 137.607L171.904 143.499L171.663 143.365L171.087 142.633L177.186 136.534L177.797 137.607Z" fill="#F5BC2E"/>
<path d="M172.524 129.29L172.688 130.111L172.824 130.674L169.523 133.975L168.812 133.003L172.524 129.29Z" fill="#F5BC2E"/>
<path d="M164.714 137.101L152.389 149.425L153.519 149.98L165.85 137.648L165.71 137.473L164.714 137.101Z" fill="#F5BC2E"/>
<path d="M164.116 115.572L136.015 143.672L134.358 143.646L163.584 114.419L164.071 114.748L164.116 115.572Z" fill="#F5BC2E"/>
<path d="M157.026 98.8505L138.359 117.517L136.809 117.383L155.856 98.3364L155.997 98.3133L157.026 98.8505Z" fill="#F5BC2E"/>
<path d="M122.088 132.105L121.882 133.473L121.038 133.907L120.485 133.707L122.088 132.105Z" fill="#F5BC2E"/>
<path d="M103.281 104.974L102.384 105.001L102.403 105.852L103.281 104.974Z" fill="#F5BC2E"/>
<path d="M100.706 107.549L97.2965 110.958L97.1419 110.519L99.5762 108.567L100.673 107.567L100.706 107.549Z" fill="#F5BC2E"/>
<path d="M111.703 344.882L123.01 333.575L123.424 333.78L124.772 333.497L110.203 348.066L110.145 347.672L111.703 344.882Z" fill="#F5BC2E"/>
<path d="M126.466 343.709L125.437 343.793L120.785 348.697L119.098 349.528L118.98 349.51L134.154 334.337L134.198 334.358L139.157 331.017L126.466 343.709Z" fill="#F5BC2E"/>
<path d="M148.369 332.027L147.61 333.695L146.718 333.756L144.405 336.635L142.35 338.046L148.369 332.027Z" fill="#F5BC2E"/>
<path d="M168.163 335.87L169.852 334.18L170.037 335.25L171.013 334.551L171.101 334.615L168.462 337.255L168.072 336.153L168.163 335.87Z" fill="#F5BC2E"/>
<path d="M163.967 340.065L165.562 338.47L166.03 339.686L163.861 341.855L163.758 341.756L164.65 340.913L163.967 340.065Z" fill="#F5BC2E"/>
<path d="M161.226 342.807L161.605 342.427L161.408 342.829L161.226 342.807Z" fill="#F5BC2E"/>
<path d="M167.15 338.567L167.168 338.548L167.144 338.551L167.15 338.567Z" fill="#F5BC2E"/>
<path d="M178.262 327.454L177.809 326.839L176.773 327.96L176.511 327.522L194.938 309.095L195.03 309.091L196.505 309.211L178.262 327.454Z" fill="#F5BC2E"/>
<path d="M193.247 324.375L192.148 323.79L205.378 310.56L206.187 311.435L193.247 324.375Z" fill="#F5BC2E"/>
<path d="M198.392 331.135L197.717 330.126L213.235 314.608L214.159 315.368L198.392 331.135Z" fill="#F5BC2E"/>
<path d="M223.92 317.512L215.367 326.065L213.872 325.876L225.626 314.122L227.721 313.712L226.033 315.4L224.277 315.887L223.722 317.32L223.92 317.512Z" fill="#F5BC2E"/>
<path d="M216.754 312.773L215.817 312.428L215.347 312.85L215.936 313.591L216.754 312.773Z" fill="#F5BC2E"/>
<path d="M208.061 331.687L207.996 332.43L207.022 332.727L208.061 331.687Z" fill="#F5BC2E"/>
<path d="M178.796 315.015L175.827 317.984L177.327 316.043L178.737 315.019L178.796 315.015Z" fill="#F5BC2E"/>
<path d="M160.153 337.813L161.31 337.957L161.72 340.62L160.792 342.512L159.189 342.319L159.732 340.716L158.768 340.415L155.044 340.969L156.514 339.258L158.141 339.524L159.298 337.319L160.153 337.813V337.813ZM167.661 330.125L169.975 332.017L169.167 333.463L169.42 334.933L170.397 334.234L171.3 334.897L169.686 338.09L168.589 338.704L168.77 339.427L165.709 340.825L166.589 342.03L166.372 343.199L167.733 344.307L167.059 345.223L167.589 347.078L167.227 347.56L166.516 347.645L165.673 346.753L165.227 346.054L164.636 344.873L163.962 343.789L164.227 342.476L163.142 341.439L164.034 340.596L163.335 339.728L164.118 338.463L163.335 337.258L164.468 336.909L165.673 340.042L166.83 339.114L166.528 338.234L168.227 338.017L167.456 335.836L167.89 334.475L165.841 333.969L166.01 331.523L167.661 330.125V330.125ZM151.537 325.884L151.079 327.438L149.356 328.185L146.994 333.378L146.102 333.439L143.789 336.318L136.136 341.572L133.521 342.765L124.821 343.476L120.169 348.38L118.482 349.211L115.674 348.789L111.143 350.139L109.89 349.802L109.529 347.356L113.096 340.969L118.157 334.909L121.17 332.655L122.808 333.463L128.267 332.318L129.364 333.306L131.485 333.029L133.582 334.041L144.331 326.8L148.067 326.631L151.248 325.329L151.537 325.884V325.884ZM194.414 308.774L204.139 309.569L207.525 313.232L208.73 312.907L212.562 314.244L216.587 317.558L217.888 316.509L214.731 312.533L215.201 312.111L218.407 313.292L217.937 311.437L219.443 310.991L219.033 312.642L220.323 313.497L223.817 314.039L227.565 313.304L225.878 314.955L223.661 315.57L223.106 317.004L224.95 318.787L224.311 320.112L227.216 320.221L227.999 321.859L227.252 322.847L226.577 322.281L225.83 323.317L225.203 322.859L224.492 323.582L218.334 323.185L215.249 325.811L213.249 325.558L210.995 326.414L207.645 329.089L207.38 332.113L205.163 332.788L198.643 332.113L193.594 324.57L190.063 322.691L181.809 323.667L180.495 325.004L180.7 325.631L179.603 325.703L179.652 326.8L178.868 326.318L177.663 327.161L177.193 326.522L176.157 327.643L174.759 325.305L175.458 323.378L173.469 319.919L176.711 315.726L178.121 314.702L181.23 314.473L183.387 311.834L185.098 310.979L187.159 310.882L191.425 308.906L194.414 308.774V308.774ZM142.837 212.392L144.09 214.235L143.789 215.332L142.186 215.007L141.861 211.585L142.837 212.392V212.392ZM132.461 208.669L134.835 208.777L135.184 209.765L136.305 209.175L137.739 209.838L137.775 210.777L141.463 211.38L141.138 213.006L140.234 212.392L139.872 213.862L139.005 214.079L137.956 213.5L137.028 212.332L135.932 212.741L134.293 212.488L133.594 210.271L131.858 208.343L132.461 208.669V208.669ZM60.3858 207.657L61.0607 207.753L60.2533 209.042L60.8558 210.392L57.4936 210.115L59.1687 207.392L60.3858 207.657ZM113.144 200.15L116.819 202.234L119.012 201.656L121.35 206.717L123.592 206.789L124.785 206.873L125.833 206.922L126.845 205.355L128.279 207.09L129.352 207.223L129.713 209.452L128.448 211.295L128.665 214.946L127.713 215.946L125.918 215.886L125.508 217.573L127.508 217.645L127.689 218.633L128.412 219.188L128.774 220.128L126.628 225.405L126.604 227.357L127.665 232.177L127.689 233.418L127.496 236.454L129.557 237.96L128.798 239.274L129.484 240.455L123.29 245.913L123.447 249.564L124.7 251.227L122.869 254.528L116.349 255.914L114.722 258.541L114.819 261.143L113.505 263.047L111.963 262.071L111.529 260.794L108.733 260.348L106.709 257.721L106.865 256.516L104.214 256.842L104.178 254.926L103.467 255.287L102.395 254.323L101.623 253.492L99.9965 253.733L99.7916 249.733L97.4538 249.829L98.7673 245.72L100.117 245.539L103.347 242.19L104.106 242.045L104.696 242.105L105.974 242.358L107.082 243.057L108.36 242.78L109.251 240.792L108.577 239.744L109.239 238.262L110.565 237.948L110.649 236.105L111.613 236.49L111.469 234.02L111.384 233.321L111.481 232.201L110.673 231.345L110.372 230.357L109.276 228.357L107.745 227.996L107.456 222.646L106.251 221.995L105.889 220.2L102.382 218.308L100.31 218.139L97.3212 215.778L93.8386 208.464L96.6705 203.741L100.286 202.548L105.407 202.704L113.144 200.15V200.15ZM66.604 199.764L68.1224 199.692L69.7612 201.885L71.2315 202.307L71.5448 204.5L70.5566 205.307L69.9541 210.006L67.4596 210.078L65.652 208.572L64.9289 210.271L64.1577 207.946L65.1699 205.934L61.3619 201.777L62.0368 200.56L63.8685 201.343L64.8807 200.21L66.604 199.764V199.764ZM150.465 93.2129L151.561 93.0683L151.73 93.6828L149.922 96.3457L150.597 97.4903L151.525 97.3819L152.212 98.5145L155.381 97.9964L158.081 99.4062L156.309 101.25L157.153 101.72L155.164 103.033L153.128 107.455L163.455 114.432L163.528 115.781L164.685 116.046L166.336 120.601L170.601 122.348L169.565 123.228L169.505 126.035L171.397 126.409L172.072 129.794L172.337 130.891L172.457 132.252L176.398 135.915L178.326 139.301L178.748 141.892L177.76 144.302L176.109 144.386L173.012 142.976L172.24 143.711L171.047 143.049L169.89 141.579L168.481 140.277L167.468 138.711L168.276 136.94L169.734 136.831L169.36 134.277L166.468 130.325L164.13 129.096L160.407 130.626L159.961 131.686L160.84 134.216L162.708 136.265L165.094 137.156L169.481 142.663L170.119 145.591L170.143 146.736L170.903 147.302L168.119 149.652L163.648 149.736L155.189 150.784L151.332 148.892L147.416 148.844L142.849 145.41L137.329 143.386L132.051 143.302L130.4 144.928L130.256 143.808L127.858 141.988L125.219 137.193L123.327 135.638L121.338 135.482L121.314 134.638L122.628 134.265L123.531 132.578L124.688 132.132L126.845 133.433L130.268 131.71L132.485 128.168L134.799 127.035L136.185 127.421L139.053 125.746L139.523 124.722L142.547 124.095L144.078 120.203L143.656 118.998L140.571 117.444L134.003 116.878L130.376 118.263L129.039 120.203L128.93 123.42L127.581 124.216L126.797 126.228L125.484 126.384L124.267 131.047L123.531 129.505L122.64 129.987L121.567 131.156L121.266 133.156L120.422 133.59L113.409 131.06L107.299 131.204L106.142 128.3L98.5866 124.806L98.1889 122.553L95.1882 121.456L94.1639 120.143L94.0675 119.348L96.2246 120.42L95.8148 116.239L96.08 114.624L95.4895 113.841L97.2007 112.118L96.5259 110.202L98.9601 108.25L100.057 107.25L101.804 106.286L101.768 104.684L103.792 104.624L103.431 106.274L104.226 106.877L105.48 106.274L107.299 107.479L108.251 106.274L109.577 105.997L111.637 106.997L112.734 105.455L114.156 104.925L114.807 105.708L117.133 104.997L118.868 104.744L122.35 103.274L124.64 103.033L128.629 100.671L130.364 100.563L131.774 98.9242L130.629 97.7916L131.147 95.6468L130.304 94.225L132.196 93.0562L133.485 93.7912L137.462 92.5743L146.271 93.8997L149.079 91.6103L150.465 93.2129V93.2129ZM5.86849 68.6686L10.2308 72.2472L6.79642 76.85L5.42262 77.1512L3.72347 78.8622L2.55455 81.3203L1 76.7777L1.38563 72.1628L3.30169 69.6686L3.85604 67.3191L5.86849 68.6686V68.6686ZM51.1791 4.49427L51.167 5.14494L52.0467 8.71151L48.6967 10.5189L47.9616 12.5432L46.166 13.724L45.4309 16.5315L46.0334 18.616L44.0933 18.1099L42.9485 18.6401L42.6954 21.4596L44.1174 21.556L40.8758 23.3514L41.165 24.9539L42.6111 26.0383L41.0927 26.8938L41.3819 29.1109L44.4669 32.5449L42.2134 33.9667L42.5508 36.6537L36.7062 35.0994L35.2963 33.0871L35.923 31.0388L32.7897 29.8941L32.5608 28.6048L30.934 26.942L29.4517 27.2674L30.3555 25.713L31.9944 25.8214L33.2235 24.8696L32.392 23.7008L34.1756 20.7126L32.5126 19.833L32.838 19.0377L31.7413 18.375L29.2468 18.6521L24.6435 22.4236L27.1018 22.1585L29.0661 23.279L25.8968 23.4718L23.6673 27.3155L24.1615 28.0506L25.2701 27.195L25.9449 28.2313L26.7162 28.5446L26.6198 31.5328L29.5963 34.9307L25.6557 34.1595L21.932 34.774L20.6788 33.1112L18.8953 33.8824L21.5705 27.7975H22.7274L22.9323 26.9179L22.2454 26.4962L20.5463 27.0384L19.9558 28.653L18.6302 29.5567L17.9192 29.3519L18.3651 28.0867L16.9069 27.1228L13.1832 28.7133L12.2915 28.4241L9.66445 29.8941L9.00168 29.617L9.15834 28.5325L11.0985 26.9902L10.5803 25.9901L9.47167 26.7492L9.19449 26.1588L10.4719 24.0984L9.53191 23.4357L10.737 22.3272L9.82112 21.8211L11.2431 20.4716L11.7974 17.652L10.8454 16.1097L9.11013 15.5434L9.58012 13.9409L8.7245 12.2058L9.35116 9.45856L8.96553 8.45849L7.61585 8.43438L8.24248 7.77167L9.45961 8.41028L12.3638 7.20535L15.0511 7.48248L19.1483 5.03649L20.474 5.86789L20.3775 7.55479L21.932 7.04871L22.4985 7.56683L25.0532 6.57879L25.1616 5.73534L27.2223 6.4342L29.1504 5.22928L30.8255 7.68733L32.7777 8.24159L33.6694 7.54273L33.7779 8.41028L32.4764 9.56701L33.1392 10.5791L32.7054 11.3142L35.4409 12.495L33.8261 13.5915L35.5614 14.5915L37.2003 13.3746L37.0918 12.3504L38.2005 11.8443L38.3813 10.8201L39.9478 10.3984V11.2659L38.8994 11.6636L39.4176 12.3022L41.5988 11.0129L41.7796 10.1815L40.466 9.39832L44.1535 5.79559L44.1053 4.26534L43.4666 3.98821L44.0089 3.42189L47.5037 5.25338L49.2751 2.84353L52.2877 1L52.1311 2.34951L50.7693 3.40985L51.1791 4.49427V4.49427Z" stroke="#F5BC2E"/>
</svg>
