<svg width="450" height="450" viewBox="0 0 111 287" fill="none" xmlns="http://www.w3.org/2000/svg">
<path d="M23.2879 21.5907L23.9865 20.8921L25.8044 20.4885L24.7395 21.5533L23.361 21.673L23.2879 21.5907Z" fill="#F5BC2E"/>
<path d="M30.9173 23.9613L30.9727 23.9603L31.8736 23.1709L31.8353 23.0433L35.6691 19.2095L37.1323 19.1606L30.1893 26.1035L30.0314 25.944L29.6467 26.3691L28.6772 26.2014L30.9173 23.9613Z" fill="#F5BC2E"/>
<path d="M23.5088 42.784L23.2395 42.704L22.6024 42.2762L48.0903 16.7883L48.1396 16.8454L49.5009 16.7919L23.5088 42.784Z" fill="#F5BC2E"/>
<path d="M32.3817 43.9112L29.6468 45.2318L53.4814 21.3973L54.0778 22.2151L32.3817 43.9112Z" fill="#F5BC2E"/>
<path d="M43.1407 43.1521L41.6811 43.1976L60.0346 24.844L61.6481 24.6448L43.1407 43.1521Z" fill="#F5BC2E"/>
<path d="M51.3555 43.5231L52.0244 42.8542L52.8565 43.1696L53.2015 43.0913L51.7075 44.5854L52.2998 43.8173L51.3555 43.5231Z" fill="#F5BC2E"/>
<path d="M49.4842 45.3944L49.575 45.3036L51.6281 44.6648L50.8113 45.4815L50.5993 45.4367L49.83 46.0743L49.9616 45.3557L49.4842 45.3944Z" fill="#F5BC2E"/>
<path d="M51.4499 54.843L50.8192 54.0594L59.4901 45.3885L60.626 45.6668L51.4499 54.843Z" fill="#F5BC2E"/>
<path d="M31.0858 95.2071L29.8563 95.0223L35.3605 89.5182L35.7126 90.5803L31.0858 95.2071Z" fill="#F5BC2E"/>
<path d="M38.2095 98.0833L36.7276 98.151L40.9677 93.9109L41.5806 93.9153L44.3136 91.9793L38.2095 98.0833Z" fill="#F5BC2E"/>
<path d="M44.3308 101.962L42.8863 102.194L42.8425 102.036L48.3618 96.5168L49.4976 96.7952L44.3308 101.962Z" fill="#F5BC2E"/>
<path d="M51.2114 105.081L52.5022 103.409L52.4601 102.419L54.7531 100.125L54.7696 100.443L55.6705 100.622L51.2114 105.081Z" fill="#F5BC2E"/>
<path d="M93.9345 72.3583L93.4925 71.3861L107.025 57.8535L106.604 59.0593L106.938 59.3544L93.9345 72.3583Z" fill="#F5BC2E"/>
<path d="M97.959 78.3339L96.7674 78.1112L109.84 65.0385L110.076 65.5062L109.828 66.465L97.959 78.3339Z" fill="#F5BC2E"/>
<path d="M108.643 76.236L107.569 77.3096L108.224 77.469L108.77 76.7099L108.643 76.236Z" fill="#F5BC2E"/>
<path d="M106.928 77.9503L106.321 78.5579L106.898 78.1268L106.928 77.9503Z" fill="#F5BC2E"/>
<path d="M105.194 79.6841L105.035 80.5154L104.428 80.5457L104.403 80.4759L105.194 79.6841Z" fill="#F5BC2E"/>
<path d="M103.133 53.1595L91.3416 64.9513L90.4967 64.3819L105.313 49.5655L105.835 50.4581L103.673 52.6201L103.345 52.5617L103.031 52.9969L103.133 53.1595Z" fill="#F5BC2E"/>
<path d="M104.925 41.3679L103.193 42.4915L103.139 43.1539L85.3075 60.9853L84.3258 61.2555L84.1162 62.1766L82.8163 63.4766L82.4145 62.4641L104.65 40.2288L105.078 41.2149L104.925 41.3679Z" fill="#F5BC2E"/>
<path d="M102.369 32.5097L102.424 32.5833L101.961 34.3321L79.0944 57.1985L79.6393 56.5392L78.9832 55.8954L102.369 32.5097Z" fill="#F5BC2E"/>
<path d="M102.345 12.5332L103.154 13.139L69.6342 46.6587L69.7299 46.2666L67.8877 47.4608L67.629 47.2496L102.345 12.5332Z" fill="#F5BC2E"/>
<path d="M98.2537 8.03915L61.7391 44.5537L61.5813 43.2973L62.8728 42.0058L63.2923 41.6717L63.2472 41.6314L63.8717 41.0069L64.2235 41.0948L65.9544 39.6678L65.5624 39.3162L65.7022 39.1764L65.7215 39.182L65.7199 39.1587L97.3726 7.50603L97.9703 7.72658L98.2537 8.03915Z" fill="#F5BC2E"/>
<path d="M89.8996 4.97903L90.2168 5.02435L90.8473 5.44553L59.981 36.3118L59.1874 35.6912L89.8996 4.97903Z" fill="#F5BC2E"/>
<path d="M82.1837 2.69487L82.7569 3.39489L82.9903 3.30249L69.5054 16.7874L69.0517 16.4102L69.184 15.6946L82.1837 2.69487Z" fill="#F5BC2E"/>
<path d="M74.7743 1.51856L74.2443 1.3606L74.1964 2.09645L74.7743 1.51856Z" fill="#F5BC2E"/>
<path d="M72.9296 3.36322L72.0073 3.58718L71.7537 4.53912L72.9296 3.36322Z" fill="#F5BC2E"/>
<path d="M56.0474 40.2454L56.0449 40.2447L53.899 41.1353L54.4839 41.8089L56.0474 40.2454Z" fill="#F5BC2E"/>
<path d="M60.3463 44.5323L60.1886 44.69L60.7517 44.9407L60.3463 44.5323Z" fill="#F5BC2E"/>
<path d="M68.3887 47.9041L67.999 48.0377L68.1248 48.168L68.3887 47.9041Z" fill="#F5BC2E"/>
<path d="M75.0206 49.858L107.823 17.0559L108.8 17.4928L75.799 50.4938L75.3881 50.0922L75.2565 50.6286L75.0206 49.858Z" fill="#F5BC2E"/>
<path d="M52.5443 72.3343L58.3323 66.5463L59.7195 66.5734L53.2164 73.0765L52.8868 72.4693L52.5443 72.3343Z" fill="#F5BC2E"/>
<path d="M40.0173 84.8613L42.5909 82.2877L44.293 81.9999L40.8489 85.4439L40.1736 84.8571L40.0173 84.8613Z" fill="#F5BC2E"/>
<path d="M44.0025 90.8761L44.7346 91.5582L45.0323 91.2605L44.5159 90.8588L45.0782 91.2146L46.5756 89.7173L46.5909 88.7638L48.2712 87.2659L48.5864 86.2922L44.0025 90.8761Z" fill="#F5BC2E"/>
<path d="M59.1373 75.7413L59.1827 75.7181L59.1798 75.6988L59.1373 75.7413Z" fill="#F5BC2E"/>
<path d="M75.4529 50.8399L75.7373 50.5555L75.1755 50.7197L75.4529 50.8399Z" fill="#F5BC2E"/>
<path d="M42.8768 73.416L42.694 73.3498L41.945 74.0785L41.6685 74.6243L42.8768 73.416Z" fill="#F5BC2E"/>
<path d="M29.6844 86.6084L29.5354 86.5575L28.4118 87.8732L28.4142 87.8786L29.6844 86.6084Z" fill="#F5BC2E"/>
<path d="M49.928 94.9507L50.2958 94.5828L51.5501 94.7428L50.8053 95.4875L50.7207 95.3828L49.8401 95.6156L49.928 94.9507Z" fill="#F5BC2E"/>
<path d="M55.0857 91.2072L54.2837 91.628L54.3241 91.9688L55.0857 91.2072Z" fill="#F5BC2E"/>
<path d="M81.3082 63.5704L81.4182 63.4604L81.3398 63.6237L81.3082 63.5704Z" fill="#F5BC2E"/>
<path d="M44.6295 10.2491L46.2367 9.40664L46.5033 9.78957L38.6429 17.65L38.7059 17.5539L38.3614 16.5172L44.6295 10.2491Z" fill="#F5BC2E"/>
<path d="M22.149 34.1439L22.1969 33.4537L23.1309 33.1619L22.149 34.1439Z" fill="#F5BC2E"/>
<path d="M94.5996 100.279L95.4202 99.4584L95.6625 99.5728L95.9987 100.294L95.0115 101.281L94.5996 100.279Z" fill="#F5BC2E"/>
<path d="M2.74902 232.13L8.27261 226.606L8.70528 227.588L3.50659 232.786L2.74902 232.13Z" fill="#F5BC2E"/>
<path d="M3.51747 242.775L2.94375 241.935L12.5085 232.37L13.3878 232.905L3.51747 242.775Z" fill="#F5BC2E"/>
<path d="M6.65016 249.643L6.02194 249.31L5.87195 249.007L18.1116 236.767L18.8125 237.48L6.65016 249.643Z" fill="#F5BC2E"/>
<path d="M14.4194 251.874L13.7481 251.13L15.6881 249.19L16.3214 249.971L14.4194 251.874Z" fill="#F5BC2E"/>
<path d="M36.1492 278.729L36.7327 278.146L36.9346 278.266L37.262 279.031L36.487 279.806L36.1492 278.729Z" fill="#F5BC2E"/>
<path d="M40.4228 285.87L40.1837 285.34L39.8225 285.056L41.0034 283.875L40.9441 285.349L40.4228 285.87Z" fill="#F5BC2E"/>
<path d="M37.257 279.963L37.8137 278.839L39.6155 280.024L40.5062 283.1L40.3645 286.622L39.6661 285.074L37.0647 283.03L35.2731 277.321L36.4169 277.999L37.257 279.963ZM6.73919 224.035L9.67457 230.695L15.1809 234.045L20.2521 239.206L20.3533 240.097L19.1792 241.878L18.2176 241.635L15.7984 242.111L14.9684 246.655L15.1607 248.912L16.0717 250.036L15.5049 250.137L15.1607 251.949L14.027 251.746L12.8934 250.491L11.3953 251.22L10.7779 250.258L9.87702 251.847L8.69273 249.732L7.37689 250.036L5.50431 249.044L4.60343 247.222L2.52843 244.358L3.28758 242.931L1.83001 240.795L3.14586 239.156L3.69246 239.49L4.16819 238.842L3.04467 236.737L3.88478 234.632L3.35845 232.84L1 230.796L2.43734 227.031L3.90501 225.452L3.75319 224.43L5.25126 224.511L6.29382 223.418L6.73919 224.035ZM92.9585 98.2744L95.1448 99.3067L96.3291 101.847L94.5071 101.047L93.9707 99.7419L92.2803 98.3958L92.9585 98.2744V98.2744ZM54.7884 90.8255L54.09 92.1614L55.0212 92.0906L54.7175 93.8314L55.4463 93.1229L56.2864 93.5075L56.5597 94.7422L57.3391 94.1957L58.4424 95.1268L56.1042 97.1004L52.6425 96.564L52.8146 98.0618L51.8327 97.4344L52.3186 96.564L51.3064 96.483L50.2031 95.1167L49.3225 95.3495L49.4642 94.2767L51.4481 94.5297L54.0191 93.4974L53.766 91.3619L54.7884 90.8255V90.8255ZM45.8506 81.3828L47.4297 82.0912L48.5431 84.5607L47.7536 86.9998L46.0733 88.4977L46.0429 90.3802L44.798 91.0988L43.9983 90.5927L48.8771 94.388L47.8953 95.3596L45.7798 95.2382L46.5693 96.4628L47.4297 96.149L50.608 96.9283L54.1912 99.0031L54.2519 100.177L56.1346 100.552L57.9262 102.373L57.6732 104.104L58.4019 104.509L55.9828 106.209L49.3124 107.515L49.6261 106.199L51.9846 103.142L51.9238 101.715L49.2516 100.875L47.4094 102.313L44.3222 101.614L42.3687 101.928L41.984 100.541L39.1499 100.784L39.0082 98.3655L38.3198 97.7886L35.8805 97.8999L35.2428 97.1105L33.4714 96.9384L31.6697 95.1066L27.0237 94.4082L26.0722 93.2545L26.1937 91.1493L26.9731 89.7628L27.8132 89.5401L28.2788 88.4774L27.8942 87.6071L29.0177 86.2914L33.0159 87.6577L34.7974 89.1151L35.3946 90.9166L38.3198 92.0197L39.6458 93.6391L41.0629 93.6492L44.2919 91.3619L43.4011 90.532L43.4618 88.7609L42.3687 88.2143L42.4699 87.4958L41.1237 85.8663L39.656 84.5911L38.5122 84.6214L40.405 82.3038L45.8506 81.3828V81.3828ZM97.5336 79.5408L98.2624 80.8868L95.9242 80.5427L96.2785 79.5509L97.5336 79.5408V79.5408ZM42.7634 73.2962L44.1096 73.3469L44.7372 75.3204L42.4901 76.545L41.8322 77.628L40.3443 77.294L40.2228 76.1908L41.4273 73.8124L42.1763 73.0837L42.7634 73.2962V73.2962ZM55.3451 66.232L61.0438 66.3433L62.2179 66.5761L62.3192 67.2339L61.3171 69.4402L59.6064 69.7844L60.1733 71.3025L58.3513 73.3874L58.6651 75.452L54.5657 77.547L51.7315 75.9074L52.1061 75.6342L51.6202 75.2597L53.4219 74.7334L53.0778 73.5088L52.3692 72.2032L50.3144 71.3936L48.7455 67.5274L49.4844 66.8999L55.3451 66.232V66.232ZM48.5229 44.0674L49.4541 44.199L48.0673 44.0067L48.5229 44.0674ZM55.5273 39.9786L58.0881 40.6871L59.2016 41.6587L60.1935 40.7984L58.8878 43.3185L60.234 44.6746L59.0295 44.1382L58.7562 45.0694L60.8211 45.5754L59.7785 46.0005L60.1935 46.4458L63.5034 46.3547L59.8089 47.0935L59.5963 48.0247L60.5275 48.8141L59.323 49.2999L59.3028 50.4334L57.5314 50.1905L57.7035 52.1742L56.661 51.4455L55.2945 51.7187L54.839 53.2672H53.5839L51.0837 54.7651L49.7071 53.0547L47.3082 52.3665L47.9054 51.6175L47.5309 50.0893L48.1787 49.5023L47.6726 48.389L53.3207 49.057L56.2763 44.5127L54.0191 44.7759L52.9057 45.7677L50.0817 45.1706L49.3124 45.8082L49.444 45.0896L48.6949 45.1503L51.1343 44.3913L51.7821 43.5513L48.6645 42.5797L49.9096 41.9825L52.3388 42.9035L53.766 42.5797L54.1811 41.7902L53.3814 40.8692L55.5273 39.9786V39.9786ZM77.3605 1.57018L77.6742 1.97504L80.64 1.17549L82.2393 3.12879L84.1827 2.3596L86.4399 4.29268L89.6992 4.75826L92.0475 6.32697L93.2014 5.89178L97.4526 7.46049L101.775 12.2274L105.813 15.2535L106.178 16.2858L108.283 17.2271L108.334 18.0975L107.271 18.3201L106.907 19.2209L108.901 21.5183L107.231 21.9029L107.635 22.8846L106.866 23.4109L106.35 23.8258L105.247 23.7651L102.827 24.8581L99.9427 27.8337L100.277 30.1412L101.906 32.3172L101.41 34.1895L101.734 36.2946L102.554 37.1144L102.483 38.1265L103.344 38.1467L104.579 40.9907L102.676 42.2254L102.473 44.6949L103.364 46.6178L101.714 48.6319L104.589 48.9456L105.955 51.2835L104.589 52.6094L102.827 52.2956L102.514 52.7308L103.111 53.6822L104.052 54.9675L104.994 55.2408L104.963 54.593L105.702 54.3198L105.398 55.7772L106.917 56.4148L106.087 58.7932L107.129 59.7142L105.915 60.4732L107.484 61.3234L107.362 62.3557L109.356 63.4184L109.002 64.1369L109.559 65.2401L108.901 67.7804L108.405 67.8614L109.032 69.42L107.605 69.2682L107.271 70.0374L106.573 70.6446L106.623 71.6365L107.453 71.8389L107.737 72.77L106.775 73.2254L107.767 74.6423L108.253 76.4438L107.706 77.2029L106.542 76.9195L106.38 77.8607L104.741 79.0853L104.518 80.2493L103.91 80.2796L103.587 79.389L102.746 79.7331L100.854 78.8931L99.9123 79.5712L99.0418 78.3668L96.1165 77.8202L95.8736 73.6707L96.7137 72.1729L95.7926 71.7478L94.7602 73.023L93.5455 72.3753L92.7864 70.7053V66.2218L91.8957 65.5842L91.3086 66.1004L91.6325 65.23L89.77 63.975L89.5777 63.1755L87.9886 62.629L86.7334 61.1716L86.4399 62.0824L85.7111 61.9913L84.9115 60.6857L83.8082 60.9894L83.3223 63.1249L82.4012 63.469L81.6623 61.6067L80.8222 63.3577L80.3971 62.6391L81.0853 61.8598L79.5367 61.5258L80.7108 60.8578L80.7918 59.117L79.0812 57.3763L78.1095 57.4977L79.1217 56.2731L77.5022 54.6841L76.9961 54.9675L76.6924 54.1579L77.2997 54.4716L75.9332 52.3462L76.1762 51.1115L74.6579 50.4536L75.3158 50.2613L74.8704 49.8262L74.7389 50.3626L74.4352 49.3707L72.8055 48.2473L73.4938 47.0632L72.0565 46.5673L70.0321 47.7817L69.7892 47.1846L69.4147 48.4699L68.3215 48.642L67.4814 47.7716L68.8985 47.2858L69.2122 46.0005L67.37 47.1947L66.7627 46.6988L66.9854 46.0106L66.0137 46.1725L66.3983 44.6139L65.1533 45.1605L64.8193 44.6544L61.2968 44.8872L61.0336 42.7922L62.7746 41.4056L61.5195 40.2822L63.7059 40.8288L65.4367 39.4017L64.7484 38.7844L65.2039 38.9159L65.0318 36.4869L63.1694 35.1915L61.2968 35.2522L60.0923 36.5375L58.2805 35.1206L57.6124 36.0416L56.4787 35.8493L55.2135 37.3776L51.9036 37.4686L48.9176 40.3632L48.5836 41.6992L46.1037 42.5898L49.0897 43.8144L47.0855 44.1484L46.8325 43.3893L43.6035 43.4602L43.0367 42.8731L40.4354 42.9541L38.6741 43.7739L36.0424 42.9238L33.1273 43.0351L27.4893 45.7576L26.3354 43.5108L22.7219 42.438L20.657 41.0514L21.1226 38.926L22.7016 37.5193L21.4262 36.831L21.6793 33.1876L26.3455 31.7302L27.55 29.9084L30.4551 28.7951L30.5765 26.7507L29.5137 25.6779L29.1291 26.103L27.2565 25.7791L26.8516 23.755L30.4551 23.6943L31.3559 22.9048L31.113 22.0952L27.6209 20.992L22.8433 21.4069L22.3676 20.8705L29.6149 19.2613L31.0725 18.3302L32.9046 19.0185L37.1457 18.8767L38.1883 17.2878L37.0749 13.9378L37.4392 12.5917L39.079 12.0958L40.3341 9.97046L43.6339 10.2336L45.719 9.14055L46.9944 10.9724L46.4074 13.2192L44.5753 13.8265L45.1218 15.6583L46.8527 15.6887L47.622 16.5793L52.2579 16.3972L52.936 21.0932L53.6446 22.0648L57.0861 22.753L58.1489 24.7468L62.3293 24.2307L63.6249 22.1458L65.1027 22.0446L68.0583 20.4556L68.0077 18.5326L69.3742 16.8425L68.5341 16.1442L69.0301 13.4621L68.3215 12.6322L68.8883 8.61428L70.8318 5.79057L71.4897 3.32109L73.6153 2.80492L73.7267 1.0945L75.832 1.72202L77.1985 1.02368L77.3605 1.57018V1.57018Z" stroke="#F5BC2E"/>
</svg>
