<svg width="603" height="356" viewBox="0 0 303 156" fill="none" xmlns="http://www.w3.org/2000/svg">
<path d="M3.55073 17.6927L14.3364 6.90704L14.5547 7.1674L15.2289 7.42872L4.11768 18.5399L3.55211 17.855L3.55073 17.6927Z" fill="#F5BC2E"/>
<path d="M4.22968 27.0138L4.58455 26.9434L4.75789 26.4855L26.9777 4.26572L28.5686 4.08899L1.66207 30.9955L1.51758 30.2732L2.43163 28.8118L4.22968 27.0138Z" fill="#F5BC2E"/>
<path d="M7.47185 35.1858L6.44136 34.8021L30.4843 10.7592L30.7297 11.4789L31.0867 11.5709L7.47185 35.1858Z" fill="#F5BC2E"/>
<path d="M12.2816 40.376L12.0438 39.1997L33.2926 17.9509L33.4488 19.2088L12.2816 40.376Z" fill="#F5BC2E"/>
<path d="M16.7491 45.9085L15.6663 45.5771L45.317 15.9264L45.767 16.8906L16.7491 45.9085Z" fill="#F5BC2E"/>
<path d="M19.3371 63.3205L19.0636 62.1798L53.178 28.0654L53.2901 29.3675L19.3371 63.3205Z" fill="#F5BC2E"/>
<path d="M25.7376 66.92L24.6388 66.6046L70.7958 20.4476L72.3717 19.3832L72.4925 18.7509L85.3443 5.8991L86.6133 6.04431L25.7376 66.92Z" fill="#F5BC2E"/>
<path d="M35.5638 67.0938L33.9485 68.1958L33.0173 68.2262L94.151 7.09241L94.8422 7.81541L35.5638 67.0938Z" fill="#F5BC2E"/>
<path d="M52.5649 60.0927L47.5145 65.1431L46.7832 64.6738H46.5697L98.6984 12.545L99.1191 13.5385L53.2409 59.4167L52.5224 59.3704L52.5649 60.0927Z" fill="#F5BC2E"/>
<path d="M59.5821 63.0755L59.0016 62.2419L103.404 17.839L104.064 18.2193L103.55 19.108L59.5821 63.0755Z" fill="#F5BC2E"/>
<path d="M57.4541 75.2036L56.7773 74.4662L103.259 27.9843L103.213 28.0972L104.666 27.9913L57.4541 75.2036Z" fill="#F5BC2E"/>
<path d="M57.9072 84.7504L58.7512 82.4922L112.586 28.6578L113.032 28.998L114.652 28.0058L57.9072 84.7504Z" fill="#F5BC2E"/>
<path d="M46.1776 106.48L45.1234 106.12L121.181 30.0619L121.936 30.7218L46.1776 106.48Z" fill="#F5BC2E"/>
<path d="M58.5674 104.09L57.9055 103.338L108.686 52.5575L108.608 52.8931L110.461 52.1341L110.468 52.1895L58.5674 104.09Z" fill="#F5BC2E"/>
<path d="M66.4329 106.225L65.5047 105.739L118.448 52.7954L120.471 52.187L66.4329 106.225Z" fill="#F5BC2E"/>
<path d="M73.1086 109.549L72.645 108.942L72.0478 109.661L71.7276 109.516L125.491 55.7521L126.1 56.5578L73.1086 109.549Z" fill="#F5BC2E"/>
<path d="M83.3085 109.349L82.5532 108.69L133.07 58.1739L133.296 58.0345L133.929 58.729L95.0056 97.652L94.7818 97.3841L94.7064 97.9512L83.3085 109.349Z" fill="#F5BC2E"/>
<path d="M91.9577 110.7L90.8646 110.43L90.8638 110.38L92.9302 108.313L92.7473 109.256L93.2432 108.618L93.7837 108.874L91.9577 110.7Z" fill="#F5BC2E"/>
<path d="M104.989 107.669L104.975 107.657L104.642 106.601L148.399 62.844L149.972 62.6854L104.989 107.669Z" fill="#F5BC2E"/>
<path d="M108.1 114.557L107.599 113.645L112.238 109.005L111.708 110.949L108.1 114.557Z" fill="#F5BC2E"/>
<path d="M116.258 106.4L114.847 107.81L114.641 107.232L113.69 108.173L113.311 107.932L155.125 66.1184L155.085 67.5723L117.848 104.809L115.451 105.926L116.258 106.4Z" fill="#F5BC2E"/>
<path d="M120.961 111.697L120.562 110.681L157.011 74.2325L157.042 75.0476L157.599 75.0582L120.961 111.697Z" fill="#F5BC2E"/>
<path d="M126.806 115.852L126.494 114.893L126.394 114.849L169.102 72.1411L169.862 72.796L126.806 115.852Z" fill="#F5BC2E"/>
<path d="M130.6 122.058L130.34 122.008L129.108 122.135L176.608 74.6357L177.671 74.9767L177.676 74.9819L130.6 122.058Z" fill="#F5BC2E"/>
<path d="M144.828 127.829L143.833 128.05L143.433 127.811L145.388 125.855L145.635 125.996L145.995 126.662L144.828 127.829Z" fill="#F5BC2E"/>
<path d="M154.12 128.537L152.701 128.543L189.677 91.5661L191.12 91.5379L154.12 128.537Z" fill="#F5BC2E"/>
<path d="M163.475 129.183L161.657 129.587L199.927 91.3164L200.61 92.0477L163.475 129.183Z" fill="#F5BC2E"/>
<path d="M174.82 127.838L173.357 127.886L176.104 125.139L176.457 126.201L174.82 127.838Z" fill="#F5BC2E"/>
<path d="M187.209 125.448L185.9 125.5L185.827 125.416L206.559 104.684L206.967 105.691L187.209 125.448Z" fill="#F5BC2E"/>
<path d="M191.821 130.837L191.221 130.023L211.216 110.028L211.995 109.995L211.948 110.709L210.654 112.004L209.758 112.221L209.511 113.146L191.821 130.837Z" fill="#F5BC2E"/>
<path d="M199.375 133.283L197.761 133.482L206.948 124.296L206.812 125.044L207.25 125.408L199.375 133.283Z" fill="#F5BC2E"/>
<path d="M239.849 102.809L239.678 102.667L236.702 104.803L236.43 104.813L256.22 85.023L257.031 85.6269L239.849 102.809Z" fill="#F5BC2E"/>
<path d="M244.731 107.927L244.418 106.825L257.081 94.1624L257.209 95.449L244.731 107.927Z" fill="#F5BC2E"/>
<path d="M249.893 112.765L248.898 112.345L257.132 104.112L258.026 104.631L249.893 112.765Z" fill="#F5BC2E"/>
<path d="M257.044 125.613L256.81 124.433L262.952 118.292L262.838 119.701L262.888 119.769L257.044 125.613Z" fill="#F5BC2E"/>
<path d="M258.043 134.614L256.633 134.912L256.513 134.731L264.978 126.265L266.139 126.519L258.043 134.614Z" fill="#F5BC2E"/>
<path d="M264.024 138.633L263.384 138.272L262.884 138.359L270.738 130.505L271.554 131.104L264.024 138.633Z" fill="#F5BC2E"/>
<path d="M265.155 146.088L266.368 144.875L266.775 145.053L266.7 145.958L265.53 147.128L265.105 146.875L265.155 146.088Z" fill="#F5BC2E"/>
<path d="M260.858 150.386L264.174 147.069L265.058 147.6L261.221 151.437L260.742 150.741L260.858 150.386Z" fill="#F5BC2E"/>
<path d="M268.947 143.71L268.517 142.726L278.908 132.335L280.318 132.2L280.414 132.244L268.947 143.71Z" fill="#F5BC2E"/>
<path d="M271.524 151.133L270.666 150.577L288.591 132.653L289.742 132.868L289.877 132.781L271.524 151.133Z" fill="#F5BC2E"/>
<path d="M282.176 150.482L281.724 149.52L292.705 138.538L292.363 140.003L292.462 140.196L282.176 150.482Z" fill="#F5BC2E"/>
<path d="M290.451 150.793L288.544 152.699L288.831 152.674L289.489 152.259L290.501 151.439L290.451 150.793Z" fill="#F5BC2E"/>
<path d="M287.812 153.431L287.647 153.949L286.657 154.587L287.812 153.431Z" fill="#F5BC2E"/>
<path d="M259.749 111.494L260.305 112.353L254.309 118.348L253.928 117.316L259.749 111.494Z" fill="#F5BC2E"/>
<path d="M253.987 118.671L253.243 119.415L253.363 119.063L253.987 118.671Z" fill="#F5BC2E"/>
<path d="M298.588 52.6557L299.389 53.2689L294.178 58.4801L293.983 58.1256L293.227 58.0164L298.588 52.6557Z" fill="#F5BC2E"/>
<path d="M292.714 48.529L293.789 48.8687L290.697 51.9603L290.369 51.8203L288.973 52.8223L288.837 52.4063L292.714 48.529Z" fill="#F5BC2E"/>
<path d="M290.498 40.7456L291.325 41.3326L283.345 49.3129L283.163 48.2679L282.201 49.0978L282.184 49.0593L290.498 40.7456Z" fill="#F5BC2E"/>
<path d="M284.649 36.5944L285.476 37.1814L281.198 41.4594L281.108 41.4263L280.801 40.4426L284.649 36.5944Z" fill="#F5BC2E"/>
<path d="M240.121 71.1221L240.802 71.4142L240.761 70.5944L242.134 70.5236L210.825 101.833L210.365 101.888L209.292 103.295L208.037 103.224L208.031 103.212L240.121 71.1221Z" fill="#F5BC2E"/>
<path d="M230.49 70.7539L231.511 71.1463L205.306 97.3518L204.595 96.7061L204.12 97.3639L203.969 97.2746L230.49 70.7539Z" fill="#F5BC2E"/>
<path d="M222.477 68.7666L223.369 69.289L205.887 86.7701L205.881 86.6966L205.219 86.0248L222.477 68.7666Z" fill="#F5BC2E"/>
<path d="M216.232 65.0116L216.337 65.1697L217.147 65.5107L200.181 82.4761L199.818 82.122L198.951 82.2922L216.232 65.0116Z" fill="#F5BC2E"/>
<path d="M209.152 62.0911L209.829 62.4775L210.256 62.4014L194.478 78.1799L194.123 77.1202L209.152 62.0911Z" fill="#F5BC2E"/>
<path d="M202.706 58.5375L202.753 58.5507L202.631 60.0263L189.462 73.1959L189.016 72.2278L202.706 58.5375Z" fill="#F5BC2E"/>
<path d="M196.194 55.0491L196.336 55.7978L196.98 55.6776L184.134 68.5238L183.412 67.8314L196.194 55.0491Z" fill="#F5BC2E"/>
<path d="M190.549 50.6942L190.85 51.2637L191.135 51.5229L179.542 63.116L179.02 62.2239L190.549 50.6942Z" fill="#F5BC2E"/>
<path d="M187.849 43.3944L187.98 44.6773L173.713 58.945L172.864 58.3793L187.849 43.3944Z" fill="#F5BC2E"/>
<path d="M183.858 37.3853L184.098 37.8638L184.672 37.9853L168.356 54.3021L167.71 53.5336L183.858 37.3853Z" fill="#F5BC2E"/>
<path d="M179.748 31.4951L179.908 31.7306L180.698 31.9594L161.84 50.8178L161.628 50.7374L160.008 51.2351L179.748 31.4951Z" fill="#F5BC2E"/>
<path d="M170.048 31.1955L171.665 30.9925L152.854 49.8036L152.522 48.7214L170.048 31.1955Z" fill="#F5BC2E"/>
<path d="M146.595 44.6481L148.459 43.9869L148.659 43.9987L146.068 46.5893L145.776 46.4664L144.562 47.3874L144.469 48.189L140.124 52.5337L138.762 52.4813L146.595 44.6481Z" fill="#F5BC2E"/>
<path d="M141.307 59.9368L100.349 100.894L100.922 101.735L142.288 60.3698L142.183 60.2105L141.307 59.9368Z" fill="#F5BC2E"/>
<path d="M94.6671 106.576L94.0494 107.194L94.8122 107.171L94.6671 106.576Z" fill="#F5BC2E"/>
<path d="M177.873 83.37L139.269 121.975L139.703 121.957L139.97 122.688L178.141 84.5167L177.964 83.3669L177.873 83.37Z" fill="#F5BC2E"/>
<path d="M183.094 88.1496L182.206 89.0369L183.117 88.9434L183.602 88.3969L183.094 88.1496Z" fill="#F5BC2E"/>
<path d="M179.682 91.5613L146.764 124.479L148.155 124.503L182.047 90.6106L181.629 90.8562L180.657 91.5546L179.682 91.5613Z" fill="#F5BC2E"/>
<path d="M138.841 122.402L138.59 123.526L138.1 123.143L138.841 122.402Z" fill="#F5BC2E"/>
<path d="M203.205 98.0385L182.264 118.98L183.997 118.071L184.239 118.419L203.435 99.2222L203.148 98.7606L203.755 98.8213L203.624 98.1027L203.205 98.0385Z" fill="#F5BC2E"/>
<path d="M217.785 103.458L249.507 71.7365L250.481 72.1762L218.838 103.82L217.785 103.458Z" fill="#F5BC2E"/>
<path d="M227.655 103.589L228.565 104.093L251.779 80.8785L251.147 80.2091L251.145 80.0983L227.655 103.589Z" fill="#F5BC2E"/>
<path d="M284.326 56.917L284.445 56.7987L284.387 56.9819L284.326 56.917Z" fill="#F5BC2E"/>
<path d="M290.541 60.7026L291.341 61.3167L291.431 61.2267L291.341 59.9021L290.541 60.7026Z" fill="#F5BC2E"/>
<path d="M301.199 60.0441L301.8 59.4433L301.908 59.8664L301.199 60.0441Z" fill="#F5BC2E"/>
<path d="M137.561 33.6828L138.105 34.5531L124.503 48.1543L124.206 48.0756L123.694 47.5491L137.561 33.6828Z" fill="#F5BC2E"/>
<path d="M127.68 33.5631L129.093 33.5647L117.519 45.1387L117.283 44.8269L116.523 44.7207L127.68 33.5631Z" fill="#F5BC2E"/>
<path d="M138.753 42.4899L144.62 36.6236L146.414 36.1736L146.703 35.9545L139.983 42.6747L138.753 42.4899Z" fill="#F5BC2E"/>
<path d="M148.96 33.6973L149.056 33.1778L149.561 33.097L148.96 33.6973Z" fill="#F5BC2E"/>
<path d="M121.678 50.98L121.625 50.8487L120.663 51.9942L121.678 50.98Z" fill="#F5BC2E"/>
<path d="M40.8413 70.4021L40.8213 70.4629L40.7612 70.4822L40.8413 70.4021Z" fill="#F5BC2E"/>
<path d="M81.0682 1.58936L81.0159 1.59083L81.0104 1.64716L81.0682 1.58936Z" fill="#F5BC2E"/>
<path d="M50.0723 21.1712L51.2522 21.4054L23.7315 48.9261L23.2388 48.0046L50.0723 21.1712Z" fill="#F5BC2E"/>
<path d="M21.0636 51.594L19.1762 53.4815L19.5246 51.7495L21.0636 51.594Z" fill="#F5BC2E"/>
<path d="M263.636 146.791L264.749 147.459L265.215 148.815L264.689 150.991L263.524 151.325L262.229 150.637L261.925 151.578L260.761 151.254L260.225 150.475L261.47 146.639L262.31 146.76L262.715 146.012L263.636 146.791V146.791ZM265.539 144.473L266.257 144.787L266.035 147.469L264.587 146.609L264.709 144.716L265.539 144.473V144.473ZM295.368 61.4523L296.31 61.5231L296.249 62.6162L293.395 62.0292L293.971 60.673L295.368 61.4523ZM285.317 52.1007L283.87 56.7158L282.807 55.5822L284.73 52.1513L285.317 52.1007V52.1007ZM271.652 50.9773L273.231 52.3942L271.713 53.4467L270.468 52.2828L271.652 50.9773ZM284.052 36.2717L292.18 42.0406L291.218 44.2874L291.836 47.1212L291.046 47.8803L291.583 48.6697L292.139 48.2447L293.516 48.6798L294.528 50.4712L295.419 50.3599L299.954 53.8313L300.48 55.3089L301.381 55.6733L301.725 57.4647L300.966 57.9404L301.391 59.6002L297.393 60.6021L297.109 59.4383L295.905 60.845L294.66 60.0354L293.465 57.8594L292.554 57.7278L291.188 58.75L290.743 58.4363L290.925 61.1284L289.487 60.0252L289.73 58.7905L288.779 58.8917L288.87 57.9707L288.01 58.5173L287.564 57.8999L287.777 56.8473L288.415 57.2319L289.143 56.1287L290.348 56.3008L291.046 55.6328L290.682 51.9084L289.852 51.5541L288.455 52.5561L287.888 50.8153L287.058 51.3618L286.178 50.9874L285.094 51.9893L285.763 49.9854L283.07 50.4409L282.645 48.0017L281.683 48.8316L281.025 47.3237L280.155 47.8803L278.606 47.7184L278.454 47.1719L280.519 45.5728L280.641 43.9939L281.855 43.2349L281.724 41.5751L280.59 41.1601L280.195 39.895L281.208 38.1643L280.813 37.7089L281.947 37.2231L282.22 36.2717L283.151 36.292L283.465 35.1888L284.052 36.2717V36.2717ZM176.182 28.6811L177.67 28.9241L179.39 31.4644L182.781 32.4461L183.004 33.5999L182.326 35.0977L183.581 37.5976L187.69 38.468L188.065 40.0873L187.245 42.2835L187.468 44.4595L188.53 46.4128L189.371 46.6962L188.399 47.3338L190.332 50.9975L192.468 52.9407L195.535 54.0338L195.818 55.5316L196.577 55.3899L197.63 56.6247L199.644 57.1206L200.798 58.9423L201.396 58.0517L202.236 58.2845L202.043 60.6123L203.552 59.8329L205.576 61.7458L206.851 62.0292L207.398 61.1183L209.311 62.2113L210.789 61.9482L212.631 60.1163L215.819 64.9035L216.973 65.3893L216.71 66.1989L217.378 67.3224L218.947 68.1522L221.71 68.3547L226.721 71.2897L229.899 70.4598L235.355 72.5548L237.744 70.9658L237.784 70.0752L240.284 71.148L240.244 70.3282L241.813 70.2473L242.127 70.7432L243.574 69.4882L243.716 70.055L246.57 70.3788L253.524 73.5163L253.504 74.2956L252.137 74.3259L250.578 76.259L250.629 79.943L253.929 83.4346L260.488 88.323L256.469 92.9482L256.834 96.622L256.065 97.1787L256.378 98.3729L255.913 98.7676L256.247 99.5773L257.472 99.7393L258.261 101.905L256.803 101.642L255.973 103.474L258.676 105.043L258.605 106.348L259.293 107.138L258.99 108.909L258.069 109.911L259.476 110.66L259.172 111.135L260.022 112.451L261.115 112.431L260.721 113.858L262.624 115.69L262.32 119.434L262.887 120.204L261.824 120.973L261.966 122.43L264.152 125.932L266.328 126.408L266.571 127.318L268.089 127.966L269.162 127.288L269.83 128.492L269.193 129.484L271.136 130.911L275.357 129.626L275.944 130.972L278.009 132.106L279.801 131.934L281.258 132.612L285.378 131.883L289.224 132.601L292.524 130.476L293.071 130.82L293.01 132.996L291.552 136.63L292.2 138.219L291.846 139.737L292.858 141.72L292.403 146.052L290.894 147.681L291.34 148.532L289.902 150.131L289.983 151.173L288.971 151.993L288.313 152.408L287.514 152.479L287.129 153.683L285.935 154.452L284.204 154.584L282.22 153.41L282.645 152.317L281.005 148.825L277.311 147.337L274.912 148.218L275.226 149.139L274.476 149.301L274.365 150.495L275.043 151.426L275.883 151.365L274.396 152.216L274.426 153.329L273.302 153.066L273.211 152.297L270.073 150.262L269.507 147.479L268.504 146.973L268.089 147.52L267.017 145.799V145.01L268.565 143.755L267.3 140.86L265.458 141.012L265.144 139.291L262.867 138.006L257.583 138.927L258.757 134.727L258.129 134.221L256.115 134.646L255.66 133.958L256.814 131.741L258.119 131.448L258.555 129.828L258.2 128.118L256.874 127.096L256.287 124.14L253.949 122.602L252.137 122.865L253.008 124.474L251.54 123.776L250.943 125.061L249.971 123.594L251.985 121.307L252.846 118.797L253.828 118.179L253.342 116.864L251.975 116.58L252.157 117.309L251.297 117.441L250.67 119.363L249.607 120.042L248.544 118.938L249.232 118.584L248.706 118.078L249.141 117.289L248.088 116.783L249.06 115.74L249.86 115.821L250.386 114.07L249.364 114.374L249.455 112.532L247.39 111.662L246.378 112.228L245.983 111.328L244.07 111.894L241.509 111.156L241.894 110.214L242.491 110.639L244.809 109.759L243.898 106.551L244.768 105.164L243.938 103.514L241.155 104.061L239.161 102.401L236.185 104.537L229.788 104.79L226.478 102.958L223.492 102.33L220.415 104.273L211.963 101.369L209.847 101.622L208.775 103.029L207.519 102.958L205.92 99.6481L205.09 99.213L205.08 97.3507L204.078 96.4399L203.602 97.0977L202.884 96.6727L202.58 97.5025L202.003 97.2698L202.155 96.4095L202.134 95.6909L203.44 93.9603L204.321 94.7497L205.333 94.1121L205.667 91.8147L206.345 90.5799L206.244 89.7905L205.667 89.8614L205.363 86.4304L203.258 84.2949L203.096 83.2221L200.474 82.9995L199.3 81.8558L196.466 82.4124L195.11 81.3498L193.237 75.753L189.401 73.9211L187.62 70.055L183.844 68.4761L180.362 65.1363L177.892 60.9159L175.868 59.9645L174.289 60.3086L173.894 59.1447L169.886 56.4729L166.586 52.546L161.11 50.4712L156.039 52.0298L152.567 50.289L151.555 46.9897L147.83 47.2832L145.259 46.2002L144.044 47.1212L143.943 47.9916L146.909 48.3155L147.941 49.5705L147.688 50.8052L144.743 52.465L138.163 52.212L133.072 53.801L133.548 50.9773L135.056 48.528L139.722 47.7285L140.107 46.9188L142.88 46.1294L143.093 45.4412L147.941 43.7207L149.308 43.8016L149.804 43.3158L151.798 41.9293V40.6237L152.992 39.814L155.978 40.1683L156.96 35.4317L160.401 32.6384L162.922 32.3145L165.037 33.0331L167.295 32.8914L169.38 30.9482L171.799 30.6446L174.005 28.9443L176.182 28.6811V28.6811ZM3.01429 13.9756L7.35662 11.1216L7.30602 9.26947L8.77371 9.4719L9.61384 8.27762L12.4278 6.85062L12.9339 5.58552L14.0372 6.90121L16.8308 7.98414L17.7216 7.70076L18.4402 6.01057L19.6346 5.08958L22.3372 4.99849L23.9871 3.42978L26.1228 4.03701L28.5825 3.76376L30.5866 6.42553L29.1594 8.12582L30.2121 11.2127L34.099 12.2146L32.5908 16.2022L32.9957 19.4611L37.3178 20.6048L40.1013 19.0765L42.7229 15.0586L44.6461 15.3318L46.134 18.5199L47.8143 19.0057L48.705 20.7363L51.4076 21.2727L52.2781 23.3576L52.8348 29.8248L53.4421 30.3916L57.0456 28.7318L58.6347 29.2682L59.738 27.9524L60.5883 28.3877L61.7017 27.8108L62.4811 27.2136L61.6309 26.2218L61.4385 24.147L63.2909 23.0641L64.0702 21.5662L67.6737 21.9407L71.8541 19.117L72.1577 17.528L71.4492 14.6537L74.4149 12.9231L74.7895 11.071L76.9758 9.13789L78.3423 5.69683L80.1946 4.48232L80.4983 1.32464L81.9356 1.28418L83.9701 5.53489L93.4342 6.61783L94.7501 7.99424L94.993 10.1297L97.7766 11.324L98.8394 13.834L98.3231 16.7488L99.6896 17.3863L101.178 16.5868L103.546 17.9531L102.463 19.8255L103.03 20.6857L102.625 22.0925L103.445 22.5682L103.576 25.655L102.696 27.831L107.139 27.5071L110.014 28.2156L111.279 27.7905L112.514 28.7318L114.943 27.244L118.446 26.9201L120.197 27.6286L120.015 29.2277L122.282 31.2113L124.377 31.7275L125.683 31.1709L126.553 33.2962L135.603 33.3064L136.493 32.5372L138.568 35.8568L142.789 36.6867L145.897 35.9074L148.326 34.0654L148.538 32.9117L150.624 32.5777L149.672 36.0187L148.154 37.1624L147.85 39.7128L145.917 38.7716L143.973 40.5832L142.921 39.7027L142.506 40.4921L143.255 41.5244L141.716 41.8888L141.261 42.6782L135.603 41.8281L133.942 43.7713L134.206 45.6436L133.204 46.2711L130.926 46.4937L129.216 47.607L128.193 47.2629L126.746 48.6191L123.689 47.8094L122.262 46.3419L120.895 47.4653L118.618 47.0099L116.765 44.5607L114.518 44.2469L113.992 43.5587L112.656 43.8725L110.146 46.1901L107.676 46.9998L107.575 47.8601L108.243 48.2042L105.732 49.7526L107.038 49.9652L109.285 48.6495L110.297 48.9632L107.919 50.8761L108.486 50.9165L108.091 52.6269L109.943 51.8679L110.186 53.6997L111.289 53.6289L111.877 52.1816L111.542 51.5643L112.393 51.544L112.089 52.799L112.828 54.1552L114.822 52.3436L116.361 53.0014L119.994 51.9084L121.108 50.5826L122.039 52.9205L123.709 53.8111L127.515 58.8512L128.588 59.246L129.479 58.5274L131.199 58.7399L132.778 57.7683L136.493 61.847L139.591 59.2965L141.666 59.9443L142.961 61.9178L145.694 62.7984L150.512 62.3126L151.848 61.5029L154.622 65.3286L154.5 69.7716L156.474 73.4657L156.525 74.7814L157.588 74.8016L158.559 76.7043L160.027 75.2469L160.644 75.7226L161.11 74.4373L163.337 74.1741L164.349 74.1235L166.06 73.6883L166.191 73.0102L163.813 70.9355L166.768 70.308L171.485 74.3765L174.188 73.7592L177.153 74.7105L179.289 77.0484L179.633 78.9005L178.034 80.5098L176.566 80.8842L174.896 82.9185L174.532 84.8718L175.696 83.1614L177.447 83.1007L177.72 84.8819L178.408 85.2564L178.449 86.2482L178.55 86.7948L179.178 87.4222L180.109 86.6834L183.085 88.1307L182.599 88.6772L178.955 89.0517L178.672 91.2985L180.139 91.2884L181.111 90.5901L182.214 89.9423L185.383 90.0132L186.121 91.3592L190.788 91.2681L192.134 92.6851L195.454 93.4846L197.61 90.0233L198.885 90.4888L202.59 94.4562L202.175 95.5796L201.062 95.5087L200.019 96.5815L200.464 97.4317L203.106 97.8365L203.238 98.5551L202.63 98.4944L203.582 100.023L202.823 100.913L204.432 100.711L206.234 101.591L205.819 103.869L206.983 106.743L210.283 109.779L211.477 109.728L211.366 111.439L209.24 111.955L208.582 114.425L206.639 117.248L206.072 121.266L206.78 122.096L206.295 124.778L207.135 125.476L205.768 127.167L205.819 129.09L202.863 130.679L201.385 130.78L200.09 132.865L195.909 133.381L194.847 131.397L191.405 130.709L190.697 129.747L190.018 125.051L185.383 125.234L184.613 124.353L182.882 124.323L182.336 122.491L184.168 121.884L184.755 119.637L183.48 117.805L181.394 118.898L178.095 118.635L176.84 120.77L175.2 121.266L174.835 122.612L175.949 125.962L174.906 127.551L170.665 127.693L168.833 127.005L167.375 127.936L160.128 129.545L161.667 127.875L158.883 125.031L154.784 129.231L153.994 128.27L151.292 128.28L153.407 126.529L151.231 125.203L150.947 124.292L146.14 124.211L145.218 124.181L144.318 123.169L143.154 124.12L141.959 123.887L141.342 125.578L142.516 126.023L143.052 125.021L143.801 124.98L145.117 125.729L145.917 127.207L143.315 127.784L140.876 126.327L139.186 121.691L138.416 121.722L138.072 123.26L136.544 122.066L134.165 122.916L131.037 121.975L129.823 121.742L128.547 121.873L127.13 120.335L128.365 118.999L128.993 118.311L130.268 117.815L130.258 117.066L126.361 115.811L125.976 114.627L120.804 112.35L119.62 109.334L120.45 108.737L120.085 106.915L117.606 104.415L114.933 105.66L116.674 106.682L115.652 108.635L114.599 108.301L114.124 106.965L113.172 107.907L112.615 107.553L111.856 108.241L111.026 111.287L112.99 112.34L111.289 113.686L111.269 115.659L110.844 116.712L107.969 116.297L107.99 115.032L106.643 112.583L104.902 111.156L105.206 110.417L106.765 110.265L106.714 109.364L104.457 107.391L103.698 104.982L101.724 103.403L99.1835 99.6785L95.7926 99.1725L95.742 97.7657L94.8816 97.8568L94.2642 97.1179L94.0112 99.0207L94.7197 99.5166L94.9829 101.166L95.6509 101.389L94.3755 101.885L93.667 101.46L91.7034 103.838L92.9585 105.761L93.8897 105.245L94.2946 106.905L92.6244 106.955L92.2297 108.99L92.7257 108.352L93.667 108.797L92.2398 109.769L92.0677 110.589L90.347 110.164L90.3267 108.737L87.1383 109.314L84.9014 107.907L84.9317 108.909L83.7981 109.961L80.5489 107.127L79.7897 108.352L78.7067 107.522L75.5385 109.951L74.6174 111.935L72.1274 108.676L71.5302 109.394L70.2548 108.818L70.6799 108.656L70.3257 107.633L69.4349 107.451L69.2426 106.621L68.0685 106.834L67.6534 106.237L67.2587 106.662L63.8374 104.87L62.471 103.413L58.1691 103.96L57.2075 102.867L53.9685 102.199L51.8834 102.087L48.3913 106.237L46.4681 106.49L44.4234 105.791L44.2918 105.043L46.3162 102.441L47.1766 94.861L55.3856 91.177L57.4606 89.4565L56.6812 86.3798L58.493 81.5319L58.1489 80.702L54.3936 79.275L55.3451 77.6253L57.4201 77.0788L57.5922 75.6518L56.1245 74.0527L55.9929 71.5225L56.6812 70.146L56.0334 68.7089L57.0253 66.2799L59.404 65.0654L59.4445 63.355L56.9848 59.8228L54.6467 60.2682L53.7357 59.2156L52.0048 59.1042L52.268 63.5777L51.8327 64.023L47.9054 65.4601L46.2656 64.4076H42.2067L40.3038 70.1967L37.0647 71.2391L36.589 71.1278L36.4979 67.545L35.9817 66.8264L35.3744 66.6038L33.4309 67.9296L30.0198 68.0409L27.9853 66.6038L25.222 66.6544L20.991 65.4399L19.088 64.1748L17.6203 58.0517L16.76 56.8878L18.3188 54.9041L19.0071 51.4833L22.8129 51.0987L23.5518 50.6534L23.5114 49.2162L22.651 47.607L14.3509 45.0667L11.9723 41.1398L11.0208 36.4337L5.23101 34.2779L1.34414 31.7275L1 30.007L2.94342 26.8999L4.06697 26.6772L6.1015 21.3031L3.03453 17.5888L3.00417 14.0364L3.01429 13.9756V13.9756Z" stroke="#F5BC2E"/>
</svg>
