<svg width="370" height="310" viewBox="0 0 220 180" fill="none" xmlns="http://www.w3.org/2000/svg">
<path d="M19.9026 43.6976L29.4248 34.1753L30.436 33.8864L33.25 31.751L33.4423 30.5769L34.071 30.9433L9.90891 55.1054L9.8373 53.7629L12.2452 51.3549L13.9574 50.3327L14.0529 49.5472L16.71 46.8901L17.1762 46.5374L17.1731 46.4271L18.3249 45.2753L18.5224 45.3027L20.0306 44.0275L19.9026 43.6976Z" fill="#F5BC2E"/>
<path d="M8.67875 64.9214L9.94908 64.2286L10.3438 63.2874L12.3379 61.9514L12.164 61.4361L38.8899 34.7103L39.4244 35.1414L40.079 34.9353L3.88541 71.1289L3.3291 70.2711L8.67875 64.9214Z" fill="#F5BC2E"/>
<path d="M8.49937 76.5149L7.58053 76.2217L7.31002 76.2902L52.5702 31.03L52.8259 31.417L53.3875 31.6268L8.49937 76.5149Z" fill="#F5BC2E"/>
<path d="M10.9972 84.0171L10.7476 82.8525L59.8287 33.7715L60.711 34.0787L61.4296 33.4108L61.545 33.4693L10.9972 84.0171Z" fill="#F5BC2E"/>
<path d="M17.5868 87.4275L16.5295 87.0707L68.1489 35.4513L68.8491 35.3641L69.4037 35.6106L17.5868 87.4275Z" fill="#F5BC2E"/>
<path d="M17.5064 97.5079L17.6823 96.3621L17.5414 96.0588L79.0114 34.5888L79.7011 35.3132L17.5064 97.5079Z" fill="#F5BC2E"/>
<path d="M19.4811 105.533L18.8959 104.704L91.5441 32.0561L92.1604 32.8539L19.4811 105.533Z" fill="#F5BC2E"/>
<path d="M23.584 111.43L22.4164 111.184L122.877 10.7227L123.835 11.179L23.584 111.43Z" fill="#F5BC2E"/>
<path d="M29.7218 115.293L28.9988 114.601L131.14 12.4597L131.18 12.4607L132.949 12.0651L29.7218 115.293Z" fill="#F5BC2E"/>
<path d="M37.2157 117.799L37.2279 117.737L36.2213 117.379L148.974 4.62622L149.406 5.60877L37.2157 117.799Z" fill="#F5BC2E"/>
<path d="M38.805 126.209L38.2501 125.35L161.785 1.81493L162.194 1.90473L163.282 1.7323L38.805 126.209Z" fill="#F5BC2E"/>
<path d="M42.1382 132.876L41.6929 131.907L170.559 3.04088L171.092 2.96741L171.589 3.42537L42.1382 132.876Z" fill="#F5BC2E"/>
<path d="M41.7122 141.888L43.0987 141.147L43.2874 140.313L175.888 7.7117L176.023 8.99177L38.6997 146.315L38.5235 146.328L37.8757 146.349L37.6176 145.983L41.7122 141.888Z" fill="#F5BC2E"/>
<path d="M49.3467 155.668L47.5321 156.439L47.428 156.172L51.9443 151.656L51.8137 152.371L50.1125 154.902L49.3467 155.668Z" fill="#F5BC2E"/>
<path d="M61.5001 153.514L61.6321 152.482L61.1495 152.451L87.8695 125.731L88.0606 126.188L87.1107 127.904L61.5001 153.514Z" fill="#F5BC2E"/>
<path d="M61.8888 163.125L60.9489 162.651L81.2405 142.36L81.4471 143.567L61.8888 163.125Z" fill="#F5BC2E"/>
<path d="M68.9504 166.064L68.3025 165.72L68.1146 165.486L78.7097 154.89L79.0637 155.951L68.9504 166.064Z" fill="#F5BC2E"/>
<path d="M72.9881 172.026L72.7411 170.859L80.4509 163.149L80.9651 163.807L81.0174 163.997L72.9881 172.026Z" fill="#F5BC2E"/>
<path d="M80.7108 174.304L79.0108 174.589L84.193 169.407L84.9495 170.065L80.7108 174.304Z" fill="#F5BC2E"/>
<path d="M136.565 138.449L136.444 138.444L135.746 137.855L183.575 90.0248L184.555 90.4588L136.565 138.449Z" fill="#F5BC2E"/>
<path d="M144.117 140.897L143.691 140.883L143.238 140.362L188.728 94.8723L189.336 95.6782L144.117 140.897Z" fill="#F5BC2E"/>
<path d="M147.839 145.761L148.016 145.584L148.924 145.519L149.165 145.85L148.107 146.907L147.839 145.761Z" fill="#F5BC2E"/>
<path d="M146.994 158.02L146.94 157.158L146.543 157.057L152.1 151.5L152.966 152.048L146.994 158.02Z" fill="#F5BC2E"/>
<path d="M150.78 164.234L150.37 163.23L157.831 155.77L158.419 156.595L150.78 164.234Z" fill="#F5BC2E"/>
<path d="M151.081 173.933L150.726 174.1L152.367 171.233L161.325 162.275L161.964 163.05L151.081 173.933Z" fill="#F5BC2E"/>
<path d="M161.989 173.026L161.046 172.554L167.063 166.538L168.002 167.012L161.989 173.026Z" fill="#F5BC2E"/>
<path d="M168.656 176.359L167.713 175.887L173.829 169.771L174.886 170.129L168.656 176.359Z" fill="#F5BC2E"/>
<path d="M176.304 178.71L175.064 178.536L180.198 173.403L180.788 173.705L180.879 174.135L176.304 178.71Z" fill="#F5BC2E"/>
<path d="M186.164 178.85L184.104 179.496L186.385 177.215L186.606 178.408L186.164 178.85Z" fill="#F5BC2E"/>
<path d="M201.778 173.237L200.455 173.422L200.398 173.202L209.071 164.53L210.569 164.445L202.327 172.688L201.822 172.228L202.002 173.013L201.778 173.237Z" fill="#F5BC2E"/>
<path d="M207.554 157.46L197.177 167.837L196.343 167.257L208.176 155.424L209.003 156.012L208.878 156.137L207.602 156.824L207.554 157.46Z" fill="#F5BC2E"/>
<path d="M202.441 151.16L203.063 151.952L191.721 163.293L190.939 162.661L202.441 151.16Z" fill="#F5BC2E"/>
<path d="M195.487 148.113L196.553 148.461L188.791 156.224L188.744 155.063L188.658 154.943L195.487 148.113Z" fill="#F5BC2E"/>
<path d="M203.745 131.27L203.055 131.959L202.055 131.795L201.952 131.649L202.558 131.042L203.715 131.238L203.745 131.27Z" fill="#F5BC2E"/>
<path d="M210.473 124.542L206.509 128.505L206.114 127.848L205.891 127.709L210.288 123.312L210.473 124.542Z" fill="#F5BC2E"/>
<path d="M200.941 122.659L201.924 123.09L199.004 126.01L197.975 125.626L200.941 122.659Z" fill="#F5BC2E"/>
<path d="M195.947 117.653L196.431 118.583L187.263 127.751L186.289 127.311L195.947 117.653Z" fill="#F5BC2E"/>
<path d="M200.432 104.582L197.725 107.289L196.267 107.333L199.9 103.701L199.798 104.216L200.432 104.582Z" fill="#F5BC2E"/>
<path d="M193.198 100.402L193.625 101.389L158.216 136.799L157.108 136.493L193.198 100.402Z" fill="#F5BC2E"/>
<path d="M148.938 144.662L148.934 145.458L148.127 145.474L148.938 144.662Z" fill="#F5BC2E"/>
<path d="M164.632 138.968L165.456 139.558L193.187 111.828L193.056 111.26L193.167 110.433L164.632 138.968Z" fill="#F5BC2E"/>
<path d="M171.477 142.123L171.668 142.209L172.959 142.055L181.693 133.321L181.709 132.726L182.127 131.473L171.477 142.123Z" fill="#F5BC2E"/>
<path d="M184.222 129.379L184.513 129.396L184.69 128.91L184.222 129.379Z" fill="#F5BC2E"/>
<path d="M184.433 139.167L179.676 143.924L179.989 144.203L180.135 144.88L184.886 140.128L184.433 139.167Z" fill="#F5BC2E"/>
<path d="M188.416 145.184L188.929 146.085L184.539 150.476L184.133 149.467L188.416 145.184Z" fill="#F5BC2E"/>
<path d="M208.232 66.7827L203.662 71.3526L203.593 71.4042L202.358 72.0823L201.582 72.0179L219.35 54.2498L219.475 54.7859L218.468 56.5467L215.563 59.451L214.808 59.4921L214.778 60.2364L212.24 62.7748L212.025 62.7813L208.654 65.767L208.232 66.7827Z" fill="#F5BC2E"/>
<path d="M216.504 47.0965L217.289 47.7254L185.812 79.2018L185.495 79.2377L185.099 79.9154L129.933 135.082L129.149 134.451L216.504 47.0965Z" fill="#F5BC2E"/>
<path d="M212.889 40.7116L212.926 40.8394L212.507 42.507L123.35 131.664L122.341 131.259L212.889 40.7116Z" fill="#F5BC2E"/>
<path d="M203.561 40.0395L203.725 40.1613L204.96 39.8172L207.743 36.5583L208.175 36.8396L118.411 126.603L117.686 125.914L203.561 40.0395Z" fill="#F5BC2E"/>
<path d="M197.821 35.7788L198.633 36.3813L110.817 124.197L108.991 124.609L197.821 35.7788Z" fill="#F5BC2E"/>
<path d="M190.896 32.7044L191.934 33.0805L107.034 117.981L106.422 117.616L106.428 117.173L190.896 32.7044Z" fill="#F5BC2E"/>
<path d="M186.268 27.3318L186.548 27.3788L187.036 27.9778L113.844 101.17L113.086 100.514L186.268 27.3318Z" fill="#F5BC2E"/>
<path d="M182.396 21.2046L182.675 22.3398L111.548 93.4664L110.754 93.1032L110.659 92.9408L182.396 21.2046Z" fill="#F5BC2E"/>
<path d="M181.34 12.2605L181.922 12.3494L182.356 12.6585L88.0922 106.922L86.5828 107.667L86.9921 108.022L81.7731 113.241L81.0866 113.851L81.119 113.895L47.3134 147.701L46.86 146.74L181.34 12.2605Z" fill="#F5BC2E"/>
<path d="M46.7817 148.233L45.3217 149.693L45.3559 149.527L46.7817 148.233Z" fill="#F5BC2E"/>
<path d="M83.3957 120.204L55.7107 147.889L57.1784 147.472L57.361 147.653L83.7381 121.276L83.445 120.632L83.3957 120.204Z" fill="#F5BC2E"/>
<path d="M102.624 100.976L103.446 100.623L105.703 98.3154V97.8969L102.624 100.976Z" fill="#F5BC2E"/>
<path d="M101.943 111.657L104.631 108.969L105.866 109.149L102.453 112.561L101.897 112.363L101.943 111.657Z" fill="#F5BC2E"/>
<path d="M90.2779 173.322L90.5304 173.533L88.4453 175.395L88.3571 175.243L90.2779 173.322Z" fill="#F5BC2E"/>
<path d="M197.349 76.2515L197.409 76.2622L197.397 76.2031L197.349 76.2515Z" fill="#F5BC2E"/>
<path d="M140.38 4.63448L139.703 4.88024L139.167 5.84757L140.38 4.63448Z" fill="#F5BC2E"/>
<path d="M114.215 9.38529L115.368 9.64634L95.7152 29.2991L95.8119 27.7883L114.215 9.38529Z" fill="#F5BC2E"/>
<path d="M104.056 9.54434L105.861 9.15314L96.3991 18.6152L96.4958 17.1044L104.056 9.54434Z" fill="#F5BC2E"/>
<path d="M44.0346 30.9797L43.4833 31.0729L42.6767 32.3376L44.0346 30.9797Z" fill="#F5BC2E"/>
<path d="M152.942 152.094L153.933 152.024L156.008 153.673L158.094 156.598L159.116 159.958L162.74 164.351L172.224 169.138L177.943 171.071L178.51 170.717L179.765 171.729L179.461 173.024L180.271 173.439L180.858 176.222L182.599 176.941L185.737 176.243L186.142 178.429L183.044 179.4L180.413 178.338L177.477 178.682L171.93 177.903L170.615 176.648L168.337 176.192L160.078 172.063L158.154 171.992L155.826 173.227L152.213 172.893L150.209 173.834L152.132 170.474L152.688 168.146L150.968 165.697L148.883 160.586L146.565 159.169L146.423 156.892L145.664 156.699L147.314 153.532L146.868 151.558L147.708 147.145L147.283 145.334L148.407 145.253L149.723 147.064L150.735 150.698L152.942 152.094V152.094ZM201.355 128.685L202.033 129.029L201.942 130.76L203.197 130.972L204.129 131.954L201.537 131.529L200.768 130.436L200.343 130.77L198.288 129.525L201.102 128.078L201.355 128.685V128.685ZM161.677 1.63873L165.827 0.980881L167.861 3.07589L170.574 2.70142L172.234 4.22966L175.048 4.36123L175.767 11.2231L181.405 12.0834L183.095 13.2878L183.227 15.7775L181.475 19.2995L182.194 22.2244L183.884 24.0259L183.044 25.9995L183.5 26.6877L186.03 27.1128L190.373 32.4363L195.818 34.4099L203.207 39.8953L204.442 39.5512L207.226 36.2923L212.084 39.4601L212.408 40.5734L211.7 43.3971L219.281 49.4696L218.441 52.2933L218.957 54.5199L217.145 57.6877L217.662 59.7422L217.075 60.0863L215.779 59.1451L214.291 59.2261L214.159 62.4344L211.507 62.5153L208.137 65.501L207.034 68.1526L203.076 71.1382L201.841 71.8163L198.794 71.5633L197.367 72.6766L196.456 73.7899L196.891 75.9962L193.703 75.4295L189.209 77.0994L187.215 78.7187L184.978 78.9717L181.83 84.356L181.05 88.8699L185.302 90.7523L188.976 95.6204L189.32 98.3328L190.454 98.2721L190.97 99.6991L192.519 99.7598L193.672 102.432L195.646 102.148L198.035 103.009L198.41 102.28L199.483 102.928L199.28 103.95L201.578 105.276L200.839 106.44L199.412 106.956L193.774 107.128L192.853 108.646L192.539 110.994L193.45 114.961L194.249 116.409L194.867 116.307L196.497 119.435L198.916 121.732L202.539 123.321L205.323 123.189L206.386 123.847L209.706 122.613L210.566 128.351L209.483 131.418L207.175 130.203L205.596 127.582L203.41 126.216L200.211 125.193L198.774 125.851L195.494 124.627L191.375 126.428L189.138 128.564L184.897 126.651L183.996 129.13L182.336 129.029L181.192 132.46L181.131 134.697L182.407 137.905L183.804 138.664L185.069 141.346L185.393 140.284L186.051 140.486L187.184 141.306L186.921 143.198L188.429 145.85L189.897 146.346L191.486 145.556L193.035 147.216L201.102 149.848L202.914 152.155L206.659 153.643L207.064 154.736L208.532 155.778L207.084 156.558L206.942 158.471L209.119 160.768L209.635 162.175L208.005 162.539L207.499 163.369L207.904 164.3L210.596 164.148L210.91 167.63L209.847 168.784L208.532 168.915L208.967 169.634L208.096 169.593L207.762 170.221L209.058 171.962L205.849 172.731L206.902 173.53L208.4 173.601L208.046 174.593L205.293 174.664L204.017 175.858L202.468 175.969L202.823 174.816L201.598 174.714L201.294 173.459L202.155 173.298L201.993 172.589L201.304 171.962L201.527 172.933L199.938 173.156L199.634 171.992L200.161 170.636L198.794 169.047L197.337 169.067L196.861 167.711L194.067 165.768L193.136 165.818L193.359 167.6L192.772 167.873L192.346 167.225L192.812 166.284L191.446 164.219L191.79 163.501L189.887 161.962L189.472 160.819L189.958 158.187L188.328 157.327L188.227 154.797L187.154 153.309L184.674 151.831L183.024 147.732L181.567 146.032L180.534 146.073L179.775 145.344L179.471 143.937L177.467 142.146L174.036 141.599L171.151 141.943L168.357 140.688L167.183 140.901L163.215 138.057L154.46 135.638L150.026 139.939L148.427 142.854L148.417 145.192L147.364 145.212L146.534 142.287L144.733 140.668L143.174 140.618L142.496 139.838L137.9 138.259L135.926 138.178L134.034 136.579L131.078 136.154L127.495 133.27L119.934 130.234L119.407 127.774L116.593 125.102L114.447 124.768L113.607 123.716L112.241 123.493L108.071 124.434L109.366 121.53L107.534 118.321L105.905 117.35L105.925 115.73L104.852 113.332L101.38 112.097L101.562 109.284L103.161 108.565L107.828 109.243L111.623 108.231L115.52 105.569L116.401 103.565L112.251 99.9724L113.537 97.9685L113.334 94.2541L110.237 92.8372L110.095 92.5943L108.344 92.2502L105.571 94.4869L104.295 94.0011L103.05 95.3269L105.186 95.8937V98.0494L102.929 100.357L98.8292 102.118L97.4931 101.177L96.4809 101.551L94.8412 102.341L94.8918 104.628L94.8412 105.387L94.4667 105.842L94.9019 106.44L95.1752 107.108L94.6994 107.907L94.2237 108.474L93.2216 109.203L92.341 109.091L91.339 107.077L90.0332 107.097L90.7924 105.923L89.2235 105.842L86.0654 107.401L86.6018 107.867L87.361 110.184L88.7882 111.206L86.9764 111.166L86.4298 111.915L85.6403 111.358V112.583L84.5977 112.775L83.7677 111.966L84.3446 111.692L83.5754 111.561L83.1199 112.775L82.0166 112.3L80.5691 113.585L82.4417 116.156L82.9276 120.366L84.456 123.726L87.2092 125.123L87.5432 125.922L82.2696 135.446L80.6299 141.549L81.0246 143.856L77.8058 148.552L77.1884 151.619L79.0306 157.135L79.3241 162.104L80.4477 163.541L81.4599 167.215L85.3366 170.585L88.4744 171.982L90.013 173.267L87.9278 175.129L86.6322 172.893L83.9195 172.124L81.9457 173.743L75.2045 174.876L74.0809 173.642L73.1902 173.571L72.6031 172.387L71.5605 167.458L67.785 165.454L66.4793 163.824L64.6169 164.584L63.5135 162.873L61.7118 164.017L61.4385 162.893L60.3555 162.347L60.0721 160.859L58.7967 160.545L60.4871 157.125L61.1146 152.216L59.7077 152.125L58.8574 153.37L58.6448 151.922L59.4243 149.949L56.6609 147.206L53.4219 148.127L51.7012 149.888L51.2963 152.105L49.1808 155.252L47.0147 156.173L45.9012 153.319L46.1745 150.85L44.474 151.032L44.8384 149.261L46.8122 147.469L46.215 146.204L45.1927 145.496L38.0061 146.062L37.3583 146.083L36.4878 144.848L37.338 143.684L42.5812 140.881L43.644 136.185L45.0611 134.788L44.8688 133.158L41.7006 132.784L41.0123 131.286L38.8664 130.325L38.9272 128.331L40.9921 126.803L41.0731 126.084L38.5223 126.307L37.2672 124.364L35.5565 123.291L36.7105 117.471L33.441 116.307L29.4631 116.834L28.9975 116.166L29.6655 115.467L25.7584 111.733L20.8695 110.7L20.4343 107.35L17.7621 103.565V102.351L19.5233 100.62L16.8511 98.1405L17.1649 96.0961L16.4361 94.5274L17.0029 93.5153L16.598 92.2907L18.6832 90.9953L18.6528 87.6959L14.604 86.3295L13.3387 84.6495L12.3873 85.7729L10.9499 85.945L10.1908 82.4027L7.27566 80.338L8.96603 76.563L7.06309 75.9557L4.50222 76.6035L3.17624 75.6622L3.86453 74.0631L3.0649 72.6159L3.87466 71.6443L1 67.2114L2.62964 66.4928L3.0244 67.1911L4.11758 65.9969L6.87077 65.3593L9.43164 63.9626L9.82639 63.0214L11.8204 61.6854L11.537 60.8454L9.69482 60.7138L8.05504 57.88L9.47213 56.3518L9.2697 52.5565L13.44 50.0667L13.6221 48.5689L16.6588 46.2714L16.6183 44.8444L18.005 45.0367L19.5132 43.7615L18.6022 41.4135L19.1488 38.529L22.9546 36.4543L25.0803 34.1973L26.5176 34.592L29.9186 33.6205L32.7325 31.485L32.9248 30.3109L34.2103 31.0599L35.0606 32.9727L37.3886 33.6508L38.9069 34.8754L40.739 34.2985L42.9659 30.8069L45.9012 30.3109L46.9843 29.2786L48.8973 30.1288L51.5594 30.0174L52.3085 31.151L55.0718 32.1833L56.6002 31.5558L57.1569 35.1791L57.5618 34.3289L59.2927 33.499L60.1935 33.8127L60.9122 33.1448L62.2888 33.8431L63.5338 33.1346L63.8577 34.2884L65.4064 35.4624L68.3316 35.0981L69.607 35.6648L73.838 34.4301L78.2107 34.0253L79.6177 35.5029L80.893 35.5535L83.3324 33.6407L85.1443 31.1915L85.9945 28.2362L87.6242 27.386L91.8855 32.9019L94.0314 31.7582L95.1347 30.0174L95.9951 16.577L96.7036 14.735L96.1368 12.4882L96.8251 10.7981L99.0216 10.2515L99.8516 8.67269L100.732 9.09776L101.066 8.40955L102.504 9.50259L105.773 8.79414H112.261L118.699 10.2515L120.612 9.62404L125.754 12.0733L130.663 12.1947L136.817 10.8183L139.014 7.89339L138.619 5.63645L139.186 4.61425L141.443 3.79446L143.761 1.62861L147.283 1.68934L149.075 5.76802L154.814 1.27438L156.15 1.63873L157.851 0.798706L161.677 1.63873V1.63873Z" stroke="#F5BC2E"/>
</svg>
