<svg width="319" height="206" viewBox="0 0 119 106" fill="none" xmlns="http://www.w3.org/2000/svg">
<path d="M4.63923 33.613L7.58305 30.6691L8.57405 31.0923L5.2133 34.4531L4.63923 33.613Z" fill="#F5BC2E"/>
<path d="M3.50323 46.1631L2.69336 45.5588L17.4494 30.8028L17.7835 30.7701L17.9013 30.3509L19.8199 28.4323L20.5489 29.1175L3.50323 46.1631Z" fill="#F5BC2E"/>
<path d="M16.7203 52.9461L16.7207 52.8537L16.3471 51.9051L32.4089 35.8433L32.4401 35.8608L33.016 36.6504L16.7203 52.9461Z" fill="#F5BC2E"/>
<path d="M20.3763 59.2901L20.2533 59.1286L19.3119 60.0293L18.5959 59.6563L41.25 37.0022L41.3981 37.3486L42.3091 36.8122L42.1687 36.0835L61.0039 17.2483L60.3263 18.3317L60.4944 19.172L20.3763 59.2901Z" fill="#F5BC2E"/>
<path d="M19.6372 68.615L20.6612 67.591L20.8201 67.5592L20.9011 68.3081L20.152 68.6421L19.2358 70.4306L17.7778 71.8886L19.6372 68.615Z" fill="#F5BC2E"/>
<path d="M16.9863 72.6801L17.4875 72.1789L17.0243 71.901L16.9863 72.6801Z" fill="#F5BC2E"/>
<path d="M25.894 63.7724L25.3547 62.9441L25.3541 62.8981L65.3532 22.899L66.3837 23.2827L25.894 63.7724Z" fill="#F5BC2E"/>
<path d="M28.057 71.6094L28.2057 70.0465L70.8763 27.3759L71.1141 28.5523L28.057 71.6094Z" fill="#F5BC2E"/>
<path d="M28.396 81.2704L27.3831 82.2833L26.8933 81.4955L27.6524 81.4348L27.8751 80.7061L28.396 81.2704Z" fill="#F5BC2E"/>
<path d="M30.2358 79.4306L29.3023 79.7143L28.8041 79.448L74.5835 33.6687L75.6662 34.0001L33.7101 75.9563L33.4523 75.8987L30.894 78.7724L30.2358 79.4306Z" fill="#F5BC2E"/>
<path d="M35.4616 84.2048L35.1832 83.5399L35.4912 82.761L78.308 39.9442L77.9517 41.7146L35.4616 84.2048Z" fill="#F5BC2E"/>
<path d="M37.3785 90.8737L38.2754 89.9767L39.0802 90.3715L39.233 90.4334L37.5048 92.1616L37.653 91.9301L37.319 91.7074L37.3785 90.8737Z" fill="#F5BC2E"/>
<path d="M35.8332 102.419L37.0355 101.217V102.354L35.6488 103.164L35.7593 103.907L35.0963 104.57L34.8386 103.414L35.6285 102.624L35.912 102.547L35.8332 102.419Z" fill="#F5BC2E"/>
<path d="M38.7047 100.962L38.4887 99.7635L54.8735 83.3787L55.5365 84.1299L38.7047 100.962Z" fill="#F5BC2E"/>
<path d="M46.8539 102.812L45.7013 102.551L46.4275 101.825L47.1778 102.263L47.3966 102.27L46.8539 102.812Z" fill="#F5BC2E"/>
<path d="M52.6708 96.9955L51.6242 98.0422L51.4493 97.7799L50.6193 98.3871L49.5039 98.7483L52.7683 95.4839L52.7651 95.9683V96.7071L52.6708 96.9955Z" fill="#F5BC2E"/>
<path d="M56.9377 92.7287L56.6249 93.0414L55.7208 92.9826L54.6681 94.3084L53.9071 94.3451L56.8284 91.4238L56.9377 92.7287Z" fill="#F5BC2E"/>
<path d="M64.0844 95.582L63.6159 95.3003L65.0229 93.9947L64.7197 93.5324L105.51 52.7424H105.592L106.403 53.2631L64.0844 95.582Z" fill="#F5BC2E"/>
<path d="M67.3822 100.87L67.6391 100.613L67.8166 100.857L68.4239 100.472L68.8218 100.845L68.1442 101.522L67.3822 100.87Z" fill="#F5BC2E"/>
<path d="M116.672 72.9946L91.6295 98.0369L90.7918 97.4604L117.516 70.7365L116.672 72.9946Z" fill="#F5BC2E"/>
<path d="M115.649 62.6029L116.326 63.3403L81.69 97.9763L80.3657 97.8865L115.649 62.6029Z" fill="#F5BC2E"/>
<path d="M117.87 50.382L118.451 51.2156L69.9912 99.6751L69.9422 99.3081L69.3146 99.1361L69.2781 98.9741L117.87 50.382Z" fill="#F5BC2E"/>
<path d="M112.174 47.4926L111.341 47.439L111.39 48.2759L112.174 47.4926Z" fill="#F5BC2E"/>
<path d="M78.9271 99.3251L78.7382 99.6927L78.5049 99.7473L78.9271 99.3251Z" fill="#F5BC2E"/>
<path d="M94.7205 54.9458L60.1062 89.5602L59.142 89.1873L59.1553 89.0969L91.9619 56.2903L92.7572 56.2644L94.7006 54.9386L94.7205 54.9458Z" fill="#F5BC2E"/>
<path d="M83.5497 54.7025L84.5483 54.9892L84.6796 54.9868L57.359 82.3073L56.7004 81.5518L83.5497 54.7025Z" fill="#F5BC2E"/>
<path d="M77.8977 50.3544L78.1712 51.4952L39.9701 89.6963L38.7624 89.4898L77.8977 50.3544Z" fill="#F5BC2E"/>
<path d="M34.6702 94.9962L35.1528 93.2458L35.7602 93.0737L35.7373 93.9291L34.6702 94.9962Z" fill="#F5BC2E"/>
<path d="M82.587 37.0793L80.0186 39.6478L78.4454 39.8068L82.0964 36.1558L82.587 37.0793Z" fill="#F5BC2E"/>
<path d="M62.3606 5.89157L62.3608 5.91342L62.9904 6.67594L39.1155 30.5509L39.1004 30.5373L39.146 29.1062L62.3606 5.89157Z" fill="#F5BC2E"/>
<path d="M41.4335 6.81867L42.2686 7.01658L43.7768 5.60981L43.9041 5.76225L35.399 14.2674L35.3755 14.1821L34.788 13.4642L41.4335 6.81867Z" fill="#F5BC2E"/>
<path d="M38.6621 19.5901L50.4787 7.77347L50.7205 7.88699L53.6146 6.05179L39.1711 20.4953L38.6621 19.5901Z" fill="#F5BC2E"/>
<path d="M28.3675 29.8847L12.6446 45.6076L13.939 45.7274L28.8327 30.8336L28.5938 29.7884L28.3675 29.8847Z" fill="#F5BC2E"/>
<path d="M8.67301 49.5792L8.5016 49.7972L8.49349 49.7587L8.67301 49.5792Z" fill="#F5BC2E"/>
<path d="M55.7915 3.87486L55.7714 3.09984L57.4715 2.19482L55.7915 3.87486Z" fill="#F5BC2E"/>
<path d="M34.4388 33.8134L36.5154 31.7368L36.7521 31.7417L36.489 32.6222L36.994 32.6723L34.5996 35.0668L34.4388 33.8134Z" fill="#F5BC2E"/>
<path d="M63.4804 14.7718L63.3933 15.0019L63.215 15.0372L63.4804 14.7718Z" fill="#F5BC2E"/>
<path d="M36.5181 100.773V102.088L35.1314 102.898L35.3541 104.396L34.6354 104.558L34.2002 102.605L35.3946 102.281L34.9391 101.542L35.3035 100.54L36.5181 100.773ZM34.2002 88.2532L35.5363 88.9718L34.929 91.7044L33.4006 89.5588L33.2184 86.8363L34.2002 88.2532ZM27.965 81.0979L28.3497 82.6261L27.0743 82.3528L26.3759 81.2294L27.135 81.1687L27.3577 80.44L27.965 81.0979ZM20.3837 68.042L19.6346 68.376L17.3066 72.9202L16.7397 72.9304L17.428 74.5801L16.6891 74.0841L16.3652 74.5396L16.5069 71.6349L17.0636 71.9689L19.6447 67.4247L20.3027 67.2931L20.3837 68.042ZM22.2866 62.3035L21.7096 63.7407L19.9889 64.7123L19.2905 65.9976L16.841 66.5239L15.4745 67.5967L16.0413 68.1027L15.8186 68.8314L14.1384 70.3496L13.9461 67.7485L14.9785 66.9591L14.6242 66.3114L16.9725 62.4553L19.9889 62.2934L21.4262 61.5546L22.2866 62.3035ZM59.4749 0.586914L61.7523 2.04431L61.813 2.09493L61.8434 5.64731L64.9104 9.36166L62.8759 14.7358L61.7523 14.9585L59.8089 18.0655L60.153 19.7861L64.0399 22.3365L69.8297 24.4922L70.7812 29.1984L73.1598 33.1253L81.4599 35.6656L82.3202 37.2849L82.3607 38.7221L81.6218 39.1674L77.8159 39.552L77.1277 42.9728L75.5689 44.9565L76.4292 46.1204L77.8969 52.2435L79.7999 53.5086L84.0309 54.7231L86.7942 54.6725L88.8287 56.1096L92.2398 55.9983L94.1832 54.6725L94.7906 54.8951L95.3068 55.6137L95.3979 59.1964L95.8736 59.3078L99.1127 58.2654L101.016 52.4763H105.075L106.714 53.5288L110.652 52.0917L111.087 51.6463L110.824 47.1729L112.555 47.2843L113.466 48.3368L115.804 47.8915L118.264 51.4237L118.223 53.1341L115.844 54.3486L114.852 56.7776L115.5 58.2147L114.812 59.5912L114.943 62.1315L116.411 63.7306L116.239 65.1677L114.164 65.7142L113.213 67.3639L116.968 68.8011L117.312 69.631L115.5 74.4789L116.28 77.5556L114.205 79.2761L105.996 82.9601L105.135 90.5406L103.111 93.1416L101.42 91.7854L100.246 93.1213L97.3211 93.9917L95.3169 99.376L92.2094 98.5259L89.5474 96.694L87.4622 97.281L83.8588 96.0159L82.0065 97.7668L79.1723 97.5745L78.2208 99.4266L75.5385 100.054L71.6921 103.141L69.3438 102.726L66.3882 100.196L63.6856 99.4468L63.9994 98.8295L65.3659 99.3457L66.1048 98.9509L67.2992 100.59L67.9065 100.206L69.8196 101.997L69.4248 99.042L68.7972 98.87L68.5847 97.9287L69.1616 98.0299L69.8196 96.0969L68.1899 96.4005L67.9268 95.5807L68.9187 95.2771L68.2 94.5787L65.8821 94.6294L64.3942 95.8135L63.0985 95.0342L64.5055 93.7286L63.2909 91.8765L62.6026 93.8298L59.5761 91.583L58.9384 90.409L59.6976 89.3362L58.6246 88.9212L58.8777 87.2007L57.6023 86.7756L58.4019 86.5125L58.6044 85.5915L56.9545 82.1707L54.6872 79.5696L53.1587 81.7557L57.5618 86.7453L57.2177 87.5954L56.4787 87.5043L57.0456 89.0326L56.2966 90.9859L56.4484 92.7975L55.2034 92.7165L54.1507 94.0423L52.2579 94.1334L52.2477 95.7022V96.441L52.0757 96.9673L51.9846 97.6555L51.3975 98.2121L50.9319 97.5138L50.1019 98.121L47.2576 99.042L47.3993 99.7707L46.5997 100.53L46.0632 100.297L45.4761 99.8922L44.9295 100.985L46.6604 101.997L49.0796 102.068L46.9944 102.696L44.14 102.048L41.397 102.746L39.9191 102.645L38.411 101.937L37.7834 98.455L34.848 98.7181L34.6557 97.5442L35.2731 97.5745L35.5869 95.6819L34.6759 94.599L34.0382 95.1455L34.6354 92.9797L35.2428 92.8076L35.1922 94.7002L37.1356 91.664L36.8016 91.4413L36.9534 89.3159L38.5628 90.1054L39.3118 90.409L39.909 89.5082L35.6476 88.7795L36.8016 87.9294L36.1436 86.3708L35.759 85.885L34.6658 83.2738L35.182 81.9682L34.8379 81.6241L33.8561 82.0087L33.4411 81.2497L32.439 81.3408L33.1576 80.7335L34.1597 81.4926L34.848 81.0472L34.6456 80.4603L33.3601 80.3489L34.6557 76.0172L32.9349 75.6326L29.8174 79.1344L28.7849 79.4482L28.1979 79.1344L27.9448 76.4727L26.5783 75.5112L26.7909 74.236L27.3375 73.4668L27.9144 67.4044L24.8373 62.678L24.7969 59.8442L22.5498 59.328L20.7379 60.1782L19.7359 58.8625L18.7945 59.7632L18.0758 59.3887L16.1931 55.3101L16.2033 52.5876L14.7963 49.0149L14.3105 45.5435L12.0128 45.3309L10.7374 46.0293L7.9842 49.5311L7.78174 48.5696L6.56711 48.9441L5.81808 50.1586L4.9982 50.0472L4.16819 49.7942L3.96575 47.4057L3.09526 45.9787L1.73891 44.9666L1 43.0335L1.38464 41.3535L2.29562 40.8576L1.65793 39.1977L2.24501 38.4185L4.65405 37.2546L6.45577 37.2951L6.79992 36.617L6.14198 36.3032L3.50014 32.4371L2.88269 30.4635L3.986 29.1883L4.50222 26.4051L6.49625 30.1599L8.43968 30.9898L11.2334 30.6862L11.284 29.8967L11.7091 28.7733L13.0553 28.5102L13.3691 26.4962L13.9258 27.3261L13.5311 28.0244L13.2375 30.8987L17.2661 30.504L17.6102 29.2794L18.754 28.5203L18.4301 27.3463L20.4545 29.249L23.6935 27.7916L24.6045 28.3887L25.4143 30.6558L28.0764 29.5223L28.5622 31.6476L27.55 33.1354L31.9227 35.5947L32.9856 37.0521L33.4006 37.1129L33.0564 35.8478L34.1698 35.4834L33.8257 32.8014L34.7772 31.4452L36.2347 31.4756L35.9716 32.3561L37.2975 32.4877L37.1963 33.2771L39.413 33.6516L40.8807 37.0825L41.7917 36.5461L41.0022 32.4472L38.583 30.2712L38.7247 25.8181L39.8685 24.0368L39.7876 22.2454L36.589 16.5575L35.3946 15.8693L34.8581 13.916L33.4917 12.2461L35.7691 11.3858L34.6759 9.73612L36.5283 7.45894L38.9879 7.24642L40.3848 6.42663L41.7512 6.75047L43.2594 5.3437L44.798 7.18569L46.711 5.98132L50.2031 7.62088L55.2945 4.39234L55.254 2.83373L59.4749 0.586914Z" stroke="#F5BC2E"/>
</svg>
