<svg width="605" height="279" viewBox="0 0 305 119" fill="none" xmlns="http://www.w3.org/2000/svg">
<path d="M10.2614 10.5849L10.4554 10.391L10.9641 11.566L10.4491 12.0811L10.464 12.0174L10.2614 10.5849Z" fill="#F5BC2E"/>
<path d="M8.11105 26.3245L8.06595 26.1512L7.21396 25.5378L12.0306 20.7212L12.0476 22.388L8.11105 26.3245Z" fill="#F5BC2E"/>
<path d="M3.5367 42.8043L3.12516 42.4658L5.18582 40.6705L4.93161 39.7256L17.7988 26.8584L19.5513 26.7897L3.5367 42.8043Z" fill="#F5BC2E"/>
<path d="M3.0305 55.0416L1.6709 54.7174L34.2878 22.1005L34.8908 22.3195L35.5205 22.5516L3.0305 55.0416Z" fill="#F5BC2E"/>
<path d="M8.48732 61.4902L8.16234 61.2386L8.18522 60.1085L44.5755 23.7183L46.1474 23.8301L8.48732 61.4902Z" fill="#F5BC2E"/>
<path d="M20.1931 61.6899L18.9597 62.1664L18.3862 61.813L56.0727 24.1265L57.2087 24.3077L57.9752 23.9078L20.1931 61.6899Z" fill="#F5BC2E"/>
<path d="M33.7446 60.0438L33.1073 60.1059L32.2276 61.2265L30.7935 61.9495L29.9452 62.1595L63.5599 28.5448L64.5792 29.2092L33.7446 60.0438Z" fill="#F5BC2E"/>
<path d="M43.4 62.2938L42.2882 61.7219L71.8028 32.2073L72.9237 32.7702L43.4 62.2938Z" fill="#F5BC2E"/>
<path d="M53.9568 63.6424L53.6176 63.1303L53.0751 62.8404L81.3213 34.5942L81.1534 35.8267L81.5142 36.0851L53.9568 63.6424Z" fill="#F5BC2E"/>
<path d="M63.4682 66.0365L63.1135 65.8655L61.6433 67.2632L60.6246 67.1963L82.9027 44.9182L84.0085 45.4962L63.4682 66.0365Z" fill="#F5BC2E"/>
<path d="M75.1839 66.2263L75.104 66.1667L72.9942 66.7321L94.9201 44.8062L96.4896 44.9205L75.1839 66.2263Z" fill="#F5BC2E"/>
<path d="M83.8756 69.44L82.5553 69.0765L107.667 43.9653L109.666 43.6493L83.8756 69.44Z" fill="#F5BC2E"/>
<path d="M96.8284 68.3926L96.0122 67.525L126.266 37.2717L127.91 37.3115L96.8284 68.3926Z" fill="#F5BC2E"/>
<path d="M60.8298 114.613L65.114 110.329L66.4286 110.698L61.8493 115.277L60.8298 114.613Z" fill="#F5BC2E"/>
<path d="M104.474 72.6527L103.074 72.9143L102.704 72.7385L138.067 37.3753L138.575 37.2244L139.342 37.7844L104.474 72.6527Z" fill="#F5BC2E"/>
<path d="M112.622 76.4097L111.782 75.5664L150.092 37.2558L151.077 37.9544L112.622 76.4097Z" fill="#F5BC2E"/>
<path d="M121.354 79.5834L119.804 79.4494L162.155 37.0987L163.708 37.229L121.354 79.5834Z" fill="#F5BC2E"/>
<path d="M131.87 80.9724L130.724 80.4346L166.12 45.0388L166.159 45.3456L166.682 46.1603L131.87 80.9724Z" fill="#F5BC2E"/>
<path d="M135.725 89.0236L135.524 87.5404L175.364 47.7L177.249 47.499L135.725 89.0236Z" fill="#F5BC2E"/>
<path d="M134.109 100.861L134.731 100.531L134.957 100.013L186.384 48.5855L187.344 49.0568L187.619 49.0348L134.059 102.595L133.02 102.917L132.981 101.989L134.109 100.861Z" fill="#F5BC2E"/>
<path d="M147.53 101.029L146.169 100.707L198.728 48.1469L200.558 48.0007L147.53 101.029Z" fill="#F5BC2E"/>
<path d="M159.033 101.431L158.326 101.567L157.331 101.45L206.462 52.319L207.531 52.9337L159.033 101.431Z" fill="#F5BC2E"/>
<path d="M171.639 100.731L171.522 100.543L170.291 100.395L218.879 51.8074L219.134 51.7076L221.074 50.0809L222.172 50.1982L171.639 100.731Z" fill="#F5BC2E"/>
<path d="M185.606 98.6695L182.979 99.6123L234.949 47.6423L236.083 48.1921L185.606 98.6695Z" fill="#F5BC2E"/>
<path d="M203.14 93.0406L202.42 92.7835L201.174 93.3232L240.829 53.6681L240.946 54.2741L240.624 55.5571L203.14 93.0406Z" fill="#F5BC2E"/>
<path d="M213.651 94.4355L212.278 94.1247L239.45 66.9527L240.03 67.6246L238.379 69.4923L238.461 69.625L213.651 94.4355Z" fill="#F5BC2E"/>
<path d="M228.125 91.8664L226.503 91.8044L242.181 76.1268L242.524 76.1796L243.982 75.4928L244.235 75.7565L228.125 91.8664Z" fill="#F5BC2E"/>
<path d="M240.097 91.8L238.784 91.429L261.199 69.0147L263.035 68.8623L240.097 91.8Z" fill="#F5BC2E"/>
<path d="M252.932 90.8709L249.972 92.7835L249.36 92.7587L278.298 63.8205L279.098 63.9858L280.473 63.3291L252.932 90.8709Z" fill="#F5BC2E"/>
<path d="M267.91 87.7983L267.421 87.5662L265.782 88.5542L265.505 88.5186L287.765 66.2589L288.136 66.1788L290.161 64.6726L289.969 64.0554L291.528 62.496L291.667 62.4676L292.595 61.6121L293.366 61.2506L294.218 59.806L297.24 56.7842L297.524 56.8647L298.548 55.5875L299.837 54.6356L299.712 54.312L300.617 53.4071L301.247 53.2259L300.992 53.0324L302.821 51.203L303.199 51.0931L303.475 52.2326L303.462 52.2463L302.308 52.9005L302.486 53.2223L301.54 54.1682L301.356 54.2018L301.314 54.3939L267.91 87.7983Z" fill="#F5BC2E"/>
<path d="M277.718 89.8953L276.965 89.7591L276.076 89.854L299.844 66.0852L300.665 66.9485L277.718 89.8953Z" fill="#F5BC2E"/>
<path d="M299.159 80.3595L289.023 90.4962L287.307 90.5278L300.435 77.4005L300.428 77.4448L298.656 79.6016L299.159 80.3595Z" fill="#F5BC2E"/>
<path d="M286.014 91.8211L285.702 92.1689L285.649 92.1856L286.014 91.8211Z" fill="#F5BC2E"/>
<path d="M244.564 49.9333L243.134 51.3634L244.223 50.8039L244.564 49.9333Z" fill="#F5BC2E"/>
<path d="M186.91 36.1545L187.751 35.3133L187.79 36.6461L186.91 36.1545Z" fill="#F5BC2E"/>
<path d="M74.5177 19.2707L67.5258 26.2626L66.2705 25.8341L73.9911 18.1136L74.5177 19.2707Z" fill="#F5BC2E"/>
<path d="M67.0647 13.1345L68.3115 13.5715L62.9132 18.9698L62.3602 17.839L67.0647 13.1345Z" fill="#F5BC2E"/>
<path d="M59.1691 21.03L60.5213 19.6779L61.0408 20.2229L62.0849 19.7981L58.932 22.9509L59.1691 21.03Z" fill="#F5BC2E"/>
<path d="M29.6771 14.9801L29.7085 16.6325L24.1383 22.2026L24.5031 20.6929L24.4295 20.2278L29.6771 14.9801Z" fill="#F5BC2E"/>
<path d="M28.8602 3.8916L29.2752 4.22151L27.9255 6.45067L27.9367 6.49888L23.0948 11.3408L23.1534 11.1619L22.7847 9.96705L28.8602 3.8916Z" fill="#F5BC2E"/>
<path d="M60.545 108.901L66.2088 110.492L66.5101 111.359L65.3532 112.552L65.1242 114.336L67.1247 117.697L66.1365 118.155L58.3517 113.082L56.9418 111.01L59.4845 110.914L59.8581 109.07L60.545 108.901V108.901ZM289.761 48.4383L289.785 49.3299L288.58 50.077L286.122 49.836L285.736 49.1612L289.761 48.4383ZM289.4 45.4019L290.05 46.1368L289.436 47.2815L287.64 47.39L287.628 45.9441L289.4 45.4019ZM184.932 30.6898L188.041 32.7261L187.089 33.437L187.174 36.3288L185.836 35.5818L185.053 34.895L184.053 35.0516L181.076 33.8226L181.088 33.1599L183.257 31.9308L183.98 30.9187L184.932 30.6898ZM24.7183 0.771484L28.6589 3.90426L27.3092 6.13341L27.8755 8.56731L29.0324 13.1701L29.165 20.1467L34.2745 22.0022L36.6605 22.8818L45.6383 23.5205L47.5182 24.4242L52.0854 24.9302L54.6281 23.6771L56.5924 23.9904L58.2554 23.1228L58.7253 19.3153L59.4484 18.8815L60.4245 19.9057L62.4972 19.0622L60.6293 15.2426L61.9308 13.8088L63.6661 14.3389L63.9071 13.3388L66.3896 12.7966L71.9931 14.7606L74.8612 21.0624L73.0656 23.5205L72.7523 25.858L71.5834 25.6773L70.8122 26.2918L71.0773 27.0147L70.1132 27.0388L64.6061 25.1591L62.0031 25.0507L59.846 26.352L59.8219 27.3039L61.5452 27.3159L65.9075 30.1596L69.4384 30.0632L70.7399 31.6658L73.4272 33.0153L74.9697 32.955L75.6083 31.2802L76.958 31.6416L79.2718 29.5812L80.9589 32.4128L80.5371 35.5095L81.5132 36.2083L81.2601 44.0644L83.6341 45.3054L90.3343 45.9562L92.2624 45.7152L93.7687 44.45L97.408 44.715L98.4564 43.4619L101.566 43.474L102.554 44.1608L103.602 43.8596H105.711L111.736 42.9077L119.063 40.4978L123.197 36.8951L127.679 37.0036L128.812 35.8589L132.741 36.1842L136.175 37.4373L137.959 36.9072L139.164 37.7867L141.55 38.3892L143.225 38.5097L147.587 38.1964L147.864 36.7626L148.973 36.5818L152.371 38.9917L154.601 38.4856L156.444 39.1362L157.457 38.4013L158.409 36.4493L160.156 37.7747L161.457 36.7746L163.325 36.9313L163.277 38.7989L164.205 39.7026L166.049 38.8833L166.555 40.4376L165.278 42.9318L165.543 45.0283L166.928 47.1852L171.291 47.7515L177.617 47.0767L177.81 46.3899L181.305 46.8357L182.04 48.5467L185.378 48.0768L186.728 48.7395L201.502 47.5587L202.924 47.8117L203.213 49.5227L204.719 51.3542L208.889 53.752L213.926 53.1857L218.517 51.3904L220.458 49.7637L223.278 50.0649L225.073 48.6431L232.653 46.5104L235.858 48.0648L239.992 47.5105L242.86 48.0768L244.836 47.3418L243.607 50.4867L240.016 52.3302L240.329 53.9569L239.425 57.5596L240.763 58.5356L240.51 60.2345L241.378 61.7406L238.582 63.3432L238.425 66.1628L239.413 67.3074L237.762 69.1751L239.522 72.0066L239.847 75.2479L240.655 75.6696L241.908 75.8624L243.366 75.1756L244.475 76.3323L248.439 77.8625L250.5 76.5612L252.982 71.7897L253.85 71.3198L254.633 72.344L257.911 69.8016L258.116 67.6689L260.49 68.7051L263.539 68.4521L265.467 65.8856L266.588 66.6688L269.359 66.1266L270.227 65.3072L269.878 64.4638L272.191 62.2347L275.855 62.066L276.674 63.295L278.482 63.6686L281.434 62.2587L282.037 62.8974L281 64.8735L281.374 65.4759L284.23 66.5724L287.52 65.8615L289.544 64.3554L288.99 62.572L291.051 62.1503L291.979 61.2948L292.75 60.9334L293.858 59.0537L293.425 57.2704L294.461 56.2341L294.859 55.6076L295.907 55.1979L296.1 56.3185L296.907 56.5474L297.932 55.2702L299.221 54.3183L298.872 53.4146L300.631 52.9086L299.787 52.2699L299.679 51.6193L302.583 50.7758L302.86 51.9205L301.691 52.5832L302.258 53.6074L300.739 53.8846L300.306 55.8847L297.835 57.3909L299.149 61.7286L298.389 64.8855L300.691 67.3074L302.065 67.5484L303.499 66.1628L303.559 68.4039L302.547 69.5365L299.703 70.0546L299.233 72.3199L300.245 74.2719L299.811 77.1275L298.04 79.2843L298.896 80.5736L296.172 83.7426L294.581 87.755L293.256 87.4417L292.063 89.2611L290.484 90.1407L286.556 90.213L285.086 91.8517L281.711 92.9241L279.759 92.6711L279.94 91.2492L278.879 89.8997L276.349 89.4418L273.3 89.7672L272.42 90.5384L271.372 89.5503L269.637 89.8154L269.215 88.3936L266.805 87.2489L265.166 88.2369L262.165 87.8514L252.693 90.3094L249.355 92.4662L244.896 92.2855L242.101 91.0926L240.872 91.8758L235.798 90.4419L232.906 91.7553L225.651 91.4782L220.265 93.888L217.927 93.5386L215.637 94.7073L210.154 93.4663L206.262 94.0567L201.803 92.4662L196.742 94.6592L191.741 94.4182L190.656 96.3943L187.873 97.9245L187.222 97.551L182.052 99.4066L181.341 98.3221L176.075 98.3704L171.46 101.118L170.905 100.226L167.314 99.7922L165.989 99.744L164.35 100.985L162.964 101.503L159.337 100.937L157.71 101.25L156.179 101.069L154.697 101.106L152.54 102.045L143.948 100.009L140.899 100.527L138.935 102.298L136.838 102.407L134.982 102.648L133.958 102.118L132.403 102.6L132.343 101.154L134.114 100.214L134.777 98.6957L134.367 97.4064L134.259 96.3822L133.572 93.3578L134.09 91.7312L135.392 90.8034L134.633 85.1885L133.006 81.4773L128.282 79.2603L127.776 79.8747L118.858 79.1036L117.039 79.5615L115.364 78.4771L113.592 79.0916L113.038 77.1275L109.35 73.4284L104.843 72.1512L102.457 72.597L98.7095 70.8137L98.1913 69.4401L96.4078 68.2834L95.0702 66.8616L92.5878 67.0423L91.1899 68.3316L88.1893 67.3556L83.8872 69.2955L80.0791 68.2473L78.0787 68.5244L74.4876 65.8495L69.812 67.1026L68.161 66.6688L67.5705 65.6566L63.8469 66.1989L62.4972 65.5482L61.027 66.9459L58.641 66.7893L56.5924 66.5122L54.8932 65.6687L53.0012 62.813L51.6034 62.066L48.0846 62.0298L44.855 63.042L40.6854 60.8972L38.9501 61.2707L34.4673 59.5959L32.491 59.7887L31.6113 60.9092L30.1772 61.6322L27.743 62.2347L26.8753 60.8611L20.9946 60.8249L18.3434 61.8491L16.9938 61.0177L14.668 61.2587L13.6798 61.5599L11.7397 61.9575L9.43799 61.2948L8.77522 61.8732L7.54603 60.9213L7.6063 57.9452L3.61749 56.692L2.58115 54.7641L1.01457 54.3906L0.556641 52.1856L1.76171 51.2337L2.36424 50.4867L4.31645 49.9324L4.23209 49.0408L2.29194 47.7877L3.24392 46.3658L2.50885 44.7873L3.25598 42.7631L2.50885 42.1485L4.5695 40.3532L4.01518 38.2928L6.53377 36.3288L6.65429 33.449L5.53358 33.3044L5.01537 31.9429L5.16001 30.6536L6.13612 30.3163L7.83523 27.3159L7.44964 25.8339L6.24457 24.9664L6.52171 23.2192L7.20861 19.9418L8.31729 18.0862L7.95575 16.303L7.59424 15.2185L7.52194 14.3028L9.0403 15.1342L9.84771 11.7002L9.5103 9.31436L11.0648 12.9051L10.1369 14.2184L10.5346 17.3271L11.3902 18.0381L11.4504 23.9542L13.1255 24.7374L14.2342 25.5568L15.861 26.593L19.5485 26.4484L22.6817 25.364L23.8868 20.3756L23.3565 17.0259L21.6212 13.6401L22.5371 10.8446L21.4887 7.44674L21.79 5.54294L24.7183 0.771484V0.771484Z" stroke="#F5BC2E"/>
</svg>
