<svg width="550" height="549" viewBox="0 0 450 359" fill="none" xmlns="http://www.w3.org/2000/svg">
<path d="M4.50514 37.1368L6.59811 35.0439L6.89792 35.9432L6.91899 36.4067L3.55273 39.773L4.50514 37.1368Z" fill="#F5BC2E"/>
<path d="M65.5266 11.8317L76.1151 1.24316L75.4181 3.04873L75.73 3.31198L65.8269 13.2151L65.5266 11.8317Z" fill="#F5BC2E"/>
<path d="M19.7286 57.6297L32.6365 44.7217L32.9395 44.8476L33.4681 45.5739L20.9627 58.0793L19.7286 57.6297Z" fill="#F5BC2E"/>
<path d="M73.0153 17.9321L72.3814 18.1585L71.8462 17.4175L79.9704 9.29336L80.6618 10.2856L73.0153 17.9321Z" fill="#814F5BC2ED99"/>
<path d="M77.8551 24.9978L77.4909 24.9422L76.6473 25.6531L76.8903 24.2788L87.107 14.0621L88.9241 13.9288L77.8551 24.9978Z" fill="#F5BC2E"/>
<path d="M32.8509 80.2237L36.8053 76.2693L36.7475 76.4889L38.0955 76.6628L33.2657 81.4926L32.7708 80.8387L33.5902 80.3567L32.8509 80.2237Z" fill="#F5BC2E"/>
<path d="M30.8967 94.0833L31.168 94.0807L31.1115 93.8685L40.1422 84.8378L40.1578 85.1644L38.4828 88.1044L38.4872 88.1765L31.3391 95.3246L30.1919 95.6592L30.0514 94.9286L30.8967 94.0833Z" fill="#F5BC2E"/>
<path d="M70.888 55.7758L70.6321 56.0317L69.3639 55.6161L70.2161 54.7639L70.888 55.7758Z" fill="#F5BC2E"/>
<path d="M94.2269 42.6586L94.6029 43.8475L93.5062 43.8354L93.2555 43.6299L94.2269 42.6586Z" fill="#F5BC2E"/>
<path d="M94.4945 32.1692L89.1622 37.5016L88.6066 36.3734L93.9669 31.0131L93.6388 32.0031L94.4945 32.1692Z" fill="#F5BC2E"/>
<path d="M93.2979 19.7766L93.102 19.9726L93.3134 19.8936L93.2979 19.7766Z" fill="#F5BC2E"/>
<path d="M91.9929 21.0816L91.6866 22.1468L92.6009 22.1574L83.6742 31.0842L82.5883 31.1958L82.4645 30.6101L91.9929 21.0816Z" fill="#F5BC2E"/>
<path d="M42.9713 82.0087L41.591 83.389L41.7003 83.8871L42.9777 82.7665L42.9713 82.0087Z" fill="#F5BC2E"/>
<path d="M98.7318 50.0591L104.058 44.7324L104.762 45.2091L104.693 45.7818L99.5826 50.892L98.7318 50.0591Z" fill="#F5BC2E"/>
<path d="M42.7706 119.609L41.0306 119.666L48.4519 112.244L47.3762 114.552L47.6862 114.694L42.7706 119.609Z" fill="#F5BC2E"/>
<path d="M89.1962 85.0893L85.5166 87.2609L85.5893 87.0124L93.9874 78.6144L94.5685 79.717L89.1962 85.0893Z" fill="#F5BC2E"/>
<path d="M121.95 64.2404L121.91 64.2228L119.139 65.3684L124.123 60.3844L123.717 61.1622L123.88 62.3111L121.95 64.2404Z" fill="#F5BC2E"/>
<path d="M122.384 51.9015L112.34 61.9458L111.112 62.0659L110.831 61.7709L121.342 51.26L122.384 51.9015Z" fill="#F5BC2E"/>
<path d="M112.007 48.6894L112.73 49.6505L105.968 56.4123L105.533 56.1498L105.12 55.576L112.007 48.6894Z" fill="#F5BC2E"/>
<path d="M87.3108 73.3855L91.7243 68.972L92.4325 69.9476L87.8585 74.5215L87.8424 74.2959L87.3725 73.7657L87.3108 73.3855Z" fill="#F5BC2E"/>
<path d="M84.097 78.2831L83.9886 78.3914L83.8898 78.3324L84.097 78.2831Z" fill="#F5BC2E"/>
<path d="M41.1902 109.284L40.5434 109.046L39.6878 110.612L38.3261 111.094L38.4883 111.986L41.1902 109.284Z" fill="#F5BC2E"/>
<path d="M37.647 112.828L37.1311 113.343L37.0247 113.203L37.647 112.828Z" fill="#F5BC2E"/>
<path d="M61.5644 134.848L63.6807 132.732L63.8254 132.891L65.2811 132.815L62.2749 135.821L62.536 135.47L61.5644 134.848Z" fill="#F5BC2E"/>
<path d="M48.2486 160.069L50.7736 157.544L51.4011 157.436L52.1965 157.424L52.2914 157.71L46.9632 163.039L46.9346 161.383L48.1641 160.154L48.1956 160.147L48.2486 160.069Z" fill="#F5BC2E"/>
<path d="M36.4051 171.913L38.745 169.573L39.8804 170.121L37.1303 172.871L36.4051 171.913Z" fill="#F5BC2E"/>
<path d="M25.4131 182.905L33.2443 175.074L33.9553 176.047L26.5692 183.433L25.5765 183.932L25.4131 182.905Z" fill="#F5BC2E"/>
<path d="M40.8911 181.016L40.8206 180.92L39.4861 180.737L48.8024 171.421L49.0874 171.654L48.8102 172.943L48.8505 173.057L40.8911 181.016Z" fill="#F5BC2E"/>
<path d="M57.1646 164.743L56.3867 165.521L57.1131 164.738L57.1646 164.743Z" fill="#F5BC2E"/>
<path d="M142.256 79.6514L141.751 80.1562L140.863 79.3607L147.995 72.2282L148.831 72.115L148.766 73.1414L145.438 76.4693L144.649 76.5612L144.802 77.1056L144.214 77.6931L144.167 77.6938L144.177 77.7299L143.77 78.1374L142.637 77.8866L142.256 79.6514Z" fill="#F5BC2E"/>
<path d="M134.295 74.0227L137.855 70.4627L137.889 71.9343L137.968 72.0333L134.463 75.539L134.295 74.0227Z" fill="#F5BC2E"/>
<path d="M122.235 86.0832L125.842 82.476L126.393 82.14L126.622 83.3088L126.597 83.4052L124.914 85.0879L124.826 84.2968L124.079 85.8873L122.452 86.7428L122.235 86.0832Z" fill="#F5BC2E"/>
<path d="M70.5143 137.804L64.0844 144.234L64.3436 145.411L64.5865 145.415L71.166 138.836L70.5143 137.804Z" fill="#F5BC2E"/>
<path d="M128.917 81.0847L127.3 82.7022L127.284 82.5256L127.911 80.7061L128.465 81.1519L128.971 80.5736L128.917 81.0847Z" fill="#F5BC2E"/>
<path d="M139.701 80.5225L139.745 80.5374L139.895 80.3289L139.701 80.5225Z" fill="#F5BC2E"/>
<path d="M131.622 78.3793L131.285 77.971L131.996 76.8022L132.594 77.4079L131.622 78.3793Z" fill="#F5BC2E"/>
<path d="M139.952 70.0499L139.913 69.7774L140.697 69.187L140.808 69.1942L139.952 70.0499Z" fill="#F5BC2E"/>
<path d="M126.648 117.386L127.496 116.539L127.549 116.721L129.14 115.902L129.529 116.189L127.916 117.802L127.923 117.721L126.648 117.386Z" fill="#F5BC2E"/>
<path d="M109.63 134.404L124.774 119.26L124.838 119.228L126.277 119.441L110.273 135.445L109.63 134.404Z" fill="#F5BC2E"/>
<path d="M103.508 140.526L106.989 137.045L106.858 138.651L105.451 140.267L103.952 141.766L103.508 140.526Z" fill="#F5BC2E"/>
<path d="M118.063 139.561L116.621 139.318L128.301 127.639L128.815 128.18L127.321 128.759L128.21 129.413L118.063 139.561Z" fill="#F5BC2E"/>
<path d="M127.101 118.617L127.192 118.526L127.08 118.493L127.101 118.617Z" fill="#F5BC2E"/>
<path d="M138.377 129.468L157.855 109.991L158.072 111.456L139.155 130.374L138.377 129.468Z" fill="#F5BC2E"/>
<path d="M83.0829 184.762L85.4636 182.382L86.3396 183.189L83.7766 185.752L83.7572 185.751L83.0829 184.762Z" fill="#F5BC2E"/>
<path d="M90.82 190.614L89.8308 190.439L89.5714 190.179L92.9678 186.783L93.6396 187.795L93.4373 187.997L93.0604 188.234L93.1267 188.308L90.82 190.614Z" fill="#F5BC2E"/>
<path d="M106.352 185.305L117.029 174.628L118.366 174.974L108.75 184.59L107.521 185.33L106.352 185.305Z" fill="#F5BC2E"/>
<path d="M146.118 147.222L145.457 146.941L145.782 146.254L145.54 146.116L161.691 129.965L161.491 131.849L146.118 147.222Z" fill="#F5BC2E"/>
<path d="M162.912 118.522L141.88 139.555L141.697 139.374L140.504 139.639L140.622 139.128L162.526 117.225L162.912 118.522Z" fill="#F5BC2E"/>
<path d="M183.118 120.269L183.338 120.05L184.321 120.75L183.681 121.39L183.118 120.269Z" fill="#F5BC2E"/>
<path d="M148.341 155.046L149.443 153.944L150.108 153.749L150.229 154.725L150.199 154.871L145.022 160.049L143.866 159.737L143.903 159.484L144.807 158.58L145.565 158.665L145.708 157.679L147.015 156.373L147.674 156.207L148.341 155.046Z" fill="#F5BC2E"/>
<path d="M128.378 175.009L134.201 169.186L134.117 169.389L135.346 169.401L135.515 169.556L130.259 174.812L128.378 175.009Z" fill="#F5BC2E"/>
<path d="M135.277 181.699L135.045 180.727L134.633 180.659L141.495 173.798L142.216 174.76L141.795 175.182L140.697 175.714L140.131 176.845L135.277 181.699Z" fill="#F5BC2E"/>
<path d="M168.087 148.889L168.004 148.881L167.829 149.147L168.087 148.889Z" fill="#F5BC2E"/>
<path d="M166.405 150.571L164.451 152.526L164.4 151.291L165.208 150.519L166.405 150.571Z" fill="#F5BC2E"/>
<path d="M186.698 118.373L186.598 118.288L186.529 118.542L186.698 118.373Z" fill="#F5BC2E"/>
<path d="M171.327 157.555L170.536 158.346L169.98 157.424L170.884 157.05L171.327 157.555Z" fill="#F5BC2E"/>
<path d="M172.099 156.783L171.544 157.338L171.559 156.821L172.099 156.783Z" fill="#F5BC2E"/>
<path d="M264.578 86.431L265.473 85.5359L266.287 86.4051L264.99 87.7023L264.578 87.2368V86.431Z" fill="#F5BC2E"/>
<path d="M202.285 148.724L204.41 146.599L204.445 146.652L205.108 145.965L206.578 146.114L203.511 149.182L202.285 148.724Z" fill="#F5BC2E"/>
<path d="M191.798 159.211L196.492 154.517L197.166 154.435L199.914 152.778L184.909 167.784L183.341 167.668L189.449 161.56L189.815 161.231L190.394 162.002L191.081 161.099L190.715 160.294L191.48 159.529L192.479 159.424L191.798 159.211Z" fill="#F5BC2E"/>
<path d="M141.981 209.028L144.088 206.92L144.264 206.97L144.746 207.947L143.463 209.23L143.179 208.946L141.981 209.028Z" fill="#F5BC2E"/>
<path d="M135.741 215.268L136.585 214.424L136.877 215.778L135.741 215.268Z" fill="#F5BC2E"/>
<path d="M139.522 223.392L141.106 221.809L142.624 221.974L140.349 224.249L140.347 224.249L139.522 223.392Z" fill="#F5BC2E"/>
<path d="M215.073 149.525L213.849 150.749L212.824 150.09L214.053 148.861L215.073 149.525Z" fill="#F5BC2E"/>
<path d="M267.692 96.9057L265.634 98.9639L265.53 98.9004L267.036 96.8882L266.271 96.6431L268.428 94.4866L269.109 95.2737L267.783 95.3941L267.518 96.7316L267.692 96.9057Z" fill="#F5BC2E"/>
<path d="M272.916 89.9987L272.061 90.853L272.122 90.9721L273.375 90.3334L272.916 89.9987Z" fill="#F5BC2E"/>
<path d="M207.86 144.833L207.711 144.736L206.855 144.82L207.022 145.67L207.86 144.833Z" fill="#F5BC2E"/>
<path d="M149.284 213.631L150.061 214.537L144.541 220.057L145.698 217.839L145.458 217.456L149.284 213.631Z" fill="#F5BC2E"/>
<path d="M289.042 85.7781L289.085 85.7346L289.149 85.7909L289.042 85.7781Z" fill="#F5BC2E"/>
<path d="M289.893 96.8317L292.106 94.6188L292.294 94.5989L292.535 95.8738L289.79 98.6193L289.692 98.5029L289.306 97.4195L289.857 96.8681L289.908 96.8762L289.893 96.8317Z" fill="#F5BC2E"/>
<path d="M253.564 134.845L252.937 135.472L253.238 134.687L253.564 134.845Z" fill="#F5BC2E"/>
<path d="M312.69 75.719L312.476 75.9327L311.78 75.7298L312.118 75.0912L311.889 74.8365L314.071 72.6538L315.116 73.2928L314.403 74.0058L314.106 73.3802L313.48 74.2477L313.799 74.6103L313.497 74.9117L312.805 74.9948L312.69 75.719Z" fill="#F5BC2E"/>
<path d="M310.915 75.8101L310.828 76.1154L310.607 76.118L310.915 75.8101Z" fill="#814DF5BC2E99"/>
<path d="M290.696 107.934L291.044 107.586L291.559 107.492L291.977 108.337L291.75 108.564H291.294L290.469 109.845L290.117 110.197L289.716 109.058L291.126 108.239L290.696 107.934Z" fill="#F5BC2E"/>
<path d="M178.998 219.633L181.994 216.636L182.211 216.959L182.907 217.407L178.073 222.241L177.56 221.333L178.998 219.633Z" fill="#F5BC2E"/>
<path d="M188.617 223.603L187.731 223.128L187.251 223.285L188.552 221.985L188.683 222.345L189.747 222.472L188.617 223.603Z" fill="#F5BC2E"/>
<path d="M300.905 123.221L299.315 123.126L302.697 119.745L303.309 120.408L303.274 120.852L300.905 123.221Z" fill="#F5BC2E"/>
<path d="M325.885 98.2403L325.266 98.8596L324.41 99.2137L323.844 98.5972L325.008 97.4332L325.885 98.2403Z" fill="#F5BC2E"/>
<path d="M297.752 114.468L296.418 115.802L295.319 115.312L295.175 115.361L299.634 110.902L299.742 110.938L299.874 112.263L297.597 114.299L297.752 114.468Z" fill="#F5BC2E"/>
<path d="M305.7 128.647L307.474 126.873L308.755 127.276L306.251 129.78L306.406 129.108L305.7 128.647Z" fill="#F5BC2E"/>
<path d="M247.567 186.779L249.963 184.383L250.165 184.462L250.941 185.09L248.056 187.975L247.9 187.752L247.567 186.779Z" fill="#F5BC2E"/>
<path d="M237.159 197.188L242.013 192.334L243.384 192.647L237.523 198.508L237.159 197.188Z" fill="#F5BC2E"/>
<path d="M245.534 202.402L244.911 202.476L244.211 202.041L245.819 200.433L246.342 201.594L245.534 202.402Z" fill="#F5BC2E"/>
<path d="M257.044 190.892L255.82 192.116L255.13 191.366L254.71 191.543L256.409 189.844L257.044 190.892Z" fill="#F5BC2E"/>
<path d="M319.793 140.048L316.585 143.256L315.061 143.097L319.719 138.439L319.457 139.687L319.793 140.048Z" fill="#F5BC2E"/>
<path d="M314.761 133.175L307.819 140.117L307.348 138.904L313.913 132.339L314.761 133.175Z" fill="#F5BC2E"/>
<path d="M313.495 144.663L313.287 146.543L311.703 146.455L313.495 144.663Z" fill="#F5BC2E"/>
<path d="M253.336 192.917L252.701 193.551L253.274 193.258L253.336 192.917Z" fill="#F5BC2E"/>
<path d="M327.036 143.027L327.918 142.145L329.302 141.952L329.713 142.034L327.668 144.079L327.036 143.027Z" fill="#F5BC2E"/>
<path d="M306.579 175.39L326.504 155.464L326.555 155.448L330.832 152.82L314.284 169.369L313.275 169.702L311.937 171.124L312.13 171.522L307.196 176.457L306.876 176.064L306.579 175.39Z" fill="#F5BC2E"/>
<path d="M326.752 168.805L325.308 168.566L345.619 148.255L346.025 149.532L326.752 168.805Z" fill="#F5BC2E"/>
<path d="M281.244 226.219L280.766 226.697L280.29 225.489L281.827 223.952L282.304 224.405L281.244 226.219Z" fill="#F5BC2E"/>
<path d="M350.595 156.868L350.053 157.159L347.976 157.804L352.633 153.146L353.121 154.343L350.595 156.868Z" fill="#F5BC2E"/>
<path d="M279.999 225.78L279.786 226.357L279.566 226.213L279.999 225.78Z" fill="#F5BC2E"/>
<path d="M335.524 195.75L334.032 195.559L338.027 191.563L338.292 191.993L336.831 194.443L335.524 195.75Z" fill="#F5BC2E"/>
<path d="M331.236 188.133L329.211 190.157L329.326 188.559L331.236 188.133Z" fill="#F5BC2E"/>
<path d="M353.323 213.668L353.126 212.621H352.685L355.893 209.414L356.511 210.48L353.323 213.668Z" fill="#F5BC2E"/>
<path d="M359.591 219.304L359.272 219.477L358.609 218.79L357.26 220.14L357.116 220.096L360.925 216.287L361.2 216.598L361.951 215.261L362.437 214.775L363.314 215.582L359.591 219.304Z" fill="#F5BC2E"/>
<path d="M347.973 207.112L346.716 208.369L346.679 208.284L347.258 207.416L347.973 207.112Z" fill="#F5BC2E"/>
<path d="M405.101 184.016L407.3 181.818L407.945 181.606L408.405 182.396L406.785 184.016H405.101Z" fill="#F5BC2E"/>
<path d="M401.575 187.543L403.663 185.455L405.643 184.595L404.041 185.739L403.366 187.342L403.475 187.326L398.945 191.856L398.304 192.065L398.931 190.378L398.793 190.324L399.208 189.91L400.124 190.041L400.028 189.101L401.534 188.655L401.575 187.543Z" fill="#F5BC2E"/>
<path d="M409.81 191.213L408.668 192.355L410.126 191.824L409.81 191.213Z" fill="#F5BC2E"/>
<path d="M408.404 192.619L409.638 193.068L407.117 195.59L406.08 194.943L408.404 192.619Z" fill="#F5BC2E"/>
<path d="M405.734 196.973L405.039 197.667L405.354 196.945L405.734 196.973Z" fill="#F5BC2E"/>
<path d="M371.402 241.526L374.701 238.227L375.083 238.057L375.577 238.684L376.038 238.574L371.727 242.885L371.323 243.046L371.402 241.526Z" fill="#F5BC2E"/>
<path d="M389.183 235.651L392.192 232.642L393.352 232.683L393.375 233.142L391.667 234.85L389.17 235.78L389.183 235.651Z" fill="#F5BC2E"/>
<path d="M338.59 286.244L341.041 283.793L340.343 286.175L336.665 289.853L335.709 289.125L336.49 288.343L337.075 288.423L337.117 287.717L337.938 286.896L338.581 286.483L338.59 286.244Z" fill="#F5BC2E"/>
<path d="M390.302 236.215L390.327 236.191L390.291 236.19L390.302 236.215Z" fill="#F5BC2E"/>
<path d="M401.457 235.282L403.29 233.449L404.33 233.683L405.541 232.882L400.33 238.093L400.353 237.756L401.457 235.282Z" fill="#F5BC2E"/>
<path d="M332.841 303.898L340.169 296.571L340.112 296.954L337.846 300.496L337.856 300.567L332.829 305.594L332.841 303.898Z" fill="#F5BC2E"/>
<path d="M323.633 326.695L323.699 325.571L323.241 325.403L332.635 316.01L332.564 317.764L323.633 326.695Z" fill="#F5BC2E"/>
<path d="M306.586 353.964L315.081 345.47L315.372 345.512L316.649 345.368L315.347 346.151L315.297 346.937L311.594 350.64L310.551 350.489L308.033 352.959L307.671 354.441L306.599 353.959L306.586 353.964Z" fill="#F5BC2E"/>
<path d="M326.729 335.505L326.482 334.981L326.451 334.099L335.049 325.501L336.048 326.186L326.729 335.505Z" fill="#F5BC2E"/>
<path d="M328.168 345.971L327.916 345.91L327.145 346.452L326.685 345.77L337.45 335.006L338.901 335.238L328.168 345.971Z" fill="#F5BC2E"/>
<path d="M401.1 284.945L399.109 285.252L413.677 270.684L412.452 273.592L401.1 284.945Z" fill="#F5BC2E"/>
<path d="M430.309 255.736L425.891 260.154L425.635 260.131L423.43 260.931L430.57 253.791L430.309 255.736Z" fill="#F5BC2E"/>
<path d="M442.174 231.966L394.19 279.949L393.48 278.975L446.139 226.317L446.206 226.406L445.941 227.357L443.386 229.575L442.174 231.966Z" fill="#F5BC2E"/>
<path d="M448.817 211.733L448.224 214.01L396.74 265.494L396.776 263.774L448.817 211.733Z" fill="#F5BC2E"/>
<path d="M433.4 215.244L435.903 214.2L436.178 214.151L394.412 255.917L392.891 255.754L433.4 215.244Z" fill="#F5BC2E"/>
<path d="M413.235 225.188L412.03 225.646L409.873 227.153L406.335 232.088L413.235 225.188Z" fill="#F5BC2E"/>
<path d="M314.755 345.196L316.033 345.051L314.731 345.834L314.587 348.076L311.598 350.413L309.935 350.172L307.416 352.642L307.055 354.124L305.982 353.642L304.247 354.353L301.813 357.33L300.584 356.269L300.246 357.173L298.595 355.799L298.475 355.414L297.535 354.703L298.174 353.052L302.415 349.076L303.994 346.545L307.139 347.22L313.526 345.015L314.755 345.196ZM338.013 292.541L339.447 292.505L339.761 294.854L339.495 296.637L337.23 300.18L338.073 306.108L335.181 309.94L335.434 312.121L332.024 315.567L331.904 318.555L332.072 319.844L330.723 320.917L331.735 322.712L333.735 323.194L333.832 324.772L336.519 326.616L336.471 328.7L338.049 329.821L337.218 331.701L336.001 332.243L336.531 334.641L339.315 335.087L340.556 336.846L339.194 339.81L338.411 338.737L336.531 338.641L335.266 341.135L333.301 341.171L331.385 343.81L330.831 346.112L332.819 346.473L329.132 349.763L328.963 349.076L330.168 348.341L328.879 345.979L327.3 345.594L326.529 346.136L325.432 344.509L323.094 343.569L326.613 340.135L325.673 339.388L326.939 339.28L327.409 337.942L325.866 334.665L325.758 331.628L326.541 329.761L325.432 328.255L322.974 327.122L323.082 325.254L321.865 324.809L321.359 323.302L322.058 322.073L324.083 321.146L324.348 319.435L327.662 317.169L327.384 316.145L328.204 314.615L327.143 314.772L326.987 314.169L327.842 311.386L329.24 310.265L329.493 308.325L332.205 306.445L332.277 296.011L333.313 295.505L334.844 296.155L336.543 293.77L336.893 293.252L338.013 292.541ZM339.495 282.684L340.604 282.865L339.52 286.564L340.58 289.54L340.423 292.42L339.857 292.529L339.459 291.143L337.314 291.613L336.302 290.89L336.133 289.601L334.615 288.444L334.868 287.89L336.459 288.107L336.519 287.094L337.965 286.167L338.073 283.058L339.495 282.684ZM379.636 237.259L381.974 237.934L382.42 240.163L381.082 240.608L380.07 240.705L378.046 241.536L377.612 242.874L377.142 241.982L377.636 241.452L374.744 241.127L370.707 242.729L370.936 238.355L372.49 238.62L374.467 237.741L374.961 238.367L379.636 237.259ZM392.735 232.367L392.832 234.222L390.518 237.705L389.675 235.873L390.952 235.909L391.338 234.427L388.554 235.463L388.674 234.234L390.349 232.282L392.735 232.367ZM279.326 221.848L281.688 224.089L280.23 226.583L279.579 224.932L279.17 226.041L277.796 225.137L278.013 224.234L277.133 222.535L279.326 221.848ZM181.595 216.643L187.488 220.438L188.066 222.029L190.886 222.366L191.007 223.065L189.476 224.077L187.114 222.812L182.583 224.294L178.1 223.065L176.944 221.016L181.173 216.016L181.595 216.643ZM140.454 214.871L142.491 215.401L142.057 217.016L140.936 217.522L139.84 216.245L140.454 214.871ZM446.855 209.907L446.951 209.401L447.241 210.521L447.662 209.931L448.205 211.401L447 216.028L449 218.269L444.855 223.185L444.481 224.619L445.59 226.089L445.325 227.041L442.77 229.258L441.023 232.704L440.263 234.921L441.059 236.536L440.215 236.644L439.299 238.825L438.094 239.632L436.925 245.211L435.588 244.777L433.503 245.609L433.069 247.681L431.768 248.212L430.237 251.368L429.659 255.67L433.093 256.188L431.611 257.176L432.358 257.526L432.021 259.369L430.406 260.152L431.623 262.924L427.815 261.574L427.369 260.02L425.019 259.815L421.597 261.056L418.777 263.695L417.174 263.924L413.643 268.984L410.944 275.395L409.377 276.503L407.787 279.588L406.232 280.046L405.907 281.504L403.81 281.395L402.942 283.034L400.821 284.576L398.086 284.998L396.772 286.432L395.676 286.239L395.736 285.287L397.736 285.058L397.797 284.251L393.965 281.299L394.121 280.383L392.241 277.804L396.061 268.165L396.29 257.248L395.35 255.766L391.518 255.357L391.844 252.296L391.012 250.862L389 250.886L388.638 249.561L393.254 247.983L395.832 244.802L397.242 244.705L399.52 240.572L399.737 237.44L401.436 233.632L402.268 233.042L403.714 233.367L405.352 232.282L409.257 226.836L411.414 225.33L418.162 222.763L428.273 216.811L435.286 213.883L439.07 213.208L442.517 213.666L446.168 208.895L446.855 209.907ZM136.887 211.389L135.574 212.269L136.261 215.462L133.2 214.088L134.61 208.979L135.236 208.75L135.345 209.702L136.526 210.028L136.887 211.389ZM144.588 208.557L150.974 216.004L150.263 220.727L150.733 221.992L145.997 225.824L143.467 223.896L139.731 223.932L138.478 222.631L137.526 223.101L136.381 222.378L137.658 221.185L142.876 221.751L145.082 217.522L144.25 216.197L144.093 213.317L142.949 212.558L143.937 210.678L143.407 209.473L142.563 208.63L138.309 208.919L137.984 206.979L140.117 205.654L143.648 206.654L144.588 208.557ZM353.378 205.822L357.017 212.1L356.101 214.197L356.571 214.92L357.391 215.257L358.62 214.064L360.584 216.281L361.681 214.329L363.055 215.594L361.416 217.667L358.656 219.161L357.993 218.474L356.644 219.824L355.414 219.45L355.716 218.016L354.655 216.269L353.498 217.57L352.51 212.305H351.257L350.498 213.847L349.461 213.546L348.823 214.546L348.088 214.944L348.003 213.389L346.352 213.703L345.931 212.919L346.726 209.497L346.063 207.967L346.641 207.099L347.69 206.654L347.377 207.847L349.895 208.835L350.642 208.425L351.124 206.051L352.233 205.304L353.378 205.822ZM408.16 199.219L409.293 200.207L407.124 200.834L407.064 199.412L408.16 199.219ZM333.084 187.266L334.904 187.17L337.676 191.676L335.398 195.496L329.566 194.749L329.072 193.472L327.77 193.532L328.373 192.942L328.71 188.242L333.084 187.266ZM405.027 184.278L403.424 185.423L402.749 187.025L404.75 186.736L405.124 187.905L408.835 185.676L408.582 187.459L407.064 188.014L409.438 187.459L409.835 188.64L409.715 189.833L408.775 190.086L409.51 191.508L407.558 192.219L409.51 192.93L409.004 194.279L407.847 194.255L409.582 195.641L408.739 196.111L409.45 196.725L405.979 198.46L404.208 197.846L404.738 196.629L406.232 196.737L406.509 195.279L403.846 193.616L402.774 194.653L402.545 194.026L400.689 194.58L400.677 193.821L401.617 193.773L401.315 193.134L402.641 192.532L402.569 191.496L401.195 191.46L400.846 192.255L398.797 191.387L397.688 191.749L398.315 190.062L397.423 189.712L398.146 188.604L398.411 189.568L399.508 189.724L399.412 188.785L400.918 188.339L400.966 187.025L400.183 187.013L400.809 186.11L405.027 184.278ZM249.055 183.953L249.549 184.146L253.417 187.279L253.719 187.604L254.297 188.712L255.394 188.869L257.563 192.448L254.695 192.472L255.49 192.11L254.514 191.05L252.875 191.737L252.658 192.942L251.598 193.484L250.248 192.845L249.441 192.93L247.995 192.918L247.946 193.64L245.837 192.749L245.633 194.135L244.536 194.484L245.319 195.556L245.066 197.316L243.15 197.906L244.885 199.412L246.03 201.955L244.295 202.159L242.994 201.352L241.463 202.388L239.21 200.436L238.957 201.268L237.667 200.942L236.462 196.581L234.727 195.689L235.908 194.87L234.534 192.291L235.088 189.737L236.293 190.062V191.628L236.992 191.448L237.342 190.026L237.968 190.002L239.499 190.435L240.957 191.917L242.861 192.351L243.138 193.785L244.873 193.701L245.548 191.46L247.127 191.448L247.537 190.52L249.742 192.002L248.73 189.628L249.212 189.038L248.465 188.435L247.705 188.038L247.284 187.435L246.464 185.037L246.982 183.953H249.055ZM407.329 181.29L408.172 182.736L407.57 183.7H404.461L404.533 182.206L407.329 181.29ZM83.8761 181.17L88.0577 185.025L89.3592 185.387L90.3112 184.772L92.1068 186.098L93.0587 187.532L92.4442 187.917L93.7938 189.423L92.4683 190.7L89.2146 190.122L86.8647 187.773L86.708 185.604L83.141 185.435L80.5863 181.688L82.8518 180.651L83.8761 181.17ZM329.831 179.627L330.048 180.675L327.867 180.953L326.818 184.736L325.782 182.905V180.892L327.589 180.796L328.746 178.687L329.831 179.627ZM116.329 174.289L118.004 174.723L117.184 175.326L117.473 176.47L115.039 178.362L114.702 179.76L113.653 179.675L112.207 181.82L106.905 185.013L104.664 184.965L105.567 182.555L107.206 181.061L108.291 177.47L113.123 174.482L116.329 174.289ZM36.6615 166.554L36.3 168.373L40.9154 170.602L44.9403 168.566L45.3862 167.084L46.3744 167.638L46.9528 166.963L47.3143 167.927L49.134 168.494L47.6156 170.639L48.4712 171.337L48.194 172.627L49.3991 176.025L48.5555 178.627L47.2059 180.374L46.0008 179.687L45.2537 180.471L44.0486 180.326L43.4701 181.302L42.0843 180.965L41.2167 181.989L40.2044 180.603L38.2643 180.338L37.1917 181.76L36.4808 181.326L34.7575 182.302L33.8657 181.832L26.9004 182.64L24.9603 183.616L24.5385 180.965L26.1051 179.121L25.2736 177.663L26.6594 175.627L25.4062 174.205L27.033 173.301L26.4666 172.325L27.3343 171.265L26.7438 170.952L28.4309 169.482L30.3951 172.157L32.9499 171.349L33.2632 172.94L32.4799 174.555L33.6247 176.121L36.1554 176.097L37.2279 177.639L40.6382 176.362L40.9877 175.446L39.6019 173.169L37.252 173.53L34.1068 169.373L34.8298 168.952L34.6009 166.783L36.6615 166.554ZM57.7141 164.542L61.5221 165.602L62.1487 169.024L61.2208 169.916L59.9193 170.47L56.75 168.916L55.569 165.421L56.4969 164.421L57.7141 164.542ZM131.657 164.361L134.176 167.445L133.501 169.072L134.73 169.084L136.116 170.361L137.417 170.096L137.562 171.422L139.948 172.241L141.719 174.603L140.081 175.398L139.297 176.964L140.153 178.001L140.695 180.29L140.382 181.471L139.827 182.772L137.839 181.832L136.646 184.182L134.887 182.326L134.429 180.41L133.477 180.254L132.862 179.555L129.524 175.639L129.886 174.47L126.897 174.783L126.222 174.446L125.897 172.843L126.692 170.229L126.198 167.12L127.584 164.903L131.657 164.361ZM16.6453 162.529L17.4768 162.493L17.8263 163.975L16.4284 167.144L15.151 165.433L14.2231 165.397L13.9339 162.855L15.9825 162.108L16.6453 162.529ZM171.208 157.806L170.352 158.746L169.364 157.107L170.268 156.734L171.208 157.806ZM50.7849 157.119L51.5803 157.107L52.1587 158.854H53.7855L54.0507 157.722L55.545 159.336L54.4483 159.867L53.8217 163.951L52.3636 165.686L48.4953 166.602L47.3023 164.975L47.6397 163.819L46.3503 162.915L46.3021 160.119L47.5794 159.83L49.2545 157.384L50.7849 157.119ZM172.135 156.42L173.124 156.89L172.738 157.625L170.918 157.348L170.942 156.505L172.135 156.42ZM149.613 154.408L149.275 156.095L150.155 156.071L149.673 159.457L148.275 159.445L147.094 160.457L143.25 159.421L143.431 158.18L144.949 158.348L145.238 156.348L147.058 155.89L148.263 153.794L149.492 153.432L149.613 154.408ZM196.755 150.902L197.96 151.565L196.827 152.396L193.995 151.299L196.755 150.902ZM155.168 150.721L155.927 154.167L156.204 154.673L156.952 155.264L156.361 155.938L155.072 155.131L154.855 154.709L154.035 154.866L153.372 153.251L152.565 153.914L152.204 153.01L152.866 151.709L153.3 151.095L155.168 150.721ZM168.496 148.673L170.822 149.516L170.918 151.167L172.087 151.275L171.87 153.083L168.882 152.396L168.532 153.047L166.604 151.721L163.844 152.456L163.784 150.974L164.592 150.203L166.267 150.275L167.387 148.564L168.496 148.673ZM345.665 150.022L348.69 151.348L351.173 150.757L352.896 154.986L349.437 156.842L332.675 162.047L326.601 168.566L318.973 167.301L312.659 169.385L311.321 170.807L312.839 173.94L310.815 175.663L311.61 180.049L309.357 179.555L306.26 175.747L305.416 173.832L306.079 167.674L310.465 166.18L314.273 166.59L317.575 161.385L322.564 156.252L325.938 155.131L332.687 150.986L340.122 150.058L344.762 147.179L345.665 150.022ZM162.856 146.636L162.543 147.612L160.916 148.094L160.109 150.143L159.542 149.468L157.988 149.54L159.868 147.564H161.085L162.531 146.154L162.856 146.636ZM207.094 144.419L215.783 150.07L213.325 150.492L211.734 149.468L207.01 150.372L205.215 152.131L204.479 151.793L201.117 155.348L199.442 155.806L198.478 157.686L196.767 158.625L195.935 161.071L191.778 164.71L188.741 165.385L187.645 164.939L184.813 167.506L181.884 167.289L178.992 165.493L178.366 163.542L180.065 164.542L181.764 161.843L182.632 162.18L183.041 161.156L185.09 162.096L185.656 161.228L187.91 162.071L189.199 160.915L189.778 161.686L190.465 160.782L189.802 159.324L191.862 159.107L188.898 158.18L189.573 156.216L190.489 156.035L191.344 155.372L191.73 155.336L192.802 155.42L193.766 154.456L196.55 154.119L200.467 151.757L203.865 149.227L201.443 148.323L201.925 147.143L203.491 145.829L203.829 146.335L204.492 145.648L206.504 145.853L206.239 144.504L207.094 144.419ZM164.977 142.841L166.026 143.299L165.327 143.576L165.7 144.709L164.025 145.697L162.471 145.492L161.856 144.166L162.507 143.034L164.977 142.841ZM328.686 141.636L329.602 141.817L329.686 142.901L331.144 141.6L333.072 142.491L330.723 144.769L333 145.853L333.41 147.01L331.614 146.13L329.963 146.95L328.734 146.564L328.806 145.191L327.794 144.998L325.999 142.01L328.686 141.636ZM97.4452 139.756L98.3369 140.395L99.9638 139.672L101.916 141.034L100.06 142.299L99.2408 141.805L97.3368 142.745L95.6497 140.949L96.8788 139.214L97.4452 139.756ZM304.85 133.792L306.368 135.178L305.549 137.346L305.018 136.009L302.03 134.37L304.85 133.792ZM256.418 134.491L259.539 135.202L260.13 136.419L256.876 136.491L256.358 136.057L256.346 135.431L254.418 136.142L255.141 137.057L251.549 136.973L251.863 136.274L253.08 136.72L252.164 135.563L252.622 134.37L254.104 135.093L254.08 134.419L254.779 134.117L255.611 134.539L256.418 134.491ZM59.4494 130.454L61.9077 131.141L63.2092 132.575L65.5109 132.454L66.7039 133.214L67.9451 135.913L69.8853 137.467L72.7533 142.01L72.8377 142.805L71.7772 144.19L71.2349 143.467L70.066 145.781L68.7525 145.299L68.9694 146.661L66.3665 149.107L64.1733 145.853L64.9686 145.118L63.7274 145.094L63.1489 142.467L63.7756 141.901L63.0887 140.805L62.1728 140.997L62.5103 139.732L61.2329 138.78L63.5225 136.973L61.0159 136.37L61.9198 135.153L60.7147 134.382L61.0401 132.876L58.9553 132.322L59.1963 131.286L59.4494 130.454ZM106.736 129.514L108.062 130.057L106.784 131.683L106.242 138.335L104.7 140.106L106.447 143.214L105.941 144.311L104.206 141.925H103.507L102.82 140.009L100.928 139.539L99.8674 138.178L100.964 137.961L100.422 134.696L103.169 133.322L104.037 131.045L106.314 130.551L106.134 129.671L106.736 129.514ZM323.661 127.37L326.035 128.249L324.396 128.647L322.094 127.635L323.661 127.37ZM303.235 125.864L304.669 126.611L305.537 126.141L308.79 127.165L309.887 127.418L313.189 129.671L313.984 131.009L311.731 130.478L315.153 133.852L315.105 135.672L316.491 134.19L318.383 134.25L320.25 136.732L319.359 136.901L318.841 139.371L319.491 140.07L317.768 141.624L318.419 142.154L319.407 141.708L320.311 143.395L313.068 142.636L312.671 146.227L310.501 146.106L308.79 145.612L308.284 146.13L306.995 143.395L305.187 143.094L304.765 142.431L307.368 140.226L306.489 137.961L308.091 135.72L308.115 133.238L311.164 133.937L308.212 130.141L306.778 129.792L306.091 130.249L306.561 130.707L305.283 130.984L305.79 128.791L301.692 126.117L302.632 125.165L303.235 125.864ZM188.103 118.55L186.741 119.297L187.958 121.032L189.163 121.188L187.922 124.249L185.897 124.008L185.186 122.972L184.463 123.863L182.21 119.369L184.258 120.827L185.367 120.237L185.982 117.971L186.777 118.646L187.958 117.863L188.103 118.55ZM122.679 115.718L123.728 116.622L123.414 117.092L122.703 116.803L122.101 118.345L121.004 118.947L122.161 119.959L124.222 118.911L126.656 119.273L126.463 118.176L127.222 118.405L127.307 117.405L125.933 117.043L126.668 115.501L126.933 116.405L128.524 115.586L129.91 116.61L128.174 118.2L128.97 119.08L127.415 120.827L126.692 122.887L127.21 123.514L125.716 125.249L128.199 127.864L126.704 128.442L127.982 129.382L125.68 131.647L124.692 135.021L123.631 134.937L121.92 137.334L120.896 137.009L118.124 139.359L115.762 138.961L115.172 138.009L113.605 138.238L112.4 136.334L110.966 137.25L108.809 133.756L108.761 131.539L109.845 130.274L109.749 127.55L115.027 124.068L114.714 123.333L114.087 123.767L113.28 123.02L112.581 123.899L112.304 123.369L115.196 119.779L119.57 117.935L120.342 116.694L121.872 116.429L121.836 115.899L122.475 115.128L122.679 115.718ZM156.409 109.055L157.229 109.609L157.494 111.392L158.711 111.621L159.205 113.007L160.024 113.115L161.76 116.405L162.929 120.333L162.121 124.249L163.869 124.61L161.458 126.044L160.711 133.069L159.735 134.045L157.65 141.877L156.771 142.455L156.373 141.744L153.143 142.226L153.095 142.829L151.167 143.251L150.565 145.419L149.046 144.696L146.684 147.408L144.841 146.624L145.166 145.938L143.985 145.263L144.033 140.479L142.153 140.118L141.081 139.057L139.888 139.322L140.466 136.828L137.429 132.744L138.237 132.467L138.984 130.575L136.333 127.49L136.032 126.129L134.188 125.779L135.345 123.562L137.188 124.381L138.297 123.827L138.695 121.887L138.177 121.309L140.767 120.273L142.756 117.766L145.528 117.501L148.179 115.875L151.601 110.549L155.891 108.633L156.409 109.055ZM294.052 108.826L295.45 109.416L299.126 110.621L299.258 111.947L296.981 113.983L297.68 114.742L299.499 114.055L301.15 115.007L299.559 115.778L299.427 116.549L302.693 120.092L302.476 122.827L301.222 122.96L297.571 122.743L296.27 121.092L299.403 119.971L299.331 118.526L296.872 119.393L295.402 120.923L293.655 117.935L294.474 117.923L296.161 115.646L294.703 114.995L292.666 115.694L292.413 113.983L289.967 113.682L289.003 112.646L290.449 109.754L293.016 110.199L292.269 108.934L294.052 108.826ZM44.0004 108.223L45.7839 108.019L45.6995 108.693L47.7361 109.754L47.9771 110.959L47.9169 111.754L46.76 114.236L48.0012 114.802L47.941 118.333L47.013 118.116L46.5913 116.2L45.8683 116.308L45.9285 119.851L43.5184 121.285L43.422 120.719L42.5302 120.923L43.5304 119.248L39.8068 119.369L39.9393 117.393L39.0234 117.562L38.5535 118.863L37.24 118.827L35.9264 118.646L34.866 119.562L34.8178 118.188L36.6494 117.068L35.4564 114.73L37.3123 114.079L36.4085 112.887L37.9268 111.971L37.7099 110.778L39.0716 110.296L39.9272 108.73L41.6264 109.356L41.5541 108.055L42.5905 107.97L43.4701 107.597L44.0004 108.223ZM290.943 107.175L291.473 108.248H290.678L289.545 110.007L289.099 108.742L290.509 107.922L289.762 107.392L290.943 107.175ZM324.348 94.7162L325.047 95.2946L323.866 96.632L325.541 98.1744L323.793 98.8973L322.998 98.0298L322.95 96.0176L323.577 94.7283L324.348 94.7162ZM284.833 91.6196L286.123 91.7642L286.942 92.9209L286.545 93.6438L288.485 94.6198L291.678 94.2825L292.16 96.8369L291.208 97.3911L291.232 98.6563L290.509 97.6563L289.461 98.6443L289.075 98.1864L288.449 96.4272L289.292 96.5597L288.967 95.5958L287.316 96.5959L286.087 95.3187L283.978 95.0777L283.339 92.7402L284.773 92.9329L284.207 92.1618L284.833 91.6196ZM267.782 84.6551L268.782 85.0407L268.649 86.3541L270.77 86.7517L271.023 88.7519L272.759 90.017L271.505 90.6556L271.023 89.7038L267.673 88.4868L267.866 89.5592L266.504 89.7881L267.023 91.8606L266.167 92.2702L268.493 94.9572L267.167 95.0777L266.902 96.4152L268.336 97.849L268.384 99.572L266.697 99.6685L264.914 98.584L266.42 96.5718L265.179 96.1742L264.588 97.0538L263.347 97.0176L263.998 95.7766L263.648 93.3305L263.926 91.4629L264.046 88.6314L264.805 87.8722L263.962 86.9204V85.1732L264.576 84.9202L266.01 86.4504L267.215 86.0408L267.782 84.6551ZM285.099 82.1248L285.93 82.2332L286.063 83.3056L288.533 85.4745L287.726 85.3781L286.858 87.0168L286.617 85.1973L285.557 85.4383L285.291 84.7033L284.713 83.2815L283.857 83.414L283.906 82.2694L283.146 81.7633L283.845 80.3656L285.099 82.1248ZM128.295 80.8235L128.174 84.7033L126.969 85.6913L126.668 82.2091L127.295 80.3897L127.849 80.8355L128.355 80.2572L128.295 80.8235ZM122.113 76.558L124.162 79.1848L123.487 81.9681L123.921 82.9562L125.776 81.8235L126.005 82.9923L125.415 85.2696L124.306 84.8479L124.21 83.9804L123.463 85.5708L121.836 86.4264L121.51 85.4383L123.547 82.6911L122.715 81.5102L121.474 82.1488L121.269 80.1246L119.811 79.2088L119.667 77.6304L120.619 77.4738L120.787 78.3413L121.8 78.5823L122.113 76.558ZM151.288 74.0036L151.252 76.2447L150.444 76.3411L149.914 74.835L151.288 74.0036ZM312.357 71.666L315.057 73.3168L315.286 74.5217L314.165 74.4856L313.49 73.0637L312.863 73.9313L313.394 74.5338L312.189 74.6783L312.032 75.6664L311.164 75.4133L311.502 74.7747L310.742 73.9313L310.212 75.7989L309.212 75.811L308.043 73.9554L308.597 73.8349L308.019 72.0396L306.392 71.6299L312.357 71.666ZM37.5171 70.9069L36.1313 76.1724L37.9992 76.4134L37.722 78.0401L40.6503 78.1726L42.3494 81.0162L42.3615 82.4501L41.0841 83.5707L40.7587 82.0886L40.096 82.8718L39.4211 82.3296L39.5416 84.8479L37.8666 87.7879L37.9509 89.1615L36.6977 89.1495L36.6013 90.7641L35.3359 91.0532L35.4082 91.8606L33.5886 92.8727L33.0463 94.3307L29.5757 95.3427L29.2744 93.7764L30.5518 93.7643L29.8167 91.0051L30.9736 90.6918V88.3904L31.4556 87.6554L33.2512 86.4504L31.9377 84.872L32.1907 82.8477L32.2751 81.9681L33.1668 81.8597L32.1546 80.5222L32.974 80.0402L31.2989 79.739L31.1664 80.3776L29.648 80.462L29.4913 78.8956L33.3355 73.365L36.0349 71.0997L37.5171 70.9069ZM135.682 68.3645L137.212 68.979L137.273 71.6178L138.839 73.5698L139.743 72.6179L139.297 69.461L140.081 68.8706L141.948 68.9911L142.708 71.0394L144.768 70.7382L144.744 72.2685L148.215 71.7986L147.962 75.7869L144.033 76.2447L144.346 77.3653L143.551 77.3774L143.708 77.9437L142.021 77.5702L141.466 80.1366L140.081 78.8956L139.129 80.221L138.14 79.8836L138.08 80.9078L136.646 80.6427L136.019 81.4862L135.73 80.2692L134.826 79.8595L134.694 80.6548L134.067 80.5222L133.103 78.9197L132.477 81.1729L131.344 81.6789L131.982 79.245L130.669 77.6545L131.38 76.4857L133.151 78.2811L133.862 75.3652L133.621 73.1842L131.681 72.2564L131.537 70.5575L131.946 69.449L135.682 68.3645ZM85.8163 66.3644L86.3947 67.1114L90.6607 68.0392L92.2875 70.2804L92.866 74.1602L92.0224 76.1242L91.2993 77.4858L91.7091 78.0521L93.0829 77.7509L95.2038 81.7753L93.2034 82.667L92.5406 84.149L91.4801 84.0647L89.1061 84.4623L84.9004 86.9445L85.503 84.8841L84.6112 83.655L85.4427 83.6791L85.6476 82.8477L85.1776 82.2211L82.4421 82.3055L83.1049 79.8113L84.8884 78.9799L83.2736 78.016L85.5512 77.4738L86.2019 75.6664H87.3467L87.2262 73.9795L86.7563 73.4493L86.5393 72.1119L87.4793 72.0757L86.684 71.1359L87.3829 69.2803L86.5032 68.3284L85.6235 68.6055L84.7317 66.8584L85.8163 66.3644ZM69.8612 50.2786L70.4758 50.4834L69.584 54.4236L70.5601 55.8936L64.125 53.785L66.258 52.1222L66.4267 50.5437L69.8612 50.2786ZM97.4814 44.5673L98.1562 46.0373L98.7346 44.3504L99.9276 45.1216L101.326 44.3263L101.904 45.4228L103.434 44.4106L104.145 44.8926L104.001 46.0975L104.856 46.447L103.579 47.6398L104.567 48.3628L106.206 48.1579L107.267 48.4833L108.206 48.1579L110.858 47.6639L112.135 49.3629L112.894 49.0496L113.798 50.1943L114.521 50.2786L114.304 49.0496L116.678 49.9292L118.04 49.2906L123.149 52.4354L123.945 53.3632L125.62 53.315L125.764 55.7369L123.101 60.8458L123.439 63.2316L122.101 64.2558L121.294 63.9063L118.437 65.0871L117.257 64.1593L115.738 64.2437L113.328 61.4723L110.496 61.7495L109.749 60.9663L110.376 59.0143L109.243 58.6649L109.231 57.6768L107.411 57.5323L107.363 56.7009L106.194 56.6045L104.917 55.8333L102.76 52.8331L101.41 52.821L101.338 51.8691L99.771 51.363L95.1917 46.8807L95.2761 45.1095L96.3607 44.1335L97.4814 44.5673ZM27.8284 43.278L27.7681 44.5552L29.0455 43.1696L32.3233 44.5311L34.3839 47.3627L34.3116 48.5315L33.2994 48.4953L33.6368 49.5436L32.6366 52.3993L28.5996 58.3275L24.9482 61.0988L23.2491 63.9665L20.0316 65.3522L19.5616 61.2314L20.4413 57.7973L18.7542 57.1828L19.1278 55.1706L19.9954 54.8212L18.9711 53.6283L20.4051 51.592L20.0797 50.9775L20.4292 50.3027L21.3571 49.4231L21.9596 46.7L23.0683 46.1939L24.2132 46.8325L25.5146 45.6637L23.9601 45.6517L25.2736 43.6877L26.8402 43.7479L27.9368 42.8081L27.8284 43.278ZM6.28172 35.6267L6.40224 38.2776L4.79947 39.4584L4.65487 41.4224L3.53416 42.8322L3.9198 43.5431L1.52168 48.6881L1.42529 43.6395L5.06459 33.5663L5.54661 33.4217L6.28172 35.6267ZM75.5973 0.671875L74.8019 2.73229L75.7299 3.51552L75.6455 4.4915L79.8633 5.6723L79.2848 8.87741L80.5863 10.7451L80.743 12.6127L84.1654 12.7211L85.3463 13.8297L91.9139 13.3477L93.4203 14.2514L93.4805 15.1671L93.4444 17.9746L92.5647 18.5771L92.6972 19.5771L91.6006 19.9868L91.0704 21.8303L92.1068 21.8424L92.0585 22.6738L92.4683 22.963L93.9023 22.975L93.7818 24.5053L94.9507 23.9751L95.1194 25.3487L96.0473 25.662L94.3241 28.1321L95.252 28.7105L93.7095 29.6142L93.0226 31.6867L94.2638 31.9276L95.6858 31.0842L98.2406 31.6143L95.3363 38.4583L94.1192 39.2415L93.9023 40.3862L93.0226 40.4826L93.9867 43.531L92.89 43.519L90.6848 41.7116L88.4674 38.7475L88.8169 37.7354L86.1055 32.2288L84.2256 32.2048L83.2616 30.7468L81.9721 30.8793L81.478 28.5418L79.3933 28.0357L79.3812 25.9271L78.2966 24.8427L76.8747 24.6258L76.0311 25.3367L76.4167 23.1558L75.284 22.1075L74.1633 20.4326L72.9462 17.4203L71.7652 17.842L70.8252 16.5407L69.3791 16.9263L68.7164 17.3239L66.7642 17.7095L67.0413 16.2515L66.1857 15.7937L66.957 14.5044L65.3421 13.5043L64.7276 10.6728L65.0891 9.35937L64.0648 7.03387L64.583 5.47955L69.0658 3.16608L69.0538 2.34674L70.9337 1.2864L75.5973 0.671875Z" stroke="#F5BC2E"/>
</svg>
