<svg width="470" height="280" viewBox="0 0 275 165" fill="none" xmlns="http://www.w3.org/2000/svg">
<path d="M1.79053 49.0976L7.82541 43.0627L9.45395 42.8483L1.92288 50.3794L1.79053 49.0976Z" fill="#F5BC2E"/>
<path d="M8.01624 54.286L7.86423 54.1777L6.86315 54.025L23.6047 37.2834L24.3226 37.1039L24.9621 37.3401L8.01624 54.286Z" fill="#F5BC2E"/>
<path d="M8.51652 63.7857L8.23999 62.6481L32.2269 38.6612L32.8251 38.9864L36.8638 35.434L36.8652 35.437L8.51652 63.7857Z" fill="#F5BC2E"/>
<path d="M12.7611 69.5411L12.4799 69.197L11.8046 69.0835L51.3105 29.5776L52.0266 29.736L53.0871 27.801L55.3415 25.5466L56.2069 25.6674L57.1989 23.9469L59.1423 22.7122L59.4241 22.8782L12.7611 69.5411Z" fill="#F5BC2E"/>
<path d="M17.5339 74.7683L16.8222 74.5104L16.6223 74.2658L62.3211 28.567L62.7115 29.5908L17.5339 74.7683Z" fill="#F5BC2E"/>
<path d="M24.3056 77.9967L23.4939 77.3942L72.9749 27.9132L73.0298 27.9851L74.2553 28.0469L24.3056 77.9967Z" fill="#F5BC2E"/>
<path d="M30.594 81.7083L29.6569 81.9694L29.2332 81.6549L85.5036 25.3845L85.6114 25.4853L84.9636 26.6896L85.1845 27.1177L33.833 78.4692L33.6754 78.3664L32.15 80.1523L30.594 81.7083Z" fill="#F5BC2E"/>
<path d="M38.5858 83.7165L38.8578 82.6475L38.7187 82.1694L87.1249 33.7632L87.3828 34.4624L87.6596 34.6426L38.5858 83.7165Z" fill="#F5BC2E"/>
<path d="M42.9654 89.3369L42.1802 88.7079L90.7053 40.1828L91.0368 40.6563L91.9542 40.3481L42.9654 89.3369Z" fill="#F5BC2E"/>
<path d="M23.241 117.647L27.114 113.774L28.2702 113.87L28.6293 113.673L23.8739 118.428L23.3205 118.05L23.241 117.647Z" fill="#F5BC2E"/>
<path d="M30.3069 121.995L29.2915 121.597L104.164 46.7242L104.95 47.352L30.3069 121.995Z" fill="#F5BC2E"/>
<path d="M37.5828 124.719L36.5195 124.369L118.145 42.743L118.498 42.7007L119.034 43.2683L37.5828 124.719Z" fill="#F5BC2E"/>
<path d="M52.0293 120.273L47.917 122.999L47.869 123.019L63.9612 106.927L63.9807 107.524L64.4972 107.805L52.0293 120.273Z" fill="#F5BC2E"/>
<path d="M85.1697 97.1325L84.7612 97.019L83.9702 96.918L131.943 48.9456L132.554 49.7483L85.1697 97.1325Z" fill="#F5BC2E"/>
<path d="M89.2581 103.044L88.7998 102.93L88.5797 102.308L138.201 52.6876L138.296 52.8215L139.155 53.1473L89.2581 103.044Z" fill="#F5BC2E"/>
<path d="M95.2893 107.013L95.2678 107.008L92.4341 108.454L144.261 56.6269L145.127 57.1756L95.2893 107.013Z" fill="#F5BC2E"/>
<path d="M83.0181 127.87L94.8069 116.081L94.9641 116.238L95.4369 116.865L82.4014 129.901L83.0181 127.87Z" fill="#F5BC2E"/>
<path d="M85.7561 136.546L84.103 136.785L101.37 119.518L101.946 120.356L85.7561 136.546Z" fill="#F5BC2E"/>
<path d="M91.3009 141.001L90.4934 140.395L104.393 126.496L105.556 126.746L91.3009 141.001Z" fill="#F5BC2E"/>
<path d="M104.786 137.516L104.519 137.209L102.505 139.405L101.096 139.792L105.667 135.221L105.511 135.863L106.141 136.161L104.786 137.516Z" fill="#F5BC2E"/>
<path d="M160.215 102.087L159.73 101.158L206.149 54.7396L206.397 54.9469L207.495 54.8077L160.215 102.087Z" fill="#F5BC2E"/>
<path d="M167.994 104.308L167.205 103.992L166.952 103.937L221.222 49.666L222.512 49.7903L167.994 104.308Z" fill="#F5BC2E"/>
<path d="M174.478 107.824L173.489 107.399L264.631 16.2576L264.994 16.6296L265.477 16.8257L174.478 107.824Z" fill="#F5BC2E"/>
<path d="M183.903 108.399L182.743 108.145L271.043 19.8452L271.278 21.0244L183.903 108.399Z" fill="#F5BC2E"/>
<path d="M192.108 110.195L190.947 109.941L271.151 29.7371L271.513 30.7891L192.108 110.195Z" fill="#F5BC2E"/>
<path d="M202.067 110.235L200.84 110.048L246.394 64.4938L246.825 65.2802L246.645 65.6574L202.067 110.235Z" fill="#F5BC2E"/>
<path d="M166.448 154.44L166.65 154.238L167.83 154.473L167.012 155.291L166.448 154.44Z" fill="#F5BC2E"/>
<path d="M172.103 160.199L171.35 159.538L180.082 150.806L181.234 151.068L172.103 160.199Z" fill="#F5BC2E"/>
<path d="M178.504 163.799L177.164 163.725L187.349 153.539L188.106 154.196L178.504 163.799Z" fill="#F5BC2E"/>
<path d="M237.219 105.083L219.845 122.458L219.829 121.825L220.056 120.833L246.814 94.0743L247.374 94.9287L237.506 104.797L237.219 104.802V105.083Z" fill="#F5BC2E"/>
<path d="M246.234 84.6539L246.734 85.4712L246.708 85.5938L219.882 112.42L218.715 112.173L246.234 84.6539Z" fill="#F5BC2E"/>
<path d="M274.285 48.0174L269.571 52.7316L269.255 52.8013L268.575 52.3128L274.473 46.4152L274.285 48.0174Z" fill="#F5BC2E"/>
<path d="M272.492 38.3961L272.457 39.8453L250.813 61.4894L249.264 61.6469L249.252 61.6357L272.492 38.3961Z" fill="#F5BC2E"/>
<path d="M246.994 73.8946L247.483 74.3788L246.106 75.5124L246.144 76.1585L211.838 110.465L210.613 110.275L246.994 73.8946Z" fill="#F5BC2E"/>
<path d="M216.662 114.226L216.823 114.498L218.048 113.85L218.366 112.522L216.662 114.226Z" fill="#F5BC2E"/>
<path d="M249.354 91.5344L249.294 91.7157L249.008 91.8805L249.354 91.5344Z" fill="#F5BC2E"/>
<path d="M260.021 10.8671L261.299 10.6583L261.461 10.8416L234.343 37.9593L233.779 37.1089L260.021 10.8671Z" fill="#F5BC2E"/>
<path d="M252.832 8.05654L253.868 8.43474L233.747 28.5555L233.539 27.3496L252.832 8.05654Z" fill="#F5BC2E"/>
<path d="M244.803 6.0854L245.074 6.11406L246.794 5.355L246.926 5.37636L230.707 21.5954L230.845 20.043L244.803 6.0854Z" fill="#F5BC2E"/>
<path d="M238.133 2.75472L238.817 3.48543L226.115 16.1873L225.558 16.0729L225.436 15.4518L238.133 2.75472Z" fill="#F5BC2E"/>
<path d="M222.507 8.38127L225.53 5.35771L226.734 5.5683L222.637 9.66543L222.441 8.58354L222.507 8.38127Z" fill="#F5BC2E"/>
<path d="M175.32 55.5683L177.33 53.5583L178.389 53.9135L174.618 57.6839L175.32 55.5683Z" fill="#F5BC2E"/>
<path d="M160.335 60.5536L161.031 60.7461L161.902 60.3999L122.324 99.978L121.696 99.9439L120.47 100.418L160.335 60.5536Z" fill="#F5BC2E"/>
<path d="M148.821 62.0667L150.094 62.2085L103.517 108.786L101.824 109.064L148.821 62.0667Z" fill="#F5BC2E"/>
<path d="M139.68 91.208L173.129 57.7594L174.12 58.1824L140.656 91.6467L140.048 91.4425L139.68 91.208Z" fill="#F5BC2E"/>
<path d="M139.129 93.1731H138.772L138.443 93.8593L139.129 93.1731Z" fill="#F5BC2E"/>
<path d="M142.015 98.873L143.329 98.9737L187.729 54.5736L186.708 54.1804L142.015 98.873Z" fill="#F5BC2E"/>
<path d="M199.573 51.3154L151.345 99.5434L153.52 98.3752L153.876 98.4265L201.766 50.5366L201.073 49.9472L200.436 51.1415L199.573 51.3154Z" fill="#F5BC2E"/>
<path d="M150.213 100.675L150.038 100.976L149.931 100.957L150.213 100.675Z" fill="#F5BC2E"/>
<path d="M227.37 4.93272L227.886 3.70531L229.585 2.7168L227.37 4.93272Z" fill="#F5BC2E"/>
<path d="M232.655 39.6477L232.441 39.6746L231.898 40.4043L232.655 39.6477Z" fill="#F5BC2E"/>
<path d="M125.523 46.7795L72.5576 99.7447L72.3516 99.4379L71.3697 99.5184L124.336 46.5517L125.523 46.7795Z" fill="#F5BC2E"/>
<path d="M70.8793 100.009L67.2413 103.647L67.9485 103.719L68.5659 102.626L69.6591 102.424L70.8793 100.009Z" fill="#F5BC2E"/>
<path d="M65.4934 105.395L65.108 105.78L65.2662 105.824L65.4934 105.395Z" fill="#F5BC2E"/>
<path d="M99.406 41.4822L100.674 41.628L44.9771 97.3252L45.3966 96.594L45.1891 95.699L99.406 41.4822Z" fill="#F5BC2E"/>
<path d="M41.0285 101.274L40.7304 101.29L40.7184 101.584L41.0285 101.274Z" fill="#F5BC2E"/>
<path d="M36.0655 106.237L34.5661 107.565L34.4433 107.859L36.0655 106.237Z" fill="#F5BC2E"/>
<path d="M45.0414 25.8467L45.784 26.5182L40.8264 31.4759L40.8393 30.0489L45.0414 25.8467Z" fill="#F5BC2E"/>
<path d="M28.0503 34.252L27.42 33.8754L27.1266 35.1756L28.0503 34.252Z" fill="#F5BC2E"/>
<path d="M179.006 150.413L185.15 151.81L188.956 155.119L188.662 160.372L180.129 163.651L176.293 163.439L174.673 161.324L171.637 159.977L167.193 156.081L165.746 153.895L167.983 154.34L170.301 151.658L173.165 150.434L176.84 149.755L179.006 150.413V150.413ZM94.4464 115.972L95.3777 117.207L97.6956 118.047L99.72 117.035L101.016 118.138L100.651 118.958L101.714 120.506L102.989 121.62L104.933 121.549L105.996 122.885L105.732 123.674L104.093 123.35L103.526 124.636L103.759 126.204L105.732 126.629L105.216 127.318L105.824 128.866L103.951 130.344L104.568 133.754L105.358 134.099L104.994 135.596L105.935 136.042L105.186 138.309L104.002 136.943L101.987 139.139L99.8516 139.726L97.6146 140.06L95.4586 141.193L95.6712 142.003L93.91 142.195L93.333 142.934L92.9686 141.234L91.258 141.092L89.6283 139.867L90.0029 138.187L88.3428 136.528L86.9561 136.032L82.7555 136.639L82.462 134.908L81.3384 134.615L81.2473 131.73L83.1098 125.597L85.3973 122.257L85.6504 119.869L87.8266 119.687L88.7882 117.976L90.1648 117.693L93.6974 115.223L94.4464 115.972V115.972ZM235.77 2.94319L237.217 2.06268L239.262 4.24878L242.643 5.64544L244.556 5.84786L246.277 5.0888L249.02 5.53412L250.791 7.23441L255.781 9.05615L256.753 8.70192L257.836 10.0784L259.233 10.6451L260.781 10.3921L261.53 11.2422L260.751 12.5478L264.476 16.3634L267.988 17.7904L270.185 17.8714L270.762 20.7659L269.699 22.4966L270.509 25.6037L270.114 27.9618L271.187 31.079L271.065 34.1456L272.027 35.9471L271.926 40.1371L273.474 40.967L274.092 44.985L273.566 49.4685L270.387 52.1707L268.737 52.5351L265.751 50.3895L263.494 50.6931L262.937 51.9177L261.51 52.0594L260.569 54.7009L258.544 55.3487L258.15 57.3931L256.024 57.7777L253.028 60.9455L248.746 61.3807L247.471 60.156L245.659 60.9961L245.194 62.9797L246.307 65.014L245.376 66.9673L245.69 69.1028L244.586 69.4469L244.191 70.3376L244.88 72.048L246.965 74.1126L245.588 75.2462L245.659 76.4606L243.898 77.8776L244.364 78.4342L246.651 78.2925L246.266 79.841L244.556 81.4502L244.627 82.604L246.216 85.205L245.973 86.3891L247.046 86.5612L249.607 88.9092L248.777 91.4495L245.851 93.1296L248.929 97.8256L245.457 98.4936L243.827 100.083L242.44 99.5968L242.319 100.781L243.594 102.987L242.876 103.979L241.337 104.09L240.112 101.57L239.222 102.957L238.999 105.528L237.622 105.062L237.258 104.526L236.701 104.536V107.309L235.122 107.501L235.902 108.837H235.041V109.697L236.074 109.981L235.456 111.711L234.717 111.62L233.958 111.954L231.539 113.948L230.527 113.938L228.006 118.634L227.672 122.065L223.138 123.836L219.706 123.543L219.332 122.399L219.312 121.559L219.625 120.182L219.777 119.332L219.423 118.421L219.301 117.824L218.32 115.689L218.805 115.335L220.071 115.152L220.111 114.07L222.105 112.835L220.81 111.711V112.46L217.945 111.853L217.53 113.584L216.305 114.231L215.445 112.774L212.297 110.578L211.68 110.254L208.279 109.728L204.412 110.406L197.114 109.293L191.921 110.001L179.158 107.208L176.799 108.503L175.595 108.26L171.708 106.59L171.566 105.679L166.687 103.726L159.916 102.238L158.377 99.2932L157.071 98.696L153.002 98.109L150.138 99.6474L149.52 100.71L148.781 100.578L148.862 99.6474L148.204 99.1211L141.342 98.5948L140.411 97.522L137.283 96.8034L136.837 96.0747L137.171 95.1639L138.255 92.9069H139.186L140.825 91.6115L139.53 91.1763L137.991 90.1946L136.321 90.6905L136.706 91.2572L133.082 90.5994L130.349 91.2977L130.461 91.8645L125.551 96.1557L124.539 99.8599L121.179 99.6777L114.579 102.228L107.767 109.718L107.069 109.667L104.022 108.351L99.6492 109.07L97.645 108.786L97.1591 108.463L98.4244 108.523L98.7483 107.511L98.0094 107.451L94.7501 106.742L91.7945 108.25L89.0919 102.866L88.2821 102.663L87.9987 101.864L88.6668 100.983L86.946 100.801L86.3184 99.283L86.0553 98.9794L86.7537 98.3216L85.9743 97.2285L85.3366 97.0565L84.2434 96.7528L81.0753 96.348L77.654 97.1779L77.3908 98.2811L73.5647 98.2001L72.2894 99.8498L71.8339 99.1717L70.599 99.2729L69.1414 102.157L68.0482 102.36L67.4308 103.453L65.9428 103.301L64.7484 105.558L63.9488 105.335L63.4225 106.013L63.463 107.258L65.3254 108.27L64.8092 110.041L63.6957 109.191L62.7443 109.728L62.5216 111.823L63.2504 112.46L64.9104 111.651L65.6088 112.258L60.315 114.171L47.3993 122.733L42.7736 124.656L38.998 125.091L34.9492 123.755L26.9326 120.608L22.8028 117.784L22.3676 115.578L23.2786 114.464L24.7058 113.351L27.7525 113.604L28.9874 112.926L32.9451 109.94L34.0484 107.299L37.419 104.313L40.0811 104.232L40.2127 101.024L41.7006 100.943L42.9962 101.884L43.5833 101.54L43.0671 99.4855L44.8789 96.3278L44.3627 94.1012L45.2028 91.2775L37.6215 85.205L38.3401 82.3813L38.0162 81.268L33.1577 78.1002L30.3741 81.3591L29.1392 81.7032L21.7501 76.2177L16.3045 74.2442L11.9622 68.9308L9.43165 68.5057L8.97615 67.8175L9.81629 65.8439L8.12591 64.0424L7.41738 61.1276L9.16847 57.6056L9.03688 55.1159L7.34652 53.9115L1.70855 53.0512L1 46.1893L2.57903 45.8048L2.88271 43.9628L5.16016 42.1309L6.98211 42.8394L10.211 42.4143L12.9035 43.062L13.5716 43.7705L15.596 41.4629L16.6183 38.8821L21.2137 38.4773L21.7805 37.3438L23.8049 36.8377L24.9285 37.2527L26.2949 36.3013L26.9023 33.6092L28.5117 34.5707L29.6453 37.2729L32.3074 38.7202L36.3461 35.1678L37.1052 36.777L39.2207 36.9592L41.4172 35.2285L40.2937 32.8704L40.3342 28.3869L41.4779 27.476L41.8828 26.1907L44.0793 25.1786L45.4559 26.4234L46.711 26.3121L46.9742 27.1319L49.2314 26.8586L49.444 27.7897L50.5979 28.5994L50.4562 29.237L51.5089 29.4698L53.8774 25.1482L55.6892 25.4012L56.6812 23.6807L58.6246 22.446L59.7583 23.1139L59.3635 24.2778L62.2382 26.7068L61.7321 28.1136L62.4305 29.9455L65.5886 28.1237L68.0482 29.237L69.7184 26.8991L71.601 26.5246L72.512 27.7189L74.7186 27.8302L75.8118 28.6804L76.7734 27.9314L76.8847 26.049L77.9172 25.0774L82.5733 23.0836L83.3325 23.4884L83.3527 24.5308L84.1625 24.3487L85.0937 25.2191L84.4459 26.4234L85.9136 29.2674L85.6707 30.9576L86.865 34.1962L89.0109 35.5929L89.102 38.366L90.5191 40.3901L94.2845 39.125L95.0133 39.5602L94.6286 41.301L96.8757 40.3598L97.8677 41.0986L101.036 41.4629L102.574 45.6023L107.848 49.8126L108.951 48.7803L109.538 44.9546L109.184 43.2746L114.184 44.398L114.923 44.2866L116.037 42.6673L117.98 42.4345L120.399 44.9951L123.74 46.2703L130.592 47.586L132.758 50.43L134.519 51.2497L136.422 50.6627L137.779 52.5553L141.939 54.1342L142.131 55.3385L145.755 57.636L146.808 61.6337L149.713 61.9575L151.443 63.0607L152.85 61.8057L156.12 62.3219L159.086 60.0852L160.513 60.4799L163.367 59.3464L164.501 59.4982L164.865 58.3444L168.863 56.7757L171.333 56.9478L173.894 58.0408L175.119 54.3467L176.668 53.2435L181.405 54.8325L185.474 53.6383L187.943 54.5896L189.958 56.3506L191.142 53.1929L193.48 53.4561L194.897 52.3732L196.446 52.7577L197.458 51.3712L199.918 50.8753L200.555 49.681L203.278 51.9987L204.908 51.9278L204.726 53.7192L205.88 54.6807L207.874 54.4277L210.819 52.8893L213.714 53.1423L216.366 52.2719L217.186 50.1668L219.737 49.3066L224.464 49.762L225.425 48.5677L228.381 48.6689L228.927 46.2906L230.011 45.9566L230.952 44.3069L231.397 42.3333L230.891 40.795L231.924 39.4084L234.727 39.0542L232.44 35.603L230.911 34.9249L230.476 33.589L230.537 32.7692L232.005 32.0708L232.167 30.5021L233.351 28.9941L232.622 24.7737L229.909 24.4701L230.446 18.4482L229.039 17.3147L228.938 15.1388L227.672 15.3918L227.257 16.2622L225.041 15.8067L224.707 14.1064L223.462 13.8433L222.763 12.9527L221.923 8.31733L222.763 5.74665L224.13 4.93699L226.559 5.36206L227.369 3.43911L231.387 1.10121L232.207 1L233.837 2.58896L235.77 2.94319V2.94319Z" stroke="#F5BC2E"/>
</svg>
