<svg width="538" height="451" viewBox="0 0 188 201" fill="none" xmlns="http://www.w3.org/2000/svg">
<path d="M25.1641 40.1248L27.906 37.3829L32.7543 33.7238L32.803 33.9001L24.3891 42.314L24.4138 41.3751L25.1641 40.1248Z" fill="#F5BC2E"/>
<path d="M25.5881 51.115L25.5475 50.6863L25.2726 50.0163L36.2964 38.9925L36.4792 39.1486L37.7418 38.9613L25.5881 51.115Z" fill="#F5BC2E"/>
<path d="M24.1745 62.5286L24.2233 61.0656L43.2471 42.0418L44.3424 42.3607L24.1745 62.5286Z" fill="#F5BC2E"/>
<path d="M32.5192 64.1839L32.3899 63.8129L31.5425 63.7464L55.1176 40.1713L55.1948 40.3226L56.0816 40.6215L32.5192 64.1839Z" fill="#F5BC2E"/>
<path d="M14.7276 90.5613L18.026 87.2629L19.5694 87.1337L15.0436 91.6595L14.7276 90.5613Z" fill="#F5BC2E"/>
<path d="M7.69451 107.594L11.6398 103.77L13.5124 103.112L14.836 100.453L27.8407 87.4481L29.1158 87.5874L4.55029 112.153L5.29571 109.993L7.69451 107.594Z" fill="#F5BC2E"/>
<path d="M5.39976 121.303L5.14209 120.147L110.114 15.1748L110.653 15.9416L110.715 15.9883L5.39976 121.303Z" fill="#F5BC2E"/>
<path d="M7.93605 128.767L7.46669 127.822L114.717 20.5721L115.194 21.5094L7.93605 128.767Z" fill="#F5BC2E"/>
<path d="M12.1247 134.578L11.6853 133.604L120.422 24.8667L120.866 25.1515L121.447 25.2559L12.1247 134.578Z" fill="#F5BC2E"/>
<path d="M17.0408 139.662L17.1765 138.606L16.8702 138.419L131 24.2893L131.708 24.995L17.0408 139.662Z" fill="#F5BC2E"/>
<path d="M15.6367 151.066L15.2635 150.153L15.2434 150.046L133.373 31.9156L133.995 32.7085L15.6367 151.066Z" fill="#F5BC2E"/>
<path d="M15.1825 160.106L17.7212 157.568L17.9559 158.554L16.2048 159.363L16.4723 160.231L15.4776 161.226L15.1319 160.163L15.1825 160.106Z" fill="#F5BC2E"/>
<path d="M21.2366 155.467L20.9116 154.829L20.4678 154.821L37.5632 137.726L37.5071 139.196L21.2366 155.467Z" fill="#F5BC2E"/>
<path d="M20.7786 164.51L23.8756 161.413L23.097 163.606L21.8467 164.856L22.2173 164.08L20.7786 164.51Z" fill="#F5BC2E"/>
<path d="M28.4704 158.233L27.9666 157.511L27.9361 157.353L36.5834 148.705L36.8626 149.841L28.4704 158.233Z" fill="#F5BC2E"/>
<path d="M36.9717 159.731L36.1148 160.031L34.8901 160.942L32.2077 164.009L31.9632 163.326L37.5262 157.763L37.3573 159.346L36.9717 159.731Z" fill="#F5BC2E"/>
<path d="M62.6384 144.065L62.6041 144.061L62.0209 143.268L115.058 90.2312L115.656 91.047L62.6384 144.065Z" fill="#F5BC2E"/>
<path d="M66.78 149.923L66.7384 148.55L118.402 96.887L118.629 97.08L118.806 97.8974L66.78 149.923Z" fill="#F5BC2E"/>
<path d="M70.9745 155.729L70.6572 154.632L121.375 103.914L121.696 104.347L122.296 104.407L70.9745 155.729Z" fill="#F5BC2E"/>
<path d="M73.5604 163.143L73.202 162.087L125.292 109.997L126.082 110.621L73.5604 163.143Z" fill="#F5BC2E"/>
<path d="M76.7142 168.575L77.6353 168.351L78.688 166.873L78.5425 166.746L125.911 119.378L126.802 119.901L76.2284 170.475L76.1373 170.182L76.4633 168.826L76.7142 168.575Z" fill="#F5BC2E"/>
<path d="M77.1637 179.539L77.2304 178.866L78.4248 178.259L77.4859 177.803L95.1768 160.112V161.033L95.3208 161.382L93.606 163.097L92.2313 163.614L90.7939 165.294L91.0585 165.645L77.1637 179.539Z" fill="#90F5BC2E7C72"/>
<path d="M76.3378 190.365L75.8857 189.403L86.363 178.926L86.6137 180.089L76.3378 190.365Z" fill="#F5BC2E"/>
<path d="M83.2249 193.478L82.196 193.093L87.7996 187.489L87.8687 187.58L88.0167 188.686L83.2249 193.478Z" fill="#F5BC2E"/>
<path d="M86.6795 200.024L85.9221 199.367L88.2996 196.989L88.3646 197.033L88.4141 198.289L86.6795 200.024Z" fill="#F5BC2E"/>
<path d="M118.522 168.181L117.233 169.47L116.701 168.588L138.334 146.955L138.762 147.785L137.73 148.109L137.982 148.721L119.17 167.533L118.629 167.44L118.522 168.181Z" fill="#F5BC2E"/>
<path d="M127.872 178.831L127.085 178.204L137.682 167.607L137.74 168.766L137.13 169.573L127.872 178.831Z" fill="#F5BC2E"/>
<path d="M131.038 185.665L130.661 184.628L139.195 176.094L139.485 177.218L131.038 185.665Z" fill="#F5BC2E"/>
<path d="M132.604 192.685L133.238 192.051L132.993 193.45L132.604 192.685Z" fill="#F5BC2E"/>
<path d="M139.299 187.404L138.593 186.696L143.793 181.496L144.208 181.781L144.884 181.819L139.299 187.404Z" fill="#F5BC2E"/>
<path d="M142.062 194.641L141.484 193.805L146.391 188.898L146.9 189.048L147.086 189.617L142.062 194.641Z" fill="#F5BC2E"/>
<path d="M151.134 195.569L149.891 195.398L152.004 193.285L152.283 194.42L151.134 195.569Z" fill="#F5BC2E"/>
<path d="M141.718 153.57L141.738 153.605L141.978 154.726L123.324 173.38L123.478 171.984L123.408 171.881L141.718 153.57Z" fill="#9F5BC2E" />
<path d="M122.608 174.096L122.39 174.313L122.243 174.099L122.608 174.096Z" fill="#F5BC2E"/>
<path d="M186.023 90.6804L184.843 91.8601L183.242 92.0473L185.166 90.123L185.637 90.6836L186.023 90.6804Z" fill="#F5BC2E"/>
<path d="M169.056 96.2327L171.288 95.4154L168.183 98.5205L167.081 98.2082L167.186 98.1027L168.187 97.6872L168.834 96.4546L169.056 96.2327Z" fill="#F5BC2E"/>
<path d="M132.689 124.014L132.67 124.034L131.098 124.191L132.664 122.625L132.689 122.635V124.014Z" fill="#F5BC2E"/>
<path d="M163.711 92.9925L161.168 95.5348L160.403 94.8861L161.755 93.534L163.51 92.6977L163.711 92.9925Z" fill="#F5BC2E"/>
<path d="M174.166 82.5374L170.582 86.1214L169.45 85.8393L175.207 80.0815L175.252 81.1296L174.166 82.5374Z" fill="#F5BC2E"/>
<path d="M165.579 79.7098L165.636 79.9151L167.008 79.6947L159.994 86.7087L159.573 86.19L159.165 86.1236L165.579 79.7098Z" fill="#F5BC2E"/>
<path d="M159.414 75.8749L160.896 75.8073L144.21 92.493L143.813 92.222L143.102 92.1865L159.414 75.8749Z" fill="#F5BC2E"/>
<path d="M152.553 72.7354L153.783 72.9202L145.076 81.6267L145.19 80.9677L144.444 80.8444L152.553 72.7354Z" fill="#F5BC2E"/>
<path d="M151.51 63.7787L152.285 64.2481L151.292 65.4112L138.501 78.2019L138.185 77.5772L136.916 78.373L151.51 63.7787Z" fill="#F5BC2E"/>
<path d="M148.639 56.6499L149.055 57.6484L132.491 74.212L132.446 74.0653L131.799 73.4896L148.639 56.6499Z" fill="#F5BC2E"/>
<path d="M145.86 49.4293L146.758 49.945L125.006 71.6971L124.693 71.5857L123.379 71.9103L145.86 49.4293Z" fill="#F5BC2E"/>
<path d="M147.41 37.8787L147.992 38.7114L116.846 69.8572L116.319 68.9702L147.41 37.8787Z" fill="#F5BC2E"/>
<path d="M139.385 35.9037L140.118 36.0921L140.703 36.0002L110.695 66.0081L110.623 66.0294L108.538 67.9017L108.569 68.1344L47.509 129.194L45.4015 129.887L139.385 35.9037Z" fill="#F5BC2E"/>
<path d="M55.3526 129.936L56.5305 130.173L109.514 77.1889L109.337 76.9598L109.763 75.5263L55.3526 129.936Z" fill="#F5BC2E"/>
<path d="M112.285 83.0038L56.5761 138.713L56.6625 139.172L56.2677 140.174L55.3365 140.286L54.8414 141.862L113.022 83.6813L112.285 83.0038Z" fill="#F5BC2E"/>
<path d="M40.0176 155.271L38.9665 156.322L40.4268 155.548L40.0176 155.271Z" fill="#F5BC2E"/>
<path d="M143.329 101.959L145.019 100.27L146.105 100.598L143.895 102.809L143.329 101.959Z" fill="#F5BC2E"/>
<path d="M127.945 118.758L127.739 118.688L126.995 119.708L127.945 118.758Z" fill="#F5BC2E"/>
<path d="M148.194 98.509L147.224 98.3552L147.116 98.1724L151.324 93.9649L150.332 95.5922L150.713 95.99L148.194 98.509Z" fill="#F5BC2E"/>
<path d="M156.451 90.252L153.323 93.3803L151.786 93.5024L154.935 90.354L155.291 91.0075L155.939 90.1472L156.451 90.252Z" fill="#F5BC2E"/>
<path d="M156.601 88.6881L157.852 88.6089L157.893 87.9207L157.884 87.4049L156.601 88.6881Z" fill="#F5BC2E"/>
<path d="M131.015 124.274L131.582 125.121L102.575 154.128L101.165 154.124L131.015 124.274Z" fill="#F5BC2E"/>
<path d="M111.078 154.211L133.971 131.318L134.055 131.815L134.252 132.451L112.247 154.456L111.078 154.211Z" fill="#F5BC2E"/>
<path d="M90.7401 174.549L89.0186 176.27L89.5691 177.134L91.2388 175.464L90.7401 174.549Z" fill="#F5BC2E"/>
<path d="M115.813 159.476L115.927 160.537L116.041 160.662L136.015 140.688L135.516 139.772L115.813 159.476Z" fill="#F5BC2E"/>
<path d="M179.227 96.0623L179.847 96.0477L179.826 95.4627L179.227 96.0623Z" fill="#F5BC2E"/>
<path d="M146.228 20.4753L139.013 27.6905L138.701 27.1251L137.946 27.3427L145.299 19.9895L145.858 20.3643L146.228 20.4753Z" fill="#F5BC2E"/>
<path d="M144.142 11.1464L144.815 11.1038L144.757 11.9466L131.836 24.8673L131.08 24.2089L144.142 11.1464Z" fill="#F5BC2E"/>
<path d="M134.193 11.096L135.204 11.4993L128.423 18.28L127.669 17.6202L134.193 11.096Z" fill="#F5BC2E"/>
<path d="M124.732 11.9713L123.701 11.954L123.549 12.8142L120.512 14.8688L121.521 15.1822L124.732 11.9713Z" fill="#F5BC2E"/>
<path d="M135.665 29.6237L134.728 30.5613L135.675 29.6553L135.665 29.6237Z" fill="#F5BC2E"/>
<path d="M103.965 11.3241L104.906 11.7971L42.0434 74.6597L41.379 73.9099L103.965 11.3241Z" fill="#F5BC2E"/>
<path d="M97.583 7.70592L98.6103 8.09287L36.9297 69.7735L35.8608 69.4281L97.583 7.70592Z" fill="#F5BC2E"/>
<path d="M90.7408 4.54806L91.5642 5.13893L64.2931 32.41L63.7492 31.5397L90.7408 4.54806Z" fill="#F5BC2E"/>
<path d="M82.7435 2.54541L83.772 2.93107L77.4726 9.23054L77.5948 8.65461L77.5526 7.73626L82.7435 2.54541Z" fill="#F5BC2E"/>
<path d="M32.644 82.6449L38.12 77.1689L39.664 77.0392L33.0839 83.6192L32.644 82.6449Z" fill="#F5BC2E"/>
<path d="M131.22 187.172L131.736 187.041L132.191 188.822L131.908 190.836L132.778 191.454L132.475 193.184L131.857 191.97L130.582 190.846L128.78 191.18L127.424 192.597L126.806 191.818L127.434 189.652L128.345 189.46L128.679 188.023L129.742 187.284L131.22 187.172ZM22.1044 160.393L23.5215 160.686L22.1955 164.421L22.6307 165.787L21.1732 164.917L21.6995 163.814L20.2116 164.259L19.9484 163.004L20.8796 159.28L22.1044 160.393V160.393ZM16.6992 155.788L17.9847 156.213L17.0839 156.8L17.4382 158.288L15.687 159.097L16.102 160.443L15.7984 161.486L15.1607 161.577L14.6141 159.897L15.3024 159.128L15.019 156.274L15.8389 154.958L16.6992 155.788V155.788ZM2.54867 126.154L2.86245 126.964L2.07293 128.118L2.25513 126.316L1.1822 126.154L1 125.365L2.67014 124.383L2.54867 126.154ZM144.095 99.8806L146.605 100.64L148.559 102.391L148.376 104.556L145.947 105.123L143.953 103.625L144.297 102.856L143.558 102.816L141.929 100.366L144.095 99.8806V99.8806ZM165.381 92.2901L166.373 93.0997L165.969 94.1118L163.418 95.3364L160.897 95.4781L159.237 94.0713L159.339 93.2414L161.059 93.3527L162.993 92.4317L163.914 93.788L164.825 92.9277L164.784 92.0674L165.381 92.2901V92.2901ZM184.532 89.7194L185.119 90.4177L186.314 90.4076L185.038 91.5108L182.528 91.8043L180.868 92.9985L179.228 92.9884L179.33 95.7817L174.167 95.9032L172.902 97.3808H171.687L169.552 98.6561L169.339 97.6743L167.76 98.2816L166.475 97.9172L167.669 97.4213L168.408 96.0145L171.171 95.0025L175.574 91.8953L177.629 91.7233L177.498 91.2982L180.635 89.7396L182.305 90.7213L182.832 89.8408L184.532 89.7194V89.7194ZM130.471 8.68216L131.685 9.51208L132.637 9.28942L133.568 10.7873L135.724 11.6476L136.088 10.7165L137.009 10.6051L137.394 11.5261L138.497 11.8702L140.461 11.0808L144.297 10.8379L144.044 14.4814L145.32 15.1696L143.741 16.5865L143.275 18.7119L145.34 20.0984L148.953 21.1814L150.107 23.4282L148.508 23.9038L145.927 26.9907L142.243 27.6283L141.574 27.2437L140.087 27.942L138.791 27.9623L138.184 26.8591L136.463 27.355L135.076 26.6365L134.479 27.355L129.762 23.246L131.078 21.4951L131.048 20.0377L129.56 19.4608L125.602 15.9995L122.403 15.1291L123.78 14.8963V14.2081L122.221 14.1474L122.312 14.9773L121.786 15.1595L119.994 14.6028L123.031 12.5483L123.183 11.688L124.995 11.7184L126.361 10.0991L127.95 10.2306L128.193 9.14774L130.471 8.68216ZM76.6823 1.4458L80.3262 2.76152L81.8647 2.14414L83.7272 2.84248L87.3003 2.18463L91.926 5.50425L100.793 8.8441L102.787 10.7266L108.769 13.7325L110.136 15.6756L112.919 17.7909L114.68 21.2522L120.349 24.8856L124.235 25.5839L127.515 24.0354L128.102 24.7945L129.732 23.2764L134.843 28.3671L135.157 29.3893L132.829 31.6159L133.892 32.9721L133.285 33.5996L134.155 35.3302L135.026 35.8261L137.789 35.3606L139.601 35.8261L143.528 35.2088L144.226 35.4719L145.168 36.6965L146.443 36.9698L148.67 40.1578L149.753 40.2995L149.935 43.2953L147.364 45.6737L145.299 45.5725L144.368 46.7667L144.358 48.5986L148.113 50.7543L149.5 50.4811L149.287 52.07L147.425 54.7115L149.136 58.8206L148.063 59.0028L148.002 59.5594L147.789 60.946L148.275 61.867L151.767 63.9822L150.644 65.2979L151.028 66.1683L150.563 67.231L149.723 67.4638L148.943 68.8604L148.822 70.9757L149.773 72.1294L154.419 72.8278L156.221 74.6596L157.992 74.8317L158.63 75.6211L161.069 75.5098L161.758 76.0867L161.899 78.5055L164.734 78.2626L165.118 79.6492L167.072 79.3354L170.159 80.0338L172.001 78.5966L174.673 79.4366L174.734 80.8637L172.376 83.9202L172.072 85.246L170.827 86.0455L165.017 84.5983L162.578 86.1265L161.707 85.5597L160.958 85.9342L161.383 86.4402L161.768 87.26L159.976 87.0576L159.055 85.9241L158.124 85.7723L157.355 86.4605L157.375 87.6547L157.334 88.343L154.298 88.5353L153.984 89.2943L154.774 90.7416L155.421 89.8813L157.152 90.2355L155.948 91.5108L157.861 91.5715L158.721 92.6443L151.079 93.2515L149.814 95.3263L151.707 97.2998L151.646 98.8078L150.188 98.4334L149.935 99.3544L148.872 99.4556L148.366 98.3524L146.706 98.0893L145.967 96.8343L146.808 95.9032H147.749L147.445 94.9215L146.635 94.6685L146.362 95.7817L145.168 96.2574L143.66 94.1118L146.048 94.8506L144.793 92.9783L143.295 91.9561L139.651 91.7739L140.37 89.102L139.398 87.3916L141.402 87.8774L142.789 87.513L143.72 86.42L143.69 83.8898L145.644 85.3472L146.656 84.7602L145.522 84.0517L145.593 82.149L144.5 81.7037L144.672 80.7017L141.858 80.2362L138.72 80.7017L137.546 79.9022L138.548 79.052L137.667 77.3113L133.922 79.6593L133.973 78.212L132.981 77.2202L131.928 73.7994L131.098 73.0606L127.08 72.3521L124.175 71.3198L121.594 71.9574L120.227 73.6374L118.213 71.7752L117.272 71.8865L116.907 71.2388L117.413 69.9838L116.411 69.7308L115.328 67.9091L115.48 66.644L113.395 64.7919L110.105 65.7635L108.02 67.6358L108.395 70.4494L109.852 73.2124L108.82 76.6939L110.804 79.2646L110.753 81.8049L112.899 83.7785L111.219 87.2702L113.03 87.9077L115.288 90.9845L115.885 93.1706L116.178 94.0713L117.018 95.2757L117.312 96.136L118.112 96.8141L118.476 98.5042L119.357 98.8484L118.881 100.124L121.118 101.379L120.45 103.099L121.179 104.081L122.292 104.192L123.881 107.056L124.104 109.202L125.642 110.416L124.499 111.985L123.871 115.568L124.357 118.503L126.321 119.657L127.221 118.422L128.558 118.877L129.509 118.442L130.025 119.647L129.519 120.709L130.056 121.539L132.171 122.369V123.766L130.45 123.938L133.963 129.18L133.254 129.879L133.538 131.549L134.196 133.684L133.355 133.623L132.87 134.909L133.76 135.729L134.519 135.465L134.074 136.862L135.349 138.006L134.6 138.775L136.594 142.439L136.969 145.05L138.244 147.519L137.212 147.843L137.617 148.825L138.356 150.211L140.228 151.092L140.663 152.367L141.22 153.339L141.787 155.99L142.435 155.97L142.637 157.043L143.65 157.519L141.311 159.108L141.959 161.496L141.554 162.447L139.844 161.8L138.943 160.636L137.991 160.95L137.809 162.387L136.827 161.921L136.22 162.447L135.805 164.219L137.02 165.484L136.716 166.749L137.161 167.285L137.222 168.5L136.098 169.987L136.615 174.015L137.789 174.886L138.669 175.797L139.176 177.76L140.724 179.481L143.69 181.515L145.309 181.606L145.795 183.549L147.597 184.136L146.291 185.148L146.656 186.758L145.451 188.508L146.382 188.782L146.676 189.682L148.589 190.077L148.842 191.98L149.834 191.747L151.403 192.678L151.919 194.783L151.545 195.431L146.767 194.773L145.451 196.21L143.275 194.763L141.413 194.966L141.574 194.419L139.327 191.17L139.955 190.148L139.186 189.581L139.864 188.225L137.111 185.462L135.309 185.037L132.424 185.897L130.774 186.1L129.448 182.446L127.91 181.616L128.608 180.29L127.971 179.056L124.286 176.121L123.223 176.009L121.725 173.833L122.727 173.823L122.96 171.718L121.371 169.38L120.227 168.854L119.691 167.447L118.112 167.174L117.585 170.807L117.079 170.878L117.201 170.008L115.844 167.761L116.644 166.992L116.401 165.99L117.353 165.473L117.403 164.158L116.563 161.526L115.409 160.271L115.035 156.77L114.134 154.695L110.277 153.885L99.5681 153.855L98.7078 154.918L95.8736 155.788L94.3452 157.134L93.9909 158.085L94.659 159.806V160.767L95.1853 162.043L91.7135 163.348L90.2761 165.028L91.0555 166.061L90.1041 167.579L90.4887 168.378L91.6932 168.186L92.6143 168.985L92.3512 170.757L92.8573 170.736L92.837 171.455L91.8147 171.789L91.1972 170.2L89.5575 169.512L88.1201 170.423L90.7822 175.311L89.0716 176.9L87.8266 174.947L86.0856 175.564L85.7212 178.084L86.6018 182.173L85.7111 185.158L87.3509 187.314L87.5432 188.751L88.3428 188.772L88.5453 189.936L88.5048 192.739L87.6647 192.911L88.353 194.763L86.5816 195.917L87.8469 196.767L87.9177 198.569L88.3428 199.358L87.361 199.874L86.3893 199.955L85.3973 199.095L85.3265 196.99L86.0249 196.231L84.2232 195.097L84.4155 193.852L80.9032 192.537L79.061 190.624L78.3119 191.707L76.247 191.008L74.4352 187.152L74.415 185.391L75.0729 185.745L76.1458 184.663L78.3018 183.823L77.4819 182.254L77.8969 179.926L76.6013 179.724L76.7126 178.6L77.907 177.993L75.8017 176.971L75.8523 176.009L76.9657 175.27L76.1559 174.845L75.751 172.75L77.3908 172.811L77.5933 172.325L76.0547 171.313L75.6195 169.917L75.994 168.358L77.1175 168.085L78.1702 166.607L77.6236 166.131L75.1134 166.506L74.415 165.808L73.6558 164.684L71.348 157.883L70.9431 157.144L69.7487 153.015L68.1697 151.983L68.0381 150.819L66.2769 150.141L66.2161 148.137L65.2039 147.833L64.2828 146.214L64.627 145.434L63.4528 143.957L62.0863 143.795L61.1855 142.57L59.9405 143.805L59.3433 144.362L58.4829 144.392L54.3228 141.599L54.8187 140.02L55.75 139.908L56.1447 138.906L55.5779 135.89L56.8533 132.47L56.4281 129.99L50.3752 128.776L47.0248 128.917L42.4091 130.435L36.5789 133.998L36.255 136.133L37.0748 136.69L36.9635 139.605L35.7995 147.357L37.3178 153.531L39.909 155.282L37.085 156.78L36.8117 159.34L35.597 159.765L34.3723 160.676L31.6899 163.743L30.4146 160.18L29.0177 159.492L27.4488 157.245L26.8617 154.199L25.5155 153.744L22.5903 155.029L21.1732 156.092L20.3938 154.563L18.1973 154.523L16.0616 153.106L14.7457 149.888L13.774 144.675L14.7153 141.781L16.3753 140.546L16.6588 138.34L14.1384 136.801L11.871 137.55L11.5269 136.518L12.3366 135.931L10.3426 131.508L8.38907 130.456L6.88089 127.419L4.27954 125.223L4.97796 121.468L3.571 115.153L3.5305 113.341L4.816 109.617L11.122 103.504L12.9946 102.846L15.1809 98.4536L15.3227 94.1624L13.6829 88.4644L15.2113 87.1892L22.1044 86.6123L29.2404 87.3916L33.0868 86.0354L33.1374 84.6185L32.0543 82.2199L32.2669 80.894L33.1576 80.6613L33.8864 79.0318L37.5607 76.9064L39.9697 76.704L42.0751 75.0139L37.5101 69.8624L35.1922 69.1135L32.6515 65.7837L31.8721 63.547L28.3902 63.2737L24.6045 65.0752L23.5923 64.1947L23.7543 59.3368L25.3232 53.5173L25.0297 50.4203L23.734 47.2627L23.896 41.1092L25.3839 38.6296L32.2365 33.4579L33.0463 36.3929L35.9614 38.8826L37.8036 38.6094L41.4476 41.4027L47.7738 43.2447L49.0694 41.2408L51.9036 38.8624L53.928 38.5891L54.677 40.0566L58.2197 41.2509L61.5701 37.9515L64.465 36.5548L66.4692 36.4536L62.8252 30.6241L65.042 27.689L64.5561 23.4282L69.2527 22.1631L70.2852 19.6227L72.1274 19.4203L75.6701 15.0178L77.077 8.38868L76.7632 1.55715L76.6823 1.4458V1.4458Z" stroke="#F5BC2E"/>
</svg>
