<svg width="281" height="317" viewBox="0 0 131 167" fill="none" xmlns="http://www.w3.org/2000/svg">
<path d="M31.8264 49.7116L47.931 33.6069L48.7883 34.1638L31.3782 51.5739L31.8264 49.7116Z" fill="#F5BC2E"/>
<path d="M1.76416 79.7738L3.20149 78.3364L3.41066 78.2179L3.88751 79.0646L2.46007 80.492L1.76416 79.7738Z" fill="#F5BC2E"/>
<path d="M9.3626 83.5895L8.65792 82.88L10.0396 81.4984L10.7773 82.1749L9.3626 83.5895Z" fill="#F5BC2E"/>
<path d="M16.5824 86.3698L15.7688 85.7691L16.9972 84.5407L17.8244 84.7154L18.2859 84.6662L16.5824 86.3698Z" fill="#F5BC2E"/>
<path d="M14.5519 98.4002L13.2633 98.2747L91.2202 20.3178L91.0159 21.9362L14.5519 98.4002Z" fill="#F5BC2E"/>
<path d="M21.123 110.415L23.5025 108.035L24.9652 107.987L21.6224 111.33L21.123 110.415Z" fill="#F5BC2E"/>
<path d="M25.5683 117.384L26.0131 115.908L25.8443 115.694L95.4074 46.1305L95.9562 46.9547L95.9786 46.9734L25.5683 117.384Z" fill="#F5BC2E"/>
<path d="M28.8875 124.065L28.1341 123.404L99.0031 52.5349L99.5293 53.3511L99.4389 53.5131L28.8875 124.065Z" fill="#F5BC2E"/>
<path d="M35.3027 127.649L34.0898 127.448L103.155 58.3829L104.198 58.754L35.3027 127.649Z" fill="#F5BC2E"/>
<path d="M43.3445 129.608L43.2813 129.429L43.7975 127.84L43.7225 127.815L114.328 57.2104L114.611 57.3994L115.658 57.294L43.3445 129.608Z" fill="#F5BC2E"/>
<path d="M46.4429 136.509L45.5931 135.945L111.93 69.608L112.25 70.702L106.619 76.3329L106.352 76.2241L106.185 76.7673L104.531 78.4207L104.489 78.4304L104.484 78.4684L46.4429 136.509Z" fill="#F5BC2E"/>
<path d="M51.3559 141.596L50.7866 140.751L105.273 86.265L105.211 87.7414L78.2833 114.669L51.3559 141.596Z" fill="#F5BC2E"/>
<path d="M56.0076 146.944L55.2848 146.253L108.719 92.8185L108.924 94.028L56.0076 146.944Z" fill="#F5BC2E"/>
<path d="M61.7544 151.198L61.1185 150.419L109.666 101.872L110.785 101.759L110.799 102.153L61.7544 151.198Z" fill="#F5BC2E"/>
<path d="M65.3089 157.643L65.0591 156.479L71.0672 150.471L72.3415 150.44L72.1079 150.844L65.3089 157.643Z" fill="#F5BC2E"/>
<path d="M66.8831 166.069L66.5922 165.904L66.287 165.251L70.7829 160.755L71.0864 160.773L71.6738 161.278L69.4907 163.461L69.2948 163.455L69.3022 163.65L66.8831 166.069Z" fill="#F5BC2E"/>
<path d="M79.2883 153.664L78.6857 154.266L78.8399 152.879L78.638 152.9L116.158 115.38L115.967 116.049L116.674 116.278L82.0686 150.883L81.2793 151.432L81.3118 151.64L79.4001 153.552L79.2954 153.638L79.2883 153.664Z" fill="#F5BC2E"/>
<path d="M86.9516 156.001L86.482 156.168L86.0194 155.519L123.224 118.314L124.689 118.263L86.9516 156.001Z" fill="#F5BC2E"/>
<path d="M93.6766 159.275L92.6227 158.915L99.6629 151.875L100.299 152.646L100.3 152.652L97.8943 155.058L97.1405 155.156L96.5332 155.824L96.704 156.248L96.1694 156.783L95.4501 157.099L94.4278 157.737L94.4827 158.469L93.6766 159.275Z" fill="#F5BC2E"/>
<path d="M118.341 144.611L115.613 146.341L115.33 146.208L123.468 138.07L124.232 138.72L122.194 140.758L120.664 141.554L120.683 142.269L118.341 144.611Z" fill="#F5BC2E"/>
<path d="M128.505 124.447L108.775 144.178L108.68 144.064L107.171 145.471L106.279 145.259L128.54 122.998L128.505 124.447Z" fill="#F5BC2E"/>
<path d="M112.134 109.404L112.994 109.958L75.2617 147.69L74.5572 146.981L112.134 109.404Z" fill="#F5BC2E"/>
<path d="M73.8175 147.72L72.7374 148.801L72.8983 148.902L73.3031 148.294L74.3356 147.889L73.8175 147.72Z" fill="#F5BC2E"/>
<path d="M72.1358 149.402L71.74 149.798L72.2403 149.478L72.1358 149.402Z" fill="#F5BC2E"/>
<path d="M114.402 77.1363L112.506 79.0323L112.607 79.1287L113.943 78.5721L114.5 77.3475L114.402 77.1363Z" fill="#F5BC2E"/>
<path d="M96.4725 35.0654L97.4529 35.4992L25.369 107.583L25.3451 107.022L24.8744 106.664L96.4725 35.0654Z" fill="#F5BC2E"/>
<path d="M90.2094 31.3285L90.216 32.7361L22.9055 100.047L21.9896 99.5484L90.2094 31.3285Z" fill="#F5BC2E"/>
<path d="M20.4916 102.46L20.0203 102.932L19.8893 102.781L20.4916 102.46Z" fill="#F5BC2E"/>
<path d="M87.6137 13.9243L87.9546 14.9975L37.1705 65.7816L38.119 64.5953L38.1983 63.3396L87.6137 13.9243Z" fill="#F5BC2E"/>
<path d="M83.9299 7.60801L84.4775 8.47462L62.1472 30.8049L62.0915 29.4464L83.9299 7.60801Z" fill="#F5BC2E"/>
<path d="M78.1482 3.38973L78.3844 3.62761L79.6595 3.29257L66.1855 16.7666L66.4303 16.3191L66.3484 15.1895L78.1482 3.38973Z" fill="#F5BC2E"/>
<path d="M71.3196 1.63253L69.6 3.35212L69.558 3.20254L71.1269 1.55286L71.3196 1.63253Z" fill="#F5BC2E"/>
<path d="M62.5928 20.3593L62.2297 20.5293L62.2092 20.7429L62.5928 20.3593Z" fill="#F5BC2E"/>
<path d="M59.6647 31.8732L35.2548 56.2832L35.5542 57.3979L61.2647 31.6874L59.6647 31.8732Z" fill="#F5BC2E"/>
<path d="M28.3002 64.6519L28.1489 64.5953L26.8127 65.9211L26.8929 66.0592L28.3002 64.6519Z" fill="#F5BC2E"/>
<path d="M28.5865 72.9514L29.1727 73.7794L34.8886 68.0635L34.0838 67.4541L28.5865 72.9514Z" fill="#F5BC2E"/>
<path d="M22.6893 80.2628L21.61 80.0801L20.4156 82.3269L20.4709 82.4812L22.6893 80.2628Z" fill="#F5BC2E"/>
<path d="M70.6091 1.28674L73.8886 2.64293L76.4798 1.96483L77.8665 3.36149L79.2533 2.99714L83.3527 7.24789L85.0026 9.85906L85.2556 11.782L86.8245 12.8042L87.9177 16.2453L90.0028 18.1682L88.8388 19.7268L90.7114 19.9799L90.4482 22.0647L91.0859 24.433L86.7942 26.8923L89.6891 30.5257L89.6992 32.6814L91.6628 36.0112L93.748 35.7379L95.5598 34.6246L98.4648 35.91L98.1106 40.5048L97.0984 42.5695L95.7521 43.4196L93.8897 42.4075L93.1407 43.2374L95.4384 46.6886L97.7462 48.6116L98.3636 50.1094L97.9284 51.4049L99.0114 53.085L98.2725 54.4108L99.4062 54.9775L99.4467 56.9815L105.732 59.2182L107.19 56.7487L109.052 56.8904L111.755 55.5747L114.093 57.1333L115.703 56.9713L117.606 59.3801L117.049 60.0177L115.713 59.5319L114.518 59.9165L114.721 61.6978L114.417 63.2665L113.213 64.7036L113.597 65.402L111.593 65.1085L111.31 65.6044L111.532 67.6184L111.026 68.0233L112.069 71.5858L111.3 73.2962L112.727 74.3791L113.982 77.0814L113.425 78.306L112.089 78.8626L108.941 75.8669L107.403 76.5956L105.834 75.958L105.247 77.8708L103.971 78.1643L103.809 79.3079L101.805 80.4921L102.321 82.0001L104.842 83.9433L104.69 87.5463L107.109 87.6981L107.514 88.4875L109.113 97.9403L107.038 101.27L107.372 101.786L110.267 101.493L110.348 103.729L108.395 104.418L108.799 105.531L111.563 109.104L114.974 111.3L116.037 113.719L115.45 115.783L117.484 116.441L117.798 117.413L119.174 118.172L125.238 117.959L126.867 119.589L127.272 121.36L128.051 121.532L127.981 124.457L129.833 125.358L128.608 129.042L127.333 129.568L126.493 131.379L125.642 131.126L124.104 132.553L123.881 133.94L122.515 135.478L122.727 137.614L124.428 139.061L120.146 141.288L120.187 142.846L115.095 146.075L111.613 144.435L109.7 145.64L108.162 143.798L106.654 145.204L105.287 144.881L103.89 145.7L101.431 145.913L99.5783 148.19L100.682 149.85L98.4041 150.71L99.7807 152.38L100.317 154.333L98.0195 154.708L96.6226 154.89L96.0153 155.558L96.2886 156.236L94.9323 156.833L93.9099 157.471L94.001 158.685L95.0233 159.647L91.0859 158.301L89.598 159.222L88.8186 157.198L88.191 157.268L87.695 155.69L86.6727 155.649L85.9642 155.902L84.6888 154.111L85.0127 153.514L84.0612 152.674L83.5349 152.906L83.6766 150.336L82.4518 149.992L80.7614 151.166L81.0854 153.24L79.6278 152.674L78.7775 153.372L78.3524 154.931L79.6176 155.558L79.1925 156.226L78.15 155.993L78.1095 154.526L78.322 152.613L77.0568 152.744L76.662 153.139L75.8624 151.894L76.1863 151.024L74.8198 151.328L74.7793 152.076L73.7671 151.004L75.3158 150.832L76.3786 149.071L73.5748 146.247L73.5647 145.447L71.8136 146.125L72.2994 146.48L71.8946 146.996L73.8177 147.623L72.7853 148.028L72.3804 148.635L70.8317 147.664L70.1131 148.038L71.7225 149.212L70.1536 150.214L71.8237 150.174L71.5605 150.629L71.6516 151.176L71.7124 152.461L70.9532 153.18L71.3682 153.665L69.4248 155.507L68.5138 158.078L68.0482 157.623L67.1068 158.078L69.3843 160.436L70.5686 160.507L73.5343 163.058L75.1336 163.442L75.4271 164.606L74.3947 165.203L74.2125 163.705L73.0687 164.667L71.6618 163.28L68.777 163.189L68.8681 165.608L67.1473 166.246L66.0744 165.638L63.5641 160.264L63.6755 159.647L64.5257 159.677L64.961 158.169L64.1816 154.536L60.3858 149.89L58.908 148.818L57.8958 148.979L52.5413 143.858L48.6139 138.029L43.1885 134.426L43.0671 132.462L42.8545 131.541L43.3302 130.762L42.7634 129.163L43.2796 127.574L42.3585 127.27L41.9233 128.343L40.0406 126.926L39.2713 127.908L35.8197 126.542L35.0808 127.432L30.87 126.734L30.3437 125.53L26.0621 121.775L25.9609 119.042L25.0195 117.22L25.4953 115.642L23.8757 113.587L22.7218 113.122L22.4081 113.769L21.0112 113.041L21.7198 112.19L19.3715 107.889L24.8677 107.707L24.8272 106.756L22.0335 104.63L21.4566 104.914L19.3715 102.515L20.6266 101.847L23.2077 103.183L23.8049 100.551L21.163 99.1143L19.0779 99.4686L18.4503 99.418L15.7376 99.8329L14.1991 98.5779L15.8996 99.2459L16.5778 99.0637L18.1467 99.0131L15.1405 97.1408L14.9178 97.5861L14.3307 98.163L12.3569 97.9707L13.7234 95.7947L14.6951 95.3191L15.0291 95.1571L15.7174 91.9387L15.1911 90.37L16.9928 88.781L16.9219 86.7366L14.7558 85.1375L12.8326 85.2387L10.3629 82.6579L9.6442 82.5972L9.22919 83.7105L7.78174 82.2531L6.1521 81.3928L5.53466 80.067L4.25928 79.814L2.37659 80.6742L1.12146 79.3788L1 79.0246L2.89281 77.9518L3.47989 78.9942L6.00027 79.2675L7.02259 80.2593L8.32833 80.1378L11.7496 83.2753L17.3066 84.4493L20.6266 84.0951L19.8978 82.0608L21.0922 79.814L22.3473 80.0265L24.0782 81.4535L24.2199 78.6096L25.7078 76.7676L27.1553 76.3122L29.2607 74.369L26.5378 70.5231L27.8739 68.3775L26.2949 65.655L27.631 64.3292L31.9025 65.9283L34.6557 68.0131L37.6012 64.3292L37.7834 61.4447L35.344 58.2769L34.6861 55.8277L33.7953 55.3014L32.9957 53.338L30.7688 51.6883L31.4166 48.9962L28.4306 43.8042L33.8054 44.0167L35.7995 43.2374L36.2145 40.7477L37.7328 38.1365L37.4494 36.6083L38.2895 35.4141L41.1135 33.9061L42.1359 33.8048L44.5044 35.0902L46.5693 32.7928L49.9197 34.9687L52.0554 34.8979L54.6467 34.3514L56.9545 31.8617L61.6612 31.3151L61.5094 27.6109L63.1289 24.7467L61.4385 23.1173L61.7118 20.2632L64.2626 19.069L65.9125 16.053L65.6695 12.703L64.6573 11.863L64.5966 10.0007L67.0461 5.8411L68.6049 5.58808L69.526 4.66708L69.0401 2.93642L70.6091 1.28674V1.28674Z" stroke="#F5BC2E"/>
</svg>
