<svg width="567" height="555" viewBox="0 0 293 146" fill="none" xmlns="http://www.w3.org/2000/svg">
<path d="M11.0858 51.3883L20.2571 42.217L21.1879 42.7004L11.406 52.4823L11.0858 51.3883Z" fill="#F5BC2E"/>
<path d="M4.41309 69.4752L4.4753 67.9988L11.6122 60.8619L11.8017 61.0423L13.1378 60.4856L13.6945 59.261L13.5419 58.9323L35.4904 36.9837L36.4779 37.4104L4.41309 69.4752Z" fill="#F5BC2E"/>
<path d="M8.09401 75.7943L7.88938 74.5848L44.3096 38.1646L44.9783 38.91L8.09401 75.7943Z" fill="#F5BC2E"/>
<path d="M9.98801 83.9003L9.97976 83.6723L8.66888 83.8053L51.6496 40.8246L52.4647 41.4236L9.98801 83.9003Z" fill="#F5BC2E"/>
<path d="M12.0803 91.808L11.2652 91.2832L11.2328 91.2413L60.485 41.9892L61.3549 42.5334L12.0803 91.808Z" fill="#F5BC2E"/>
<path d="M15.7441 98.1442L15.1521 97.9528L15.4044 97.0697L70.4549 42.0193L70.8535 42.3289L71.6011 42.2871L15.7441 98.1442Z" fill="#F5BC2E"/>
<path d="M23.7166 100.172L22.2511 100.223L114.378 8.096L114.915 8.13073L114.791 9.09721L23.7166 100.172Z" fill="#F5BC2E"/>
<path d="M27.6934 106.195L27.7285 104.746L114.187 18.2875L115.127 18.7618L27.6934 106.195Z" fill="#F5BC2E"/>
<path d="M23.3356 120.553L22.5716 119.903L121.373 21.1013L121.595 21.3789L122.192 21.6959L23.3356 120.553Z" fill="#F5BC2E"/>
<path d="M38.0089 115.879L37.5319 115.695L37.1888 115.285L126.019 26.4549L126.266 27.6226L38.0089 115.879Z" fill="#F5BC2E"/>
<path d="M51.2392 112.649L49.6483 112.826L132.198 30.2762L133.898 29.9903L51.2392 112.649Z" fill="#F5BC2E"/>
<path d="M53.8401 120.048L53.6765 120.006L53.3692 119.105L141.614 30.8599L141.738 31.0746L143.823 29.2124L143.517 28.9569L143.601 28.8736L144.423 29.4653L53.8401 120.048Z" fill="#F5BC2E"/>
<path d="M56.3597 127.529L56.2034 126.271L146.32 36.1543L146.752 37.1362L56.3597 127.529Z" fill="#F5BC2E"/>
<path d="M68.6258 125.263L68.1758 124.298L150.886 41.5883L150.949 41.6204L151.565 42.3231L68.6258 125.263Z" fill="#F5BC2E"/>
<path d="M73.9995 129.889L72.8195 129.655L155.817 46.6567L156.748 47.1403L73.9995 129.889Z" fill="#F5BC2E"/>
<path d="M76.1904 137.698L76.0784 136.396L159.358 53.1159L159.55 54.3386L76.1904 137.698Z" fill="#F5BC2E"/>
<path d="M117.654 116.235L116.962 115.512L163.538 68.936L163.962 69.9266L117.654 116.235Z" fill="#F5BC2E"/>
<path d="M121.956 121.932L121.535 120.939L167.162 75.3118L168.15 75.738L121.956 121.932Z" fill="#F5BC2E"/>
<path d="M126.593 127.296L126.94 126.696L126.203 126.271L173.297 79.1772L173.744 79.9783L173.906 79.9827L126.593 127.296Z" fill="#F5BC2E"/>
<path d="M127.411 136.477L126.089 136.574L126.218 136.256L179.776 82.6985L180.526 83.2776L180.55 83.3379L127.411 136.477Z" fill="#F5BC2E"/>
<path d="M137.24 136.649L135.908 137.464L135.398 137.076L155.702 116.772L155.706 116.798L156.117 117.772L137.24 136.649Z" fill="#F5BC2E"/>
<path d="M144.751 139.138L143.995 138.48L158.661 123.813L158.925 124.439L159.291 124.598L144.751 139.138Z" fill="#F5BC2E"/>
<path d="M151.867 142.021L150.455 142.019L164.681 127.793L165.089 128.791L165.094 128.794L151.867 142.021Z" fill="#F5BC2E"/>
<path d="M160.932 142.956L160.39 142.084L170.197 132.277L170.505 133.102L170.676 133.212L160.932 142.956Z" fill="#F5BC2E"/>
<path d="M169.255 144.634L167.367 145.107L173.42 139.054L173.632 139.144L175.181 137.626L176.332 137.556L172.319 141.569L171.912 141.634L171.834 142.054L169.255 144.634Z" fill="#F5BC2E"/>
<path d="M198.468 125.42L197.01 125.464L203.381 119.093L203.847 119.874L203.726 120.163L198.468 125.42Z" fill="#F5BC2E"/>
<path d="M200.034 112.44L200.727 113.161L191.668 122.22L191.858 120.616L200.034 112.44Z" fill="#F5BC2E"/>
<path d="M196.834 105.64L197.013 106.875L188.367 115.522L188.137 115.35L188.327 114.147L196.834 105.64Z" fill="#F5BC2E"/>
<path d="M191.921 100.553L192.581 101.307L185.132 108.757L184.354 108.12L191.921 100.553Z" fill="#F5BC2E"/>
<path d="M188.225 94.2495L188.33 94.2587L188.903 94.9851L178.6 105.288L177.125 105.675L176.842 105.632L188.225 94.2495Z" fill="#F5BC2E"/>
<path d="M183.38 89.0939L184.005 89.8829L171.917 101.971L171.394 101.08L183.38 89.0939Z" fill="#F5BC2E"/>
<path d="M166.628 105.846L164.952 107.522L166.371 107.517L167.125 106.763L166.628 105.846Z" fill="#F5BC2E"/>
<path d="M160.913 121.561L162.178 120.296L161.968 121.92L159.609 124.279L160.363 122.273L161.172 122.142L160.913 121.561Z" fill="#F5BC2E"/>
<path d="M166.612 127.276L166.162 126.585L165.828 127.364L166.115 127.774L166.612 127.276Z" fill="#F5BC2E"/>
<path d="M178.335 124.139L180.002 122.472L180.586 122.344L180.192 123.477L178.335 124.139Z" fill="#F5BC2E"/>
<path d="M187.952 124.523L188.859 123.615L189.18 123.953L189.545 124.344L188.011 125.877L187.884 124.641L187.952 124.523Z" fill="#F5BC2E"/>
<path d="M180.791 131.683L183.594 128.88L184.898 127.839L185.912 127.977L181.991 131.897L180.791 131.683Z" fill="#F5BC2E"/>
<path d="M161.854 62.0344L109.371 114.517L108.102 114.372L161.47 61.004L161.854 62.0344Z" fill="#F5BC2E"/>
<path d="M95.4132 127.061L95.2577 127.88L93.1977 129.276L95.4132 127.061Z" fill="#F5BC2E"/>
<path d="M108.913 3.56106L110.461 3.12094L110.615 3.27356L103.482 10.4065L105.086 8.0194L105.227 7.24684L108.913 3.56106Z" fill="#F5BC2E"/>
<path d="M100.202 2.27246L100.655 3.23312L71.4005 32.4878L70.7512 31.723L100.202 2.27246Z" fill="#F5BC2E"/>
<path d="M91.5922 2.29606L91.5834 2.30116L91.5847 2.30359L91.5922 2.29606Z" fill="#F5BC2E"/>
<path d="M73.3372 39.137L100.697 11.7768L100.805 12.088L102.537 11.3514L73.6566 40.2317L73.3372 39.137Z" fill="#F5BC2E"/>
<path d="M5.69164 58.1966L5.45581 58.4325L5.54631 58.1376L5.69164 58.1966Z" fill="#F5BC2E"/>
<path d="M212.209 120.266L214.755 117.719L215.76 117.86L215.91 117.978L209.103 124.786L208.776 124.56L207.531 125.421L207.471 125.003L211.015 121.46L212.218 120.866L212.209 120.266Z" fill="#F5BC2E"/>
<path d="M228.955 124.934L228.939 124.925L228.606 123.868L230.823 121.652L231.065 121.909L231.693 122.195L228.955 124.934Z" fill="#F5BC2E"/>
<path d="M232.437 131.451L231.895 131.453L231.782 130.692L237.589 124.885L237.766 124.965L238.088 125.8L232.437 131.451Z" fill="#F5BC2E"/>
<path d="M257.762 116.126L248.32 125.569L247.381 125.714L247.421 125.053L248.927 123.547L249.264 123.67L249.661 122.814L250.338 122.136L250.863 122.314L251.977 121.342L251.589 120.885L260.666 111.808L257.762 116.126Z" fill="#F5BC2E"/>
<path d="M271.737 102.151L267.39 106.498L267.231 106.394L268.81 105.007L268.15 104.324L271.592 100.882L271.846 101.181L271.737 102.151Z" fill="#F5BC2E"/>
<path d="M278.332 94.1416L279.033 94.37L279.34 94.5482L277.113 96.7749L277.434 95.5643L277.147 95.3267L278.332 94.1416Z" fill="#F5BC2E"/>
<path d="M276.217 97.6717L275.386 98.5022L275.015 98.4791L276.217 97.6717Z" fill="#F5BC2E"/>
<path d="M242.92 129.554L241.683 131.625L240.448 132.323L240.278 132.196L242.92 129.554Z" fill="#F5BC2E"/>
<path d="M226.194 117.694L225.552 118.336L225.508 118.093L226.194 117.694Z" fill="#52B5F5BC2E5F"/>
<path d="M259.979 122.495L261.581 120.894L261.429 122.46L261.225 122.663L259.963 122.769L259.979 122.495Z" fill="#F5BC2E"/>
<path d="M291.716 100.758L292.915 99.5588L292.725 101.163L291.619 102.269L291.716 100.758Z" fill="#F5BC2E"/>
<path d="M273.595 130.293L272.243 131.645L271.867 131.109L272.929 129.904L273.597 130.279L273.595 130.293Z" fill="#F5BC2E"/>
<path d="M273.08 130.012L272.675 132.826L273.727 133.211L273.221 133.646L273.768 133.98L273.373 134.648L272.533 134.86L272.462 134.395L271.652 132.877L271.875 131.591L271.349 130.842L272.412 129.638L273.08 130.012V130.012ZM178.267 122.473L180.069 122.078L179.674 123.211L177.487 123.991L178.267 122.473V122.473ZM213.512 117.351L215.242 117.594L218.016 119.78L218.218 121.865L217.601 123.151L216.892 123.13L217.054 121.896L215.85 123.11L214.878 122.827L213.147 125.195L213.694 125.742L213.34 126.693L212.257 126.44L211.862 125.053L210.252 125.671L208.258 124.294L207.013 125.155L206.71 123.049L207.762 121.845L208.704 122.078L211.7 120.6L211.669 118.566L213.512 117.351V117.351ZM226.417 116.997L227.217 117.402L227.45 118.718L229.11 119.203L229.251 120.266L230.547 121.643L237.248 124.699L237.663 125.772L237.147 126.49L237.956 127.745L238.736 127.584L239.09 126.501L242.572 126.582L243.523 127.411L241.165 131.359L239.93 132.057L239.292 131.581L237.005 133.605L235.729 133.018L236.074 131.875L234.94 131.176L231.377 131.187L231.063 129.061L230.699 128.525L230.952 127.351L229.94 125.519L228.421 124.659L227.763 122.574L225.152 118.718L224.99 117.827L226.417 116.997V116.997ZM260.164 114.852L260.65 114.7L260.559 117.21L261.601 116.805L261.136 118.92L261.115 120.084L260.893 122.381L259.445 122.503L259.496 121.643L258.221 122.513L257.644 122.068L257.158 121.541L256.763 120.479L260.346 119.011L258.909 116.046L259.486 115.692L259.729 113.627L260.164 114.852V114.852ZM258.079 108.01L258.463 108.83L258.474 109.528L260.822 110.54L256.085 117.584L255.619 120.145L254.82 121.359L253.21 121.825L253.868 122.715L252.492 123.252L251.894 122.817L251.327 123.606L251.682 124.122L250.082 124.901L249.961 125.812L248.858 126.379L248.169 125.246L246.864 125.448L246.965 123.758L247.997 123.13L248.746 123.404L249.506 121.764L250.346 122.047L251.459 121.076L250.67 120.145L251.044 118.637L250.325 118.029L251.55 117.25L251.874 115.874L252.664 116.015L254.273 114.74L255.052 111.755L255.943 111.238L256.642 109.184L258.14 107.453L258.079 108.01V108.01ZM269.021 98.5976L269.274 99.9942L269.942 100.642L270.64 100.106L271.329 100.915L270.792 105.672L268.515 107.312L266.713 106.127L268.292 104.741L267.401 103.82L266.197 104.478L265.994 103.941L266.399 102.889L266.257 102.302L267.017 100.369L269.021 98.5976V98.5976ZM292.484 98.5672L292.018 102.494L291.067 102.555L291.259 99.5388L291.755 98.5368L292.484 98.5672V98.5672ZM278.515 94.1039L279.335 94.5796L279.254 95.3994L276.41 99.3667L276.45 98.3344L274.497 98.213L276.501 96.8669L276.916 95.2982L276.379 94.8529L277.584 93.8003L278.515 94.1039V94.1039ZM91.4503 1.81238L98.6369 1.24561L99.6593 1.95407L100.256 3.21917L98.2827 5.01054L97.9183 6.78168L99.6188 6.60963L99.3455 9.08922L100.287 11.8218L102.453 10.9009L104.568 7.75329L104.973 5.53683L106.704 3.7758L109.943 2.85482L112.707 5.59755L111.927 7.5711L112.14 9.01838L112.99 7.77353L114.397 7.86461L113.769 12.7732L112.079 16.194L113.354 16.5179L113.638 18.0057L114.721 18.5522L114.994 19.6756L116.796 18.5319L117.909 20.2423L119.772 19.4833L121.077 21.1127L124.853 23.1166L125.896 28.0556L126.483 29.2397L127.373 29.3106L128.497 30.5453L135.238 29.4118L137.212 27.7925L139.925 28.5616L141.22 30.8085L143.305 28.9462L141.767 27.6609L145.158 30.1L145.826 31.7396L145.259 34.6544L147.567 39.8969L150.431 41.3543L154.47 45.9593L158.053 47.8215L159.44 56.6772L161.464 62.1121L162.051 66.4033L165.543 74.5708L169.157 76.1294L169.967 77.3945L171.758 77.0807L173.226 79.7122L175.827 79.783L180.008 83.0115L181.911 87.6266L186.891 93.9116L187.812 93.9926L188.571 94.9541L190.251 98.972L192.61 101.664L194.796 102.595L196.193 104.518L196.577 107.18L197.397 107.949L197.418 109.994L200.252 112.939L200.191 113.971L201.669 115.337L201.699 116.876L203.329 119.608L201.983 122.817L199.27 125.114L196.254 125.205L194.027 126.936L192.225 126.916L191.79 126.217L190.656 126.885L190.282 127.938L192.043 128.687L189.937 129.668L190.039 130.508L188.622 129.506L186.658 129.932L186.334 130.923L183.439 130.68L182.609 131.834L179.552 131.288L178.176 131.733L177.943 130.863L176.161 130.387L177.639 127.948L177.862 125.347L178.884 124.517L180.089 125.023L181.394 122.999L181.556 125.65L182.629 125.853L180.544 128.403L180.008 130.316L181.374 129.972L184.38 127.573L185.727 127.756L186.101 127.007L187.62 126.845L187.366 124.375L188.095 123.09L188.662 123.687L189.806 124.912L190.838 124.588L191.405 119.801L188.784 117.412L188.46 115.712L187.62 115.084L188.024 112.514L186.658 111.127L186.425 109.973L182.852 107.048L182.589 106.198L178.267 104.974L176.607 105.409L173.449 104.933L172.548 102.17L171.505 101.887L170.847 100.763L168.702 101.006L166.171 99.5287L165.948 100.126L165.189 99.6704L164.724 100.925L165.837 100.986L166.171 101.634L164.815 104.508L165.776 104.964L166.697 106.664L165.867 107.251L162.983 107.261L162.072 108.141L160.422 107.473L159.409 108.283L158.782 108.01L155.32 109.336L154.703 113.374L155.189 116.532L158.407 124.173L158.944 124.406L159.845 122.007L160.654 121.875L159.814 119.993L161.707 119.669L161.404 122.017L162.638 121.764L163.651 123.434L163.64 126.248L164.572 128.525L165.28 128.95L166.292 128.504L165.311 127.098L165.645 126.318L166.586 127.766L168.276 127.756L168.6 129.061L169.987 130.164L169.42 131.318L169.987 132.836L171.596 133.869L170.503 135.437L171.222 135.994L170.594 136.712L171.222 137.502L169.663 137.401L169.238 138.281L168.104 137.967L167.993 141.034L171.546 139.668L172.356 138.554L173.115 138.878L174.663 137.36L177.639 137.178L176.708 139.911L174.37 139.739L173.479 141.034L171.394 141.368L171.181 142.522L168.752 144.364L165.645 145.143L161.424 144.313L159.359 140.994L158.468 141.763L149.419 141.753L148.549 139.627L147.243 140.184L145.148 139.668L142.88 137.694L143.062 136.095L141.311 135.387L137.819 135.711L135.39 137.198L134.155 136.257L132.89 136.692L130.015 135.984L125.572 136.308L126.452 134.132L126.321 131.045L125.501 130.569L125.906 129.162L125.339 128.302L126.422 126.43L124.053 125.063L122.565 125.873L121.199 125.235L121.715 122.321L120.652 119.811L117.869 118.616L117.626 116.481L116.31 115.105L106.846 114.022L104.811 109.771L103.374 109.811L103.07 112.969L101.218 114.184L99.8516 117.625L97.6652 119.558L97.2907 121.41L94.3351 123.14L95.0436 126.015L94.74 127.614L90.5596 130.448L86.9662 130.073L86.1868 131.571L84.3446 132.654L84.537 134.729L85.3973 135.721L84.6179 136.318L83.5045 136.895L82.6543 136.459L81.551 137.775L79.9618 137.239L76.3584 138.909L75.751 138.342L75.1943 131.875L74.3238 129.79L71.6213 129.253L70.7305 127.523L69.0604 127.037L67.5725 123.849L65.6594 123.576L63.0378 127.604L60.2543 129.132L55.9321 127.988L55.5273 124.729L57.0456 120.742L53.1587 119.74L52.106 116.653L53.5434 114.953L51.5493 112.291L49.0897 112.564L46.9539 111.957L45.304 113.526L42.6116 113.617L41.4172 114.538L40.6985 116.228L39.8078 116.511L37.0141 115.428L35.9108 114.113L35.4047 115.378L32.5908 116.805L31.7507 117.999L30.283 117.797L30.3336 119.649L25.9912 122.503L25.8799 122.412L23.6025 120.954L21.9019 119.507L21.6894 117.372L23.066 115.833L23.2887 114.447L24.8272 113.02L25.6775 113.273L26.5176 111.461L27.793 110.935L29.0177 107.251L27.1654 106.35L27.2363 103.425L26.4569 103.253L26.052 101.492L24.4223 99.8627L18.3592 100.075L16.9826 99.3161L16.6689 98.3445L14.6344 97.6867L15.2214 95.6321L14.1586 93.2133L10.7475 91.0171L7.98418 87.4444L7.58942 86.3311L9.54297 85.6429L9.462 83.4062L6.56711 83.6997L6.23308 83.1836L8.30809 79.8538L6.70881 70.401L6.30392 69.6116L3.88476 69.4598L4.0366 65.8568L1.51622 63.9136L1 62.4056L3.00415 61.2215L3.16611 60.0778L4.44148 59.7843L5.02856 57.8715L6.59747 58.5091L8.13601 57.7804L11.284 60.7761L12.6201 60.2195L13.1768 58.9949L11.9216 56.2926L10.4944 55.2097L11.2637 53.4993L10.2212 49.9368L10.7273 49.5319L10.5147 47.5179L10.7981 47.022L12.8023 47.3155L12.4176 46.6171L13.6222 45.18L13.9258 43.6113L13.7234 41.83L14.9178 41.4454L16.2539 41.9312L16.8106 41.2936L18.673 39.9577L19.0779 41.6073L21.163 42.6903L21.6185 43.7226L23.3595 43.5303L23.8656 44.3197L24.6855 44.259L25.2523 42.9534L26.3961 43.2368L28.1877 41.9312L28.6736 39.4212L27.0945 39.1784L28.7343 36.8303L30.04 37.2453L31.7405 36.213L33.0463 36.2939L33.8054 37.5793L34.929 36.6988L36.5687 37.4072L38.6235 36.7494L41.1743 37.7311L42.9152 36.9214L44.7676 38.9861L45.1725 40.909L46.3264 41.8199L49.8185 39.5933L52.3388 41.4454L55.0617 39.8362L56.3978 39.8969L57.582 40.6965L57.6327 41.4657L59.4749 41.415L61.4487 42.6498L65.4266 40.7268L69.2932 41.2531L70.3358 42.0628L72.1476 41.9616L72.6942 42.8117L73.4938 41.1823L72.0262 36.1522L72.5525 34.1888L68.7466 29.7053L70.2042 29.8369L71.8844 28.7236L72.6234 26.4666L74.4554 26.6488L75.9029 25.6064L78.3524 21.052L80.3869 19.5035L80.0833 17.5097L82.3607 17.2972L82.9276 15.4755L87.2193 11.4474L88.1404 9.25116L89.7498 7.72292L90.3571 6.73109L89.0413 4.53486L89.7194 3.68472L91.3794 4.76765L91.6527 3.14832L91.0657 2.03504L91.4503 1.81238V1.81238Z" stroke="#F5BC2E"/>
</svg>
