<svg width="221" height="224" viewBox="0 0 131 134" fill="none" xmlns="http://www.w3.org/2000/svg">
<path d="M20.336 12.6478L21.0754 11.9085L22.4998 11.8983L20.3583 14.0398L20.336 12.6478Z" fill="#F5BC2E"/>
<path d="M20.3317 24.0664L20.304 23.0568L20.0372 22.9467L31.147 11.8369L32.5713 11.8268L20.3317 24.0664Z" fill="#F5BC2E"/>
<path d="M24.3765 30.0216L23.9783 29.3418L23.8038 29.1801L43.4552 9.52866L43.9288 9.72771L44.2758 10.1223L24.3765 30.0216Z" fill="#F5BC2E"/>
<path d="M1.95311 72.445L1.7605 72.3653L1.51758 71.4949L2.79295 70.7055L2.84724 70.1367L14.6781 58.3058L15.3038 58.8338L15.6868 58.7112L1.95311 72.445Z" fill="#F5BC2E"/>
<path d="M10.293 74.1051L9.01798 74.4401L8.78175 74.2022L73.2018 9.78212L73.4851 10.6791L73.7221 10.676L10.293 74.1051Z" fill="#F5BC2E"/>
<path d="M15.115 79.2831L14.5674 78.4165L89.7077 3.27618L90.6014 3.67548L90.7724 3.62568L15.115 79.2831Z" fill="#F5BC2E"/>
<path d="M18.592 85.8061L18.2503 84.7336L88.1684 14.8155L88.7259 15.6722L18.592 85.8061Z" fill="#F5BC2E"/>
<path d="M21.6445 92.7536L21.8398 91.1441L91.896 21.0879L92.5246 20.9314L93.2387 21.1593L21.6445 92.7536Z" fill="#F5BC2E"/>
<path d="M20.8498 103.548L20.8432 102.141L95.6249 27.359L95.6523 27.3784L95.8962 28.5018L20.8498 103.548Z" fill="#F5BC2E"/>
<path d="M28.1004 106.298L27.1201 105.864L101.264 31.7199L102.321 32.0767L28.1004 106.298Z" fill="#F5BC2E"/>
<path d="M26.6333 117.765L26.5999 117.737L26.0583 116.926L102.393 40.5905L102.626 41.1022L102.505 41.8931L26.6333 117.765Z" fill="#F5BC2E"/>
<path d="M30.0322 124.366L30.1629 124.133L29.6515 123.332L103.715 49.2694L104.298 50.0997L30.0322 124.366Z" fill="#F5BC2E"/>
<path d="M34.8596 129.538L33.8171 129.167L107.111 55.8733L108.278 56.1198L34.8596 129.538Z" fill="#F5BC2E"/>
<path d="M46.3501 128.048L45.2244 128.161L44.9833 128.001L113.784 59.1996L114.507 59.8907L46.3501 128.048Z" fill="#F5BC2E"/>
<path d="M52.7663 131.632L51.8355 131.148L120.934 62.0502L121.977 62.4215L52.7663 131.632Z" fill="#F5BC2E"/>
<path d="M68.0731 126.325L67.0856 125.898L123.069 69.915L123.622 70.7759L68.0731 126.325Z" fill="#F5BC2E"/>
<path d="M76.5266 127.871L75.8579 127.126L126.532 76.452L126.975 77.4229L76.5266 127.871Z" fill="#F5BC2E"/>
<path d="M84.0412 130.357L83.2274 129.757L122.429 90.5549L122.82 91.109L122.982 91.0989L123.091 91.3068L121.648 92.7501L121.646 92.7486L121.631 92.7669L84.0412 130.357Z" fill="#F5BC2E"/>
<path d="M92.9415 131.457L92.0716 130.912L102.29 120.694L102.939 121.459L92.9415 131.457Z" fill="#F5BC2E"/>
<path d="M103.304 131.094L102.272 131.157L102.021 130.962L104.813 128.171L105.133 129.265L103.304 131.094Z" fill="#F5BC2E"/>
<path d="M128.325 84.6587L125.967 87.0166L128.043 85.9069L128.325 84.6587Z" fill="#F5BC2E"/>
<path d="M97.0223 5.96156L93.0754 9.90848L94.8729 8.92816L95.2676 7.97682L97.2515 6.64087L97.0223 5.96156Z" fill="#F5BC2E"/>
<path d="M67.7911 5.19284L69.099 5.29909L19.032 55.366L19.0651 53.9188L25.5527 47.4312L25.7497 47.3973L25.7445 47.2394L67.7911 5.19284Z" fill="#F5BC2E"/>
<path d="M53.5008 9.48314L54.5468 9.22167L59.7495 4.64707L59.751 4.6471L27.003 37.3951L27.014 35.9699L53.5008 9.48314Z" fill="#F5BC2E"/>
<path d="M7.5954 56.8027L7.56041 56.7894L7.5283 56.8698L7.5954 56.8027Z" fill="#F5BC2E"/>
<path d="M85.8933 1.53688L90.0838 3.40923L92.9686 2.5692L94.6083 5.40302L96.4505 5.53459L96.734 6.37462L94.7501 7.71057L94.3553 8.66192L91.7944 10.0586L89.0412 10.6962L87.9582 11.8905L87.5634 11.1921L85.9338 11.9107L88.8186 16.3436L88.0088 17.3152L88.8084 18.7625L88.1201 20.3616L89.4461 21.3028L92.007 20.6652L93.9099 21.2724L92.2196 25.0475L95.1347 27.1121L95.904 30.6544L97.3312 30.4824L98.2928 29.3691L99.5479 31.0491L103.597 32.4154L103.627 35.7249L101.542 37.0204L101.947 38.245L101.39 39.2571L102.109 40.8359L101.795 42.8803L104.467 45.3599L102.706 47.0906V48.3051L105.368 52.0903L105.803 55.4402L110.692 56.4726L114.599 60.2071L113.931 60.9055L114.397 61.5734L118.375 61.0573L121.644 62.2212L120.49 68.0406L122.201 69.1033L123.456 71.0566L126.007 70.8238L125.926 71.5525L123.861 73.0808L123.8 75.0746L125.946 76.0361L126.634 77.5441L129.813 77.9185L130.005 79.548L128.588 80.9446L127.525 85.6407L122.282 88.4442L121.432 89.608L122.302 90.8428L122.464 90.8327L123.051 91.946L122.788 93.5653L121.128 92.4824L120.45 93.3426L121.766 95.5388L121.158 96.5307L119.549 98.0589L118.628 100.255L114.336 104.293L113.759 106.115L111.482 106.328L111.796 108.321L109.761 109.87L107.311 114.424L105.864 115.467L104.032 115.285L103.293 117.541L101.613 118.655L100.155 118.523L103.961 123.007L103.435 124.97L104.913 130.01L104.113 131.63L103.566 130.779L101.754 130.891L100.712 130.081L96.8453 129.545L92.8674 131.468L90.8936 130.233L89.0514 130.273L89.0007 129.514L87.8165 128.715L86.4804 128.654L83.7576 130.263L81.2473 128.411L77.7552 130.638L76.6013 129.737L76.1964 127.814L74.3441 125.749L72.593 126.569L70.0422 125.587L67.9875 126.245L66.3477 125.537L65.2242 126.427L64.4549 125.142L63.1491 125.061L61.4486 126.094L60.1429 125.679L58.5031 128.027L60.0822 128.269L59.5963 130.779L57.8148 132.095L56.671 131.812L56.1042 133.117L55.2843 133.178L54.7782 132.389L53.0372 132.571L52.5818 131.538L50.4966 130.456L50.0816 128.806L48.2192 130.132L46.3162 127.733L44.7068 127.895L42.3687 126.336L39.6762 127.662L37.8138 127.521L36.3562 129.99L30.0805 127.753L30.04 125.749L28.9064 125.183L29.6453 123.867L28.5724 122.187L29.0076 120.891L28.3901 119.394L26.0823 117.471L23.7846 114.03L24.5235 113.2L26.386 114.212L27.7322 113.362L28.7444 111.297L29.0987 106.702L26.1937 105.417L24.3717 106.52L22.2967 106.793L20.333 103.463L20.3229 101.308L17.428 97.6844L21.7096 95.215L21.0821 92.8568L21.3351 90.7719L19.4727 90.5189L20.6367 88.9603L18.5516 87.0374L17.4584 83.6064L15.8895 82.5842L15.6364 80.6613L13.9865 78.0501L9.88712 73.8095L8.50041 74.1738L7.11369 72.7772L4.52246 73.4553L1.24293 72.0991L1 71.2287L2.27537 70.4393L2.50818 68.0001L1.87049 62.8385L4.2188 61.1484L5.15002 61.2597L7.04283 56.5232L9.76566 57.5555L12.9035 56.9786L14.7862 58.5676L17.3167 57.7579L17.094 57.1102L18.5111 55.2479L18.592 51.7057L21.2238 50.0256L21.993 47.6877L25.2321 47.1311L25.1005 43.1232L25.5459 40.5627L26.467 39.5101L26.5075 34.2776L23.4607 29.0756L19.8674 25.7458L19.7864 22.7905L17.4078 21.8088L19.9282 19.228L19.8067 11.6476L35.4756 11.5362L37.6214 9.26916L40.4252 8.20648L43.4112 9.46146L44.9599 11.2225L54.0292 8.95542L59.2319 4.38082L61.4486 4.42131L63.5236 5.53459L65.9124 4.81602L69.1515 5.07915L71.4492 8.49999L72.5424 9.06675L72.9675 10.4128L75.2956 10.3825L77.6135 7.78141L78.6156 7.81177L79.2431 6.62764L82.3 6.52643L81.9153 4.53264L82.4822 3.1056L83.6766 1.4964L85.8933 1.53688Z" stroke="#F5BC2E"/>
</svg>
