<svg width="60" height="60" viewBox="0 0 60 60" fill="none" xmlns="http://www.w3.org/2000/svg">
<path d="M18.0613 0.0513404L18.4208 0.0918778L18.7154 0.445849L20.3477 0.316147L21.3423 0.853858L21.9558 0.783609L22.2882 1.13758L22.3422 1.65368L22.7125 1.93199L22.9422 1.85634L23.307 2.0725L23.5989 2.61292L24.3421 2.23463L25.2934 3.39112L25.2691 3.70185L25.9448 4.24498L26.4528 4.23687L26.8609 4.83943L27.4825 4.82863L28.223 5.15017L29.8013 4.99075L30.123 5.64736L30.7121 6.02294L30.7959 7.84685L30.4202 9.61672L29.4743 10.7921L28.9852 10.8462L28.7095 11.5271L27.4555 11.8648L27.5852 13.0024L26.9934 13.786L27.9663 15.3424L27.4339 15.3694L26.6636 15.7423L25.7691 16.6232L24.8232 16.3044L24.6232 15.9126L24.0827 15.9855L23.326 16.6205L22.98 17.1555L21.2936 16.6664L20.3207 15.9207L19.8315 15.9936L19.0532 15.3289L18.837 14.548L17.0073 15.9288L16.6101 16.5935L16.5668 18.2391L16.9127 19.0848L16.9911 19.9116L16.5722 21.4653L16.529 22.7623L16.7992 22.9974L17.81 22.5165L18.7397 22.5894L18.9478 23.1866L19.6261 24.0756L20.2477 24.2755L21.4666 25.6509L20.9045 26.1021L20.2639 26.1562L19.2829 26.7236L19.0883 27.1586L18.8505 27.2208L18.7937 27.5748L19.0829 28.2178L19.0694 28.5988L18.0424 28.9609L16.1398 28.7529L14.3021 28.9069L13.894 29.2473L12.4346 26.1778L10.413 23.6621L8.34286 22.3219L6.89969 21.0411L6.31052 20.7817L5.3457 20.7844L4.98896 21.6626L4.80248 21.2978L4.96734 20.698L4.79437 20.652L4.76194 20.2305L5.1403 19.8441L5.19436 19.5225L4.86464 18.7903L4.7187 17.723L4.01333 16.9718L2.87014 16.2449L0.132424 15.2614L0 15.0074L0.0810776 14.0724L0.529703 12.3323L0.835096 12.1675L1.4648 12.6593L2.2053 12.3836L3.5647 11.2866L4.75113 9.75182L5.51867 8.21974L5.73217 7.37398L6.06999 7.21456L6.30782 6.73089L6.23755 4.92319L6.50511 4.36927L6.39971 3.78291L6.84563 3.85857L7.35372 4.58543L8.39151 4.35576L10.2617 5.7014L10.6455 5.63384L12.0994 6.03375L13.721 5.27447L13.8453 4.79619L14.7831 3.96125L15.5263 1.78878L15.8695 1.67259L16.3587 0.807927L16.5722 0.932221L17.1884 0.651202L17.4668 0.724164L17.9857 0L18.0613 0.0513404Z" />
<path d="M45.2899 55.625L45.4278 55.5898L45.5494 56.0654L45.4737 56.6031L45.7061 56.768L45.625 57.23L45.4602 56.9058L45.1197 56.6058L44.6386 56.695L44.2765 57.0733L44.1116 56.8652L44.2792 56.287L44.5224 56.2356L44.6116 55.8519L44.8954 55.6547L45.2899 55.625ZM16.1561 48.4753L16.5345 48.5536L16.1804 49.5507L16.2967 49.9155L15.9075 49.6831L16.048 49.3886L15.6507 49.5075L15.5805 49.1724L15.8291 48.178L16.1561 48.4753ZM14.7129 47.2458L15.0562 47.3593L14.8156 47.516L14.9102 47.9132L14.4427 48.1294L14.5535 48.4888L14.4724 48.7671L14.3022 48.7914L14.1562 48.3429L14.34 48.1375L14.2643 47.3755L14.4832 47.0242L14.7129 47.2458ZM10.9347 39.3341L11.0185 39.5503L10.8077 39.8583L10.8564 39.3774L10.5699 39.3341L10.5212 39.1234L10.9672 38.8613L10.9347 39.3341ZM48.7276 32.3195L49.3978 32.5222L49.9194 32.9896L49.8708 33.5679L49.2222 33.7192L48.6898 33.3193L48.7817 33.1139L48.5844 33.1031L48.1493 32.4492L48.7276 32.3195ZM54.4111 30.293L54.676 30.5091L54.5679 30.7793L53.8868 31.1063L53.2139 31.1441L52.7707 30.7685L52.7977 30.5469L53.2571 30.5767L53.7733 30.3308L54.0193 30.6929L54.2625 30.4632L54.2517 30.2335L54.4111 30.293ZM59.5244 29.6066L59.6812 29.7931L60.0001 29.7904L59.6595 30.0849L58.9893 30.1632L58.5461 30.4821L58.1083 30.4794L58.1353 31.2252L56.757 31.2576L56.4191 31.6521H56.0948L55.5246 31.9926L55.4678 31.7305L55.0462 31.8926L54.703 31.7953L55.0219 31.6629L55.2192 31.2873L55.957 31.0171L57.1326 30.1876L57.6813 30.1416L57.6461 30.0281L58.4839 29.612L58.9298 29.8741L59.0704 29.639L59.5244 29.6066ZM45.0899 7.97105L45.4142 8.19262L45.6683 8.13318L45.9169 8.53309L46.4926 8.76277L46.5899 8.51417L46.8358 8.48445L46.9385 8.73033L47.2331 8.82221L47.7574 8.61145L48.7817 8.54659L48.7141 9.51935L49.0546 9.70308L48.633 10.0814L48.5087 10.6488L49.06 11.019L50.0248 11.3081L50.3329 11.908L49.9059 12.035L49.2168 12.8591L48.233 13.0293L48.0547 12.9267L47.6574 13.1131L47.3115 13.1185L47.1493 12.824L46.6899 12.9564L46.3196 12.7645L46.1602 12.9564L44.9008 11.8593L45.2521 11.3919L45.244 11.0028L44.8467 10.8488L43.79 9.92466L42.936 9.69228L43.3035 9.63013V9.44639L42.8873 9.43018L42.9117 9.65174L42.7711 9.70039L42.2928 9.55177L43.1035 9.00325L43.1441 8.77357L43.6278 8.78167L43.9927 8.34935L44.417 8.38447L44.4818 8.09535L45.0899 7.97105ZM30.7284 6.03906L31.7014 6.39034L32.1121 6.22551L32.6094 6.41195L33.5634 6.23632L34.7985 7.1226L37.166 8.01428L37.6984 8.51688L39.2956 9.31939L39.6604 9.83819L40.4037 10.4029L40.8739 11.327L42.3874 12.2971L43.4251 12.4835L44.3008 12.0701L44.4575 12.2728L44.8926 11.8675L46.2574 13.2266L46.3412 13.4995L45.7196 14.094L46.0034 14.456L45.8413 14.6236L46.0737 15.0856L46.3061 15.218L47.0439 15.0937L47.5277 15.218L48.5763 15.0532L48.7627 15.1235L49.0141 15.4504L49.3546 15.5234L49.9492 16.3745L50.2383 16.4124L50.287 17.2122L49.6005 17.8472L49.0492 17.8201L48.8006 18.139L48.7979 18.6281L49.8005 19.2036L50.1708 19.1307L50.114 19.5549L49.6168 20.2601L50.0735 21.3572L49.787 21.4058L49.7708 21.5544L49.7141 21.9246L49.8438 22.1705L50.7762 22.7352L50.4762 23.0865L50.5789 23.3189L50.4546 23.6026L50.2302 23.6647L50.0221 24.0376L49.9897 24.6024L50.2438 24.9104L51.4842 25.0968L51.9653 25.5859L52.4382 25.6319L52.6085 25.8426L53.2598 25.8129L53.4436 25.9669L53.4814 26.6127L54.2382 26.5479L54.3409 26.9181L54.8625 26.8343L55.6868 27.0207L56.1786 26.637L56.8921 26.8613L56.9083 27.2423L56.2786 28.0583L56.1975 28.4123L55.8651 28.6258L54.3138 28.2394L53.6625 28.6474L53.4301 28.4961L53.2301 28.596L53.3436 28.7311L53.4463 28.95L52.968 28.896L52.722 28.5933L52.4734 28.5528L52.268 28.7365L52.2734 29.0554L52.2626 29.2391L51.4518 29.2905L51.368 29.4931L51.5788 29.8795L51.7518 29.6499L52.2139 29.7444L51.8923 30.0849L52.4031 30.1011L52.6328 30.3875L50.5924 30.5496L50.2546 31.1036L50.7599 31.6305L50.7437 32.0331L50.3546 31.9331L50.287 32.179L50.0032 32.206L49.8681 31.9115L49.4249 31.8412L49.2276 31.5062L49.4519 31.2576H49.7032L49.6222 30.9955L49.406 30.9279L49.333 31.2252L49.0141 31.3522L48.6114 30.7793L49.2492 30.9766L48.9141 30.4767L48.5141 30.2038L47.5412 30.1551L47.7331 29.4418L47.4736 28.9851L48.0087 29.1148L48.379 29.0176L48.6276 28.7257L48.6195 28.0502L49.1411 28.4393L49.4114 28.2826L49.1087 28.0935L49.1276 27.5855L48.8357 27.4666L48.8817 27.1991L48.1303 27.0748L47.2925 27.1991L46.979 26.9856L47.2466 26.7586L47.0115 26.2939L46.0115 26.9207L46.025 26.5344L45.7602 26.2695L45.4791 25.3563L45.2575 25.159L44.1846 24.9698L43.4089 24.6942L42.7198 24.8645L42.3549 25.313L41.8171 24.8158L41.5658 24.8456L41.4685 24.6726L41.6036 24.3376L41.3361 24.27L41.0469 23.7836L41.0874 23.4459L40.5307 22.9514L39.6523 23.2108L39.0956 23.7107L39.1956 24.4619L39.5848 25.1995L39.3091 26.129L39.8388 26.8154L39.8253 27.4936L40.3983 28.0205L39.9496 28.9527L40.4334 29.1229L41.0361 29.9444L41.1955 30.528L41.2739 30.7685L41.4982 31.0901L41.5766 31.3197L41.7901 31.5008L41.8874 31.952L42.1225 32.0439L41.9955 32.3844L42.5928 32.7194L42.4144 33.1788L42.609 33.4409L42.9062 33.4706L43.3306 34.2353L43.39 34.8081L43.8008 35.1324L43.4954 35.5512L43.3279 36.5077L43.4576 37.2913L43.9819 37.5994L44.2224 37.2697L44.5791 37.3913L44.8332 37.2751L44.971 37.5967L44.8359 37.8804L44.9791 38.102L45.544 38.3235V38.6964L45.0845 38.7424L46.0223 40.142L45.8331 40.3285L45.9088 40.7743L46.0845 41.3445L45.8602 41.3283L45.7304 41.6714L45.9683 41.8903L46.171 41.82L46.0521 42.1929L46.3926 42.4983L46.1926 42.7036L46.725 43.6818L46.825 44.3789L47.1655 45.0382L46.8899 45.1247L46.998 45.3868L47.1952 45.757L47.6952 45.9921L47.8114 46.3325L47.9601 46.5919L48.1114 47.2998L48.2844 47.2945L48.3384 47.5809L48.6087 47.7079L47.9844 48.1321L48.1574 48.7698L48.0493 49.0238L47.5925 48.8509L47.352 48.5401L47.098 48.6239L47.0493 49.0076L46.7872 48.8833L46.625 49.0238L46.5142 49.4966L46.8385 49.8344L46.7574 50.1722L46.8763 50.3154L46.8926 50.6396L46.5926 51.0368L46.7304 52.1123L47.0439 52.3446L47.279 52.5878L47.4142 53.112L47.8276 53.5714L48.6195 54.1145L49.0519 54.1388L49.1816 54.6576L49.6627 54.8143L49.3141 55.0845L49.4114 55.5142L49.0898 55.9816L49.3384 56.0546L49.4168 56.2951L49.9276 56.4005L49.9951 56.9084L50.26 56.8463L50.6789 57.0949L50.8167 57.6569L50.7167 57.8299L49.4411 57.6542L49.0898 58.0379L48.5087 57.6515L48.0114 57.7056L48.0547 57.5597L47.4547 56.6923L47.6223 56.4194L47.4169 56.2681L47.5979 55.906L46.8628 55.1683L46.3818 55.0548L45.6115 55.2845L45.171 55.3385L44.817 54.3631L44.4062 54.1415L44.5927 53.7875L44.4224 53.4579L43.4387 52.6743L43.1549 52.6446L42.7549 52.0636L43.0225 52.0609L43.0846 51.4989L42.6603 50.8747L42.3549 50.7342L42.2117 50.3586L41.7901 50.2857L41.6496 51.2557L41.5144 51.2746L41.5469 51.0422L41.1847 50.4424L41.3982 50.237L41.3333 49.9695L41.5874 49.8317L41.6009 49.4804L41.3766 48.7779L41.0685 48.4428L40.9685 47.5079L40.728 46.954L39.6983 46.7378L36.839 46.7297L36.6092 47.0134L35.8525 47.2458L35.4444 47.6052L35.3498 47.8592L35.5282 48.3185V48.5752L35.6687 48.9157L34.7418 49.2643L34.358 49.7128L34.5661 49.9884L34.3121 50.3937L34.4147 50.6072L34.7364 50.5559L34.9823 50.7693L34.912 51.2422L35.0472 51.2368L35.0417 51.4286L34.7688 51.5178L34.6039 51.0936L34.1661 50.9098L33.7823 51.153L34.4931 52.4581L34.0364 52.8824L33.704 52.3609L33.2391 52.5257L33.1418 53.1985L33.377 54.2901L33.1391 55.0872L33.577 55.6628L33.6283 56.0465L33.8418 56.0519L33.8959 56.3626L33.885 57.1111L33.6607 57.1571L33.8445 57.6515L33.3716 57.9596L33.7094 58.1865L33.7283 58.6675L33.8418 58.8783L33.5796 59.0161L33.3202 59.0377L33.0553 58.808L33.0364 58.246L33.2229 58.0433L32.7419 57.7407L32.7932 57.4083L31.8554 57.0571L31.3635 56.5464L31.1635 56.8355L30.6122 56.6491L30.1285 55.6196L30.1231 55.1494L30.2987 55.244L30.5852 54.9548L31.1608 54.7306L30.9419 54.3118L31.0527 53.6903L30.7068 53.6362L30.7365 53.3363L31.0554 53.1742L30.4933 52.9013L30.5068 52.6446L30.8041 52.4473L30.5879 52.3338L30.4798 51.7745L30.9176 51.7907L30.9717 51.661L30.5609 51.3908L30.4447 51.0179L30.5447 50.6018L30.8446 50.5288L31.1257 50.1343L30.9798 50.0073L30.3095 50.1073L30.1231 49.9209L29.9204 49.6209L29.3042 47.8051L29.1961 47.6079L28.8772 46.5054L28.4556 46.2298L28.4204 45.9191L27.9502 45.7381L27.934 45.203L27.6637 45.122L27.4178 44.6896L27.5097 44.4816L27.1962 44.0871L26.8313 44.0438L26.5908 43.7169L26.2584 44.0465L26.0989 44.1952L25.8692 44.2033L24.7584 43.4575L24.8909 43.036L25.1395 43.0063L25.2449 42.7387L25.0935 41.9335L25.4341 41.0202L25.3206 40.3582L23.7044 40.034L22.8099 40.0718L21.5775 40.4771L20.0208 41.4282L19.9343 41.9984L20.1532 42.147L20.1235 42.9252L19.8127 44.995L20.2181 46.6432L20.91 47.1107L20.1559 47.5106L20.083 48.1942L19.7587 48.3077L19.4316 48.5509L18.7155 49.3697L18.3749 48.4185L18.002 48.2348L17.5831 47.6349L17.4263 46.8216L17.0669 46.7L16.2858 47.0432L15.9075 47.3269L15.6994 46.9189L15.1129 46.9081L14.5427 46.5298L14.1913 45.6705L13.9319 44.2789L14.1832 43.5061L14.6265 43.1765L14.7021 42.5874L14.0292 42.1767L13.4238 42.3767L13.3319 42.101L13.5481 41.9443L13.0157 40.7635L12.4941 40.4825L12.0914 39.6719L11.3969 39.0855L11.5834 38.083L11.2077 36.397L11.1969 35.9133L11.5401 34.9189L13.2238 33.2869L13.7238 33.1112L14.3076 31.9385L14.3454 30.7928L13.9076 29.2716L14.3157 28.9311L16.1561 28.7771L18.0614 28.9851L19.0884 28.6231L19.1019 28.2448L18.8128 27.6044L18.8695 27.2504L19.1073 27.1883L19.3019 26.7532L20.283 26.1858L20.9262 26.1317L21.4883 25.6805L20.2694 24.3051L19.6506 24.1052L18.9722 23.2162L18.7641 22.619L17.8344 22.5461L16.8237 23.0271L16.5534 22.792L16.5966 21.495L17.0155 19.9413L16.9372 19.1144L16.5912 18.2714L16.6345 16.6285L17.0318 15.9665L18.8614 14.5857L19.0776 15.3694L19.856 16.0341L20.3478 15.9611L21.3207 16.7069L23.0099 17.1987L23.3558 16.6637L24.1125 16.0287L24.653 15.9557L24.853 16.3475L25.7989 16.6664L26.6935 15.7855L27.4664 15.4126L28.0015 15.3856L27.0286 13.8292L27.6205 13.0456L27.4907 11.908L28.7447 11.5702L29.0204 10.892L29.5123 10.838L30.4582 9.66256L30.8338 7.89269L30.75 6.06879L30.7284 6.03906Z" />
</svg>
