<svg width="60" height="60" viewBox="0 0 125 255" fill="current" xmlns="http://www.w3.org/2000/svg">
<path d="M2 10.9149L7.67322 5.24165L8.09699 5.50504L9.21253 5.11661L2.52305 11.8061L2 10.9149Z" />
<path d="M5.54578 18.7834L4.49814 18.4167L20.914 2.00085L22.0494 2.2797L5.54578 18.7834Z"/>
<path d="M10.327 24.0021L10.0338 22.8811L27.3444 5.57056L28.0237 6.30542L10.327 24.0021Z"/>
<path d="M15.8883 28.4408L14.8432 28.0717L21.0186 21.8963L21.0633 21.8805L21.5737 22.7554L15.8883 28.4408Z"/>
<path d="M20.3045 34.0246L19.8045 33.1104L26.9278 25.9871L27.3997 26.5664L27.3806 26.9486L20.3045 34.0246Z"/>
<path d="M21.575 42.7541L21.1613 41.7536L26.6825 36.2324L26.8952 37.4339L21.575 42.7541Z"/>
<path d="M26.7086 47.6205L25.9826 47.7088L25.5509 47.364L29.5326 43.3823L30.4884 43.8407L26.7086 47.6205Z"/>
<path d="M33.552 50.7771L32.9971 50.0264L32.929 49.9859L35.6281 47.2869L37.7787 46.5503L33.552 50.7771Z"/>
<path d="M40.0631 54.266L39.1811 53.7338L42.8252 50.0897L43.2132 51.1159L40.0631 54.266Z"/>
<path d="M47.5606 75.3543L49.964 72.9509L50.7763 73.5528L48.2472 76.0819L47.8664 75.5612L47.5606 75.3543Z"/>
<path d="M54.6386 79.6905L53.5186 80.8105L53.3019 80.4394L54.5266 79.569L54.6386 79.6905Z"/>
<path d="M88.0047 124.91L97.6869 115.228L98.8578 115.471L87.4548 126.874L88.0047 124.91Z"/>
<path d="M84.6039 139.725L84.534 138.381L99.2195 123.695L99.1766 125.152L84.6039 139.725Z"/>
<path d="M89.856 144.473L89.8525 144.474L89.4492 143.466L97.6926 135.222L98.193 135.274L98.3355 134.579L99.6829 133.232L99.7214 133.28L99.6369 134.692L89.856 144.473Z" />
<path d="M82.8511 160.064L83.8671 159.048L85.0749 159.118L85.1671 159.162L83.166 161.163L82.8511 160.064Z"/>
<path d="M66.2976 188.032L66.4403 187.588L66.4511 186.464L76.709 176.206L77.0881 177.241L66.2976 188.032Z"/>
<path d="M68.4537 195.875L68.1553 194.76L73.8364 189.079L73.8514 190.478L68.4537 195.875Z"/>
<path d="M79.0763 193.839L79.5584 194.531L80.1859 193.954L79.4832 193.432L90.3041 182.611L90.7687 183.56L77.8077 196.521L77.2225 195.692L79.0763 193.839Z"/>
<path d="M82.6525 201.677L82.3217 201.494L81.2347 201.68L97.8757 185.039L98.5752 185.754L82.6525 201.677Z"/>
<path d="M92.8884 201.441L92.125 200.79L101.591 191.324L102.214 192.115L92.8884 201.441Z"/>
<path d="M98.631 205.698L97.5452 205.411L97.5229 205.392L105.684 197.231L105.967 198.357L105.97 198.359L98.631 205.698Z"/>
<path d="M101.746 172.583L97.1896 177.139L96.7658 176.577L96.705 176.21L101.13 171.785L101.746 172.583Z"/>
<path d="M97.5774 165.338L97.6059 165.404L95.8383 168.491L94.341 169.988L94.1442 168.814L94.1295 168.785L97.5774 165.338Z"/>
<path d="M107.318 137.011L104.816 139.513L103.787 139.128L106.974 135.941L107.343 136.337L107.318 137.011Z"/>
<path d="M103.077 139.838L102.495 141.296L102.787 141.542L102.507 141.822L101.862 141.053L103.077 139.838Z"/>
<path d="M107.427 145.488L107.452 145.463L107.647 145.627L107.427 145.488Z"/>
<path d="M95.2269 157.688L94.8932 158.157L95.0568 159.272L91.4275 162.902L91.391 162.904L90.9173 161.998L95.2269 157.688Z"/>
<path d="M88.0028 164.912L83.7966 169.118L83.7995 169.128L83.2316 169.683L82.7114 170.203L83.2833 170.504L83.409 170.92L88.0783 166.251L88.152 165.059L88.0028 164.912Z" />
<path d="M90.4424 172.473L76.2628 186.652L76.646 187.683L90.8594 173.47L90.8545 173.399L90.4424 172.473Z"/>
<path d="M70.6769 173.652L70.2709 174.058L70.2461 172.67L70.6769 173.652Z"/>
<path d="M90.9353 231.98L98.5013 224.414L98.7585 225.571L91.0117 233.317L91.2898 232.595L90.9353 231.98Z" />
<path d="M94.874 239.455L94.8325 239.336L95.7334 238.385L95.5512 237.565L95.394 237.521L102.472 230.443L103.031 231.047L103.207 231.123L94.874 239.455Z" />
<path d="M99.1805 245.149L98.6485 245.014L98.3056 244.609L110.215 232.7L111.15 233.179L99.1805 245.149Z"/>
<path d="M104.425 249.904L103.942 249.629L103.743 249.172L116.055 236.86L115.924 238.405L104.425 249.904Z"/>
<path d="M110.602 253.727L109.368 254.284L109.122 253.793L111.617 251.298L111.807 251.461L111.782 252.547L110.602 253.727Z"/>
<path d="M121.113 243.216L119.344 244.985L118.504 244.411L120.283 242.632L120.299 242.666L121.113 243.216Z"/>
<path d="M97.8879 223.717L98.3737 225.903L99.224 227.026L99.973 226.834L100.094 228.17L102.514 230.781L103.991 231.419L105.226 230.609L108.152 231.641L115.632 235.477L115.338 238.948L118.911 240.588L119.782 242.4L121.037 243.25L123.679 244.272L123.284 246.883L120.915 245.355L119.478 245.163L116.806 243.341L115.379 243.432L112.251 244.768L109.903 247.824L109.386 249.565L111.289 251.195L111.249 252.935L108.85 254.018L108.496 253.31L106.512 252.763L106.34 251.022L103.425 249.363L102.24 246.65L100.661 246.114L100.287 245.294L98.1308 244.748L96.3291 242.622L96.7441 240.618L94.6387 240.001L94.3148 239.07L95.2157 238.118L95.0335 237.299L92.2398 236.519L91.8552 236.054L90.6506 234.515L90.2458 233.696L90.7721 232.329L89.7295 230.518L90.3267 229.556L90.2053 229.212L89.851 228.352L90.4482 228.139L90.5191 226.814L91.6628 225.852L91.6021 225.154L96.9364 220.832L97.9891 222.057L97.8879 223.717ZM84.5572 158.852L86.3184 159.682L86.3589 160.239L85.7415 160.128L86.7435 161.879L86.784 163.953L87.6343 164.793L87.5229 166.595L88.9805 167.05L89.4967 169.702L89.0716 170.289L90.3369 173.133L90.5292 175.916L90.1952 176.999L87.9481 178.588L90.2559 183.304L90.9745 184.144H92.007L93.7176 182.484L93.8998 181.371L95.0031 180.976L94.6185 183.092L95.9242 182.474L96.653 182.91L96.6732 184.073L98.06 185.49L98.0093 187.17L103.01 193.516L103.637 195.51L104.224 196.198L104.933 196.036L105.449 198.091L107.494 199.933L105.874 205.691L104.933 206.612L102.959 205.226L100.894 206.167L97.0275 205.145L91.5313 200.459L89.4664 199.68L88.4845 199.649L86.7031 201.238L85.2657 201.562L84.871 202.918L81.804 201.228L79.9112 201.552L79.6379 200.58L77.654 199.406L78.3929 197.818L76.4495 195.065L77.0669 193.506L75.913 191.198L76.8847 191.168L79.0407 194.265L79.6683 193.688L78.4435 192.777L78.3524 191.198L76.9961 189.751L74.4453 182.889L74.4149 181.29L73.757 180.966L72.8055 180.976L71.7933 182.373L72.7144 183.841L72.4108 185.288L73.3015 187.211L73.3825 194.761L70.8317 194.903L68.0988 196.218L67.5522 194.174L64.1613 192.686L63.9893 191.441L64.0196 190.186L65.1634 189.68L65.9226 187.322L65.9631 183.132L67.5927 183.233L67.8559 181.958L68.7871 181.229L68.5745 179.074L69.7892 175.805L69.7284 172.404L70.7406 174.712L71.6719 172.89L73.5951 172.293L74.1821 175.764L74.9514 176.291L76.1863 175.926L76.824 177.667L79.2533 176.321L81.0651 173.801L81.966 173.892L81.8141 172.698L82.796 172.617L83.1604 171.544L82.7656 170.238L81.2271 169.429L81.1967 168.659L82.1886 168.771L82.3607 169.763L83.2818 168.862L82.3607 165.876L83.0288 165.512L82.9478 164.378L82.0267 163.64L82.7352 161.2L82.1785 159.257L82.6543 158.741L84.5572 158.852ZM92.5232 155.442L95.074 156.909L94.3755 157.891L94.5982 159.409L93.7277 160.33L95.4991 160.897L96.2886 160.057L96.7947 161.18L96.076 161.494L97.1793 161.727L97.8879 163.093L96.7643 164.389L97.0882 165.137L94.7298 169.257L94.6893 171.129L97.1996 170.167L97.1793 169.429L97.6045 168.629L98.3231 169.257L99.1329 168.943L98.394 168.042L100.287 168.629L101.188 169.651L100.813 170.36L100.327 171.149L101.39 172.526L100.52 174.115L101.097 174.297L100.945 175.4L103.131 176.463L99.6086 178.234L99.0418 178.628L97.4223 177.869L96.2481 176.311L95.7015 173.011L94.2237 172.111L93.6265 168.548L91.7236 164.834L91.7539 162.587L90.8733 162.638L89.3652 159.753L89.6587 158.083L91.8552 159.369L92.341 159.095L92.5232 155.442ZM104.366 135.483L105.236 135.17L105.085 136.577L106.411 135.625L106.826 136.071L106.785 137.164L106.471 137.993L104.356 139.269L102.898 138.722L101.977 141.03L107.129 145.361L102.989 142.75L100.216 139.441L100.651 136.151L102.797 137.224L102.746 136.283L103.475 135.807L104.366 135.483ZM96.4708 114.817L98.809 115.303L97.6956 117.094L99.3657 120.11L98.7685 121.163L98.647 125.292L99.9022 127.741L99.892 129.067L96.8251 133.54L96.6935 134.907L97.6753 135.008L98.313 131.901L99.2037 133.014L99.062 135.382L98.7078 135.868L97.9992 135.585L99.2948 140.422L98.2725 141.536L96.5821 139.522L97.0478 142.011L96.3696 142.234L95.7825 143.206L94.578 143.823L92.9787 142.902L91.8147 144.339L92.3107 146.212L91.6021 146.525L90.8632 145.493L91.0049 143.904L89.3348 144.208L88.4643 142.032L88.6769 140.868L87.5837 140.362L85.2455 145.513L82.6846 148.549L83.4438 146.606L82.6441 145.574L83.3729 144.744L83.0895 143.671L83.7272 143.104L84.1321 140.341L83.8385 134.694L85.7415 130.879L87.9177 123.106L88.8084 121.891L89.8713 121.719L92.2297 117.033L94.578 117.175L95.7116 114.857H96.4708V114.817ZM54.009 79.303L56.8836 82.4202L55.8613 82.6124L54.3936 81.1955L53.4523 81.317L52.7842 80.1733L54.009 79.303ZM45.6482 69.253L48.948 71.2063L48.7759 72.188L50.7699 73.6657L50.4764 74.779L52.0757 75.7202L52.3388 77.1472L49.3832 76.9752L48.037 76.2364L47.3487 75.2951L46.0025 74.3842L46.0531 73.0179L45.4053 71.8439L44.5145 71.5707L44.5651 69.3947L45.1117 69.1417L45.6482 69.253ZM20.2824 1.70681L22.0133 2.1319L23.2482 4.24714L25.5054 5.39078L26.0925 4.51027L27.8233 6.38263L28.3497 5.41103L29.4631 6.86842L28.5622 9.3379L28.0663 10.6232L27.0844 11.6657L21.8311 13.4773L19.4221 14.9246L18.7439 16.2909L19.6447 17.2625L18.9969 18.5478L20.8999 19.9445L19.9686 20.7339L19.0982 20.5112L19.746 21.8978L20.5456 21.6144L21.2541 22.8289L24.6248 24.2964L27.4286 24.6304L26.305 25.5919L26.882 26.3003L26.801 27.9197L25.7281 28.9318L25.3333 31.2696L27.0642 41.0463L27.8436 42.5544L30.8397 43.9915L33.441 44.1838L35.0606 47.0379L38.3705 45.9043L39.9799 43.6676L42.9456 51.5112L44.5449 53.333L43.6137 55.509L42.2877 54.76L41.1743 54.9827L35.84 51.7643L33.5119 51.157L32.4795 49.7604L29.8275 48.1815L27.297 47.22L25.4649 47.4427L21.9424 44.6291L19.9383 39.7812L19.918 37.1094L19.169 35.7936L19.8371 33.8505L18.0657 30.6118L15.7376 28.3043L13.0148 27.3428L13.197 26.2093L10.0592 24.6911L9.3709 22.0597L8.17651 21.1995L8.85468 18.8008L7.50845 19.1551L6.2432 18.9425L3.81392 18.0924L4.65405 14.2566L3.14587 13.1737L2.0122 14.5197L2.17415 11.8276L1.1822 10.1374L1 9.30754L3.78355 4.02448L4.27953 4.59124L6.08125 4.30786L7.57931 5.23897L10.7475 4.13581L11.618 4.71269L13.2274 4.15606L14.8773 5.08717L17.0434 4.00424L19.5435 1.4032L20.2824 1.70681Z"/>
</svg>
