<svg width="60" height="26" viewBox="0 0 60 26" fill="none" xmlns="http://www.w3.org/2000/svg">
<path d="M49.2789 16.8533L49.9716 17.0108L50.4007 17.3841L50.3676 17.9766L49.4056 18.3465L48.973 18.3225L48.7904 18.0839L48.448 17.9321L47.947 17.4926L47.7838 17.246L48.036 17.2962L48.2974 16.9937L48.6204 16.8556L49.0346 16.7791L49.2789 16.8533ZM39.7447 12.9685L39.8497 13.1077L40.1111 13.2025L40.3393 13.0883L40.4854 13.2128L40.4443 13.3052L40.5641 13.4799L40.7079 13.6055L40.9271 13.5975L41.0469 13.7482L41.0172 13.8372L40.8323 13.8007L40.7684 13.9457L40.7947 14.1226L41.0172 14.1705L40.959 14.2482L41.0275 14.4228L40.8164 14.5895L40.886 14.9742L40.975 15.013L40.9339 15.182L41.04 15.2322L40.9556 15.4879L40.8221 15.3338L40.595 15.5815L40.3541 15.6478L40.1019 15.6854L39.8588 15.8133L39.8828 15.9046L39.6842 15.9263L39.6192 16.0096L39.5781 15.8179L39.3852 15.8019L39.2015 15.6637L39.2437 15.4742L39.0565 15.287L38.9002 15.2311L38.4265 15.2996L38.3934 15.1044L38.2668 15.0713L38.2565 14.7459L38.4665 14.0541L38.7244 13.6774L38.7529 13.408L38.9983 13.3874L39.1067 13.1945L39.2619 13.1625L39.6603 12.884L39.7447 12.9685ZM55.6791 0.219185L55.8423 0.119867L56.0729 0.36645L56.454 0.523989L56.6697 0.546821L56.8638 0.461202L57.173 0.511432L57.3728 0.703219L57.9354 0.908705L58.045 0.868749L58.1671 1.02401L58.3246 1.08793L58.4992 1.05939L58.5837 1.15529L58.4958 1.30255L58.9158 1.73293L59.3118 1.8939L59.5594 1.90303L59.6245 2.22952L59.5047 2.42474L59.596 2.7752L59.5514 3.04119L59.6724 3.3928L59.6587 3.7387L59.7671 3.94191L59.7557 4.41453L59.9303 4.50814L60 4.96135L59.9406 5.46707L59.5823 5.77187L59.3962 5.81297L59.0596 5.57095L58.8051 5.6052L58.7423 5.74333L58.5814 5.75932L58.4752 6.05727L58.247 6.13033L58.2025 6.36093L57.9628 6.40431L57.625 6.76163L57.1422 6.81072L56.9984 6.67259L56.7941 6.76734L56.7416 6.99109L56.8672 7.22055L56.7622 7.44088L56.7976 7.68175L56.6732 7.72057L56.6287 7.82103L56.7063 8.01396L56.9414 8.24684L56.7862 8.3747L56.7941 8.51169L56.5956 8.67151L56.6481 8.7343L56.906 8.71832L56.8626 8.89298L56.6697 9.07449L56.6777 9.20463L56.8569 9.49802L56.8295 9.63159L56.9505 9.65099L57.2392 9.91584L57.1457 10.2024L56.8158 10.3919L57.1628 10.9216L56.7713 10.9969L56.5876 11.1762L56.4312 11.1214L56.4175 11.2549L56.5613 11.5038L56.4803 11.6157L56.3068 11.6282L56.1687 11.344L56.0683 11.5004L56.0432 11.7903L55.888 11.7378L55.8469 11.6773L55.7841 11.6785V11.9913L55.6061 12.0129L55.694 12.1636H55.597V12.2607L55.7134 12.2926L55.6437 12.4878L55.5604 12.4776L55.4748 12.5152L55.2021 12.7401L55.0879 12.739L54.8038 13.2687L54.7661 13.6557L54.2548 13.8555L53.8679 13.8224L53.8257 13.6934L53.8234 13.5986L53.8588 13.4434L53.8759 13.3475L53.836 13.2447L53.8223 13.1774L53.7116 12.9365L53.7663 12.8965L53.909 12.876L53.9136 12.7538L54.1384 12.6146L53.9923 12.4878V12.5723L53.6693 12.5038L53.6225 12.699L53.4845 12.7721L53.3874 12.6077L53.0325 12.36L52.9629 12.3235L52.5794 12.2641L52.1435 12.3406L51.3206 12.215L50.7351 12.2949L49.296 11.9798L49.0301 12.126L48.8943 12.0986L48.456 11.9102L48.44 11.8075L47.8899 11.5871L47.1264 11.4193L46.953 11.0871L46.8057 11.0198L46.3469 10.9535L46.024 11.1271L45.9544 11.2469L45.871 11.2321L45.8802 11.1271L45.806 11.0677L45.0322 11.0083L44.9272 10.8873L44.5746 10.8063L44.5243 10.7241L44.562 10.6213L44.6841 10.3668H44.7891L44.974 10.2206L44.8279 10.1716L44.6545 10.0608L44.4661 10.1168L44.5095 10.1807L44.1009 10.1065L43.7928 10.1853L43.8053 10.2492L43.2518 10.7332L43.1377 11.151L42.7588 11.1305L42.0147 11.4182L41.2466 12.2629L41.1679 12.2572L40.8243 12.1088L40.3313 12.1899L40.1053 12.1579L40.0506 12.1214L40.1932 12.1282L40.2297 12.0141L40.1464 12.0072L39.7789 11.9273L39.4457 12.0974L39.141 11.4901L39.0497 11.4673L39.0177 11.3771L39.093 11.2778L38.899 11.2572L38.8283 11.086L38.7986 11.0517L38.8773 10.9775L38.7895 10.8542L38.7176 10.8348L38.5943 10.8006L38.2371 10.7549L37.8513 10.8485L37.8217 10.973L37.3903 10.9638L37.2465 11.1499L37.1951 11.0734L37.0559 11.0848L36.8915 11.4102L36.7683 11.433L36.6987 11.5563L36.5309 11.5392L36.3962 11.7938L36.3061 11.7686L36.2467 11.8451L36.2513 11.9855L36.4613 12.0997L36.4031 12.2995L36.2775 12.2036L36.1702 12.2641L36.1451 12.5004L36.2273 12.5723L36.4145 12.481L36.4932 12.5495L35.8963 12.7652L34.4401 13.731L33.9185 13.9479L33.4928 13.997L33.0363 13.8463L32.1324 13.4913L31.6668 13.1728L31.6177 12.9239L31.7204 12.7984L31.8814 12.6728L32.2249 12.7013L32.3641 12.6248L32.8103 12.2881L32.9347 11.9901L33.3148 11.6533L33.6149 11.6442L33.6298 11.2823L33.7975 11.2732L33.9436 11.3794L34.0098 11.3405L33.9516 11.1088L34.1559 10.7526L34.0977 10.5015L34.1924 10.183L33.3376 9.49802L33.4186 9.17952L33.3821 9.05394L32.8343 8.69663L32.5205 9.06422L32.3812 9.10303L31.5481 8.48429L30.9341 8.26168L30.4445 7.66235L30.1592 7.6144L30.1078 7.53677L30.2025 7.31416L30.012 7.11096L29.9321 6.78218L30.1295 6.38491L30.1147 6.10408L29.9241 5.96823L29.2884 5.87119L29.2085 5.0972L29.3865 5.05381L29.4208 4.84605L29.6776 4.63942L29.883 4.71933L30.2471 4.67138L30.5506 4.74444L30.626 4.82436L30.8542 4.56407L30.9695 4.27297L31.4876 4.2273L31.5515 4.09945L31.7798 4.04237L31.9065 4.08917L32.0605 3.98186L32.129 3.6782L32.3105 3.78665L32.4383 4.09146L32.7384 4.2547L33.1938 3.854L33.2794 4.03552L33.5179 4.05607L33.7656 3.86085L33.6389 3.59486L33.6435 3.08914L33.7724 2.9864L33.8181 2.84142L34.0657 2.72726L34.221 2.86767L34.3625 2.85511L34.3921 2.94758L34.6467 2.91676L34.6706 3.02179L34.8007 3.11311L34.7847 3.18503L34.9034 3.21129L35.1705 2.72383L35.3748 2.75237L35.4866 2.5583L35.7058 2.41903L35.8336 2.49437L35.7891 2.62565L36.1132 2.89964L36.0561 3.05832L36.1349 3.26495L36.4909 3.05946L36.7683 3.18503L36.9566 2.92133L37.1689 2.87909L37.2716 3.0138L37.5204 3.02635L37.6436 3.12225L37.752 3.03777L37.7646 2.82543L37.881 2.71584L38.406 2.49095L38.4916 2.53661L38.4939 2.65419L38.5852 2.63365L38.6902 2.73182L38.6171 2.86767L38.7826 3.18846L38.7552 3.3791L38.8899 3.74441L39.1318 3.90195L39.1421 4.21475L39.3019 4.44306L39.7264 4.30037L39.8086 4.34945L39.7652 4.54581L40.0186 4.43964L40.1305 4.52298L40.4877 4.56407L40.6611 5.03098L41.2557 5.50588L41.3801 5.38944L41.4463 4.95792L41.4064 4.76842L41.9702 4.89513L42.0535 4.88258L42.179 4.69992L42.3982 4.67367L42.6709 4.96249L43.0475 5.10633L43.8202 5.25473L44.0644 5.57552L44.263 5.66799L44.4776 5.60178L44.6305 5.81525L45.0995 5.99334L45.1212 6.12919L45.5298 6.38833L45.6485 6.83926L45.976 6.87579L46.1712 7.00022L46.3298 6.85867L46.6985 6.91689L47.0329 6.6646L47.1938 6.70912L47.5156 6.58126L47.6434 6.59839L47.6845 6.46824L48.1353 6.2913L48.4138 6.3107L48.7025 6.434L48.8406 6.01732L49.0152 5.89288L49.5494 6.07211L50.0081 5.93741L50.2866 6.04471L50.5137 6.24335L50.6473 5.88718L50.9109 5.91686L51.0707 5.79471L51.2453 5.83809L51.3594 5.68169L51.6367 5.62575L51.7086 5.49104L52.0156 5.75247L52.1994 5.74448L52.1788 5.94654L52.309 6.05499L52.5338 6.02645L52.8659 5.85293L53.1923 5.88147L53.4913 5.78329L53.5837 5.54584L53.8714 5.4488L54.4043 5.50018L54.5127 5.36547L54.846 5.37688L54.9076 5.10861L55.0297 5.07094L55.1359 4.88486L55.1861 4.66225L55.129 4.48873L55.2454 4.33233L55.5616 4.29238L55.3036 3.90309L55.1313 3.82661L55.0822 3.67592L55.0891 3.58345L55.2546 3.50468L55.2728 3.32773L55.4064 3.15764L55.3242 2.68159L55.0183 2.64735L55.0788 1.9681L54.9202 1.84024L54.9088 1.5948L54.7661 1.62334L54.7193 1.72152L54.4694 1.67014L54.4317 1.47836L54.2913 1.44868L54.2126 1.34822L54.1179 0.825369L54.2126 0.535405L54.3667 0.444078L54.6406 0.492025L54.7319 0.275123L55.1849 0.0114159L55.2774 0L55.4611 0.179229L55.6791 0.219185Z" />
<path d="M27.1316 22.0656L27.2435 22.0576L27.4774 22.2437L27.7125 22.5736L27.8278 22.9526L28.2364 23.4481L29.3057 23.9881L29.9505 24.2061L30.0145 24.1661L30.156 24.2803L30.1217 24.4264L30.213 24.4732L30.2792 24.7872L30.4755 24.8682L30.8293 24.7895L30.875 25.036L30.5257 25.1456L30.229 25.0258L29.898 25.0646L29.2726 24.9767L29.1243 24.8351L28.8675 24.7837L27.9362 24.318L27.7194 24.31L27.4569 24.4493L27.0494 24.4116L26.8235 24.5178L27.0403 24.1387L27.1031 23.8762L26.9091 23.5999L26.674 23.0234L26.4126 22.8636L26.3966 22.6067L26.311 22.585L26.4971 22.2277L26.4468 22.0051L26.5416 21.5074L26.4936 21.303L26.6203 21.2939L26.7687 21.4982L26.8828 21.9081L27.1316 22.0656ZM32.5903 19.4251L32.6668 19.4639L32.6565 19.6591L32.798 19.6831L32.903 19.7939L32.6108 19.7459L32.5241 19.6226L32.4762 19.6603L32.2445 19.5199L32.5618 19.3566L32.5903 19.4251ZM28.1165 5.09475L28.5844 5.02055L28.8138 5.25686L29.1197 5.21462L29.3069 5.387L29.6241 5.40184L29.7052 6.17584L30.3409 6.27287L30.5315 6.40872L30.5463 6.68955L30.3488 7.08683L30.4299 7.41674L30.6205 7.61995L30.5257 7.84256L30.5771 7.92019L30.8624 7.96813L31.352 8.56861L31.966 8.79122L32.7992 9.40996L32.9384 9.37115L33.2522 9.00355L33.8 9.36087L33.8366 9.48645L33.7567 9.80495L34.6115 10.4899L34.5168 10.8084L34.575 11.0596L34.3707 11.4169L34.4289 11.6486L34.3627 11.6874L34.2166 11.5813L34.0488 11.5904L34.034 11.9523L33.735 11.9614L33.355 12.2982L33.2306 12.5973L32.7843 12.934L32.6451 13.0105L32.3016 12.982L32.1406 13.1076L32.0379 13.2331L32.087 13.482L31.7275 13.4181L31.2208 13.6064L30.9959 13.7891L30.7437 13.8176L30.3888 14.425L30.3009 14.9341L30.7802 15.1464L31.1945 15.6955L31.2333 16.0015L31.3612 15.9946L31.4194 16.1556L31.594 16.1625L31.7241 16.4638L31.9466 16.4319L32.216 16.5289L32.2582 16.4467L32.3792 16.5198L32.3563 16.6351L32.6154 16.7846L32.5321 16.9159L32.3712 16.9741L31.7355 16.9935L31.6316 17.1648L31.5963 17.4296L31.699 17.8771L31.7891 18.0404L31.8587 18.029L32.0425 18.3817L32.3153 18.6409L32.7238 18.8201L33.0377 18.8052L33.1575 18.8794L33.5319 18.7402L33.6289 19.3874L33.5067 19.7334L33.2465 19.5964L33.0685 19.3007L32.822 19.1466L32.4613 19.0313L32.2993 19.1055L31.9295 18.9673L31.465 19.1705L31.2128 19.4114L30.7346 19.1957L30.633 19.4754L30.4459 19.4639L30.3169 19.8509L30.31 20.1032L30.4538 20.4651L30.6113 20.5507L30.754 20.8533L30.7905 20.7334L30.8647 20.7562L30.9925 20.8487L30.9629 21.0622L31.1329 21.3613L31.2984 21.4172L31.4776 21.3282L31.6522 21.5154L32.5618 21.8122L32.7661 22.0725L33.1883 22.2403L33.234 22.3636L33.3995 22.4812L33.2363 22.5691L33.2203 22.7848L33.4657 23.044L33.5239 23.2026L33.3401 23.2437L33.2831 23.3373L33.3287 23.4424L33.6323 23.4253L33.6677 23.818L33.5478 23.9481L33.3995 23.9629L33.4485 24.044L33.3504 24.0394L33.3127 24.1102L33.4588 24.3066L33.097 24.3933L33.2157 24.4835L33.3846 24.4915L33.3447 24.6034L33.0343 24.6114L32.8905 24.7461L32.7158 24.7586L32.7558 24.6285L32.6177 24.6171L32.5835 24.4755L32.6805 24.4572L32.6622 24.3773L32.5846 24.3066L32.6097 24.4162L32.4305 24.4413L32.3963 24.31L32.4556 24.157L32.3016 23.9778L32.1372 23.9801L32.0836 23.8271L31.7686 23.6079L31.6636 23.6136L31.6887 23.8145L31.6225 23.8454L31.5746 23.7723L31.6271 23.6661L31.473 23.4332L31.5118 23.3522L31.2972 23.1787L31.2505 23.0497L31.3052 22.7529L31.1215 22.6558L31.1101 22.3704L30.9891 22.2026L30.7095 22.0359L30.5235 21.5736L30.3591 21.3818L30.2427 21.3864L30.1571 21.3042L30.1229 21.1455L29.8969 20.9434L29.51 20.8818L29.1848 20.9206L28.8698 20.779L28.7374 20.803L28.29 20.4822L27.3028 20.2094L26.8029 20.6946L26.6226 21.0233L26.6215 21.2871L26.5028 21.2893L26.4092 20.9594L26.206 20.7768L26.0303 20.7711L25.9538 20.6832L25.4357 20.5051L25.2131 20.4959L24.9997 20.3156L24.6665 20.2676L24.2625 19.9423L23.4099 19.5998L23.3506 19.3224L23.0333 19.021L22.7914 18.9833L22.6966 18.8646L22.5426 18.8395L22.0724 18.9457L22.2184 18.618L22.0119 18.2561L21.8281 18.1465L21.8304 17.9639L21.7094 17.6933L21.318 17.5541L21.3385 17.2367L21.5188 17.1556L22.045 17.2321L22.4729 17.118L22.9123 16.8177L23.0116 16.5917L22.5437 16.1864L22.6886 15.9604L22.6658 15.5414L22.3166 15.3816L22.3006 15.3542L22.1032 15.3154L21.7905 15.5677L21.6467 15.5129L21.5063 15.6624L21.7471 15.7264V15.9695L21.4926 16.2298L21.0304 16.4285L20.8797 16.3223L20.7656 16.3645L20.5807 16.4536L20.5864 16.7116L20.5807 16.7972L20.5385 16.8486L20.5876 16.9159L20.6184 16.9913L20.5647 17.0814L20.5111 17.1454L20.3981 17.2276L20.2988 17.215L20.1858 16.9878L20.0386 16.9901L20.1242 16.8577L19.9473 16.8486L19.5912 17.0244L19.6517 17.0769L19.7373 17.3383L19.8982 17.4536L19.694 17.449L19.6323 17.5335L19.5433 17.4707V17.6089L19.4258 17.6305L19.3322 17.5392L19.3972 17.5084L19.3105 17.4936L19.2591 17.6305L19.1347 17.5769L18.9715 17.7219L19.1827 18.0118L19.2374 18.4867L19.4098 18.8657L19.7202 19.0233L19.7579 19.1135L19.1633 20.1877L18.9784 20.8761L19.0229 21.1364L18.66 21.6661L18.5903 22.012L18.7981 22.6341L18.8312 23.1947L18.9578 23.3568L19.072 23.7712L19.5091 24.1513L19.8629 24.3088L20.0363 24.4538L19.8012 24.6639L19.6551 24.4116L19.3493 24.3248L19.1267 24.5075L18.3667 24.6353L18.24 24.4961L18.1395 24.4881L18.0733 24.3545L17.9558 23.7985L17.5301 23.5725L17.3829 23.3887L17.1729 23.4743L17.0485 23.2814L16.8453 23.4104L16.8145 23.2837L16.6924 23.222L16.6605 23.0542L16.5167 23.0188L16.7072 22.633L16.778 22.0793L16.6194 22.069L16.5235 22.2095L16.4995 22.0462L16.5874 21.8236L16.2758 21.5142L15.9106 21.6181L15.7166 21.8168L15.671 22.0668L15.4324 22.4218L15.1882 22.5257L15.0627 22.2038L15.0935 21.9252L14.9018 21.9458L14.9428 21.746L15.1654 21.5439L15.0981 21.4012L14.9828 21.3213L14.1725 21.3852L14.0994 21.3875L14.0013 21.2482L14.0972 21.117L14.6883 20.8007L14.8082 20.271L14.968 20.1135L14.9463 19.9297L14.589 19.8875L14.5114 19.7185L14.2695 19.6101L14.2763 19.3852L14.5092 19.2128L14.5183 19.1317L14.2307 19.1568L14.0892 18.9377L13.8963 18.8167L14.0264 18.1602L13.6578 18.029L13.2093 18.0883L13.1568 18.013L13.2321 17.9342L12.7915 17.513L12.2403 17.3965L12.1912 17.0187L11.8899 16.5917V16.4547L12.0885 16.2595L11.7872 15.9798L11.8226 15.7492L11.7404 15.5723L11.8043 15.4581L11.7587 15.32L11.9938 15.1738L11.9904 14.8017L11.5339 14.6476L11.3912 14.4581L11.2839 14.5848L11.1219 14.6042L11.0363 14.2046L10.7076 13.9717L10.8982 13.5459L10.6836 13.4774L10.3949 13.5505L10.2454 13.4443L10.323 13.264L10.2328 13.1007L10.3241 12.9911L10 12.4911L10.1837 12.4101L10.2283 12.4888L10.3515 12.3541L10.6619 12.2822L10.9507 12.1247L10.9952 12.0185L11.22 11.8678L11.1881 11.773L10.9804 11.7582L10.7955 11.4386L10.9552 11.2662L10.9324 10.8381L11.4026 10.5573L11.4232 10.3883L11.7655 10.1292L11.761 9.9682L11.9173 9.98989L12.0874 9.84605L11.9847 9.5812L12.0463 9.25585L12.4754 9.02182L12.7151 8.76725L12.8771 8.81177L13.2606 8.70217L13.5779 8.4613L13.5996 8.32887L13.7445 8.41335L13.8404 8.62911L14.1029 8.7056L14.2741 8.84373L14.4806 8.77866L14.7317 8.38481L15.0627 8.32887L15.1848 8.21243L15.4005 8.30833L15.7006 8.29577L15.7851 8.42363L16.0967 8.54007L16.269 8.46929L16.3318 8.87798L16.3774 8.78209L16.5726 8.68848L16.6741 8.72386L16.7552 8.64852L16.9104 8.72729L17.0508 8.64738L17.0873 8.77752L17.2619 8.90994L17.5917 8.86885L17.7355 8.93278L18.2126 8.7935L18.7056 8.74784L18.8642 8.91451L19.008 8.92022L19.2831 8.70446L19.4874 8.42819L19.5832 8.09485L19.767 7.99896L20.2475 8.62112L20.4894 8.49212L20.6138 8.29577L20.7108 6.77974L20.7907 6.57197L20.7268 6.31854L20.8044 6.12789L21.0521 6.06624L21.1456 5.88816L21.2449 5.9361L21.2826 5.85848L21.4447 5.98177L21.8133 5.90186H22.5448L23.2707 6.06624L23.4864 5.99547L24.0662 6.27173L24.6197 6.28543L25.3136 6.13017L25.5612 5.80025L25.5167 5.54568L25.5806 5.43038L25.8351 5.33791L26.0965 5.09361L26.4936 5.10046L26.6956 5.56052L27.3427 5.05365L27.4934 5.09475L27.6851 5L28.1165 5.09475Z" />
<path d="M9.57183 10.9968L10.0443 11.2079L10.3696 11.1132L10.5545 11.4328L10.7622 11.4477L10.7941 11.5424L10.5704 11.6931L10.5259 11.8004L10.2372 11.958L9.92677 12.0299L9.80465 12.1646L9.76014 12.0858L9.5764 12.1669L9.90166 12.6669L9.81036 12.7765L9.90052 12.9397L9.82291 13.1201L9.97242 13.2263L10.2612 13.1544L10.4757 13.2229L10.2851 13.6487L10.6138 13.8815L10.7005 14.2811L10.8615 14.2617L10.9699 14.1361L11.1114 14.3256L11.5679 14.4797L11.5713 14.853L11.3362 14.9992L11.3819 15.1373L11.3191 15.2515L11.4001 15.4295L11.3648 15.6601L11.6661 15.9398L11.4675 16.135V16.272L11.7676 16.699L11.8167 17.0769L12.3679 17.1933L12.8085 17.6145L12.7332 17.6933L12.7856 17.7687L13.2342 17.7104L13.6028 17.8417L13.4727 18.4981L13.6656 18.618L13.8071 18.8383L14.0947 18.8121L14.0856 18.8943L13.8527 19.0666L13.8459 19.2915L14.0878 19.4L14.1654 19.5701L14.5238 19.6123L14.5455 19.7961L14.3857 19.9537L14.2659 20.4834L13.6747 20.7996L13.5788 20.9309L13.677 21.0701L13.6952 21.069L13.7614 21.1946L13.7318 21.3772L13.5446 21.2551L13.4681 21.3521L13.6165 21.5998L13.548 21.7117L13.3666 21.8841L13.2627 22.1318L12.7788 22.5873L12.7137 22.7928L12.457 22.8168L12.4923 23.0417L12.2629 23.2163L11.9868 23.73L11.8236 23.8476L11.617 23.8271L11.5337 24.0816L11.3442 24.2072L11.1799 24.1924L11.609 24.6981L11.5497 24.9196L11.7163 25.4881L11.6261 25.6707L11.5645 25.5748L11.3602 25.5874L11.2427 25.4961L10.8067 25.4356L10.3582 25.6525L10.1356 25.5132L9.92791 25.5178L9.9222 25.4321L9.78867 25.342L9.63803 25.3351L9.33102 25.5166L9.04799 25.3077L8.65425 25.5589L8.52415 25.4573L8.4785 25.2404L8.26964 25.0075L8.0722 25.0999L7.7846 24.9892L7.55293 25.0634L7.36804 24.9835L7.24136 25.084L7.15462 24.939L7.0074 24.9298L6.81566 25.0463L6.66844 24.9995L6.48355 25.2643L6.66159 25.2917L6.60681 25.5748L6.40595 25.7233L6.27698 25.6913L6.21307 25.8386L6.12063 25.8454L6.06357 25.7564L5.86727 25.7769L5.81591 25.6605L5.58081 25.5383L5.53402 25.3522L5.32403 25.5018L5.10947 25.2312L4.928 25.2495L4.66437 25.0737L4.36079 25.2232L4.1508 25.2073L3.98646 25.4858L3.27887 25.2335L3.2743 25.0075L3.14648 24.9435L3.22979 24.7951L3.10882 24.6056L3.15789 24.4595L3.08828 24.2906L2.82807 24.0737L2.569 23.6855L2.65231 23.5919L2.8623 23.7061L3.01409 23.6102L3.12822 23.3773L3.16817 22.859L2.84062 22.714L2.63519 22.8385L2.40123 22.8693L2.17983 22.4937L2.17869 22.2505L1.85228 21.8419L2.33504 21.5633L2.26428 21.2973L2.29281 21.0621L2.08282 21.0336L2.21406 20.8578L1.97896 20.6409L1.85571 20.2539L1.67881 20.1386L1.65028 19.9217L1.46425 19.6272L1.00203 19.1488L0.845681 19.1899L0.689327 19.0324L0.397162 19.1089L0.0273902 18.9559L0 18.8577L0.143799 18.7687L0.170049 18.4936L0.0981493 17.9114L0.362924 17.7207L0.467921 17.7333L0.681338 17.199L0.988339 17.3154L1.34213 17.2504L1.55441 17.4296L1.83973 17.3383L1.81462 17.2652L1.9744 17.0552L1.98353 16.6556L2.28026 16.4661L2.36699 16.2024L2.7322 16.1396L2.71736 15.6875L2.76758 15.3987L2.87144 15.28L2.876 14.6898L2.53248 14.103L2.12733 13.7274L2.1182 13.3941L1.85 13.2834L2.13418 12.9923L2.12048 12.1372L3.88716 12.1246L4.12912 11.8689L4.44525 11.7491L4.78192 11.8906L4.95654 12.0893L5.97911 11.8335L6.56573 11.3175L6.81566 11.3221L7.04962 11.4477L7.31896 11.3666L7.68417 11.3963L7.94324 11.7822L8.0665 11.8461L8.11443 11.9979L8.37692 11.9945L8.63827 11.7011L8.75126 11.7045L8.82202 11.571L9.16668 11.5596L9.12331 11.3347L9.18722 11.1737L9.32189 10.9922L9.57183 10.9968Z" />
</svg>
