<svg width="60" height="40" viewBox="0 0 60 40" fill="current" xmlns="http://www.w3.org/2000/svg">
<path d="M9.83951 0L10.3031 0.191689L10.6694 0.0958447L10.8654 0.293255L11.0614 0.241756L11.6409 0.842577L11.8741 1.21165L11.9099 1.48345L12.1316 1.62793L12.2861 2.11431L12.5809 2.38611L12.4163 2.60641L12.681 2.64217L12.6438 2.93686L12.734 3.2716L12.1273 3.61922L12.5365 4.13278L12.538 4.43748L12.8155 4.90812L13.1103 4.86949L13.3664 4.71214L13.777 4.89381L13.7269 5.54327L13.5839 5.8351L13.3936 5.95526L13.1303 5.81221L13.0244 5.92951L13.3492 6.41732L13.6754 6.68912L13.7627 6.90083L13.7012 7.08394L13.8543 7.32141L13.7498 7.5088L13.9101 7.58891L13.9158 7.87216L14.8043 8.1883L15.0104 7.83925L15.2736 7.85928L15.6556 7.67332L15.9862 7.89362L16.2137 7.87073L16.4826 8.21119L16.4039 8.30132L16.2151 8.23265L16.0462 8.28701L16.0749 8.53878L16.0319 8.76051L15.8617 8.96364L15.916 9.06235L15.6328 9.02087L15.5927 9.09096L15.6242 9.37564L15.5526 9.43286L15.7 9.9364L15.5913 10.1782L15.793 10.3312L15.9704 10.7132L15.8917 10.8863L15.7029 10.9649L15.2579 10.5415L15.0404 10.6445L14.8186 10.5544L14.7357 10.8248L14.5554 10.8662L14.5325 11.0279L14.2492 11.1953L14.3222 11.4084L14.6784 11.6831L14.657 12.1923L14.9989 12.2138L15.0561 12.3254L15.2822 13.6615L14.9889 14.1321L15.0361 14.2051L15.4453 14.1636L15.4568 14.4797L15.1806 14.577L15.2379 14.7344L15.6285 15.2393L16.1106 15.5498L16.2609 15.8917L16.1779 16.1835L16.4655 16.2765L16.5098 16.4138L16.7044 16.5211L17.5615 16.491L17.7918 16.7214L17.849 16.9717L17.9592 16.996L17.9492 17.4094L18.211 17.5368L18.0379 18.0575L17.8576 18.1319L17.7389 18.3879L17.6187 18.3522L17.4012 18.5539L17.3697 18.7498L17.1766 18.9673L17.2066 19.2691L17.447 19.4737L16.8418 19.7884L16.8475 20.0087L16.1278 20.465L15.6356 20.2333L15.3652 20.4035L15.1477 20.1432L14.9345 20.342L14.7414 20.2962L14.5439 20.4121L14.1962 20.4421L13.9344 20.764L14.0904 20.9986L13.7684 21.1202L13.963 21.3563L14.0389 21.6323L13.7141 21.6853L13.5166 21.711L13.4308 21.8054L13.4694 21.9013L13.2777 21.9857L13.1332 22.0758L13.146 22.2475L13.2906 22.3834L12.734 22.1931L12.5237 22.3233L12.4135 22.0372L12.3248 22.0472L12.2547 21.824L12.1102 21.8183L12.01 21.8541L11.8297 21.6009L11.8755 21.5165L11.741 21.3977L11.6666 21.4306L11.6866 21.0673L11.5135 21.0186L11.2746 21.1846L11.3204 21.4778L11.1143 21.3977L10.9941 21.4964L10.9341 21.7167L11.1129 21.8054L11.0528 21.8999L10.9054 21.8669L10.8997 21.6595L10.9298 21.3892L10.7509 21.4078L10.6951 21.4635L10.5821 21.2876L10.6279 21.1646L10.4347 21.2075L10.429 21.3133L10.2859 21.1617L10.5048 21.1374L10.6551 20.8885L10.2587 20.4894L10.2573 20.3763L10.0098 20.4722L10.0784 20.5223L10.0212 20.5952L10.2931 20.6839L10.1471 20.7411L10.0899 20.827L9.87098 20.6896L9.7694 20.7426L9.99689 20.9085L9.77512 21.0501L10.0112 21.0444L9.974 21.1088L9.98688 21.186L9.99546 21.3677L9.88815 21.4693L9.94681 21.5379L9.6721 21.7983L9.54333 22.1616L9.47752 22.0973L9.34445 22.1616L9.66638 22.4949L9.83378 22.505L10.253 22.8655L10.4791 22.9198L10.5206 23.0843L10.3746 23.1687L10.3489 22.957L10.1872 23.0929L9.98831 22.8969L9.58053 22.8841L9.59341 23.2259L9.35018 23.3161L9.19851 23.2302L8.84368 22.4706L8.85942 22.3834L8.9796 22.3877L9.04113 22.1745L8.93096 21.661L8.39441 21.0043L8.18552 20.8527L8.04244 20.8756L7.28555 20.1518L6.73041 19.3278L5.96351 18.8185L5.94634 18.541L5.91629 18.4108L5.98354 18.3007L5.90342 18.0746L5.97639 17.85L5.84619 17.8071L5.78466 17.9588L5.51854 17.7585L5.4098 17.8972L4.9219 17.7041L4.81745 17.83L4.22224 17.7313L4.14784 17.5611L3.54262 17.0304L3.52831 16.6441L3.39525 16.3866L3.4625 16.1635L3.23357 15.8731L3.07046 15.8073L3.02611 15.8988L2.82866 15.7958L2.92882 15.6757L2.59687 15.0677L3.37379 15.0419L3.36807 14.9075L2.97317 14.6071L2.89162 14.6471L2.59687 14.3081L2.77429 14.2137L3.13914 14.4025L3.22356 14.0306L2.85012 13.8274L2.55538 13.8775L2.46667 13.8703L2.08322 13.929L1.86574 13.7516L2.10612 13.846L2.20198 13.8203L2.42375 13.8131L1.99881 13.5485L1.96733 13.6114L1.88434 13.693L1.60534 13.6658L1.7985 13.3582L1.93585 13.291L1.98307 13.2681L2.08036 12.8132L2.00596 12.5914L2.26064 12.3669L2.25062 12.0779L1.94444 11.8519L1.67259 11.8662L1.32348 11.5014L1.22189 11.4928L1.16323 11.6502L0.958625 11.4442L0.728269 11.3226L0.640991 11.1352L0.460712 11.0994L0.194586 11.221L0.0171693 11.0379L0 10.9878L0.267557 10.8362L0.350542 10.9835L0.706807 11.0222L0.851316 11.1624L1.03589 11.1452L1.51949 11.5887L2.30499 11.7546L2.77429 11.7045L2.67127 11.417L2.84011 11.0994L3.01752 11.1295L3.26219 11.3312L3.28222 10.9292L3.49254 10.6688L3.69715 10.6045L3.99475 10.3298L3.60987 9.78619L3.79873 9.48292L3.57553 9.09811L3.76439 8.91072L4.36819 9.13674L4.75736 9.43143L5.17372 8.91072L5.19947 8.50302L4.85465 8.05527L4.76165 7.70908L4.63574 7.63469L4.52271 7.35717L4.20794 7.12399L4.29951 6.74348L3.87743 6.00962L4.63717 6.03966L4.91904 5.92951L4.9777 5.5776L5.19232 5.20853L5.15225 4.99252L5.27101 4.82372L5.6702 4.61057L5.81471 4.59626L6.14951 4.77794L6.44139 4.45321L6.91498 4.76077L7.21688 4.75076L7.58316 4.67351L7.90938 4.3216L8.57469 4.24436L8.55323 3.72079L8.78216 3.31595L8.54321 3.08563L8.58185 2.68223L8.9424 2.51342L9.17562 2.08713L9.14128 1.61363L8.9982 1.49489L8.98962 1.23168L9.33587 0.643735L9.55621 0.607972L9.68641 0.477794L9.61773 0.233173L9.83951 0Z"/>
<path d="M52.7175 20.7669L52.6603 21.1646L52.8091 21.219L52.7376 21.2805L52.8148 21.3277L52.759 21.4221L52.6403 21.4521L52.6303 21.3863L52.5158 21.1718L52.5473 20.9901L52.4729 20.8842L52.6231 20.714L52.7175 20.7669ZM39.3154 19.7012L39.5701 19.6454L39.5143 19.8056L39.2052 19.9158L39.3154 19.7012ZM44.2974 18.9773L44.542 19.0117L44.9341 19.3207L44.9627 19.6154L44.8754 19.797L44.7753 19.7942L44.7982 19.6197L44.6279 19.7913L44.4905 19.7513L44.2459 20.086L44.3231 20.1632L44.2731 20.2977L44.12 20.262L44.0642 20.066L43.8367 20.1532L43.5548 19.9587L43.3788 20.0803L43.3359 19.7827L43.4847 19.6125L43.6178 19.6454L44.0413 19.4365L44.037 19.149L44.2974 18.9773ZM46.1216 18.9273L46.2347 18.9845L46.2676 19.1705L46.5022 19.2391L46.5223 19.3893L46.7054 19.5839L47.6526 20.0159L47.7112 20.1675L47.6383 20.2691L47.7527 20.4465L47.8629 20.4236L47.913 20.2705L48.4052 20.282L48.5397 20.3993L48.2063 20.9572L48.0317 21.0559L47.9416 20.9887L47.6182 21.2748L47.438 21.1918L47.4866 21.0301L47.3264 20.9314L46.8227 20.9329L46.7784 20.6325L46.7269 20.5566L46.7626 20.3907L46.6195 20.1318L46.4049 20.0102L46.3119 19.7155L45.9428 19.1705L45.9199 19.0446L46.1216 18.9273ZM50.8919 18.624L50.9605 18.6026L50.9477 18.9573L51.095 18.9001L51.0292 19.1991L51.0264 19.3636L50.9949 19.6883L50.7903 19.7055L50.7974 19.5839L50.6172 19.7069L50.5356 19.644L50.4669 19.5696L50.4111 19.4194L50.9176 19.212L50.7145 18.7928L50.796 18.7427L50.8303 18.4509L50.8919 18.624ZM50.5971 17.657L50.6515 17.7728L50.6529 17.8716L50.9849 18.0146L50.3153 19.0102L50.2494 19.3722L50.1364 19.5438L49.9089 19.6096L50.0019 19.7355L49.8073 19.8113L49.7229 19.7498L49.6428 19.8614L49.6929 19.9344L49.4668 20.0445L49.4496 20.1733L49.2937 20.2534L49.1964 20.0932L49.0118 20.1218L49.0261 19.8829L49.1721 19.7942L49.2779 19.8328L49.3853 19.6011L49.504 19.6411L49.6614 19.5038L49.5498 19.3722L49.6027 19.159L49.5011 19.0732L49.6743 18.963L49.7201 18.7685L49.8317 18.7885L50.0592 18.6083L50.1693 18.1863L50.2952 18.1133L50.394 17.8229L50.6057 17.5783L50.5971 17.657ZM52.1438 16.3266L52.1796 16.524L52.274 16.6156L52.3727 16.5397L52.47 16.6542L52.3942 17.3265L52.0723 17.5583L51.8176 17.3909L52.0408 17.1949L51.9149 17.0647L51.7446 17.1577L51.716 17.0819L51.7732 16.9331L51.7532 16.8502L51.8605 16.5769L52.1438 16.3266ZM55.4604 16.3223L55.3946 16.8773L55.2601 16.8859L55.2872 16.4596L55.3573 16.318L55.4604 16.3223ZM53.4859 15.6914L53.6018 15.7587L53.5903 15.8745L53.1883 16.4353L53.194 16.2894L52.9179 16.2722L53.2012 16.082L53.2598 15.8602L53.184 15.7973L53.3543 15.6485L53.4859 15.6914ZM27.0435 2.64652L28.0594 2.56641L28.2039 2.66654L28.2883 2.84536L28.0093 3.09856L27.9578 3.3489L28.1982 3.32458L28.1596 3.67506L28.2926 4.0613L28.5988 3.93112L28.8978 3.48623L28.9551 3.17295L29.1997 2.92404L29.6576 2.79386L30.0482 3.18153L29.938 3.46048L29.9681 3.66505L30.0883 3.48909L30.2871 3.50197L30.1984 4.19577L29.9595 4.67929L30.1398 4.72506L30.1798 4.93535L30.3329 5.0126L30.3716 5.17139L30.6262 5.00974L30.7836 5.2515L31.0469 5.14421L31.2315 5.37452L31.7651 5.65776L31.9125 6.35586L31.9955 6.52323L32.1214 6.53324L32.2802 6.70777L33.2331 6.54755L33.5121 6.31867L33.8956 6.42738L34.0787 6.74496L34.3735 6.48174L34.156 6.30007L34.6353 6.64482L34.7297 6.87657L34.6496 7.28856L34.9758 8.02957L35.3807 8.23556L35.9516 8.88645L36.4581 9.14967L36.6541 10.4014L36.9403 11.1696L37.0233 11.7761L37.5169 12.9305L38.0277 13.1508L38.1421 13.3296L38.3954 13.2853L38.6029 13.6572L38.9706 13.6673L39.5615 14.1236L39.8305 14.7759L40.5344 15.6643L40.6646 15.6757L40.7719 15.8116L41.0094 16.3795L41.3428 16.76L41.6519 16.8916L41.8493 17.1634L41.9037 17.5397L42.0196 17.6484L42.0224 17.9374L42.4231 18.3536L42.4145 18.4996L42.6234 18.6927L42.6277 18.9101L42.858 19.2964L42.6677 19.7498L42.2843 20.0746L41.8579 20.0874L41.5431 20.3321L41.2884 20.3292L41.2269 20.2305L41.0667 20.3249L41.0137 20.4737L41.2627 20.5795L40.9651 20.7183L40.9794 20.837L40.7791 20.6954L40.5015 20.7555L40.4557 20.8957L40.0465 20.8613L39.9292 21.0244L39.4971 20.9472L39.3025 21.0101L39.2696 20.8871L39.0178 20.8199L39.2267 20.4751L39.2582 20.1075L39.4027 19.9902L39.5729 20.0617L39.7575 19.7756L39.7804 20.1504L39.9321 20.179L39.6373 20.5395L39.5615 20.8098L39.7546 20.7612L40.1796 20.4222L40.3699 20.4479L40.4228 20.3421L40.6374 20.3192L40.6017 19.9701L40.7047 19.7885L40.7848 19.8729L40.9465 20.0459L41.0924 20.0002L41.1725 19.3235L40.802 18.9859L40.7562 18.7456L40.6374 18.6569L40.6947 18.2936L40.5015 18.0976L40.4686 17.9345L39.9635 17.5211L39.9263 17.4009L39.3154 17.2278L39.0807 17.2893L38.6343 17.2221L38.507 16.8316L38.3596 16.7915L38.2666 16.6327L37.9633 16.6671L37.6056 16.4582L37.5741 16.5426L37.4668 16.4782L37.401 16.6556L37.5584 16.6642L37.6056 16.7557L37.4139 17.162L37.5498 17.2264L37.68 17.4667L37.5627 17.5497L37.1549 17.5511L37.0261 17.6756L36.7929 17.5812L36.6498 17.6956L36.5611 17.657L36.0718 17.8444L35.9845 18.4152L36.0532 18.8615L36.5082 19.9415L36.584 19.9744L36.7114 19.6354L36.8258 19.6168L36.7071 19.3507L36.9746 19.3049L36.9317 19.6368L37.1063 19.6011L37.2493 19.8371L37.2479 20.2348L37.3795 20.5566L37.4797 20.6167L37.6228 20.5538L37.484 20.3549L37.5312 20.2448L37.6643 20.4494L37.9032 20.4479L37.949 20.6325L38.145 20.7884L38.0649 20.9515L38.145 21.166L38.3725 21.312L38.218 21.5337L38.3196 21.6124L38.2309 21.7139L38.3196 21.8255L38.0992 21.8112L38.0391 21.9357L37.8789 21.8913L37.8631 22.3248L38.3654 22.1316L38.4798 21.9743L38.5871 22.0201L38.806 21.8055L39.2267 21.7797L39.095 22.166L38.7645 22.1417L38.6386 22.3248L38.3439 22.372L38.3138 22.5351L37.9705 22.7954L37.5312 22.9056L36.9346 22.7883L36.6427 22.319L36.5168 22.4278L35.2377 22.4263L35.1146 22.1259L34.93 22.2046L34.6339 22.1316L34.3134 21.8527L34.3391 21.6267L34.0916 21.5265L33.598 21.5723L33.2546 21.7826L33.08 21.6496L32.9012 21.7111L32.4948 21.6109L31.8667 21.6567L31.9912 21.3492L31.9726 20.9128L31.8567 20.8456L31.9139 20.6468L31.8338 20.5252L31.9869 20.2605L31.6521 20.0674L31.4418 20.1818L31.2486 20.0917L31.3216 19.6797L31.1714 19.325L30.7779 19.1562L30.7436 18.8543L30.5576 18.6598L29.2198 18.5067L28.9322 17.9059L28.729 17.9116L28.6861 18.3579L28.4243 18.5296L28.2311 19.016L27.9221 19.2892L27.8691 19.551L27.4513 19.7956L27.5515 20.2019L27.5086 20.4279L26.9176 20.8284L26.4097 20.7755L26.2995 20.9872L26.0391 21.1403L26.0663 21.4336L26.1879 21.5737L26.0778 21.6581L25.9204 21.7397L25.8002 21.6782L25.6442 21.8641L25.4196 21.7883L24.9102 22.0244L24.8244 21.9442L24.7457 21.0301L24.6227 20.7355L24.2406 20.6596L24.1147 20.415L23.8787 20.3464L23.6683 19.8957L23.3979 19.8571L23.0273 20.4265L22.6339 20.6425L22.0229 20.4808L21.9657 20.0202L22.1803 19.4566L21.6309 19.315L21.4821 18.8786L21.6853 18.6383L21.4034 18.2621L21.0557 18.3007L20.7538 18.2149L20.5206 18.4366L20.14 18.4495L19.9712 18.5797L19.8696 18.8186L19.7437 18.8586L19.3488 18.7055L19.1928 18.5196L19.1213 18.6984L18.7235 18.9001L18.6048 19.0689L18.3973 19.0403L18.4045 19.3021L17.7907 19.7055L17.7749 19.6926L17.453 19.4866L17.2126 19.2821L17.1826 18.9802L17.3772 18.7628L17.4086 18.5668L17.6261 18.3651L17.7463 18.4008L17.8651 18.1448L18.0453 18.0704L18.2185 17.5497L17.9566 17.4224L17.9667 17.009L17.8565 16.9846L17.7992 16.7357L17.5689 16.5054L16.7119 16.5354L16.5173 16.4282L16.4729 16.2908L16.1853 16.1978L16.2683 15.9074L16.1181 15.5656L15.6359 15.2551L15.2453 14.7502L15.1895 14.5928L15.4656 14.4955L15.4542 14.1794L15.045 14.2209L14.9978 14.1479L15.2911 13.6773L15.065 12.3412L15.0078 12.2296L14.6658 12.2081L14.6873 11.6989L14.331 11.4242L14.2581 11.211L14.5414 11.0437L14.5642 10.882L14.7445 10.8405L14.8275 10.5702L15.0493 10.6603L15.2668 10.5573L15.7117 10.9807L15.9006 10.9021L15.9793 10.729L15.8019 10.347L15.6001 10.1939L15.7089 9.95219L15.5615 9.44864L15.633 9.39142L15.603 9.10675L15.6431 9.03666L15.9263 9.07814L15.872 8.97943L16.0422 8.7763L16.0852 8.55457L16.0566 8.3028L16.2254 8.24844L16.4142 8.3171L16.4929 8.22698L16.7562 8.03815L16.8134 8.27133L17.1082 8.42439L17.1726 8.5703L17.4187 8.54313L17.4902 8.65471L17.6061 8.64612L17.6862 8.46159L17.8479 8.50164L18.1011 8.3171L18.1698 7.96233L17.9466 7.928L18.1784 7.59612L18.363 7.65477L18.6033 7.50886L18.7879 7.5203L18.8952 7.70198L19.054 7.57752L19.2858 7.67766L19.5763 7.58468L19.9368 7.72344L20.1829 7.60899L20.4448 7.90082L20.502 8.17262L20.6651 8.30137L21.1587 7.98665L21.515 8.24844L21.8999 8.02098L22.0887 8.02957L22.2561 8.14258L22.2633 8.2513L22.5237 8.24415L22.8027 8.41867L23.365 8.14687L23.9116 8.22126L24.0589 8.3357L24.315 8.32139L24.3923 8.44156L24.5053 8.21124L24.2979 7.50028L24.3723 7.22275L23.8343 6.58903L24.0403 6.60763L24.2778 6.45027L24.3823 6.13127L24.6413 6.15702L24.8459 6.00967L25.1921 5.36594L25.4797 5.14707L25.4368 4.86526L25.7587 4.83521L25.8388 4.57772L26.4455 4.00837L26.5757 3.69795L26.8032 3.48194L26.889 3.34175L26.703 3.03133L26.7989 2.91116L27.0335 3.06423L27.0722 2.83534L26.9892 2.67799L27.0435 2.64652Z" />
<path d="M14.1932 33.6226V33.8086L13.9972 33.9231L14.0287 34.1348L13.9271 34.1577L13.8656 33.8816L14.0344 33.8358L13.97 33.7314L14.0215 33.5897L14.1932 33.6226ZM13.8656 31.8531L14.0544 31.9547L13.9686 32.3409L13.7526 32.0376L13.7268 31.6528L13.8656 31.8531ZM12.9842 30.8417L13.0386 31.0577L12.8583 31.0191L12.7596 30.8603L12.8669 30.8517L12.8984 30.7487L12.9842 30.8417ZM11.9126 28.9963L11.8067 29.0435L11.4776 29.6859L11.3975 29.6873L11.4948 29.9205L11.3903 29.8504L11.3445 29.9147L11.3646 29.5042L11.4433 29.5514L11.8081 28.9091L11.9011 28.8905L11.9126 28.9963ZM12.1815 28.1852L12.1 28.3884L11.8568 28.5257L11.758 28.7074L11.4118 28.7818L11.2186 28.9334L11.2988 29.0049L11.2673 29.1079L11.0298 29.3225L11.0026 28.9549L11.1485 28.8433L11.0984 28.7517L11.4304 28.2067L11.8568 28.1838L12.0599 28.0794L12.1815 28.1852ZM17.4383 19.4619L17.7602 19.6679L17.7688 19.6751L17.7731 20.1772L18.2066 20.7022L17.919 21.4618L17.7602 21.4933L17.4855 21.9324L17.5341 22.1756L18.0835 22.5361L18.9019 22.8408L19.0364 23.506L19.3727 24.061L20.5459 24.4201L20.6675 24.649L20.6733 24.8521L20.5688 24.9151L20.0308 24.9694L19.9335 25.4529L19.7132 25.7333L19.8348 25.8978L20.0423 26.7633L20.3113 26.9421L20.9093 27.1138L21.2999 27.1066L21.5875 27.3098L22.0697 27.294L22.3444 27.1066L22.4303 27.1381L22.5032 27.2397L22.5161 27.7461L22.5834 27.7618L23.0412 27.6145L23.3102 26.7962H23.8839L24.1157 26.945L24.6723 26.7418L24.7338 26.6789L24.6966 26.0466L24.9413 26.0623L25.0701 26.2111L25.4006 26.1482L25.7482 26.6474L25.7425 26.8892L25.4063 27.0608L25.2661 27.4042L25.3576 27.6073L25.2604 27.8019L25.279 28.1609L25.4864 28.3869L25.4621 28.5901L25.1688 28.6673L25.0343 28.9005L25.5651 29.1036L25.6138 29.2209L25.3576 29.9062L25.4678 30.341L25.1745 30.5842L24.0141 31.1049L23.8925 32.1764L23.6064 32.544L23.3674 32.3523L23.2015 32.5412L22.788 32.6642L22.5047 33.4252L22.0654 33.3051L21.6891 33.0461L21.3944 33.1291L20.885 32.9503L20.6232 33.1978L20.2226 33.1706L20.0881 33.4324L19.7089 33.5211L19.1652 33.9574L18.8333 33.8987L18.4155 33.5411L18.0335 33.4352L18.0778 33.348L18.271 33.4209L18.3754 33.3652L18.5442 33.5969L18.6301 33.5425L18.9005 33.7957L18.8447 33.378L18.756 33.3537L18.726 33.2207L18.8075 33.235L18.9005 32.9617L18.6702 33.0047L18.633 32.8888L18.7732 32.8459L18.6716 32.7472L18.3439 32.7543L18.1336 32.9217L17.9505 32.8115L18.1494 32.627L17.9777 32.3652L17.8804 32.6413L17.4526 32.3237L17.3624 32.1578L17.4697 32.0062L17.3181 31.9475L17.3538 31.7043L17.1736 31.6442L17.2866 31.607L17.3152 31.4769L17.082 30.9934L16.7615 30.6257L16.5454 30.9347L17.1678 31.6399L17.1192 31.7601L17.0147 31.7472L17.0949 31.9632L16.989 32.2393L17.0104 32.4954L16.8345 32.4839L16.6857 32.6713L16.4181 32.6842L16.4167 32.906V33.0104L16.3923 33.0848L16.3795 33.182L16.2965 33.2607L16.2307 33.162L16.1133 33.2478L15.7113 33.378L15.7313 33.481L15.6183 33.5883L15.5425 33.5554L15.4595 33.4982L15.3822 33.6527L15.6269 33.7957L15.9688 33.8058L15.6741 33.8944L15.2706 33.8029L14.8829 33.9016L14.674 33.8873L14.4608 33.7872L14.3721 33.2951L13.9572 33.3322L13.93 33.1663L14.0172 33.1706L14.0616 32.9031L13.9328 32.75L13.8427 32.8273L13.9271 32.5211L14.013 32.4968L14.0058 32.7643L14.2805 32.3352L14.2333 32.3037L14.2548 32.0033L14.4822 32.1149L14.5881 32.1578L14.6725 32.0305L14.0702 31.9275L14.2333 31.8073L14.1403 31.587L14.0859 31.5183L13.9314 31.1493L14.0044 30.9647L13.9557 30.9161L13.8169 30.9705L13.7583 30.8632L13.6166 30.876L13.7182 30.7902L13.8599 30.8975L13.9572 30.8346L13.9285 30.7516L13.7468 30.7359L13.93 30.1236L13.6867 30.0692L13.2461 30.5642L13.1001 30.6085L13.0171 30.5642L12.9814 30.188L12.7882 30.0521L12.8182 29.8718L12.8955 29.7631L12.9771 28.9062L12.5421 28.2382L12.5364 27.8376L12.2187 27.7647L11.9626 27.8848L11.821 27.6989L11.6879 27.8262L11.5863 27.7732L11.3202 27.1967L11.3216 26.8119L11.1228 26.307L11.0541 25.8163L10.7293 25.7862L10.549 25.885L10.1599 26.3799L10.1312 26.244L9.95954 26.2969L9.85366 26.4686L9.73777 26.4529L9.62044 26.4171L9.59183 26.0795L9.46878 25.8778L9.27706 25.7348L9.17261 25.4615L9.22698 25.2241L9.35575 25.154L9.26561 24.9194L9.34859 24.8092L9.68912 24.6447L9.9438 24.6504L9.99245 24.5546L9.89945 24.5102L9.52601 23.9638L9.43873 23.6848L9.59469 23.5046L9.66766 23.1112L9.94952 23.6419L10.2242 23.7592L10.6191 23.7163L10.6263 23.6047L10.6864 23.4459L10.8767 23.4087L10.921 23.124L10.9997 23.2414L10.9439 23.3401L10.9024 23.7463L11.4719 23.6905L11.5205 23.5174L11.6822 23.4102L11.6364 23.2442L11.9226 23.5132L12.3804 23.3072L12.5092 23.3916L12.6237 23.712L13 23.5518L13.0686 23.8522L12.9256 24.0625L13.5437 24.4101L13.6939 24.6161L13.7526 24.6247L13.7039 24.4459L13.8613 24.3944L13.8126 24.0153L13.9471 23.8236L14.1532 23.8279L14.116 23.9523L14.3034 23.9709L14.2891 24.0825L14.6024 24.1354L14.8099 24.6204L14.9387 24.5446L14.8271 23.9652L14.4851 23.6576L14.5051 23.0282L14.6668 22.7764L14.6554 22.5232L14.2032 21.7193L14.0344 21.622L13.9586 21.3459L13.7654 21.1099L14.0874 20.9883L13.9328 20.7551L14.1947 20.4332L14.5423 20.4032L14.7398 20.2873L14.9329 20.3331L15.1461 20.1343L15.3636 20.3946L15.634 20.2244L16.1277 20.4561L16.8473 19.9998L16.8416 19.7795L17.4383 19.4619Z" />
<path d="M54.6163 38.4533L54.7737 38.5477L54.8395 38.7394L54.7651 39.047L54.6005 39.0942L54.4174 38.9969L54.3745 39.13L54.2099 39.0842L54.1341 38.974L54.3101 38.4319L54.4288 38.449L54.4861 38.3432L54.6163 38.4533ZM54.8853 38.1257L54.9868 38.1701L54.9554 38.5492L54.7508 38.4276L54.7679 38.1601L54.8853 38.1257ZM59.1018 26.3912L59.2348 26.4012L59.2263 26.5557L58.8228 26.4727L58.9043 26.281L59.1018 26.3912ZM57.681 25.0694L57.4764 25.7217L57.3262 25.5615L57.598 25.0765L57.681 25.0694ZM55.7495 24.9106L55.9727 25.1109L55.758 25.2596L55.582 25.0951L55.7495 24.9106ZM57.5022 22.832L58.6511 23.6474L58.5152 23.965L58.6024 24.3655L58.4908 24.4728L58.5667 24.5844L58.6454 24.5243L58.8399 24.5858L58.983 24.839L59.1089 24.8233L59.7499 25.314L59.8243 25.5228L59.9517 25.5743L60.0003 25.8275L59.893 25.8948L59.9531 26.1294L59.3879 26.271L59.3479 26.1065L59.1776 26.3053L59.0016 26.1909L58.8328 25.8833L58.704 25.8647L58.5109 26.0092L58.4479 25.9649L58.4737 26.3454L58.2705 26.1895L58.3048 26.0149L58.1703 26.0292L58.1832 25.8991L58.0616 25.9763L57.9986 25.8891L58.0287 25.7403L58.1188 25.7946L58.2218 25.6387L58.3921 25.663L58.4908 25.5686L58.4393 25.0422L58.322 24.9921L58.1245 25.1337L58.0444 24.8877L57.9271 24.9649L57.8026 24.912L57.6495 25.0536L57.744 24.7704L57.3634 24.8348L57.3033 24.49L57.1674 24.6073L57.0744 24.3942L56.9513 24.4728L56.7324 24.4499L56.7109 24.3727L57.0028 24.1467L57.02 23.9235L57.1917 23.8162L57.1731 23.5816L57.0128 23.523L56.957 23.3442L57.1001 23.0995L57.0443 23.0352L57.2046 22.9665L57.2432 22.832L57.3748 22.8349L57.4192 22.679L57.5022 22.832ZM42.2543 21.7591L42.4646 21.7935L42.7078 22.1525L43.1872 22.2913L43.2186 22.4544L43.1228 22.6661L43.3002 23.0194L43.8811 23.1425L43.934 23.3713L43.8181 23.6818L43.8496 23.9893L43.9998 24.2654L44.1186 24.3055L43.9812 24.3956L44.2545 24.9134L44.5564 25.1881L44.9899 25.3426L45.03 25.5543L45.1373 25.5343L45.2861 25.7088L45.5708 25.7789L45.734 26.0364L45.8184 25.9105L45.9371 25.9434L45.9099 26.2724L46.1231 26.1623L46.4093 26.4327L46.5896 26.4727L46.6668 26.344L46.9372 26.4985L47.1461 26.4613L47.4065 26.2023L47.8572 26.879L48.0203 26.9476L47.9832 27.0621L48.0776 27.2209L48.2994 27.3382L48.69 27.3668L49.3982 27.7816L49.8475 27.6643L50.6187 27.9604L50.9563 27.7359L50.962 27.61L51.3154 27.7616L51.3097 27.6457L51.5315 27.6343L51.5759 27.7044L51.7805 27.527L51.8005 27.6071L52.204 27.6529L53.1869 28.0963L53.1841 28.2065L52.9909 28.2108L52.7706 28.484L52.7777 29.0047L53.2441 29.4983L54.1713 30.1892L53.6033 30.8429L53.6548 31.3622L53.546 31.4409L53.5904 31.6097L53.5246 31.6655L53.5718 31.7799L53.7449 31.8028L53.8565 32.109L53.6505 32.0718L53.5332 32.3307L53.9152 32.5524L53.9052 32.737L54.0025 32.8485L53.9595 33.0989L53.8293 33.2405L54.0282 33.3464L53.9853 33.4136L54.1055 33.5996L54.26 33.5967L54.2042 33.7984L54.4732 34.0573L54.4303 34.5866L54.5104 34.6953L54.3602 34.8041L54.3802 35.0101L54.6892 35.505L54.9969 35.5722L55.0312 35.701L55.2458 35.7925L55.3975 35.6967L55.4919 35.8669L55.4018 36.0071L55.6765 36.2088L56.2731 36.0272L56.3561 36.2174L56.648 36.3776L56.9012 36.3533L57.1073 36.4492L57.6896 36.3462L58.2333 36.4477L58.6997 36.1473L58.777 36.196L58.7684 36.5035L58.5624 37.0171L58.6539 37.2417L58.6039 37.4562L58.7469 37.7366L58.6826 38.3489L58.4694 38.5792L58.5323 38.6994L58.3292 38.9254L58.3406 39.0727L58.1975 39.1886L58.1045 39.2473L57.9915 39.2573L57.9371 39.4275L57.7683 39.5362L57.5236 39.5548L57.2432 39.3889L57.3033 39.2344L57.0715 38.7409L56.5493 38.5306L56.2102 38.655L56.2545 38.7852L56.1486 38.8081L56.1329 38.9769L56.2288 39.1085L56.3475 39.0999L56.1372 39.2201L56.1415 39.3774L55.9827 39.3402L55.9698 39.2315L55.5262 38.944L55.4461 38.5506L55.3045 38.4791L55.2458 38.5563L55.0942 38.3131V38.2015L55.3131 38.0242L55.1342 37.615L54.8738 37.6365L54.8295 37.3933L54.5075 37.2116L53.7607 37.3418L53.9266 36.7481L53.8379 36.6766L53.5532 36.7367L53.4888 36.6394L53.6519 36.3261L53.8365 36.2846L53.898 36.0558L53.8479 35.814L53.6605 35.6695L53.5775 35.2518L53.247 35.0344L52.9909 35.0716L53.1139 35.299L52.9065 35.2003L52.8221 35.382L52.6847 35.1746L52.9694 34.8513L53.091 34.4965L53.2298 34.4092L53.1612 34.2233L52.968 34.1832L52.9938 34.2862L52.8721 34.3048L52.7834 34.5766L52.6332 34.6725L52.483 34.5165L52.5803 34.4665L52.5059 34.3949L52.5674 34.2834L52.4186 34.2118L52.5559 34.0645L52.669 34.0759L52.7434 33.8284L52.5989 33.8714L52.6117 33.611L52.3199 33.488L52.1768 33.5681L52.121 33.4408L51.8506 33.5209L51.4886 33.4165L51.5429 33.2834L51.6274 33.3435L51.955 33.219L51.8262 32.7656L51.9493 32.5696L51.832 32.3364L51.4385 32.4137L51.1566 32.1791L50.736 32.4809L49.8317 32.5167L49.3639 32.2577L48.9418 32.169L48.5068 32.4437L47.3121 32.0331L47.0131 32.0689L46.8614 32.2677L46.684 32.2577L46.4579 31.7899L46.3406 31.7284L46.3392 31.4652L46.1975 31.3365L46.1303 31.4295L46.0287 31.3694L45.9858 31.4867L45.9042 31.4538L45.9257 31.3322L45.9228 31.2306L46.1074 30.986L46.2319 31.0976L46.3749 31.0075L46.4222 30.6827L46.518 30.5082L46.5037 30.3966L46.4222 30.4066L46.3792 29.9217L46.0816 29.6199L46.0587 29.4682L45.6882 29.4367L45.5222 29.2751L45.1216 29.3538L44.9299 29.2036L44.6652 28.4125L44.1229 28.1536L43.8711 27.6071L43.3374 27.3839L42.8452 26.9119L42.4961 26.3153L42.2099 26.1809L41.9867 26.2295L41.9309 26.065L41.3643 25.6874L40.8979 25.1323L40.1238 24.839L39.407 25.0593L38.9163 24.8133L38.7732 24.3469L38.2467 24.3884L37.8832 24.2354L37.7115 24.3655L37.6972 24.4886L38.1165 24.5343L38.2624 24.7117L38.2266 24.8863L37.8103 25.1209L36.8803 25.0851L36.1606 25.3097L36.2278 24.9106L36.441 24.5644L37.1006 24.4514L37.155 24.3369L37.547 24.2254L37.5771 24.1281L38.2624 23.8849L38.4556 23.8963L38.5257 23.8277L38.8075 23.6317V23.4472L38.9764 23.3327L39.3984 23.3828L39.5372 22.7133L40.0237 22.3185L40.38 22.2727L40.679 22.3743L40.9981 22.3542L41.2928 22.0796L41.6348 22.0367L41.9467 21.7963L42.2543 21.7591ZM17.7764 19.6806L18.3902 19.2772L18.3831 19.0154L18.5905 19.044L18.7093 18.8752L19.1071 18.6735L19.1786 18.4947L19.3346 18.6807L19.7294 18.8337L19.8554 18.7937L19.9569 18.5548L20.1258 18.4246L20.5078 18.4117L20.741 18.19L21.0429 18.2758L21.3906 18.2372L21.6739 18.6134L21.4721 18.8537L21.6209 19.2901L22.1704 19.4317L21.9572 19.9953L22.0144 20.4559L22.6254 20.6176L23.0188 20.4016L23.3894 19.8337L23.6612 19.8723L23.8716 20.3229L24.1091 20.3916L24.235 20.6362L24.617 20.712L24.7401 21.0067L24.8187 21.9208L24.9046 22.0009L25.414 21.7663L25.6386 21.8421L25.7945 21.6561L25.9147 21.7177L26.0721 21.6361L26.1823 21.5517L26.0621 21.4115L26.0349 21.1183L26.2967 20.9652L26.4069 20.7535L26.9163 20.8064L27.5072 20.4073L27.5501 20.1827L27.45 19.7764L27.8692 19.5318L27.9221 19.27L28.2312 18.9968L28.4243 18.5104L28.6862 18.3388L28.7291 17.8924L28.9323 17.8867L29.2198 18.4875L30.5576 18.6406L30.7436 18.8352L30.778 19.137L31.1714 19.3058L31.3217 19.6606L31.2487 20.0726L31.4418 20.1627L31.6522 20.0497L31.987 20.2428L31.8339 20.5074L31.914 20.629L31.8568 20.8279L31.9727 20.8951L31.9913 21.3314L31.8668 21.639L32.4949 21.5932L32.9013 21.6933L33.0801 21.6332L33.2547 21.7663L33.598 21.556L34.0931 21.5102L34.3406 21.6104L34.3149 21.8364L34.6354 22.1168L34.9315 22.1897L35.1161 22.111L35.2392 22.4115L36.5183 22.4129L36.6442 22.3042L36.9375 22.7734L37.5341 22.8907L37.9734 22.7805L38.3168 22.5202L38.3468 22.3571L38.6416 22.3099L38.5071 22.7963L38.2924 22.9579L38.2495 23.3184L37.9762 23.1854L37.7015 23.4414L37.5527 23.317L37.4941 23.4286L37.5999 23.5745L37.3825 23.626L37.3181 23.7375L36.5183 23.6174L36.2836 23.892L36.3208 24.1567L36.1792 24.2454L35.8573 24.2769L35.6154 24.4342L35.4709 24.3856L35.2663 24.5773L34.8342 24.4628L34.6325 24.2554L34.4393 24.4142L34.1174 24.3498L33.8556 24.0036L33.5379 23.9593L33.4635 23.862L33.2747 23.9063L32.9199 24.2339L32.5707 24.3484L32.5564 24.47L32.6509 24.5186L32.296 24.7375L32.4806 24.7675L32.7982 24.5816L32.9413 24.6259L32.6051 24.8963L32.6852 24.902L32.6294 25.1437L32.8912 25.0365L32.9256 25.2954L33.0815 25.2854L33.1645 25.0808L33.1173 24.9935L33.2375 24.9907L33.1946 25.1681L33.299 25.3598L33.5809 25.1037L33.7984 25.1967L34.312 25.0422L34.4694 24.8548L34.601 25.1852L34.8371 25.3111L35.3751 26.0235L35.5267 26.0793L35.6526 25.9777L35.8959 26.0078L36.1191 25.8705L36.6442 26.447L37.082 26.0865L37.3753 26.178L37.5585 26.457L37.9448 26.5814L38.6258 26.5128L38.8147 26.3983L39.2067 26.9391L39.1895 27.5671L39.4686 28.0892L39.4757 28.2752L39.6259 28.278L39.7633 28.547L39.9708 28.341L40.058 28.4082L40.1238 28.2265L40.4386 28.1893L40.5817 28.1822L40.8235 28.1207L40.8421 28.0248L40.5059 27.7316L40.9237 27.6429L41.5904 28.2179L41.9724 28.1307L42.3916 28.2651L42.6935 28.5956L42.7422 28.8574L42.5161 29.0848L42.3087 29.1378L42.0726 29.4253L42.0211 29.7014L42.1856 29.4596L42.4331 29.4511L42.4718 29.7028L42.5691 29.7557L42.5748 29.8959L42.5891 29.9732L42.6778 30.0619L42.8094 29.9575L43.2301 30.162L43.1614 30.2393L42.6463 30.2922L42.6063 30.6098L42.8137 30.6083L42.9511 30.5096L43.107 30.4181L43.5549 30.4281L43.6593 30.6184L44.3189 30.6055L44.5092 30.8058L44.9785 30.9188L45.2833 30.4295L45.4635 30.4953L45.9872 31.0561L45.9285 31.2149L45.7712 31.2049L45.6238 31.3565L45.6867 31.4767L46.0602 31.5339L46.0788 31.6355L45.9929 31.6269L46.1274 31.8429L46.0201 31.9688L46.2476 31.9402L46.5023 32.0646L46.4436 32.3865L46.6082 32.7927L47.0746 33.2219L47.2434 33.2148L47.2277 33.4565L46.9272 33.5295L46.8342 33.8785L46.5595 34.2776L46.4794 34.8455L46.5796 34.9628L46.5109 35.3419L46.6296 35.4406L46.4365 35.6795L46.4436 35.9513L46.0258 36.1759L45.8169 36.1902L45.6338 36.4849L45.0429 36.5579L44.8927 36.2775L44.4062 36.1802L44.306 36.0443L44.2102 35.3806L43.5549 35.4063L43.4461 35.2819L43.2015 35.2776L43.1242 35.0186L43.3832 34.9328L43.4662 34.6152L43.2859 34.3563L42.9911 34.5108L42.5247 34.4736L42.3473 34.7755L42.1155 34.8455L42.064 35.0358L42.2214 35.5093L42.074 35.7339L41.4745 35.7539L41.2155 35.6566L41.0095 35.7883L39.9851 36.0157L40.2025 35.7797L39.8091 35.3777L39.2296 35.9714L39.118 35.8355L38.736 35.8369L39.035 35.5894L38.7274 35.402L38.6873 35.2733L38.0077 35.2618L37.8775 35.2575L37.7502 35.1145L37.5856 35.249L37.4168 35.216L37.3295 35.4549L37.4955 
35.5179L37.5713 35.3763L37.6772 35.3705L37.8632 35.4764L37.9762 35.6853L37.6085 35.7668L37.2637 35.5608L37.0248 34.9056L36.916 34.9099L36.8674 35.1274L36.6513 34.9586L36.3151 35.0787L35.873 34.9457L35.7013 34.9128L35.521 34.9314L35.3207 34.7139L35.4953 34.5251L35.584 34.4278L35.7642 34.3577L35.7628 34.2519L35.212 34.0745L35.1576 33.9071L34.4265 33.5853L34.2591 33.159L34.3764 33.0746L34.3249 32.8171L33.9743 32.4637L33.5966 32.6397L33.8427 32.7842L33.6982 33.0603L33.5494 33.013L33.4821 32.8242L33.3477 32.9573L33.269 32.9072L33.1617 33.0045L33.0443 33.435L33.3219 33.5838L33.0815 33.7741L33.0787 34.053L33.0186 34.2018L32.6122 34.1432L32.6151 33.9643L32.4248 33.6182L32.1787 33.4165L32.2216 33.312L32.442 33.2906L32.4348 33.1633L32.1157 32.8843L32.0084 32.5438L31.7294 32.3207L31.3703 31.7942L30.891 31.7227L30.8838 31.5239L30.7622 31.5367L30.675 31.4323L30.6392 31.7013L30.7393 31.7714L30.7765 32.0045L30.871 32.036L30.6907 32.1061L30.5905 32.046L30.313 32.3822L30.4904 32.654L30.622 32.581L30.6792 32.8156L30.4432 32.8228L30.3874 33.1103L30.4575 33.0202L30.5905 33.0831L30.3888 33.2205L30.3645 33.3363L30.1212 33.2763L30.1184 33.0746L29.6677 33.1561L29.3515 32.9573L29.3558 33.0989L29.1955 33.2477L28.7362 32.8471L28.6289 33.0202L28.4758 32.9029L28.028 33.2462L27.8978 33.5266L27.5458 33.066L27.4614 33.1675L27.2811 33.086L27.3412 33.0631L27.2911 32.9186L27.1652 32.8929L27.138 32.7756L26.9721 32.8056L26.9134 32.7212L26.8576 32.7813L26.374 32.5281L26.1809 32.3221L25.5728 32.3994L25.4368 32.2449L24.979 32.1504L24.6843 32.1347L24.1906 32.7212L23.9188 32.757L23.6298 32.6583L23.6112 32.5524L23.8973 32.1848L24.0189 31.1133L25.1793 30.5926L25.4726 30.3494L25.3624 29.9145L25.6186 29.2293L25.5699 29.112L25.0391 28.9103L25.1736 28.6771L25.4669 28.5999L25.4912 28.3982L25.2838 28.1722L25.2652 27.8145L25.3624 27.62L25.2709 27.4169L25.4111 27.0735L25.7473 26.9019L25.7531 26.6601L25.4054 26.1609L25.0749 26.2238L24.9461 26.075L24.7014 26.0593L24.7386 26.6916L24.6771 26.7545L24.122 26.9576L23.8902 26.8089H23.3164L23.0474 27.6271L22.5896 27.7745L22.5223 27.7587L22.5095 27.2523L22.4365 27.1508L22.3506 27.1193L22.0759 27.3067L21.5938 27.3224L21.3062 27.1193L20.9156 27.1265L20.3175 26.9548L20.0485 26.776L19.841 25.9105L19.7194 25.746L19.9398 25.4656L20.0371 24.9821L20.575 24.9277L20.6795 24.8648L20.6738 24.6617L20.5521 24.4342L19.3789 24.0752L19.0427 23.5201L18.9082 22.8549L18.0898 22.5502L17.5403 22.1897L17.4917 21.9465L17.7664 21.5074L17.9252 21.4759L18.2128 20.7163L17.7793 20.1913L17.775 19.6892L17.7764 19.6806Z"/>
</svg>
