<svg width="60" height="34" viewBox="0 0 60 34" fill="current" xmlns="http://www.w3.org/2000/svg">
<path d="M42.1873 16.128C42.7397 15.854 42.0911 15.1817 42.2197 14.6389C42.2755 13.5053 42.9332 12.6307 43.5569 11.7598C44.3625 10.8122 45.7425 12.0556 46.5314 11.1005C46.8998 9.34043 48.6442 8.36973 50.0623 7.51489C51.246 6.95902 52.5689 6.6055 53.3632 5.48181C54.0863 4.87061 55.3848 4.76593 55.5256 3.63601C55.9108 3.12144 56.5729 2.7196 57.2235 2.45128C57.9678 2.07801 58.5347 1.78787 59.3014 1.6489C59.7731 1.26941 59.5009 0.365471 60 0C59.2967 0.0937691 58.7292 0.44495 58.1057 0.77224C57.7039 0.854061 57.1192 1.63721 56.3921 1.41461C55.712 1.38448 55.2126 2.17257 54.4911 2.13958C53.8258 2.19309 53.5624 3.02143 53.0547 3.12482C52.736 3.65783 51.9957 3.75783 51.4181 3.88381C50.8918 4.23681 50.4164 4.34955 49.8693 4.31942C49.1986 3.81706 48.9423 4.94074 48.4071 5.307C47.8762 6.0795 46.9017 6.15119 46.2072 6.69875C45.1148 7.28864 44.0068 7.81075 42.809 8.11492C41.6786 8.49519 40.5494 8.87729 39.3631 8.68066C37.7901 8.72559 36.7645 10.2519 35.1975 10.3716C34.2905 10.2867 33.4737 10.8462 32.5399 10.7826C31.2952 11.1543 29.9712 11.0782 28.6746 11.0254C27.9212 11.0717 27.1379 10.8236 26.385 10.6439C25.7787 10.7649 25.0576 10.7748 24.516 10.3618C23.5949 10.6846 22.7336 10.2937 21.8464 10.1251C21.2086 10.6872 20.3334 10.4553 19.6606 10.1116C18.5938 10.2745 17.8842 9.08015 16.8567 8.93911C17.0108 9.59212 16.8293 10.341 17.3086 10.8857C17.5277 12.5211 17.1026 14.2097 16.4515 15.6906C15.6657 16.1987 14.7481 17.1478 13.7748 16.506C13.1542 16.22 12.5041 15.889 11.9066 15.6301C11.178 15.536 10.4744 15.1295 9.75705 15.2262C9.06729 15.2934 8.73898 15.6981 8.01949 15.8732C7.23481 15.641 7.29818 16.0454 6.79149 16.5758C6.12885 17.3618 5.98934 18.5694 5.00151 19.1097C3.93389 20.1918 2.12305 19.9134 1.22467 18.751C0.884358 18.2029 -0.0677423 17.6398 0.0503899 18.7063C-0.244549 19.7622 0.84185 20.4318 1.0682 21.3919C1.18216 22.1228 0.687729 22.6319 1.43955 23.2447C1.1999 23.9304 1.08594 24.3383 1.81351 24.843C1.88235 25.6217 3.1213 25.2038 3.07045 26.0916C3.15103 26.8111 3.58679 27.4605 3.41651 28.1893C4.06167 28.4571 4.52716 28.8483 5.14181 29.2772C5.63781 29.9837 6.21934 29.5642 6.84051 29.8915C8.02731 29.9536 8.78122 31.0393 9.93542 31.2113C10.632 31.424 11.358 31.8942 12.0044 31.4781C12.684 31.4942 13.2914 30.8305 14.0351 31.0399C14.6777 30.8269 15.5638 30.7185 16.1247 31.2394C16.5274 31.4882 16.911 32.0719 17.1436 32.7462C17.8153 33.2265 16.8643 34.1805 17.7653 33.8454C18.3742 33.7408 18.9695 33.6163 19.5654 34C20.365 33.8169 18.8626 33.0472 19.1414 32.423C18.9609 31.3183 20.1091 30.8365 20.8195 30.2523C21.8423 29.6873 23.0796 29.5073 24.2727 29.7286C24.982 29.7037 25.8773 30.1367 26.2259 29.372C26.8643 29.1961 27.5256 29.5377 28.1061 29.0229C28.7852 28.8611 29.4351 28.4348 30.1076 28.1348C30.5423 27.4472 31.5646 27.9215 31.933 27.3483C32.7159 27.3407 32.881 26.1781 33.7541 26.3885C34.7773 26.8428 34.7471 25.7846 35.313 25.2451C35.7897 24.3427 35.1776 23.0642 36.0379 22.2693C36.9465 21.4379 38.3312 21.7426 39.4468 21.8207C40.376 21.6589 40.7838 23.2281 41.6645 22.6177C42.2598 22.1927 42.7081 21.5394 43.5564 21.6937C44.0449 21.208 44.8418 21.6748 45.4533 21.627C45.9746 21.9262 46.5817 22.2072 47.0787 22.3163C46.9272 21.8893 46.8075 21.4238 46.4743 20.8732C45.8961 19.458 44.1739 19.005 43.7048 17.5247C43.0354 17.2514 42.924 16.1371 42.1873 16.128Z" />
</svg>
