<svg width="49" height="24" viewBox="0 0 49 24" fill="currnet" xmlns="http://www.w3.org/2000/svg">
<path d="M37.3326 1.5021C37.6521 1.56698 37.9595 1.5952 38.0105 2.05223C38.0364 2.28501 38.3505 2.30882 38.5823 2.3151C38.9982 2.32645 39.107 2.39367 39.0822 2.76445C39.0622 3.06388 39.159 3.15248 39.4389 3.17714C39.8075 3.20957 40.1529 3.31467 40.5409 3.16551C40.89 3.03135 41.0897 3.20845 41.2554 3.62892C41.2906 3.71798 41.3409 3.83676 41.445 3.77254C41.9194 3.47985 42.4858 3.70785 42.994 3.44957C43.3316 3.27801 43.8126 3.35573 44.1514 3.68123C44.3151 3.83864 44.5095 3.91429 44.7127 3.77592C44.9283 3.6292 45.1068 3.7642 45.2177 3.87829C45.57 4.24064 45.9678 4.13292 46.372 4.05585C46.4261 4.04554 46.4785 4.02604 46.5317 4.01085C46.7512 3.94795 46.5455 4.45185 46.7915 4.23707C46.922 4.12326 47.0132 4.09945 47.1606 4.08154C47.8326 3.99989 48.328 4.38098 48.8433 4.71876L48.5968 5.29767C48.579 5.29313 48.5611 5.28898 48.5431 5.2852C48.3969 5.25473 48.2635 4.99898 48.2195 5.06892C48.1283 5.21329 47.945 5.33676 47.9689 5.5387C47.9994 5.79782 47.8713 5.85904 47.6418 5.87001C47.4374 5.87976 47.2286 5.91595 47.0704 6.07748C46.9415 6.2092 46.7887 6.21182 46.6059 6.20479C46.1336 6.1866 45.8794 6.41085 45.8203 6.88963C45.7596 7.3807 45.3011 7.55695 45.0586 7.90279C44.9802 8.01454 44.9099 7.8697 44.8678 7.79517C44.6753 7.4541 44.7946 7.13704 44.9662 6.83779C45.0493 6.69304 45.1828 6.57792 45.2882 6.44507C45.3521 6.36454 45.5184 6.31279 45.4427 6.18754C45.3756 6.07673 45.2216 6.04664 45.0881 6.0501C44.9213 6.05451 44.8085 6.16889 44.7316 6.29873C44.5976 6.52504 44.4397 6.49176 44.2076 6.45014C43.6025 6.34167 42.9759 6.2782 42.5544 6.88551C42.4429 7.04629 42.0976 7.06973 42.2029 7.33082C42.302 7.57654 42.6071 7.41398 42.8138 7.47763C42.9666 7.5246 43.1724 7.47192 43.1793 7.67751C43.1866 7.89914 43.4121 8.1472 43.1605 8.34464C43.0824 8.40595 43.0119 8.44326 43.0013 8.5476C42.996 8.6002 42.9978 8.67979 42.9335 8.6796C42.8726 8.67942 42.8793 8.60085 42.873 8.55032C42.8684 8.51301 42.8716 8.47485 42.8673 8.43745C42.8553 8.33254 42.9015 8.21873 42.82 8.12432C42.7916 8.23054 42.7819 8.34679 42.7315 8.44139C42.4918 8.89298 42.2362 9.31954 41.6759 9.45548C41.1625 9.57998 41.1115 9.68507 41.235 10.2035C41.28 10.3925 41.281 10.5535 41.0783 10.6203C40.8824 10.6849 40.8214 10.5029 40.7538 10.3769C40.7016 10.2798 40.6724 10.1656 40.6554 10.0557C40.6306 9.8946 40.5411 9.88007 40.4156 9.9262C40.3179 9.9621 40.2142 10.0838 40.1251 9.9396C40.0636 9.84013 40.0244 9.77432 39.9356 9.89911C39.8825 9.97382 39.7987 10.0659 39.8091 10.1386C39.8317 10.2969 39.9491 10.1688 40.0254 10.1762C40.2436 10.1976 40.4492 10.2236 40.1625 10.4807C40.0325 10.5974 40.0714 10.75 40.1012 10.9022C40.2534 11.6798 39.9201 12.2542 39.1821 12.5178C38.9977 12.5837 38.7674 12.5725 38.6878 12.8324C38.6371 12.9981 38.5613 12.984 38.4876 12.8182C38.3986 12.6177 38.2653 12.746 38.1653 12.8159C38.0297 12.911 38.0274 13.0301 38.1533 13.1442C38.2092 13.1948 38.269 13.2415 38.3212 13.2956C38.6776 13.6645 38.5521 14.1809 38.0673 14.3736C37.9336 14.4268 37.9131 14.3354 37.8595 14.2595C37.7139 14.053 37.4627 13.8092 37.2757 13.9784C37.0345 14.1966 37.2896 14.4558 37.4815 14.6395C37.6227 14.7746 37.7889 14.9372 37.7531 15.1127C37.6711 15.5142 38.0267 15.7583 38.0493 16.1139C38.0595 16.2742 38.2139 16.2982 38.3424 16.3338C38.7194 16.4384 39.0704 16.6544 39.487 16.5894C39.5586 16.5782 39.6639 16.607 39.6692 16.6841C39.6767 16.7934 39.5631 16.7619 39.4968 16.7679C39.0215 16.8105 38.5351 16.7305 38.1077 16.5939C37.7781 16.4886 37.4993 16.1096 37.2852 15.7933C37.1074 15.5298 36.9124 15.2784 36.7015 15.0405C36.6398 14.9711 36.5245 14.9272 36.599 14.8221C36.6831 14.7036 36.8059 14.7502 36.893 14.827C37.0196 14.9384 37.1301 15.0682 37.2488 15.1887C37.2882 15.2286 37.3445 15.2723 37.3922 15.2321C37.448 15.185 37.3882 15.1338 37.359 15.0929C37.0497 14.6602 36.9337 14.1801 36.9762 13.6511C36.9921 13.4538 36.9598 13.2564 36.6671 13.3196C36.4153 13.3739 36.422 13.1337 36.3345 13.0099C35.9675 12.4905 35.8311 12.4772 35.3597 12.8983C35.2514 12.9949 35.1327 13.0799 35.0143 13.1639C34.6071 13.453 34.4997 13.8811 34.709 14.3564C34.7518 14.4539 34.8568 14.5617 34.7408 14.6603C34.634 14.7512 34.5439 14.6362 34.4421 14.6014C33.9722 14.4408 33.7952 14.0493 33.7306 13.6281C33.6343 13.0006 33.162 12.6379 32.8244 12.1783C32.7378 12.0602 32.6084 12.0353 32.4726 12.0329C32.3031 12.0299 32.132 12.0149 31.9641 12.0314C31.8596 12.0416 31.7601 12.0264 31.6621 12.0049C31.4948 11.9684 31.3956 12.1832 31.532 12.2866C31.5971 12.3359 31.6677 12.3809 31.7279 12.4343C31.8363 12.5305 31.7247 12.5888 31.6932 12.6704C31.4941 13.1864 30.9975 13.3193 30.5708 13.5153C30.304 13.6379 30.0514 13.8231 29.7393 13.8415C29.6813 13.8449 29.6237 13.8753 29.6237 13.9415C29.6237 14.0309 29.6944 14.074 29.7696 14.0807C29.9607 14.098 30.1291 13.9937 30.3119 13.9646C30.5665 13.9241 30.6893 14.0968 30.5758 14.3282C30.3518 14.7851 30.0638 15.2065 29.6513 15.5277C29.0196 16.0196 28.9595 16.2205 29.1964 16.9573C29.382 17.5347 29.3602 17.6218 28.8567 18.0037C28.6646 18.1495 28.5 18.2831 28.5955 18.559C28.6333 18.6681 28.6426 18.8173 28.5522 18.8796C28.191 19.1291 28.0728 19.544 27.846 19.8815C27.4814 20.424 26.9226 20.398 26.3851 20.4389C26.2166 20.4517 26.0896 20.2846 26.0725 20.154C26.011 19.6841 25.778 19.2563 25.6164 18.8418C25.3679 18.204 25.1814 17.6542 25.4304 16.9817C25.5019 16.7887 25.4077 16.4699 25.2807 16.2824C25.0679 15.9682 24.9667 15.6517 24.9766 15.2821C24.9797 15.1644 24.9156 15.0178 24.797 15.035C24.4733 15.0821 24.2108 14.7839 23.9397 14.845C23.6355 14.9135 23.3024 14.8536 23.0228 15.0275C22.8351 15.1443 22.6689 15.0974 22.4979 14.9849C22.0686 14.7028 21.8253 14.2411 21.4506 13.9063C21.4114 13.8711 21.3876 13.8021 21.397 13.7503C21.5258 13.037 21.2795 12.2168 21.9525 11.6572C22.2797 11.3851 22.4089 10.9682 22.7237 10.6894C22.8559 10.5723 22.862 10.4138 22.6611 10.3354C22.5271 10.2831 22.3874 10.2078 22.431 10.0632C22.5036 9.82214 22.3638 9.56807 22.4859 9.34748C22.5956 9.14957 22.8086 9.18548 22.9952 9.19542C23.5512 9.22504 23.602 9.18239 23.5032 8.61539C23.4614 8.3752 23.5186 8.26317 23.7238 8.11467C23.9618 7.94235 24.1893 7.74201 24.4312 7.5711C24.8205 7.29604 24.8645 7.18917 24.5865 6.77142C24.4995 6.64073 24.4431 6.51285 24.4087 6.36567C24.3133 5.9556 24.3776 5.77917 24.7647 5.59729C25.0348 5.47045 25.2373 5.30442 25.3561 5.02701C25.5624 4.54504 25.9599 4.27185 26.4305 4.09073C26.6236 4.01639 26.8253 3.96454 27.0198 3.8932C27.3662 3.76607 27.6621 3.70729 27.9761 4.03964C28.1828 4.25835 28.5772 4.2247 28.8509 4.40207C28.9439 4.46245 29.0885 4.47285 29.1467 4.55217C29.3745 4.8622 29.5415 5.0227 29.6708 4.48635C29.7006 4.36326 29.8973 4.3222 30.0035 4.44857C30.1647 4.64067 30.3099 4.59567 30.4929 4.49001C30.7999 4.31282 31.1559 4.40264 31.4865 4.33823C31.8373 4.26989 31.6071 4.11867 31.562 3.98826L31.5682 3.98048C31.8442 4.03701 32.1189 4.10142 32.3967 4.14679C32.5437 4.17079 32.6473 4.17435 32.693 3.9442C32.792 3.4446 33.0164 3.35039 33.5649 3.40204C33.7612 3.42051 33.951 3.38667 34.1498 3.47451C34.2647 3.52523 34.4706 3.50292 34.5025 3.29892C34.547 3.01438 34.6924 3.05104 34.9067 3.11385C35.1049 3.17189 35.3753 3.27117 35.3725 2.87113C35.3718 2.76632 35.5013 2.7472 35.5924 2.72732C35.9922 2.64014 36.3651 2.45657 36.7962 2.47579C37.192 2.49342 37.2988 2.23064 37.0861 1.85329C37.2027 1.76085 37.2698 1.63307 37.3326 1.5021ZM24.6485 9.29338C24.2312 9.36707 23.9481 9.61879 23.7781 9.98151C23.695 10.1588 23.6226 10.3178 23.439 10.4051C23.3778 10.4341 23.2536 10.4174 23.2686 10.4973C23.2804 10.5596 23.4056 10.5465 23.4727 10.5231C23.8091 10.4058 24.1439 10.296 24.5045 10.2647C24.7014 10.2476 24.8782 10.2759 25.0499 10.3544C25.2186 10.4317 25.197 10.5913 25.2063 10.7428C25.2136 10.8605 25.3057 10.9587 25.4236 10.9648C25.8012 10.9842 26.161 11.3043 26.5611 11.0253C26.6227 10.9823 26.7569 10.9912 26.8321 11.028C27.2481 11.2323 27.6932 11.0906 28.1208 11.1494C28.3302 11.1781 28.4046 10.9731 28.4448 10.821C28.4938 10.635 28.3429 10.6313 28.198 10.6213C28.0726 10.6125 27.9425 10.5075 27.8285 10.527C27.4358 10.5942 27.263 10.4311 27.2381 10.0543C27.2331 9.97814 27.1869 9.90557 27.0923 9.9186C27.0287 9.92742 27.0342 9.99726 27.0101 10.0436C26.8711 10.3111 26.5112 10.3571 26.3391 10.1294C26.2868 10.0604 26.2822 9.87735 26.2064 9.91542C25.8155 10.1115 25.6427 9.74864 25.3822 9.62263C25.2112 9.53985 25.1049 9.50948 25.0878 9.75773C25.0787 9.88982 25.0048 10.0566 24.8558 10.0127C24.6418 9.94973 24.8317 9.80132 24.8409 9.68929C24.8551 9.52139 24.9766 9.29788 24.6485 9.29338ZM26.1398 7.2367C26.4004 7.25029 26.3788 7.2366 26.4846 7.06982C26.7332 6.67804 26.6346 6.29076 26.5049 5.90057C26.4684 5.79079 26.483 5.58801 26.2818 5.65973C26.1286 5.71439 26.0327 5.8927 26.132 6.0276C26.4675 6.48398 26.026 6.70429 25.8455 6.98029C25.7326 7.15289 25.5057 7.32792 25.3141 7.00195C25.2861 6.95423 25.2215 6.9156 25.1761 6.9606C25.1435 6.99285 25.1306 7.06626 25.1397 7.11567C25.1995 7.43948 25.4546 7.37048 25.6727 7.37104C25.8409 7.37151 25.9475 7.15476 26.1398 7.2367ZM29.2397 9.51492C29.1602 9.20507 28.7207 9.23188 28.6557 8.87638C28.6409 8.79529 28.5301 9.00089 28.4512 9.06051C28.3264 9.15492 28.2003 9.18314 28.1229 9.02789C28.0596 8.90086 27.9916 8.82454 27.8815 8.94051C27.7557 9.07307 27.6067 9.20995 27.6309 9.42398C27.6463 9.56001 27.7509 9.63764 27.8659 9.6126C28.2266 9.53404 28.5607 9.58448 28.9013 9.71854C29.044 9.7746 29.2003 9.70729 29.2397 9.51492ZM28.8841 12.4559C28.7661 12.4814 28.7615 12.5672 28.7553 12.6611C28.7371 12.9346 28.9338 13.0937 29.0784 13.28C29.144 13.3645 29.2115 13.5155 29.3199 13.4693C29.4765 13.4025 29.3779 13.2488 29.3482 13.1327C29.2921 12.9122 29.1295 12.751 29.0156 12.5627C28.9896 12.5194 28.9331 12.4945 28.8841 12.4559ZM0.660645 7.61976C1.13211 7.33064 1.60949 7.05417 2.13721 6.87604C2.20452 6.85335 2.29808 6.81164 2.29077 6.73026C2.28233 6.63604 2.16861 6.67701 2.10899 6.64195C1.86608 6.49907 1.61427 6.36867 1.38402 6.20751C1.09958 6.00838 1.1128 5.84357 1.40568 5.66517C1.46886 5.62664 1.54321 5.60667 1.61202 5.57704C1.69086 5.54301 1.85136 5.56645 1.81986 5.4501C1.79221 5.34792 1.65505 5.44448 1.56683 5.43951C1.49268 5.43539 1.41299 5.4396 1.34614 5.41345C1.21724 5.36301 1.10352 5.26692 1.12658 5.12029C1.15593 4.93363 1.32168 4.9192 1.47702 4.91742C1.54621 4.91657 1.64539 4.99767 1.67614 4.91104C1.70474 4.8306 1.58624 4.81776 1.52652 4.77904C1.08036 4.48935 1.08205 4.41848 1.53149 4.15757C1.64521 4.09157 1.75171 4.01048 1.87105 3.9577C2.21033 3.8077 2.52918 3.71685 2.92958 3.85767C3.36355 4.01029 3.85161 4.00139 4.30939 4.09579C4.87733 4.21288 5.41658 4.2156 5.99577 4.06842C6.55208 3.92704 7.14843 4.03223 7.70643 4.22845C7.77346 4.25198 7.85943 4.31123 7.91155 4.23342C7.95871 4.16301 7.90114 4.0866 7.83805 4.04414C7.74383 3.98085 7.65768 3.9277 7.63377 3.79645C7.60668 3.64776 7.51874 3.61457 7.40408 3.73785C7.26814 3.88401 7.10455 3.88139 6.93768 3.80873C6.76686 3.73439 6.63627 3.62526 6.75449 3.4192C6.82068 3.30379 6.89315 3.19842 6.88518 3.05601C6.87393 2.85623 7.04858 2.81226 7.14814 2.8762C7.46849 3.0817 7.87011 2.96779 8.19552 3.21923C8.46308 3.42604 8.83255 3.4867 9.18552 3.27154C9.38924 3.14742 9.60421 3.11995 9.55968 3.48623C9.54243 3.62845 9.59015 3.7837 9.69552 3.83948C9.98483 3.99257 10.2276 4.1106 9.81571 4.41013C9.72936 4.47295 9.79358 4.59126 9.90102 4.62173C10.0291 4.65801 10.2127 4.68323 10.2275 4.51992C10.2447 4.32857 10.3111 4.2247 10.4604 4.11435C10.7041 3.93435 10.6631 3.82448 10.3502 3.8212C10.0959 3.81848 10.0088 3.55504 9.81749 3.45014C10.0403 3.41001 10.1279 3.14273 10.3682 3.12623C10.499 3.11723 10.6285 3.08892 10.7584 3.06754C10.9436 3.03707 11.0705 2.94482 11.0977 2.74588C11.1116 2.64501 11.1043 2.55201 10.9851 2.52829C10.8152 2.49454 10.6657 2.39348 10.5124 2.63957C10.2958 2.98692 9.86671 2.6962 9.5668 2.85529L9.48908 2.64951C9.53605 2.59963 9.5413 2.54985 9.4889 2.50007C9.52743 2.30001 9.38221 2.11964 9.47924 1.89529C9.64199 1.51898 9.68286 1.48054 10.011 1.68848C10.1089 1.75054 10.2341 1.82048 10.1959 1.94095C10.1446 2.10201 10.0082 1.96551 9.91068 1.97207C9.78964 1.98023 9.67311 1.9911 9.6718 2.14298C9.67049 2.29242 9.78083 2.31895 9.90571 2.3182C10.0372 2.31745 10.1691 2.33038 10.3002 2.32335C10.542 2.31042 10.6833 2.22839 10.4889 1.97798C10.4044 1.86895 10.2958 1.74857 10.4352 1.63851C10.5803 1.52385 10.681 1.69045 10.7513 1.77914C10.8216 1.86773 11.0678 1.86764 10.9221 2.1111C10.8779 2.18489 11.1116 2.23523 11.231 2.26467C11.2881 2.27873 11.3442 2.24385 11.3585 2.1802C11.3873 2.05092 11.3257 1.96476 11.2153 1.90617C11.1979 1.89721 11.1811 1.887 11.1651 1.8756C10.4676 1.36298 10.476 1.2022 11.225 0.761385C11.3545 0.684918 11.4949 0.628529 11.6414 0.594135C12.4081 0.411323 13.1938 0.358542 13.9719 0.267511C14.2971 0.229448 14.6417 0.340823 14.9752 0.397541C15.102 0.419104 15.3235 0.471417 15.3266 0.520823C15.3357 0.664448 15.1362 0.659197 15.0471 0.750885C14.9964 0.80301 14.902 0.840135 14.9524 0.927698C15.0098 1.02754 15.1371 1.03232 15.192 0.958635C15.5193 0.520166 15.9757 0.631072 16.4247 0.603135C16.7901 0.580447 17.1591 0.532354 17.5345 0.403166C17.948 0.260854 18.4411 0.219604 18.9056 0.182385C18.9987 0.174979 19.1184 0.227854 19.1835 0.186417C19.7454 -0.170958 20.2153 0.360886 20.7399 0.335573C20.8025 0.332573 20.8506 0.385447 20.8306 0.448166C20.8156 0.495041 20.767 0.562354 20.7289 0.565448C20.4667 0.586917 20.2033 0.592542 19.9404 0.606698C19.8862 0.609604 19.8328 0.627416 19.779 0.638385C19.8109 0.730354 19.8926 0.698948 19.952 0.698854C20.5134 0.697542 21.0739 0.776854 21.6371 0.709354C21.7739 0.692948 21.9722 0.673448 21.9991 0.879229C22.0203 1.04114 21.8481 1.07179 21.7362 1.1332C21.3338 1.35407 20.8851 1.54832 21.1934 2.15114C21.2319 2.22642 21.1319 2.29598 21.1336 2.35448C21.1488 2.87432 20.6944 3.28063 20.7914 3.8226C20.8187 3.97504 20.723 4.13404 20.568 4.18185C20.2295 4.28629 19.9661 4.5847 19.5795 4.5606C19.5429 4.55835 19.4976 4.56088 19.4693 4.58029C18.9158 4.95885 18.1788 5.13848 17.9934 5.91932C17.923 6.21585 17.7494 6.25289 17.4846 6.17714C17.065 6.05714 16.8575 5.73792 16.6468 5.39329C16.4285 5.0362 16.3338 4.71295 16.6682 4.3776C16.7204 4.32529 16.7167 4.25967 16.6437 4.19132C16.4769 4.03532 16.1822 3.5242 16.1379 3.35423C16.0023 2.83279 15.4831 2.40707 14.9687 2.54451C14.4003 2.69639 14.1957 2.31801 13.9102 2.01857C13.7942 1.89689 13.8959 1.81176 14.0008 1.75935C14.1509 1.68426 14.3277 1.68473 14.4731 1.58095C14.591 1.49685 14.5989 1.42504 14.5388 1.30129C14.4755 1.1707 14.3978 1.21664 14.312 1.25104C13.8011 1.4556 13.3477 1.7062 13.18 2.30048C13.1239 2.4997 12.9666 2.66226 12.915 2.89045C12.8706 3.08676 12.6018 3.04204 12.4205 3.07148C12.3544 3.08226 12.2399 3.01973 12.2341 3.11123C12.2298 3.1791 12.3671 3.14667 12.426 3.18051C12.8334 3.41432 13.3387 3.27201 13.7454 3.56648C14.0692 3.80095 14.4508 3.92385 14.6084 4.36467C14.6853 4.57982 14.9833 4.65764 15.2077 4.75195C15.3126 4.79601 15.4648 4.83004 15.3502 4.9657C15.2605 5.07192 15.218 5.32664 14.978 5.20007C14.8971 5.15742 14.837 5.07632 14.7656 5.01482C14.7242 4.9791 14.668 4.93139 14.622 4.9717C14.5712 5.01614 14.6207 5.07145 14.656 5.11167C14.7057 5.16829 14.7665 5.2162 14.8105 5.27648C14.891 5.38654 15.1017 5.48948 14.9368 5.64107C14.8124 5.75554 14.6557 5.93976 14.4451 5.84095C14.0301 5.64642 13.6582 5.3331 13.1498 5.42348C13.1016 5.43201 13.0543 5.36817 13.0535 5.30676C13.0524 5.23804 13.1014 5.20992 13.1626 5.20504C13.2562 5.19754 13.3553 5.21123 13.4429 5.18517C13.6833 5.11354 13.8309 4.81645 13.7453 4.60232C13.6459 4.3536 13.0432 4.06439 12.758 4.0971C12.5557 4.12035 12.6877 4.19995 12.6741 4.28592C12.6355 4.52817 12.8286 4.91207 12.3129 4.93279C12.1298 4.9402 12.2748 5.09104 12.3486 5.15939C12.4826 5.2836 12.7962 5.3032 12.7595 5.48414C12.7245 5.65664 12.4188 5.40585 12.2638 5.58154C12.1993 5.65467 12.079 5.66226 12.002 5.59935C11.6995 5.3526 11.5169 5.60873 11.3238 5.76173C10.7493 6.21698 10.773 6.4686 11.4399 6.78998C11.5908 6.86264 11.7298 6.97195 11.8912 7.01123C12.3118 7.1137 12.6701 7.27045 12.7758 7.75157C12.7944 7.83632 12.8991 7.98988 13.0255 7.8712C13.0951 7.80585 13.0956 7.69692 13.0418 7.61807C12.8771 7.3762 12.9082 7.2157 13.1908 7.09204C13.3169 7.03692 13.2786 6.8917 13.2258 6.79092C13.1319 6.61185 13.1679 6.42295 13.1593 6.23704C13.1374 5.76032 13.4051 5.58585 13.8344 5.81235C13.9976 5.89851 14.1854 5.99957 14.2768 6.14667C14.4302 6.39351 14.5507 6.52148 14.8476 6.33745C15.0405 6.21782 15.1777 6.40148 15.2401 6.55092C15.3765 6.87782 15.626 7.08839 15.8798 7.31404C16.0731 7.48589 16.3791 7.6402 16.197 8.00798C16.1381 8.12676 16.2711 8.15301 16.3439 8.20214C16.4705 8.28754 16.5889 8.38214 16.617 8.54507C16.6299 8.61998 16.5815 8.75207 16.5723 8.74495C16.3651 8.58454 16.1177 8.73726 15.9139 8.65551C15.7764 8.60039 15.7687 8.4547 15.8202 8.31257C15.8992 8.09423 15.7848 8.09985 15.622 8.14017C15.5138 8.16698 15.3946 8.18414 15.2859 8.16773C14.8942 8.10876 14.9163 8.24189 15.0353 8.55426C15.141 8.83148 15.2492 8.80982 15.4462 8.69854C15.5384 8.64651 15.6354 8.65823 15.6786 8.76632C15.7195 8.86898 15.6556 8.98907 15.5773 9.00173C15.2836 9.04935 15.0438 9.40326 14.6948 9.15445C14.5898 9.07963 14.4134 9.13645 14.3954 9.21998C14.3241 9.55148 14.0448 9.63876 13.8143 9.79092C13.7708 9.8196 13.7391 9.87839 13.72 9.92995C13.5504 10.3873 13.3081 10.7787 12.9063 11.0861C12.7021 11.2423 12.6889 11.5139 12.8984 11.7384C13.0012 11.8485 13.0303 12.0006 12.8917 12.0799C12.7545 12.1584 12.7352 11.9614 12.6528 11.9005C12.5649 11.8355 12.4907 11.7412 12.435 11.6455C12.2708 11.3635 12.0187 11.3331 11.7502 11.4192C11.5859 11.4719 11.4272 11.5117 11.2559 11.5118C10.9188 11.512 10.6178 11.4953 10.696 12.0229C10.7252 12.2197 10.4437 12.4408 10.7012 12.692C10.8887 12.8749 11.0581 12.9617 11.2946 12.8141C11.3744 12.7643 11.449 12.7059 11.5297 12.6576C11.6473 12.5872 11.7936 12.5332 11.9057 12.6027C12.0777 12.7094 11.9092 12.8435 11.8638 12.936C11.7175 13.2343 11.7463 13.3888 12.1206 13.3857C12.3203 13.3841 12.4318 13.5176 12.4364 13.7139C12.4407 13.8978 12.3627 14.1291 12.5979 14.2002C12.8433 14.2742 13.1547 14.2994 13.3461 14.1464C13.7583 13.817 14.1643 13.8868 14.6074 14.0256C14.7265 14.0629 14.8503 14.0805 14.9749 14.0887C15.6936 14.1361 16.0891 14.8149 16.7489 14.9752C16.9739 15.7539 17.778 15.6335 18.2957 15.9569C18.4298 16.0407 18.6021 16.0837 18.7473 16.1732C19.0271 16.3461 19.1043 16.568 18.8919 16.8285C18.6796 17.089 18.6246 17.3942 18.5343 17.7028C18.3857 18.2099 18.2942 18.7956 17.5652 18.8417C17.3687 18.8542 17.2666 19.0391 17.2085 19.2364C16.9752 20.0284 16.8909 20.1119 16.0353 20.4425C15.9689 20.4682 15.9497 20.4944 15.9714 20.5554C16.1059 20.9317 15.8481 21.0342 15.5754 21.0597C15.3205 21.0836 15.3075 21.2955 15.2063 21.4335C15.0245 21.6817 14.9821 22.0197 14.711 22.2167C14.6941 22.229 14.713 22.338 14.7454 22.3629C14.9207 22.4974 14.843 22.5841 14.7315 22.7242C14.3617 23.1892 14.3684 23.2147 14.7005 23.6984C14.7535 23.7757 14.8561 23.8333 14.6895 23.8893C14.2391 24.0408 13.8163 23.8314 13.6457 23.383C13.5126 23.0333 13.5047 22.6512 13.5977 22.3243C13.7918 21.6416 13.7635 20.9322 13.9285 20.2399C14.0548 19.7099 14.1567 19.1204 14.1651 18.5434C14.1705 18.1824 14.0265 17.9044 13.7406 17.7354C13.4241 17.5483 13.2467 17.2854 13.1274 16.9578C13.0957 16.8708 13.0388 16.7932 12.9988 16.7088C12.8931 16.4862 12.4733 16.4126 12.7143 16.0184C12.8446 15.8052 12.7873 15.4949 13.0274 15.3187C13.182 15.2053 13.1899 15.0403 13.1988 14.8649C13.2083 14.6774 13.1631 14.6002 12.957 14.5801C12.5841 14.5439 12.1933 14.5037 12.1014 14.0166C12.0815 13.9108 11.9547 13.8991 11.8708 13.8822C11.4377 13.7941 11.0961 13.5066 10.5954 13.4883C10.1729 13.4729 9.60346 13.2585 9.38905 12.6958C9.29436 12.4472 9.18843 12.2666 8.79665 12.3459C8.47621 12.4108 8.26827 12.0077 8.15952 11.7157C7.98993 11.2605 7.74815 10.911 7.35655 10.5976C6.93327 10.2589 6.81702 9.70242 6.82771 9.16157C6.83502 8.79201 6.86305 8.44223 6.46555 8.24113C6.38089 8.19829 6.34621 8.12938 6.33449 8.01876C6.28789 7.58001 6.25189 7.55545 5.78596 7.51842C5.63605 7.50651 5.64196 7.3792 5.58683 7.28639C5.24793 6.7162 4.81752 6.29404 4.09836 6.21632C3.83774 6.1881 3.67771 6.32254 3.46968 6.36276C3.24889 6.40542 2.98611 6.30248 3.13124 6.71282C3.17408 6.83414 2.98405 7.01779 2.82861 6.96754C2.54446 6.87557 2.40908 7.02782 2.26339 7.20839C2.22871 7.25142 2.18446 7.3177 2.14255 7.31929C1.62768 7.33889 1.20205 7.68032 0.693645 7.71754L0.660645 7.61976ZM11.364 3.41076C11.2716 3.42632 11.1794 3.44451 11.1154 3.52129C11.0423 3.60885 11.0698 3.70073 11.1308 3.77404C11.3285 4.01132 11.4754 4.30532 11.825 4.37601C11.8928 4.3897 11.8073 4.59623 11.9537 4.56014C12.0251 4.5426 12.0987 4.43667 12.1246 4.35576C12.158 4.25142 12.063 4.17867 11.9745 4.15682C11.6712 4.08201 11.5641 3.86723 11.5316 3.58635C11.5205 3.49045 11.4912 3.4012 11.364 3.41076Z" fill="currnet"/>
<path d="M42.869 17.3644C42.864 17.0878 42.8744 16.851 42.5774 16.7793C42.5412 16.7706 42.4751 16.7509 42.4762 16.7424C42.542 16.1705 42.0379 16.2627 41.7453 16.1078C41.6806 16.0734 41.6262 16.0151 41.5753 15.9603C41.4843 15.8621 41.3785 15.7416 41.4835 15.6154C41.6066 15.4674 41.8034 15.5168 41.8693 15.6498C42.0072 15.9282 42.1782 15.8455 42.4149 15.8246C42.9388 15.7782 43.3591 16.0588 43.6447 16.4723C43.7556 16.6328 44.0671 16.8128 43.9705 16.9193C43.8167 17.0889 43.6188 16.8296 43.444 16.7415C43.3034 16.6706 43.1809 16.7059 43.0881 16.8135C42.9845 16.9337 43.0533 17.0528 43.1121 17.1777C43.3982 17.7865 43.8191 18.3035 44.221 18.8337C44.5951 19.3272 44.6161 19.5998 44.3161 20.1375C44.2607 20.2368 44.2039 20.3355 44.1567 20.4389C43.7946 21.2336 43.1943 21.3316 42.5786 20.7485C42.2874 20.4726 41.9365 20.2565 41.5991 20.0337C41.3888 19.8948 41.1731 19.9614 40.9608 20.0796C40.6155 20.2718 40.2537 20.4083 39.8495 20.4483C39.4076 20.492 39.4025 20.517 39.3403 20.0699C39.2869 19.6854 39.057 19.3499 39.1103 18.9262C39.1527 18.5878 39.2801 18.4198 39.593 18.3309C39.8515 18.2575 40.0939 18.2105 40.2191 17.8593C40.2886 17.6646 40.6551 17.4692 40.96 17.4835C41.1375 17.4919 41.237 17.4644 41.3259 17.3133C41.4653 17.0762 41.705 17.1026 41.932 17.1197C42.0798 17.1308 42.2037 17.1983 42.1674 17.3658C42.0853 17.7435 42.3283 17.8696 42.6059 17.8544C42.9248 17.8369 42.8388 17.5283 42.869 17.3644ZM25.7181 1.32413C25.5365 1.36894 25.2893 1.17506 25.174 1.4536C25.0555 1.73963 25.385 1.81425 25.465 2.00991C25.5097 2.11884 25.6056 2.18025 25.6942 2.25066C25.8539 2.3776 26.0232 2.3971 26.1265 2.21522C26.2855 1.93491 26.458 1.93003 26.6903 2.11069C26.7505 2.15747 26.8345 2.14735 26.8982 2.09475C26.9457 2.05547 26.9718 1.98338 26.9244 1.94794C26.4244 1.57481 26.8717 1.6381 27.0865 1.57969C27.1735 1.55597 27.2527 1.49719 27.3299 1.446C27.3734 1.41722 27.4341 1.3726 27.436 1.33275C27.439 1.27294 27.3644 1.2645 27.3123 1.26103C27.0505 1.24378 26.8048 1.116 26.5083 1.15856C26.2403 1.10231 25.9891 1.25719 25.7181 1.32413ZM9.09958 2.31656C9.01192 2.2185 8.87673 2.19525 8.82283 2.32735C8.61264 2.84222 8.3567 2.45203 8.19714 2.32988C7.77161 2.00428 7.58842 1.98675 7.2272 2.33644C7.07064 2.48803 7.0608 2.5831 7.29517 2.62997C7.60755 2.69241 7.90117 2.78222 8.18373 2.95022C8.52601 3.15375 9.21489 2.96588 9.48901 2.64985C9.53598 2.59997 9.54123 2.55019 9.48883 2.50041C9.32355 2.5141 9.20626 2.43591 9.09958 2.31656ZM38.4699 15.3672C38.4496 15.3817 38.446 15.4401 38.4552 15.4723C38.5277 15.7275 38.6046 15.9835 38.9092 16.0571C39.1725 16.1208 39.3653 16.0493 39.5327 15.8117C39.7424 15.5139 39.6471 15.1605 39.7671 14.8482C39.8114 14.7329 39.6636 14.6718 39.4691 14.6705C39.1668 14.8799 38.8165 15.121 38.4699 15.3672ZM30.3996 17.2563C30.1649 17.4212 29.8396 17.5502 29.719 17.8011C29.5802 18.0901 29.5301 18.4398 29.5502 18.7781C29.5572 18.8969 29.6199 18.9918 29.7486 19.0147C29.9044 19.0424 30.0895 19.0322 30.134 18.8724C30.2575 18.4299 30.4967 18.024 30.5576 17.5907C30.5052 17.4435 30.5543 17.1475 30.3996 17.2563ZM31.5685 3.98175C31.1805 3.55088 31.181 3.46003 31.6211 3.09469C31.8808 2.87916 32.1641 2.69981 32.5018 2.62013C32.646 2.5861 32.7868 2.53116 32.922 2.46985C32.958 2.45353 32.9872 2.37769 32.9848 2.331C32.9802 2.2426 32.9068 2.19675 32.827 2.21635C32.0997 2.39419 31.372 2.57297 30.901 3.23663C30.7126 3.50194 30.7774 3.79041 31.0656 3.93394C31.2235 4.0126 31.3948 3.98747 31.5623 3.98944L31.5685 3.98175ZM46.8823 22.1557C47.018 21.8284 47.265 21.6233 47.5397 21.4193C47.8731 21.1717 47.8492 20.9928 47.5052 20.7203C47.4325 20.6627 47.3597 20.5683 47.2657 20.6112C47.1521 20.6631 47.2244 20.7717 47.2394 20.8581C47.2826 21.1076 47.2492 21.2783 46.9751 21.4231C46.7424 21.5462 46.5768 21.8082 46.402 22.0253C46.2644 22.1963 46.3388 22.3772 46.5529 22.3896C46.6998 22.3915 46.8262 22.2911 46.8823 22.1557ZM42.8651 9.72685C42.7896 9.68335 42.7102 9.69863 42.6706 9.76978C42.4309 10.2016 42.031 10.4125 41.5955 10.5903C41.4175 10.6629 41.2934 10.8128 41.3026 11.0286C41.3062 11.112 41.3526 11.1856 41.4399 11.1468C41.8379 10.97 42.2486 10.8111 42.6195 10.5873C42.8427 10.4527 42.9182 10.1692 42.97 9.94922C42.976 9.82472 42.9335 9.76613 42.8651 9.72685ZM36.7968 1.02019C36.527 0.844033 36.3606 1.01175 36.2597 1.22035C36.1547 1.43728 36.2313 1.62872 36.4857 1.70166C36.6843 1.75856 36.886 1.80413 37.0864 1.85475C37.2027 1.76128 37.2699 1.6335 37.3326 1.50253C37.2087 1.28081 37.0007 1.15322 36.7968 1.02019ZM42.3284 2.61591C42.2173 2.81081 42.4546 2.84053 42.5386 2.94366C42.5739 2.98697 42.6135 3.02728 42.6436 3.07388C42.7281 3.20466 42.8297 3.34172 42.9982 3.2866C43.2065 3.21844 42.949 3.06375 43.0302 2.95781C43.075 2.8995 43.1127 2.83538 43.1603 2.7796C43.2727 2.6475 43.1983 2.57522 43.0747 2.54119C42.9684 2.51194 42.8541 2.51156 42.78 2.50285C42.5962 2.5186 42.4099 2.47294 42.3284 2.61591ZM40.2116 14.0386C40.394 14.1961 40.5596 14.0708 40.6519 13.9595C40.7516 13.839 40.6416 13.6991 40.4956 13.6702C40.2314 13.6178 40.2155 13.4886 40.3072 13.2674C40.3461 13.1736 40.2349 13.093 40.1459 13.0689C40.027 13.0367 39.9845 13.144 39.9549 13.2306C39.931 13.3001 39.9338 13.3789 39.9247 13.4535C39.9062 13.7055 40.0315 13.883 40.2116 14.0386ZM39.7677 15.8561C39.7815 16.0234 39.8053 16.2628 39.987 16.3044C40.0851 16.3269 40.3359 16.2384 40.3194 16.0179C40.3074 15.8565 40.2693 15.6779 40.0434 15.6542C39.9087 15.6608 39.7555 15.7066 39.7677 15.8561Z"/>
</svg>
