<svg width="281" height="175" viewBox="0 0 281 175" fill="none" xmlns="http://www.w3.org/2000/svg">
<path d="M14.3887 92.72L17.6581 89.4506H19.0724L2.88175 105.641L2.47904 104.785L2.44788 104.661L13.9213 93.1874L14.2997 92.9648L14.3887 92.72Z" fill="#FCE148"/>
<path d="M6.20327 112.32L5.69816 111.411L24.4548 92.6539L25.2736 93.2494L6.20327 112.32Z" fill="#FCE148"/>
<path d="M16.498 112.025L16.2165 111.814L15.1272 111.982L36.6997 90.409H38.114L16.498 112.025Z" fill="#FCE148"/>
<path d="M21.7603 116.763L21.0087 116.606L20.84 116.269L42.4466 94.6621L42.9817 95.5412L21.7603 116.763Z" fill="#FCE148"/>
<path d="M29.5945 118.928L28.8041 118.305L58.5683 88.5403L58.7069 88.4921L60.5982 87.9248L29.5945 118.928Z" fill="#FCE148"/>
<path d="M35.0586 123.464L34.7462 122.996L34.3924 122.716L77.8983 79.2104L78.9893 79.5337L35.0586 123.464Z" fill="#FCE148"/>
<path d="M40.202 128.321L39.3663 127.742L89.7982 77.3105H91.2125L40.202 128.321Z" fill="#FCE148"/>
<path d="M44.833 133.69L44.199 132.91L98.9169 78.1917L100.239 77.3105L100.21 76.8986L110.834 66.2747L111.101 66.4483H112.075L44.833 133.69Z" fill="#FCE148"/>
<path d="M49.3381 139.185L48.6309 138.478L123.447 63.6613L124.437 64.0856L49.3381 139.185Z" fill="#FCE148"/>
<path d="M54.3035 144.22L54.2342 144.081L53.6309 143.478L130.447 66.6613L131.437 67.0856L54.3035 144.22Z" fill="#FCE148"/>
<path d="M51.8289 156.694L52.8012 154.307L187.757 19.3517L187.775 19.4852V20.7475L51.8289 156.694Z" fill="#FCE148"/>
<path d="M50.8365 167.687L50.3222 166.787L191.087 26.0219L191.29 26.8332L191.85 26.6731L50.8365 167.687Z" fill="#FCE148"/>
<path d="M55.131 173.392L54.231 172.878L200.23 26.8783L201.514 27.0093L55.131 173.392Z" fill="#FCE148"/>
<path d="M67.6837 170.839L66.6937 170.415L209.317 27.7916H210.731L67.6837 170.839Z" fill="#FCE148"/>
<path d="M79.5263 168.997L75.5405 171.568L218.765 28.344V29.7583L79.5263 168.997Z" fill="#FCE148"/>
<path d="M98.1717 160.351L98.0025 160.374L92.5674 164.541L224.736 32.3726L225.881 32.642L98.1717 160.351Z" fill="#FCE148"/>
<path d="M116.726 151.797L114.121 152.988L187.039 80.0695L186.273 82.2499L116.726 151.797Z" fill="#FCE148"/>
<path d="M130.481 148.042L129.02 148.089L185.539 91.5696V92.9839L130.481 148.042Z" fill="#FCE148"/>
<path d="M158.818 129.705H157.404L184.911 102.198L184.261 104.146L184.287 104.236L158.818 129.705Z" fill="#FCE148"/>
<path d="M168.304 130.219L167.125 129.983L174.984 122.125L174.748 123.775L168.304 130.219Z" fill="#FCE148"/>
<path d="M244.916 63.6067L243.883 63.2259L258.232 48.8771H259.646L244.916 63.6067Z" fill="#FCE148"/>
<path d="M252.224 66.299L251.19 65.9182L260.928 56.1808L260.936 56.225L261.926 56.5966L252.224 66.299Z" fill="#FCE148"/>
<path d="M257.584 70.9388L256.842 70.2664L267.069 60.0396L267.564 60.9589L257.584 70.9388Z" fill="#FCE148"/>
<path d="M262.83 75.6929L262.088 75.0205L270.627 66.4817L271.704 66.8185L262.83 75.6929Z" fill="#FCE148"/>
<path d="M279.354 67.7548L279.146 69.0041L275.606 71.5027L279.354 67.7548Z" fill="#FCE148"/>
<path d="M252.164 46.3591L237.178 61.3449L235.99 61.1186L251.585 45.5234L252.164 46.3591Z" fill="#FCE148"/>
<path d="M246.204 40.9051L246.757 41.7659L228.778 59.7449L227.59 59.5186L246.204 40.9051Z" fill="#FCE148"/>
<path d="M241.456 35.6524L242.183 36.3404L218.771 59.7518L217.298 59.8107L241.456 35.6524Z" fill="#FCE148"/>
<path d="M233.886 33.2227H235.3L207.012 61.5114L204.817 62.2917L233.886 33.2227Z" fill="#FCE148"/>
<path d="M181.687 115.422L175.372 121.737L181.386 116.926L181.687 115.422Z" fill="#FCE148"/>
<path d="M186.545 10.5638L186.716 11.8066L132.186 66.3365V64.9222L186.545 10.5638Z" fill="#FCE148"/>
<path d="M180.002 7.1064L180.668 7.85513L136.871 51.652L136.979 51.1134L136.596 50.5124L180.002 7.1064Z" fill="#FCE148"/>
<path d="M175.189 1.91951L177.134 1.38916L133.997 44.5257L133.721 43.3874L175.189 1.91951Z" fill="#FCE148"/>
<path d="M146.247 10.8615L147.131 11.3919L127.494 31.0293L126.616 30.4929L146.247 10.8615Z" fill="#FCE148"/>
<path d="M141.251 5.85744L142.383 6.1403L136.02 12.5027V11.0885L141.251 5.85744Z" fill="#FCE148"/>
<path d="M65.9403 81.1684L66.704 80.4047L70.7111 77.8118L65.2332 83.2898L65.9403 81.1684Z" fill="#FCE148"/>
<path d="M131.366 35.743L155.305 11.8039L156.912 11.611L131.91 36.6134L131.366 35.743Z" fill="#FCE148"/>
<path d="M99.5579 67.5507L104.773 62.3353L105.631 62.8924L99.6502 68.8728L99.5579 67.5507Z" fill="#FCE148"/>
<path d="M164.046 4.47689L164.134 3.83087L164.754 3.76888L164.046 4.47689Z" fill="#FCE148"/>
<path d="M274.253 72.8376L279.684 69.0039L279.897 67.726L276.169 68.0455L271.058 66.4481L266.585 58.1417L261.473 56.2249L260.196 48.8769H254.445L251.57 44.7237L248.375 43.4458L245.5 38.9731L239.43 33.2226H228.887L223.456 31.9446L219.303 30.3473V27.7915H209.718L194.064 26.1941L191.828 26.833L191.189 24.2772L188.313 23.6383V19.4851L187.035 10.2202L181.604 8.30339L179.048 5.4281L178.09 1.2749L171.062 3.19176L164.672 3.83071L163.714 10.8592L155.727 11.8176L149.976 12.7761L146.781 10.8592L145.184 6.706L140.072 5.4281L136.558 8.30339V15.9708L133.683 20.124L127.932 24.2772L124.737 26.1941L123.779 28.4304L129.53 31.9446L132.724 37.0563L135.28 47.599L137.517 51.1132L136.558 55.9054L132.724 58.1417L131.766 61.3365L132.724 64.5313V67.4065L123.779 63.5728H120.265L116.751 66.4481H111.639L105.249 62.2949H100.777L99.8183 63.5728L100.777 77.3103L96.943 79.8661L92.4704 77.3103H87.0393L80.6497 79.8661L72.0239 77.3103L66.5928 80.8246L65.6343 83.6998L62.4396 87.5336L59.2448 88.492L51.8968 91.0478L48.3826 97.7568H44.8684L40.3957 90.4089H37.2009L32.0893 94.562H27.6166L20.5881 89.4504H16.1155L14.8376 92.9647L9.40647 96.1594L1.41956 99.9931L2.05851 100.952L3.01694 104.785L5.57275 110.216L7.17013 113.092L10.0454 113.731L12.6012 112.453L16.7544 111.814L20.5881 114.689L21.5466 116.606L29.214 118.203L35.2841 122.995L37.2009 125.871L41.3541 128.746L45.5073 133.858L47.4242 134.177L48.3826 137.691L54.7721 144.081L56.05 146.637L54.7721 150.79L51.2579 159.416L50.2995 165.805L54.1332 172.514L56.3695 173.792L60.5227 170.278H66.9122L73.6212 173.153L83.525 166.764L88.9561 167.722L98.5404 160.374L105.569 159.416L109.083 155.263L113.875 153.346L125.057 148.234L134.961 147.915L139.114 142.164L145.503 138.969L151.893 131.941L157.005 129.704H166.269L174.256 131.302L173.937 129.066L174.895 126.51L175.534 122.037L181.924 116.925L182.563 113.731L186.077 108.619L184.799 104.146L186.077 100.313V84.3388L190.23 72.5182L197.259 65.1702L211.635 60.0586L227.609 59.4196L241.027 61.9754L253.167 66.4481L263.39 75.7129L268.182 76.0324L274.253 72.8376Z" stroke="#FCE148" stroke-linecap="round"/>
<circle cx="174.486" cy="103.241" r="4" fill="white"/>
<ellipse cx="174.487" cy="103.241" rx="2.00027" ry="2" fill="#1B242D"/>
</svg>
