<svg width="185" height="224" viewBox="0 0 185 224" fill="none" xmlns="http://www.w3.org/2000/svg">
<path d="M4.03776 34.2174L6.03453 32.2207L7.09524 32.5742L1.21209 38.4574L1.42054 36.8592L3.97636 34.3034L4.03776 34.2174Z" fill="#E85C4B"/>
<path d="M1.21214 48.4573L1 47.2552L11.396 36.8592H11.9633V37.7062L1.21214 48.4573Z" fill="#E85C4B"/>
<path d="M1.3965 58.273L1.07714 57.178L15.32 42.9352L16.1221 43.5473L1.3965 58.273Z" fill="#E85C4B"/>
<path d="M4.81555 64.8539L4.10842 64.1468L20.9917 47.2635L21.7938 47.8757L4.81555 64.8539Z" fill="#E85C4B"/>
<path d="M9.30402 70.3655L8.27545 69.9797L26.7781 51.4771L27.6162 52.0533L9.30402 70.3655Z" fill="#E85C4B"/>
<path d="M13.7887 75.8808L13.1601 75.0951L32.0411 56.2141L32.7199 56.9495L13.7887 75.8808Z" fill="#E85C4B"/>
<path d="M15.0954 84.5741L14.9979 83.2573L38.4212 59.834L38.4798 59.8615H39.8079L15.0954 84.5741Z" fill="#E85C4B"/>
<path d="M12.2827 95.9724L13.9322 94.3229L14.8414 94.828L12.2827 97.3867V95.9724Z" fill="#E85C4B"/>
<path d="M15.9553 103.714L15.2987 102.957L64.2213 54.0339L68.9784 50.6911L15.9553 103.714Z" fill="#E85C4B"/>
<path d="M18.7248 110.945L18.3637 109.891L115.241 13.0144L116.125 13.5447L18.7248 110.945Z" fill="#E85C4B"/>
<path d="M17.1746 122.495L16.3889 121.866L120.342 17.9127L120.762 18.9079L17.1746 122.495Z" fill="#E85C4B"/>
<path d="M21.9024 127.767L21.6666 126.589L124 24.255L124.621 25.0484L21.9024 127.767Z" fill="#E85C4B"/>
<path d="M25.4444 134.225L25.3813 133.341L25.1781 133.077L127.98 30.2754L128.272 31.3971L25.4444 134.225Z" fill="#E85C4B"/>
<path d="M29.9151 139.754L29.0579 139.197L121.004 47.2511L121.068 48.6011L29.9151 139.754Z" fill="#E85C4B"/>
<path d="M36.7095 142.96L35.2851 143.245L35.1185 143.137L123.229 55.0257L123.779 55.89L36.7095 142.96Z" fill="#E85C4B"/>
<path d="M42.9306 146.739L42.1973 146.058L128.24 60.0155L129.223 60.446L42.9306 146.739Z" fill="#E85C4B"/>
<path d="M43.5914 156.078V155.066L43.4193 154.836L136.032 62.2235L136.61 63.0592L43.5914 156.078Z" fill="#E85C4B"/>
<path d="M43.5914 166.078V164.664L140.123 68.1326L140.701 68.9683L43.5914 166.078Z" fill="#E85C4B"/>
<path d="M47.0874 172.582L46.7339 171.521L142.669 75.586L142.967 76.7026L47.0874 172.582Z" fill="#E85C4B"/>
<path d="M47.4252 182.244V181.263L47.5333 180.722L143.81 84.4451L143.866 85.8035L47.4252 182.244Z" fill="#E85C4B"/>
<path d="M53.8196 185.85L53.2892 184.966L144.205 94.0503L144.261 95.4088L53.8196 185.85Z" fill="#E85C4B"/>
<path d="M58.2027 191.467L57.9199 190.335L144.793 103.462L145.05 104.62L58.2027 191.467Z" fill="#E85C4B"/>
<path d="M65.9049 193.765L65.0967 193.158L142.271 115.985L143.243 116.426L65.9049 193.765Z" fill="#E85C4B"/>
<path d="M71.6191 198.05L70.811 197.444L151.888 116.367L152.852 116.728L152.875 116.795L71.6191 198.05Z" fill="#E85C4B"/>
<path d="M77.0132 202.656L76.817 202.348H75.9071L156.354 121.901L157.532 122.137L77.0132 202.656Z" fill="#E85C4B"/>
<path d="M85.724 203.945H84.3097L168.652 119.604H170.066L85.724 203.945Z" fill="#E85C4B"/>
<path d="M92.7259 206.944L91.91 206.345L177.426 120.829L177.897 121.772L92.7259 206.944Z" fill="#E85C4B"/>
<path d="M101.36 208.309L100.083 208.172L182.403 125.852L183.205 126.465L101.36 208.309Z" fill="#E85C4B"/>
<path d="M107.799 211.87L106.935 211.32L173.938 144.317V145.481L173.594 146.076L107.799 211.87Z" fill="#E85C4B"/>
<path d="M114.935 214.735L113.874 214.381L157.131 171.124L157.73 171.94L114.935 214.735Z" fill="#E85C4B"/>
<path d="M120.493 219.176L119.716 218.54L129.364 208.891L130.072 209.598L120.493 219.176Z" fill="#E85C4B"/>
<path d="M127.678 221.992L126.556 221.699L131.888 216.367L131.827 217.843L127.678 221.992Z" fill="#E85C4B"/>
<path d="M152.762 186.907L151.588 188.082L149.019 189.249H149.006L153.391 184.865L152.762 186.907Z" fill="#E85C4B"/>
<path d="M159.881 178.374L158.302 179.954L159.881 178.707V178.374Z" fill="#E85C4B"/>
<path d="M139.06 199.195L134.629 203.626H134.642L138.795 200.431L139.06 199.195Z" fill="#E85C4B"/>
<path d="M125.697 43.9726L124.504 45.1656H123.09L129.173 39.0823L128.971 40.6986L127.506 42.163L125.697 43.2487V43.9726Z" fill="#E85C4B"/>
<path d="M108.551 9.70371H109.966L79.456 40.2135L80.9881 37.267L108.551 9.70371Z" fill="#E85C4B"/>
<path d="M103.89 4.36523L104.533 5.13665L88.6929 20.9765L89.3457 18.9095L103.89 4.36523Z" fill="#E85C4B"/>
<path d="M48.8767 59.3785L15.158 93.0972V94.5114L50.8213 58.8482L48.8767 59.3785Z" fill="#E85C4B"/>
<path d="M8.02848 32.7058L6.11162 32.0669L4.51424 34.3032L1.95843 36.859L1 44.207L1.95843 49.6381L1 55.0692L3.23634 62.7366L6.75058 66.2508L7.38953 69.4456L9.94534 70.404L15.057 76.7936L15.6959 85.4194V95.0037L12.8206 93.4063V99.4764L16.9738 104.269L20.8075 115.45L15.6959 120.881L22.0854 125.993L22.7244 129.188L25.9192 133.341L26.2386 137.814L29.4334 139.091L35.8229 143.245L39.0177 142.606L43.4904 146.759L42.2125 152.51L44.1293 155.065V159.857V166.566L46.3657 168.803L48.9215 176.47L47.963 181.262V183.818L52.7552 183.179L55.6305 187.971L58.1863 189.249L58.8252 191.805L64.2564 192.125L73.2017 198.834L74.4796 202.348H77.3549L79.5912 205.862L84.0639 203.945H89.1755L93.9677 207.459L102.913 208.418L109.941 212.891L115.692 214.807L122.721 220.558L130.069 222.475L131.027 222.874L132.305 219.28L132.624 211.613L129.43 208.418L130.388 203.626H135.18L139.333 200.431L140.292 195.958L143.806 193.402L145.723 189.249H149.557L153.071 187.652L154.349 183.499L160.419 178.707V174.873L156.905 170.081V164.969L160.738 160.816L170.962 151.551L174.476 145.481V136.855L175.754 135.577L182.463 135.258L184.38 133.341V126.951L178.948 122.798L177.351 119.603H169.045L165.211 121.52L161.697 120.242L158.182 122.159L154.988 121.52L153.39 116.728L150.834 115.77L144.445 116.728L140.931 115.131L141.57 111.297L146.362 108.102L145.084 102.352L144.125 79.0299L141.57 69.4456L135.819 61.1392H131.346L126.235 58.9029L121.762 51.8744L121.443 45.1654H126.235V43.2485L129.43 41.3317L130.069 36.2201L128.152 28.8721L122.401 21.5241L119.845 15.4541L115.053 12.5788L110.58 9.7035H107.386L106.427 9.06455V5.23083H105.149L103.552 3.31397L101.955 1.07764L99.3988 3.31397V7.46717L95.8845 12.5788L90.7729 16.093L86.9392 28.2331L84.0639 32.3863L79.9107 40.3732L71.9238 48.9991L60.1032 57.3055L54.6721 57.9445L47.6436 59.8613H39.0177L33.5866 57.3055L29.7529 53.1523L24.6413 49.6381L12.5012 40.3732V36.859H11.5427L8.02848 32.7058Z" stroke="#E85C4B" stroke-linecap="round"/>
<circle cx="61.5181" cy="175.84" r="4" fill="white"/>
<ellipse cx="61.5183" cy="175.84" rx="2.00027" ry="2" fill="#1B242D"/>
</svg>
