<svg width="378" height="320" viewBox="0 0 378 320" fill="none" xmlns="http://www.w3.org/2000/svg">
<path d="M18.9679 166.141L20.1301 164.978L21.8979 164.625L18.9679 167.555V166.141Z" fill="#5BAC54"/>
<path d="M2.67456 182.434L14.482 170.627L16.0626 170.46L2.67456 183.848V182.434Z" fill="#5BAC54"/>
<path d="M3.3543 193.169L3.07145 192.037L35.5304 159.578L36.3018 160.221L3.3543 193.169Z" fill="#5BAC54"/>
<path d="M7.07804 199.445L6.34473 198.764L84.2045 120.904L85.442 121.081L7.07804 199.445Z" fill="#5BAC54"/>
<path d="M4.27194 212.251V210.837L93.66 121.449L95.2156 121.307L4.27194 212.251Z" fill="#5BAC54"/>
<path d="M6.1021 220.421L5.54498 219.564L103.486 121.623L104.795 121.728L6.1021 220.421Z" fill="#5BAC54"/>
<path d="M8.50404 228.019L8.47685 226.632L115.297 119.811L117.997 118.526L8.50404 228.019Z" fill="#5BAC54"/>
<path d="M8.69635 237.826L8.66915 236.439L130.375 114.734H131.104L132.382 113.775L132.793 113.73L8.69635 237.826Z" fill="#5BAC54"/>
<path d="M11.1302 245.393L10.2817 244.827L148.002 107.107L149.328 107.195L11.1302 245.393Z" fill="#5BAC54"/>
<path d="M15.3735 251.149L15.0907 250.018L163.154 101.955H164.568L15.3735 251.149Z" fill="#5BAC54"/>
<path d="M27.1356 249.387L25.191 249.918L178.266 96.843H179.68L27.1356 249.387Z" fill="#5BAC54"/>
<path d="M31.5363 254.986L30.8708 254.238L198.931 86.1777L202.466 84.0564L31.5363 254.986Z" fill="#5BAC54"/>
<path d="M37.9196 258.603L37.817 257.859L37.3975 257.711L235.594 59.5148L235.892 59.7837H236.739L37.9196 258.603Z" fill="#5BAC54"/>
<path d="M39.0949 267.428V267.124L38.9603 266.148L246.199 58.9091L246.907 59.6162L39.0949 267.428Z" fill="#5BAC54"/>
<path d="M42.4975 274.025L42.2146 272.894L141.658 173.451L141.375 175.148L42.4975 274.025Z" fill="#5BAC54"/>
<path d="M51.9635 274.559L50.6802 274.428L131.424 193.685V195.099L51.9635 274.559Z" fill="#5BAC54"/>
<path d="M61.0925 275.43H60.4998L59.7543 275.354L131.317 203.792L131.122 205.401L61.0925 275.43Z" fill="#5BAC54"/>
<path d="M70.0841 276.439V275.43H69.6782L130.532 214.576L130.894 215.629L70.0841 276.439Z" fill="#5BAC54"/>
<path d="M76.4246 280.098L75.2798 279.829L133.09 222.018L133.452 223.071L76.4246 280.098Z" fill="#5BAC54"/>
<path d="M85.6614 280.861H84.2471L135.31 229.798L136.23 230.293L85.6614 280.861Z" fill="#5BAC54"/>
<path d="M93.0099 283.513L92.2837 282.825L140.194 234.914L140.625 235.898L93.0099 283.513Z" fill="#5BAC54"/>
<path d="M97.7015 288.821L97.1481 287.96L143.238 241.871L143.244 241.885L144.335 242.188L97.7015 288.821Z" fill="#5BAC54"/>
<path d="M103.091 293.432L102.513 292.596L149.587 245.522L149.905 246.618L103.091 293.432Z" fill="#5BAC54"/>
<path d="M110.007 296.516H108.593L151.837 253.272L151.87 253.386L152.415 254.108L110.007 296.516Z" fill="#5BAC54"/>
<path d="M112.549 303.974L112.255 303.864L112.105 303.003L156.11 258.998L156.719 259.804L112.549 303.974Z" fill="#5BAC54"/>
<path d="M118.548 307.975L118.053 307.055L160.414 264.695L161.023 265.5L118.548 307.975Z" fill="#5BAC54"/>
<path d="M122.294 314.229L121.839 314.087L121.553 313.555L166.298 268.81L166.819 269.703L122.294 314.229Z" fill="#5BAC54"/>
<path d="M150.508 306.015L147.977 307.132L176.523 278.585L177.331 279.191L150.508 306.015Z" fill="#5BAC54"/>
<path d="M160.103 306.42H159.857L159.114 305.995L180.314 284.795L180.799 285.724L160.103 306.42Z" fill="#5BAC54"/>
<path d="M170.731 305.792L170.719 305.781L169.201 305.907L184.922 290.187L185.191 291.332L170.731 305.792Z" fill="#5BAC54"/>
<path d="M175.866 310.657L175.14 309.969L189.349 295.76L189.423 297.1L175.866 310.657Z" fill="#5BAC54"/>
<path d="M183.549 312.974L182.733 312.376L191.937 303.172L192.511 304.012L183.549 312.974Z" fill="#5BAC54"/>
<path d="M189.209 317.314L188.423 316.685L192.766 312.343L193.023 313.5L189.209 317.314Z" fill="#5BAC54"/>
<path d="M171.617 274.906L136.657 309.866L136.216 309.934L134.915 310.194L170.809 274.3L171.617 274.906Z" fill="#5BAC54"/>
<path d="M130.865 314.243L130.678 315.365L129.656 315.453L130.865 314.243Z" fill="#5BAC54"/>
<path d="M371.336 15.1864L361.63 24.8927L360.687 24.4213L370.588 14.5209L371.336 15.1864Z" fill="#5BAC54"/>
<path d="M373.248 1.86052L375.184 1L375.378 1.1451L345.33 31.1929L344.195 31.0308L341.32 34.8645H340.244L373.248 1.86052Z" fill="#5BAC54"/>
<path d="M328.109 16.9992L328.541 16.9738L329.084 17.4392L242.468 104.055L239.791 105.318L328.109 16.9992Z" fill="#5BAC54"/>
<path d="M309.489 25.62L309.692 25.5997L310.239 26.2839L219.376 117.147L217.682 117.609L213.248 123.274L208.884 127.639L203.945 131.985L202.641 133.882L197.249 139.274L194.36 141.25L194.491 142.032L176.16 160.363L174.641 160.468L309.489 25.62Z" fill="#5BAC54"/>
<path d="M294.242 30.8661L296.156 30.367L288.537 37.9854L290.523 35.5035L290.706 34.4021L294.242 30.8661Z" fill="#5BAC54"/>
<path d="M282.975 42.1336L285.282 39.8265L286.343 40.1801L167.172 159.35L166.156 158.953L279.509 45.5994L282.855 42.5319L282.975 42.1336Z" fill="#5BAC54"/>
<path d="M263.312 51.7968H264.326L265.393 51.1298L157.124 159.399L155.927 159.181L263.312 51.7968Z" fill="#5BAC54"/>
<path d="M185.803 159.306L187.013 159.141L187.641 158.882L192.741 153.782L192.89 152.219L185.803 159.306Z" fill="#5BAC54"/>
<path d="M260.504 94.6042L338.87 16.2385L340.355 16.1678L262.272 94.2506L260.504 94.6042Z" fill="#5BAC54"/>
<path d="M275.418 89.6906L275.827 89.495L276.559 88.5498L275.418 89.6906Z" fill="#5BAC54"/>
<path d="M295.219 69.8893L296.857 69.666L315.621 50.9017L315.762 50.1994L316.745 49.778L318.193 48.3296L318.579 46.5297L295.219 69.8893Z" fill="#5BAC54"/>
<path d="M322.186 42.923L353.246 11.8622H353.46L356.016 9.30639L357.697 8.82608L325.485 41.0374L322.186 42.923Z" fill="#5BAC54"/>
<path d="M359.574 6.94879L361.447 4.51424L362.445 4.07727L359.574 6.94879Z" fill="#5BAC54"/>
<path d="M346.112 10.4109V10.2648L346.842 9.68037L346.112 10.4109Z" fill="#5BAC54"/>
<path d="M228.504 58.019L228.225 58.1863L228.218 58.3052L228.504 58.019Z" fill="#5BAC54"/>
<path d="M63.4427 131.666H64.0141L66.2504 129.11H67.4127L44.5456 151.977L43.9171 151.191L63.4427 131.666Z" fill="#5BAC54"/>
<path d="M44.2339 142.289L43.5676 141.889L40.6923 145.403L40.7777 145.745L44.2339 142.289Z" fill="#5BAC54"/>
<path d="M0.656616 178.629L3.21243 175.434M3.21243 175.434H6.40719L7.6851 170.962L10.5604 169.364L11.8383 170.962L17.9083 170.323L19.5057 168.406V165.211L25.8953 163.933L31.3264 161.697L33.2432 160.419V158.821H35.1601L37.0769 160.419H40.5912L41.2301 156.266L46.0223 155.307L45.7028 152.751L41.8691 147.959L41.2301 145.403L44.1054 141.889L45.7028 142.848L47.6197 142.528L48.5781 141.57L50.495 141.25L51.1339 139.972L54.3287 139.653L61.0377 133.583L61.6766 131.666H64.5519L66.7883 129.11H69.3441L70.9415 126.235L75.0947 125.596L77.0115 123.36H79.5673L81.8037 122.401L84.04 120.804L90.749 121.762L97.7775 121.123L105.764 121.762L113.751 120.804L120.46 117.609H124.294L127.489 114.734H131.642L132.92 113.775L135.795 113.456L137.073 111.539L142.185 111.219L144.741 108.664H146.338L147.935 107.066L152.727 107.386L154.325 106.427L157.2 106.108L161.992 101.955H166.648L171.257 97.8014L173.813 99.0793L176.369 96.843H180.522L184.995 93.3287L186.272 91.0924H189.148L190.745 89.495H193.301L196.176 85.9808L198.732 86.6197L203.524 83.7444H208.636L214.706 78.9523L215.984 74.7991L222.373 68.0901L223.012 65.5343H225.888L228.443 63.2979L228.763 58.1863L230.36 57.2279L233.236 56.9084L236.43 59.7837H239.625L241.861 57.8668L243.459 59.4642L246.015 58.1863L247.931 60.1032L251.446 59.1447L256.238 54.3526L261.349 53.7136L262.947 51.7968H264.864L267.42 50.1994L270.295 52.1162L275.726 47.3241L279.56 46.0462L283.393 42.5319L284.352 39.3372L287.227 40.2956L291.061 35.5035L291.7 31.6697L299.048 29.7529L300.965 26.2386H303.84L310.229 25.5997L311.507 27.1971L315.341 24.0023L317.577 23.0439L318.216 21.127L320.772 19.5296L323.647 17.2933L329.079 16.9738L331.315 18.8907H333.551L337.385 16.3349L344.094 16.0154L346.65 13.4596V10.2648L348.247 8.98691L349.844 9.30639L351.442 11.8622H353.998L356.553 9.30639L358.79 8.66744L361.985 4.51424L367.096 2.27791H372.847L375.722 1L377 1.95843L372.847 6.75058V8.34796L373.805 10.9038L370.291 13.7791L373.166 16.3349L371.249 21.127L370.291 23.0439L368.694 23.3634L366.457 25.9192H364.221L361.026 24.3218L356.234 27.5166H352.081L346.969 31.3503L344.733 31.0308L341.858 34.8645H335.149L328.44 39.6567L319.494 44.7683L318.536 49.241L316.299 50.1994L315.341 54.9915L312.466 61.3811L305.437 64.2563L301.923 69.0485L294.895 70.0069L284.032 79.5912L276.365 89.495L269.017 93.0092L261.03 94.6066L250.168 100.677L233.236 108.664L225.249 115.692L218.22 117.609L212.47 124.957L204.483 131.985L200.968 137.097L194.898 141.25L195.857 147.001L193.62 150.196L192.981 156.905L187.55 159.141L180.522 160.099L171.257 160.738L163.909 157.863L159.756 159.78L156.242 159.141L150.811 163.614L142.504 171.6L141.546 177.351L136.754 182.463L136.434 185.338L131.961 188.852V202.909L130.684 213.452L134.198 223.675L135.156 229.426L139.309 231.662L143.782 241.885L149.533 243.483L152.408 253.386L163.27 267.763L166.784 268.721L169.021 272.555L177.966 279.264L181.8 286.612L184.995 288.209L186.272 293.64L189.787 293.96L190.106 299.711L194.259 305.781L190.745 307.059L192.981 310.892L193.62 313.768L197.454 314.726L196.815 318.24L194.259 318.56L192.981 315.045L190.106 317.601L186.911 315.045L182.119 311.531H177.327L171.257 305.781L163.59 306.42H160.395L155.922 303.864L145.06 308.656L136.754 309.934L131.961 310.892L131.216 315.365L127.489 315.684L122.377 314.087L117.905 305.781L112.793 303.864L111.515 296.516H105.764L102.889 292.363L99.6943 291.085L96.8191 286.612L90.749 280.861H80.2063L74.7752 279.584L70.622 277.986V275.43H61.0377L45.3833 273.833L43.147 274.472L42.508 271.916L39.6328 271.277V267.124L38.3548 257.859L32.9237 255.942L30.3679 253.067L29.4095 248.914L22.381 250.831L15.9915 251.47L15.3525 248.914L13.1162 246.358L9.28248 243.802H5.76824V242.524L9.28248 240.288L8.96301 223.995L4.80981 217.605V210.577L9.28248 203.868V200.992L4.80981 196.839L3.21243 190.45V175.434Z" stroke="#5BAC54" stroke-linecap="round"/>
<circle cx="133.657" cy="253" r="4" fill="white"/>
<ellipse cx="133.657" cy="253" rx="2.00027" ry="2" fill="#1B242D"/>
</svg>
