<svg width="269" height="76" viewBox="0 0 269 76" fill="none" xmlns="http://www.w3.org/2000/svg">
<path d="M0.184082 4.0709L1.53135 2.72363L2.3395 3.32974L0.240652 5.42859L0.184082 4.0709Z" fill="#65BA90"/>
<path d="M0.640652 15.0286L0.584082 13.6709L7.86578 6.38921L8.60658 7.06266L0.640652 15.0286Z" fill="#65BA90"/>
<path d="M1.04065 24.6286L0.984082 23.2709L15.6939 8.56108L16.4894 9.17982L1.04065 24.6286Z" fill="#65BA90"/>
<path d="M5.35048 30.3188L5.28313 28.9719L21.3189 12.9361L22.1144 13.5548L5.35048 30.3188Z" fill="#65BA90"/>
<path d="M5.82667 39.8426L5.75932 38.4957L26.9635 17.2915H28.3778L5.82667 39.8426Z" fill="#65BA90"/>
<path d="M6.28151 49.3877L6.21723 48.0378L35.6856 18.5694H37.0999L6.28151 49.3877Z" fill="#65BA90"/>
<path d="M6.92511 58.7441L5.95247 58.3025L44.0882 20.1668H44.4899L44.9572 20.712L6.92511 58.7441Z" fill="#65BA90"/>
<path d="M13.8024 61.8668L12.8298 61.4252L50.7823 23.4727L51.7251 23.9441L13.8024 61.8668Z" fill="#65BA90"/>
<path d="M22.0537 63.6156H20.6394L60.0833 24.1716L61.824 23.8453L22.0537 63.6156Z" fill="#65BA90"/>
<path d="M32.0537 63.6156H30.6394L74.1737 20.0813L75.6792 19.99L32.0537 63.6156Z" fill="#65BA90"/>
<path d="M45.2808 60.3884L45.1289 60.1013L44.6413 59.6137L82.1629 22.092L83.1647 22.5045L45.2808 60.3884Z" fill="#65BA90"/>
<path d="M49.4259 66.2433L48.4831 65.7719L89.7707 24.4843L90.4945 24.6394L90.8692 24.8L49.4259 66.2433Z" fill="#65BA90"/>
<path d="M57.0043 68.6649L55.8594 68.3955L102.324 21.9307L103.132 22.5368L57.0043 68.6649Z" fill="#65BA90"/>
<path d="M69.4979 66.1714H68.0836L109.734 24.521L110.627 25.0421L69.4979 66.1714Z" fill="#65BA90"/>
<path d="M76.3031 69.3661H74.8888L116.421 27.8342H117.835L76.3031 69.3661Z" fill="#65BA90"/>
<path d="M92.0537 63.6156H91.1335L89.7501 64.5049L126.429 27.8257L127.927 27.7425L92.0537 63.6156Z" fill="#65BA90"/>
<path d="M97.4962 68.1731L96.9522 67.3028L136.436 27.8188L137.341 28.3279L97.4962 68.1731Z" fill="#65BA90"/>
<path d="M105.254 70.4157L105.19 70.3246L104.155 70.0996L145.406 28.8489L146.585 29.0846L105.254 70.4157Z" fill="#65BA90"/>
<path d="M111.943 73.7264L110.941 74.4778H109.777L113.497 70.7581V72.1724L111.943 73.7264Z" fill="#65BA90"/>
<path d="M126.769 68.9005L126.062 68.1934L161.948 32.3069H163.362L126.769 68.9005Z" fill="#65BA90"/>
<path d="M134.434 71.2348L133.2 71.0548L171.947 32.308L171.961 32.3069L173.235 32.4343L134.434 71.2348Z" fill="#65BA90"/>
<path d="M143.162 72.5075L141.927 72.3276L180.611 33.6438L182.379 33.2903L143.162 72.5075Z" fill="#65BA90"/>
<path d="M154.706 70.9635H153.291L192.907 31.3484H194.321L154.706 70.9635Z" fill="#65BA90"/>
<path d="M161.262 74.4075L159.821 74.4778L159.797 74.4577L202.068 32.1866L204.021 31.6478L161.262 74.4075Z" fill="#65BA90"/>
<path d="M171.621 73.9022L170.134 73.9747L213.399 30.7095H213.493L217.007 28.4732L217.056 28.4671L185.463 60.0602L185.06 60.4208L185.058 60.4652L176.476 69.0467H176.114L175.39 70.1324L171.621 73.9022Z" fill="#65BA90"/>
<path d="M199.945 55.5774L198.62 55.489L227.073 27.0351L228.189 26.8758L228.494 27.0285L199.945 55.5774Z" fill="#65BA90"/>
<path d="M208.789 56.7339L208.259 55.85L239.267 24.8411L241.649 23.8734L208.789 56.7339Z" fill="#65BA90"/>
<path d="M219.894 55.6287H218.48L250.428 23.681H251.83L251.859 23.6636L219.894 55.6287Z" fill="#65BA90"/>
<path d="M238.1 47.4223L236.52 47.5887L240.648 43.46V44.8743L238.1 47.4223Z" fill="#65BA90"/>
<path d="M258.157 37.366L257.385 36.7232L265.74 28.3688L266.368 29.1545L258.157 37.366Z" fill="#65BA90"/>
<path d="M262.522 23.0005L243.978 41.5447L242.21 41.8983L261.557 22.5514L262.373 22.4031L262.522 23.0005Z" fill="#65BA90"/>
<path d="M153.949 31.7206L115.345 70.3246H113.93L152.497 31.7578L152.792 31.9874L153.949 31.7206Z" fill="#65BA90"/>
<path d="M68.5923 17.0769L68.4506 16.972L68.3802 17.289L68.5923 17.0769Z" fill="#65BA90"/>
<path d="M6.37106 39.9744L7.01001 53.3924L6.37106 58.2485L18.1917 63.6157H32.8876L42.4719 60.1014L43.1109 57.5456L45.6667 60.1014L48.542 65.5325L52.3757 67.4494L57.8068 68.7273L63.5574 66.1715H70.9053L73.1417 68.0883V69.3662H82.7259L91.6713 63.6157H94.8661L96.7829 66.1715L98.3803 68.7273L105.728 70.3247L108.604 74.4779H111.479L114.035 72.561V70.3247H118.507L120.105 67.4494L121.383 65.5325H123.938L128.731 70.3247L144.065 72.561V75.1168H147.899L153.011 70.9636H156.206L160.359 74.4779L173.457 73.8389L176.652 69.0468H184L185.278 67.4494L185.597 60.4209L191.667 54.9898L201.252 55.6287L208.28 54.9898L210.197 58.1846H212.114L214.67 55.6287H222.337L224.893 52.434H228.088L229.366 47.9613L232.241 46.3639L233.519 47.9613L239.589 47.3223L241.186 45.4055V42.2107L247.576 40.9328L253.007 38.6965L254.924 37.4186V35.8212H256.841L258.758 37.4186H262.272L262.911 33.2654L267.703 32.307L267.383 29.7511L263.55 24.959L262.911 22.4032L259.396 23.0421L257.799 21.7642H255.563L252.368 23.6811H249.493L247.576 21.7642H246.298L245.02 22.7227L234.797 26.8759L229.366 27.1953L228.727 26.8759L226.49 27.1953L223.615 28.4732L221.379 26.8759L220.101 28.1538L217.545 28.4732L214.031 30.7096H207.961L198.696 33.2654L195.501 31.3485H187.514L184.639 32.9459L179.847 33.9043L178.249 31.9875L175.694 32.6264L172.499 32.307L168.346 32.6264L165.79 31.029L164.192 32.307H160.359L157.483 31.029L153.33 31.9875L150.455 29.7511L145.663 28.7927L139.273 29.1122L134.162 26.2369L132.564 27.5148L126.814 27.8343L123.938 25.5979L120.744 27.8343H115.952L108.284 23.3616H104.77L102.214 21.4448L99.9777 23.6811L97.7413 24.32L95.505 26.5564L91.0323 24.6395L86.5597 23.6811L81.1286 21.4448L78.5728 19.8474L73.3009 20.1668L68.9885 16.9721L68.3495 19.8474L63.2379 23.6811L58.1263 24.6395L52.3757 24.0006L49.8199 22.7227L46.9446 22.4032L45.0277 20.1668H42.4719L39.9161 17.9305L38.3187 18.5695H31.2902L29.6928 17.2916H25.8591L24.5812 15.0552L15.9554 8.34621L10.2048 8.02674L6.69054 4.83197L4.4542 4.5125L0.620483 1.63721L1.57891 24.6395L5.73211 27.1953L6.37106 39.9744Z" stroke="#65BA90" stroke-linecap="round"/>
<circle cx="132.772" cy="38.0776" r="4" fill="white"/>
<ellipse cx="132.772" cy="38.0776" rx="2.00027" ry="2" fill="#1B242D"/>
</svg>
