<svg width="366" height="175" viewBox="0 0 366 175" fill="none" xmlns="http://www.w3.org/2000/svg">
<path d="M3.23206 57.023L11.8579 48.3972H13.2722L4.64633 57.023H3.23206Z" fill="#B2CD4C"/>
<path d="M10.9251 60.7442L10.0412 60.2139L29.2059 41.0492H30.6201L10.9251 60.7442Z" fill="#B2CD4C"/>
<path d="M15.6669 66.0024L15.2479 65.0072L37.9987 42.2564L38.7395 42.9299L15.6669 66.0024Z" fill="#B2CD4C"/>
<path d="M19.4809 72.1885L18.86 71.3951L44.6016 45.6535L45.5444 46.125L19.4809 72.1885Z" fill="#B2CD4C"/>
<path d="M23.2064 78.463L22.9138 77.3413L54.1435 46.1116L55.0864 46.583L23.2064 78.463Z" fill="#B2CD4C"/>
<path d="M15.9896 94.2655L17.7702 92.4849H19.1844L16.0539 95.6155L15.9896 94.2655Z" fill="#B2CD4C"/>
<path d="M18.6553 103.014L18.1053 102.15L68.4037 51.8515L69.3828 52.2866L18.6553 103.014Z" fill="#B2CD4C"/>
<path d="M24.0013 107.668L23.0175 107.238L75.3763 54.8788L76.5077 55.1616L24.0013 107.668Z" fill="#B2CD4C"/>
<path d="M31.4796 110.19L30.9011 109.354L81.7736 58.4815L82.5051 59.1643L31.4796 110.19Z" fill="#B2CD4C"/>
<path d="M35.5705 116.099L34.992 115.263L88.7032 61.5519L89.7039 61.8152L89.7898 61.8796L35.5705 116.099Z" fill="#B2CD4C"/>
<path d="M37.8997 123.77L37.602 122.653L96.5231 63.732H97.0519L98.1587 63.5107L37.8997 123.77Z" fill="#B2CD4C"/>
<path d="M38.8534 132.816L38.7976 131.458L157.639 12.6158H159.054L38.8534 132.816Z" fill="#B2CD4C"/>
<path d="M39.2481 142.421L39.1923 141.063L171.641 8.61391L172.129 9.10156L172.281 9.38857L39.2481 142.421Z" fill="#B2CD4C"/>
<path d="M39.9919 151.677L39.7348 150.52L175.483 14.7721L176.426 15.2435L39.9919 151.677Z" fill="#B2CD4C"/>
<path d="M38.0234 163.646L37.0511 163.204L182.859 17.3958L184.004 17.6651L38.0234 163.646Z" fill="#B2CD4C"/>
<path d="M47.6846 163.985L46.6561 163.599L195.083 15.1716H196.498L47.6846 163.985Z" fill="#B2CD4C"/>
<path d="M52.2663 169.403L51.0877 169.167L201.889 18.3664H203.303L52.2663 169.403Z" fill="#B2CD4C"/>
<path d="M64.7464 166.923H63.5068L63.1574 167.098L73.7661 156.489L72.7717 158.297L72.6966 158.973L64.7464 166.923Z" fill="#B2CD4C"/>
<path d="M95.6576 146.012L94.5969 145.658L223.952 16.3029L224.496 17.1733L95.6576 146.012Z" fill="#B2CD4C"/>
<path d="M103.671 147.998L103.441 147.754L102.642 147.613L231.155 19.0998L232.19 19.3248L232.253 19.4159L103.671 147.998Z" fill="#B2CD4C"/>
<path d="M108.529 153.141L107.842 152.413L236.777 23.478H237.941L238.942 22.727L108.529 153.141Z" fill="#B2CD4C"/>
<path d="M121.918 149.751L120.118 150.137L253.062 17.1936L253.769 17.9007L121.918 149.751Z" fill="#B2CD4C"/>
<path d="M146.668 145.001L144.956 145.299L268.927 21.3278L270.162 21.5078L146.668 145.001Z" fill="#B2CD4C"/>
<path d="M156.213 145.456L155.068 145.187L280.291 19.9638H281.706L156.213 145.456Z" fill="#B2CD4C"/>
<path d="M159.98 151.69L159.057 151.198L286.797 23.4579L286.821 23.478L288.262 23.4077L159.98 151.69Z" fill="#B2CD4C"/>
<path d="M165.166 156.357L164.481 155.628L297.134 22.9749L298.621 22.9024L165.166 156.357Z" fill="#B2CD4C"/>
<path d="M170.01 161.513L169.325 160.784L325.619 4.48926L326.945 4.57765L170.01 161.513Z" fill="#B2CD4C"/>
<path d="M175.056 166.467L174.329 165.779L335.259 4.85014L335.789 5.73406L175.056 166.467Z" fill="#B2CD4C"/>
<path d="M181.951 169.572L180.739 169.37L345.48 4.62889H346.894L181.951 169.572Z" fill="#B2CD4C"/>
<path d="M192.488 169.035L191.656 168.452L351.355 8.75349V10.1678L192.488 169.035Z" fill="#B2CD4C"/>
<path d="M198.581 172.942L197.687 172.674L197.539 172.57L351.816 18.2927L352.099 19.4241L198.581 172.942Z" fill="#B2CD4C"/>
<path d="M224.904 166.619L224.085 166.024L352.953 37.1561V38.5704L224.904 166.619Z" fill="#B2CD4C"/>
<path d="M237.475 164.048H236.663L233.452 166.657L354.351 45.7572L354.909 46.6143L237.475 164.048Z" fill="#B2CD4C"/>
<path d="M242.74 168.783L242.205 167.904L357.164 52.9451L357.191 54.3321L242.74 168.783Z" fill="#B2CD4C"/>
<path d="M259.686 161.837L258.707 162.131L257.589 162.52L336.02 84.0884V85.5026L268.901 152.622L266.055 154.463L265.553 155.97L259.686 161.837Z" fill="#B2CD4C"/>
<path d="M278.497 153.026L277.406 152.703L326.219 103.889L327.097 104.426L278.497 153.026Z" fill="#B2CD4C"/>
<path d="M290.574 150.949H289.16L299.516 140.592L299.609 141.914L290.574 150.949Z" fill="#B2CD4C"/>
<path d="M323.99 137.533L323.241 137.212H322.897L336.348 123.761L336.898 124.625L323.99 137.533Z" fill="#B2CD4C"/>
<path d="M330.99 140.533L330 140.108L332.129 137.979L332.187 138.17V139.336L330.99 140.533Z" fill="#B2CD4C"/>
<path d="M333.873 117.65L311.436 140.087H311.101L310.447 139.662L333.597 116.512L333.873 117.65Z" fill="#B2CD4C"/>
<path d="M364.118 77.4049L356.186 85.3368L355.189 85.4565L354.545 85.5638L363.835 76.2734L364.118 77.4049Z" fill="#B2CD4C"/>
<path d="M359.154 70.9546L360.003 71.5203L346.732 84.791L346.244 84.498L346.068 84.0409L359.154 70.9546Z" fill="#B2CD4C"/>
<path d="M357.356 62.7527L357.383 64.1398L341.872 79.6512L340.74 79.3684L357.356 62.7527Z" fill="#B2CD4C"/>
<path d="M331.12 108.989L331.664 109.859L305.243 136.279L304.712 135.934H304.175L331.12 108.989Z" fill="#B2CD4C"/>
<path d="M300.169 149.94L300.239 150.949L297.001 153.108L300.169 149.94Z" fill="#B2CD4C"/>
<path d="M355.924 25.5986L218.434 163.089H217.019L355.191 24.9176L355.924 25.5986Z" fill="#B2CD4C"/>
<path d="M214.754 165.355L214.3 166.603L212.37 167.739L214.754 165.355Z" fill="#B2CD4C"/>
<path d="M312.462 9.06138L312.06 9.42104L312.058 9.46537L312.462 9.06138Z" fill="#B2CD4C"/>
<path d="M303.476 18.0469H303.114L302.391 19.1323L303.476 18.0469Z" fill="#B2CD4C"/>
<path d="M261.434 20.235L138.488 143.182L136.986 143.282L136.96 143.295L260.2 20.055L261.434 20.235Z" fill="#B2CD4C"/>
<path d="M133.616 146.639L133.472 148.074L131.034 149.221L133.616 146.639Z" fill="#B2CD4C"/>
<path d="M240.93 19.3248H242.345L240.497 21.1725V19.7583L240.93 19.3248Z" fill="#B2CD4C"/>
<path d="M219.054 12.6158L82.4356 149.234L79.9334 150.322L216.75 13.5053L218.133 12.6158H219.054Z" fill="#B2CD4C"/>
<path d="M147.639 12.6158H149.054L125.485 36.1845L126.251 34.0042L147.639 12.6158Z" fill="#B2CD4C"/>
<path d="M139.83 10.4254L140.802 10.867L128.367 23.3025L129.31 20.9454L139.83 10.4254Z" fill="#B2CD4C"/>
<path d="M132.952 7.30271L133.925 7.74434L132.593 9.07668L132.807 7.44813L132.952 7.30271Z" fill="#B2CD4C"/>
<path d="M62.5471 47.708L63.3132 48.3562L24.0165 87.6528L24.2186 86.0365L62.5471 47.708Z" fill="#B2CD4C"/>
<path d="M21.7078 89.9616L20.697 90.5681V90.9724L21.7078 89.9616Z" fill="#B2CD4C"/>
<path d="M10.0531 48.3971L4.30253 52.5503H1.42725V56.384L2.38568 57.023H5.58044L10.0531 59.8983L14.8453 62.7736L17.4011 68.8436L23.1516 76.1916L25.0685 83.5395L24.4296 88.6512L21.2348 90.568V92.4849H16.4426L16.7621 99.1939L21.2348 106.222L26.3464 108.459H30.8191L36.5697 116.765L39.1255 126.349L40.0839 149.671L41.3618 155.422L36.5697 158.617L35.9307 162.45L39.445 164.048L45.8345 163.089L48.3903 164.048L49.9877 168.84L53.1824 169.479L56.6967 167.562L60.2109 168.84L64.0446 166.923H72.351L73.3095 158.297L76.8237 151.908L84.1717 148.713L88.3249 148.074L90.2417 145.518H94.7144L98.5481 146.796L103.979 147.754L109.41 153.505H114.202L118.356 150.63L122.828 149.671L128.579 150.63L134.01 148.074L134.329 144.879L137.524 143.282L142.316 142.962L144.233 145.518L151.581 144.24L157.012 145.518L157.332 149.991L162.124 152.546L172.028 163.089L178.098 168.84L183.848 169.798L187.682 168.201H191.835L198.225 172.673L201.42 173.632L209.406 169.798L214.838 166.603L216.115 163.089H220.588L227.617 168.201H232.089L237.201 164.048H240.396L244.868 171.396H248.383L251.897 164.687L259.245 162.131L262.44 161.172L265.634 157.339L266.593 154.463L272.024 150.949L280.65 153.505L287.039 150.949H292.47L296.943 153.505L300.777 150.949L299.818 137.212L300.777 135.934H305.249L311.639 140.087H316.751L320.265 137.212H323.779L332.724 141.045V138.17L331.766 134.975L332.724 131.781L336.558 129.544L337.517 124.752L335.28 121.238L332.724 110.695L329.53 105.583L323.779 102.069L324.737 99.8328L327.932 97.916L333.683 93.7628L336.558 89.6096V81.9422L340.072 79.0669L345.184 80.3448L346.781 84.498L349.976 86.4148L355.727 85.4564L363.714 84.498L364.672 77.4695L364.033 74.9137L361.797 72.3579L357.963 69.8021H354.449V68.5241L357.963 66.2878L357.644 49.9945L353.49 43.605V36.5765L357.963 29.8675V26.9922L353.49 22.839L351.893 16.4495V1.43408L349.337 4.62885H341.67L339.114 7.18466H337.197L335.28 3.98989L328.252 4.62885L318.667 3.98989L312.597 9.42099L312.278 16.4495L311 18.0469H303.652L300.457 22.839L287.359 23.478L283.206 19.9637H280.011L274.899 24.1169H271.065V21.5611L255.731 19.3248L250.938 14.5326H248.383L247.105 16.4495L245.507 19.3248H241.035V21.5611L238.479 23.478H235.604L232.728 19.3248L225.38 17.7274L223.783 15.1716L221.866 12.6158H218.671L209.726 18.3663H200.142V17.0884L197.905 15.1716H190.557L184.807 17.7274L179.376 16.4495L175.542 14.5326L172.667 9.10152L170.111 6.54571L169.472 9.10152L159.888 12.6158H145.192L133.371 7.24856L132.413 14.5326L128.579 24.1169V28.9091L124.426 40.7297L120.592 49.0361L114.522 56.0646L107.493 57.3425L100.784 63.093L97.5897 63.732H92.7975L90.2417 61.8151L84.1717 60.2178L79.3795 55.7451L75.5458 54.7867L66.9199 50.9529L62.7667 47.4387L57.9746 47.7582L52.863 45.2024L47.4319 46.7997L43.5981 44.8829L40.7229 44.2439L37.2086 41.0492L34.0139 41.6881L32.097 41.0492H29.2217L26.9854 43.605H24.1101L22.5127 41.6881L18.679 43.9245L18.3595 46.1608L17.4011 46.7997L15.4842 48.3971H10.0531Z" stroke="#B2CD4C" stroke-linecap="round"/>
<circle cx="254.878" cy="63.395" r="4" fill="white"/>
<ellipse cx="254.878" cy="63.395" rx="2.00027" ry="2" fill="#1B242D"/>
</svg>
