<svg width="234" height="172" viewBox="0 0 234 172" fill="none" xmlns="http://www.w3.org/2000/svg">
<path d="M50.3755 14.8797L57.4988 7.75643L60.001 6.66852L49.6566 17.0129L49.7717 15.9777L50.3755 14.8797Z" fill="#F39452"/>
<path d="M49.8975 26.7721L49.4261 25.8292L71.8366 3.41862L72.8974 3.7722L49.8975 26.7721Z" fill="#F39452"/>
<path d="M55.205 31.4646L54.4035 30.8517L79.9135 5.34178L80.4414 5.43494L80.8267 5.84287L55.205 31.4646Z" fill="#F39452"/>
<path d="M45.5935 51.076L45.9379 50.4811V49.3173L84.9969 10.2584L85.6838 10.9857L45.5935 51.076Z" fill="#F39452"/>
<path d="M29.7299 76.9397L29.1315 76.1237L97.5252 7.73009L99.2905 7.3518L99.3139 7.35569L29.7299 76.9397Z" fill="#F39452"/>
<path d="M30.302 84.9532L31.881 83.7067V83.3743L108.637 6.61785L110.472 5.75442L110.58 4.67514L114.315 0.940376L115.83 0.839355L24.7621 91.9074L25.3907 89.8646L30.302 84.9532Z" fill="#F39452"/>
<path d="M11.0604 104.195L21.0058 94.2494H21.0188L23.5879 93.0816L2.07165 114.598L1.3645 113.891L6.6294 108.626H6.64233L10.7955 105.431L11.0604 104.195Z" fill="#F39452"/>
<path d="M3.82694 122.843L3.88843 121.367L122.343 2.91204L124.055 2.61429L3.82694 122.843Z" fill="#F39452"/>
<path d="M6.9405 129.729L5.94217 129.313L132.327 2.92854L133.472 3.19793L6.9405 129.729Z" fill="#F39452"/>
<path d="M14.4024 132.267H13.0319L13.001 132.254L136.266 8.98954L137.188 9.48146L14.4024 132.267Z" fill="#F39452"/>
<path d="M21.9388 134.584L21.0902 134.019L141.636 13.4733L142.321 14.2025L21.9388 134.584Z" fill="#F39452"/>
<path d="M28.8202 137.703L27.0916 138.017L146.479 18.6295L147.164 19.3588L28.8202 137.703Z" fill="#F39452"/>
<path d="M41.4661 135.057L41.1458 135.142L40.163 134.946L151.493 23.6153L152.22 24.3034L41.4661 135.057Z" fill="#F39452"/>
<path d="M58.4594 128.064L55.8075 129.301L158.013 27.0959L159.225 27.2979L58.4594 128.064Z" fill="#F39452"/>
<path d="M69.4324 127.091L67.1695 127.939L168.844 26.2644L169.676 26.8467L69.4324 127.091Z" fill="#F39452"/>
<path d="M80.7056 125.818L80.1219 125.558L79.1509 125.958L174.739 30.3697L175.827 30.6961L80.7056 125.818Z" fill="#F39452"/>
<path d="M89.8516 126.672L88.7909 126.318L179.384 35.7247L179.479 36.1047L179.78 36.7434L89.8516 126.672Z" fill="#F39452"/>
<path d="M94.5192 132.004L93.8873 131.222L182.584 42.5246L183.089 43.4338L94.5192 132.004Z" fill="#F39452"/>
<path d="M99.3839 137.139L98.6223 136.487L191.75 43.3588L193.217 43.1332L193.316 43.2075L99.3839 137.139Z" fill="#F39452"/>
<path d="M103.81 142.713L103.274 141.835L197.734 47.3752L198.009 47.9253L198.496 48.0269L103.81 142.713Z" fill="#F39452"/>
<path d="M107.212 149.311L106.758 148.351L205.602 49.5072L205.676 49.5227L206.416 50.1069L107.212 149.311Z" fill="#F39452"/>
<path d="M110.427 156.096L109.972 155.137L211.214 53.8947L211.746 54.3148L211.931 54.5921L110.427 156.096Z" fill="#F39452"/>
<path d="M111.442 165.082L112.07 163.895L111.784 163.325L138.469 136.64L138.105 138.418L111.442 165.082Z" fill="#F39452"/>
<path d="M118.757 167.766L117.5 167.609L136.095 149.014L136.272 150.251L118.757 167.766Z" fill="#F39452"/>
<path d="M128.99 167.533L127.672 167.437L137.451 157.657L138.138 158.385L128.99 167.533Z" fill="#F39452"/>
<path d="M137.831 168.692L136.789 168.32L142.309 162.8L142.739 163.256L143.014 163.51L137.831 168.692Z" fill="#F39452"/>
<path d="M146.852 169.671L144.337 171.243L144.004 171.105L146.893 168.216V169.631L146.852 169.671Z" fill="#F39452"/>
<path d="M216.507 110.016L215.197 109.911L227.206 97.9026L227.72 98.8027L216.507 110.016Z" fill="#F39452"/>
<path d="M227.123 109.4L225.547 109.561L231.028 104.081L231.928 104.595L227.123 109.4Z" fill="#F39452"/>
<path d="M229.048 87.4747L207.248 109.276L205.938 109.171L230.021 85.0881L229.048 87.4747Z" fill="#F39452"/>
<path d="M230.471 74.6374L231.179 75.3446L198.908 107.615L197.833 107.276L230.471 74.6374Z" fill="#F39452"/>
<path d="M225.471 69.6374L226.179 70.3446L189.495 107.028H188.08L225.471 69.6374Z" fill="#F39452"/>
<path d="M221.056 64.0528L221.69 64.8331L176.939 109.584L174.651 110.458L221.056 64.0528Z" fill="#F39452"/>
<path d="M216.178 58.9311L217.013 59.5096L160.29 116.233L157.798 117.311L216.178 58.9311Z" fill="#F39452"/>
<path d="M232.092 108.945L233.37 105.111L231.133 103.833L227.299 97.1245L228.258 90.735L231.772 82.1091L233.05 77.9559L231.772 75.4001L225.383 69.0106L224.424 65.4963L222.507 65.1768L218.354 60.0652L214.201 57.1899L212.284 54.3146L206.214 49.5225L198.547 47.9251L197.588 46.0082L193.754 43.133L189.601 43.7719L187.045 45.0498L184.17 44.4109L182.573 41.5356L180.017 36.1045L179.059 32.2708L178.42 31.3123L175.225 30.3539L168.835 25.8812H164.682L160.848 27.4786L155.098 26.5202L149.028 20.7696L139.124 10.2269L134.332 7.67106L134.012 3.19839L128.581 1.92048L121.233 3.19839L119.316 0.642578L114.524 0.962055L111.329 2.55944L111.01 5.7542L105.579 8.31001L99.8283 7.35158L95.3557 8.31001L91.2025 11.1853H86.4103L80.9792 5.43473L75.5481 4.4763L71.7144 3.19839H67.2417L65.3249 5.7542L61.1717 6.39316L53.8237 9.58792L50.3095 15.9775L49.351 24.6033L50.9484 27.7981L56.3795 31.9513V38.3408L54.4627 40.2577L47.7537 40.5771L46.4758 41.855V50.4809L42.9615 56.551L32.7383 65.8158L28.9045 69.969V75.0806L32.4188 79.8728V83.7065L26.3487 88.4986L25.0708 92.6518L21.5566 94.2492H17.7229L15.806 98.4024L12.2918 100.958L11.3333 105.431L7.18014 108.626H2.388L1.42957 113.418L4.62433 116.613L4.30485 124.28L3.02695 127.874L13.5697 132.267H19.0008L27.6266 138.017L31.1409 137.379L35.2941 133.864L41.6836 135.142L46.4758 133.864L47.7537 130.989L54.7821 130.031L59.5743 127.794L61.1717 128.114H67.2417L72.3534 126.197L75.2286 127.794L80.6597 125.558L83.535 126.836L87.0493 125.558L90.883 126.836L97.592 135.142L102.065 138.976L105.579 144.726L111.329 156.867V161.339L112.607 163.895L109.732 169.326L113.885 167.09L121.553 168.048L123.47 167.09L136.568 168.048L141.041 169.646L144.875 171.243L147.43 169.646V167.09L143.277 163.256L137.846 157.506L136.568 148.56L139.443 134.503L145.194 126.836L149.667 124.599L154.778 118.849L166.599 113.737L184.17 107.028H197.588L203.658 108.945L219.632 110.223L232.092 108.945Z" stroke="#F39452" stroke-linecap="round"/>
<circle cx="142.195" cy="111.092" r="4" fill="white"/>
<ellipse cx="142.196" cy="111.092" rx="2.00027" ry="2" fill="#1B242D"/>
</svg>
